<?xml version="1.0" encoding="utf-8"?>
<!-- Generator: Adobe Illustrator 25.2.0, SVG Export Plug-In . SVG Version: 6.00 Build 0)  -->
<svg version="1.1" id="Layer_1" xmlns="http://www.w3.org/2000/svg" xmlns:xlink="http://www.w3.org/1999/xlink" x="0px" y="0px"
	 viewBox="0 0 1249 900" style="enable-background:new 0 0 1249 900;" xml:space="preserve">
<path d="M473.6,996.5c-4.7-0.8-9.1-1.4-13.3-2.4c-5.9-1.3-11.7-2.8-17.6-4.2c-4.9-1.2-9.9-2.2-14.8-3.5c-6.6-1.7-13.2-3.5-19.8-5.5
	c-5-1.6-10-3.3-14.8-5.3c-8.7-3.6-17.5-7.2-25.8-11.5c-5.9-3.1-11.1-7.4-16.7-11.1c-4.1-2.7-6.5-6-6.5-11.2c0-4.2-1.2-8.3-1.4-12.5
	c-0.4-8.2-1-16.4-0.7-24.6c0.3-10,2.4-19.4,10.3-26.7c2.5-2.3,3.6-6.1,5.9-8.7c3.4-3.7,7.7-6.7,11-10.5c5-5.7,5.7-7,2.7-13.2
	c-3.2-6.9-6.1-14-8.2-21.4c-3.8-13.5,2.5-28.9,14.1-36.6c0.8-0.5,1.6-1.1,2.4-1.6c5.5-3.3,5.3-3.7,0.2-7.6c-9.2-7-18.3-14.1-27-21.6
	c-7.7-6.6-15.4-13.4-22.3-20.8c-10.9-11.7-22.2-23.1-31.3-36.4c-8.7-12.7-18.3-24.8-26.6-37.8c-5.7-8.9-9.8-18.9-14.9-28.2
	c-7.2-13.1-12.7-27-18-40.9c-3.2-8.4-6-16.9-8.5-25.5c-3-10.3-6-20.6-8.2-31c-1.7-7.8-2.1-15.9-3.2-23.8c-1.4-9.8-3.1-19.6-4.6-29.4
	c-0.2-1,0-2.1,0-3.1c0-16.2-0.4-32.5,0.1-48.7c0.3-10.2,1.7-20.3,3-30.4c1.3-10.2,2.8-20.4,4.7-30.6c1-5.5,3.1-10.8,4.5-16.3
	c1.4-5.5,2.4-11.1,4-16.6c1.8-6.1,4.4-11.9,5.9-18c2.7-10.8,7.8-20.5,12-30.6c4.3-10.2,9.4-20.1,14.7-29.9c9-16.8,19.1-33,30.9-47.9
	c8.9-11.3,18.1-22.3,27.7-33c6.9-7.8,14.5-15,22.1-22.1c8.8-8.2,17.8-16.3,27.2-24c6-4.9,12.9-8.8,19.2-13.4
	c15.8-11.4,32.6-21,50-29.6c9.3-4.6,18.9-8.5,28.5-12.3c11.2-4.5,22.3-9,33.8-12.8c8.5-2.8,17.3-4.6,26-6.3
	c10.7-2.1,21.6-3.1,32.1-5.7c9.6-2.4,19.3-3.1,29-3.5c19.2-0.9,38.5-1.3,57.7-0.7c10.5,0.3,20.9,2.9,31.4,4.4
	c8.9,1.3,17.8,2.4,26.6,4c4.7,0.8,9.3,2.5,13.9,3.8c8.4,2.3,17.1,4.2,25.3,7.1c12.3,4.2,24.5,8.7,36.4,14
	c12.6,5.5,24.9,11.6,36.9,18.2c10.8,6,20.9,13.1,31.4,19.5c12.3,7.5,23.1,17,34,26.3c6.8,5.8,13.8,11.4,20,17.9
	c9.5,9.8,18.2,20.2,27.4,30.3c12,13.1,22.1,27.7,31.6,42.7c7.2,11.3,13.5,23.2,19.6,35.2c5.7,11.4,10.9,23.1,15.7,34.9
	c3.3,8,5.6,16.5,8.4,24.8c1.1,3.3,2.8,6.4,3.7,9.7c1.8,6.8,3.2,13.7,4.8,20.5c1.3,5.5,2.9,10.9,4.3,16.4c0.5,1.8,0.9,3.5,1.1,5.3
	c0.6,4.3,1.3,8.6,1.5,12.9c0.6,15.9,3.9,31.5,3.2,47.5c-0.5,12.3,0.3,24.7-0.2,37c-0.4,10.2-1.3,20.4-3.2,30.4
	c-1.5,7.6-1.4,15.4-4.1,23c-3.1,8.8-3.7,18.6-5.8,27.8c-0.8,3.8-2.8,7.3-4.1,11c-1,2.9-1.7,6-2.8,8.9c-5.1,13-9.8,26.2-15.6,38.8
	c-6.6,14.3-13.9,28.3-21.4,42.2c-4,7.3-9.1,14.1-13.9,21c-5.3,7.6-10.8,15.2-16.4,22.6c-3.8,5-7.7,9.8-12,14.4
	c-10.7,11.2-21.3,22.7-32.6,33.2c-8.4,7.9-17.9,14.5-26.9,21.7c-2.4,1.9-4.9,3.8-7.3,5.8c-1.7,1.4-2.6,2.4,0.2,4.4
	c5.5,4,11.8,7.3,15.1,14c3.4,6.9,5.2,14,3.5,21.7c-1,4.1-1.4,8.4-2.6,12.5c-1,3.3-2.6,6.4-4,9.6c-0.5,1.1-0.9,2.2-1.4,3.3
	c-1.2,2.9-4,5.5-0.8,8.9c2.2,2.3,3.8,5.2,6.3,6.9c6.4,4.5,10.1,11.2,14.6,17.2c0.8,1.1,1.6,2.2,2.5,3.2c5.1,5.4,6.2,11.9,6,18.9
	c-0.1,3.8,0.4,7.7,0.4,11.5c0,2.7-0.4,5.4-0.4,8.1c-0.1,4.8-0.3,9.6,0,14.3c0.6,9.5-3.2,16-11.3,21.2c-8.2,5.2-16.1,10.6-25.1,14.2
	c-8,3.2-16.2,5.7-24.3,8.6c-6.2,2.2-12.2,4.9-18.5,6.7c-6.3,1.8-12.8,2.7-19.2,4.2c-4.4,1-8.8,2.4-13.2,3.6
	c-2.7,0.7-5.4,1.4-8.2,1.8c-7.8,0.9-15.6,1.5-23.4,2.4c-3.3,0.4-6.6,1.8-9.9,2.2c-7.3,1-14.6,1.9-21.9,2.3
	c-10.3,0.5-20.7,0.5-31,0.9c-14.5,0.5-29,1-43.5,1.5c-8.8,0.3-17.6,0.5-26.4,0.8c-3,0.1-6,0-9,0c-14-0.2-27.9-0.5-41.9-0.8
	c-6.7-0.2-13.5-0.5-20.2-0.8c-9.7-0.3-19.4-0.2-29.1-0.9c-8.9-0.6-17.7-1.9-26.6-3C489.2,998.7,481.6,997.6,473.6,996.5z
	 M850.9,129.1c-3.7-2.6-7.4-5.3-11.2-7.7c-6.3-3.8-12.6-7.4-19.1-10.9c-12.7-6.9-25.3-14.2-38.4-20.4c-9.8-4.7-20.1-8.1-30.3-11.9
	c-7.2-2.6-14.5-5-21.8-7.1c-6.4-1.8-12.9-3.1-19.3-4.7c-8.2-2-16.3-4.1-24.8-4.8c-7.5-0.6-14.9-2.8-22.4-3.6
	c-8.5-0.9-17.1-1.3-25.7-1.6c-7.9-0.3-15.8-0.2-23.7,0c-9.2,0.1-18.4,0.5-27.5,0.7c-0.5,0-1-0.1-1.5,0c-9.8,1.5-19.6,3.4-29.4,4.6
	c-8.9,1.1-17.5,3-26,5.4c-5.2,1.5-10.7,2.1-15.9,3.7c-10.8,3.3-21.7,6.6-32.3,10.7c-9.3,3.6-18.3,8.2-27.3,12.5
	c-9,4.3-18.2,8.6-26.9,13.5c-9.1,5-17.9,10.5-26.5,16.2c-8.3,5.6-16.4,11.7-24.3,17.9c-5.5,4.3-10.8,9-16,13.6
	c-7.2,6.3-14.6,12.5-21.4,19.2c-5.5,5.5-10.4,11.6-15.4,17.6c-6.8,8.2-13.7,16.4-20.2,24.9c-5.3,6.9-10.2,14-15,21.2
	c-3.7,5.6-7.1,11.5-10.4,17.3c-4.8,8.5-9.6,16.9-13.9,25.6c-3.7,7.5-6.7,15.3-9.9,23c-3,7.4-6.2,14.7-8.7,22.3
	c-3,9.1-5.3,18.4-7.8,27.7c-1.5,5.8-2.8,11.8-4.1,17.7c-1.3,6.4-2.6,12.9-3.7,19.4c-0.7,4-1,8.1-1.5,12.1
	c-0.7,5.5-1.8,10.9-2.3,16.4c-0.5,5.8-0.8,11.6-0.8,17.5c0.1,9.7,0.5,19.4,0.7,29.1c0.3,10-0.7,20.1,2.1,30
	c1.5,5.4,1.1,11.4,1.8,17.1c0.6,5.4,1.3,10.8,2.4,16.1c1,4.7,2.6,9.2,3.8,13.9c1.4,5.6,2.2,11.4,3.9,17c3.3,10.4,6.9,20.6,10.6,30.8
	c2.7,7.4,5.4,14.8,8.8,21.9c4.8,10.2,10,20.1,15.3,30c5.2,9.7,10.9,19.2,16.4,28.8c0.2,0.4,1.8,0.4,1.8,0.4c0.4-1.5,1-3,1-4.4
	c0-3.1-0.3-6.3-0.5-9.4c-0.2-2.4,0.2-5.2-0.9-7.1c-3.6-6.5-8.1-12.6-11.7-19.2c-5.8-10.6-11.3-21.4-16.8-32.1
	c-2.6-5-5.1-10-7.3-15.2c-1.5-3.6-2.5-7.5-3.5-11.3c-0.2-0.7,0.7-1.7,1.1-2.6c0.5,0.7,1,1.4,1.4,2.1c2.7,6,5.1,12.1,8,18
	c5.4,11.1,10.4,22.4,16.8,32.9c9,14.5,18.9,28.4,28.9,42.2c7,9.6,14.5,18.9,22.4,27.8c7.2,8.1,15,15.5,22.9,23
	c7.1,6.8,14.4,13.5,22,19.7c9.7,7.8,19.6,15.2,29.8,22.4c14.6,10.2,30.5,18.2,46.3,26.3c5.6,2.9,11.4,5.5,17.3,7.6
	c3.8,1.4,7.3,3.4,11.8,3.6c4.4,0.2,8.6,3.2,12.9,5c0.5,0.2,0.8,0.8,1.1,1.3c-0.6,0.1-1.3,0.4-1.8,0.3c-3.6-1.2-7.2-2.6-10.8-3.8
	c-1-0.4-2.1-0.6-3.2-0.8c-3.7-0.5-7.1-3-11.1-1.6c-0.3,0.1-0.8-0.4-1.2-0.7c-2.7-1.6-5.3-3.3-8-4.9c-0.5-0.3-1.2,0-1.8,0
	c0.1,0.7-0.2,1.7,0.2,2.1c4.1,3.7,8.2,7.4,12.5,10.9c0.7,0.6,2.2,0.3,3.3,0.4c-0.1-0.6-0.2-1.2-0.3-1.8c-0.2-0.9-0.4-1.8-0.6-2.6
	c1,0.4,2,0.7,2.9,1.1c4.4,1.9,8.6,4.2,13.1,5.6c4.5,1.5,9.2,2.3,13.8,3.2c4.7,0.9,9.4,1.6,14.1,2.3c3.8,0.6,7.6,1.3,11.4,1.5
	c3.5,0.1,8,0.9,10.3-0.9c5.4-4.1,10.5-8,17.2-10.1c5.6-1.7,10.8-1.4,16.1-0.4c0.9,0.2,1.5,2.1,2.3,3.3c-1.8,0.1-3.5,0.3-5.3,0.2
	c-0.7,0-1.4-1.2-2.1-1.3c-5.8-0.6-11.3,1-16.1,3.9c-4.1,2.5-7.9,5.9-11.1,9.5c-3.9,4.5-6,10-4.2,16.2c1.4,5.1-0.5,8.2-5.6,9
	c-3.8,0.5-7.6,1.1-11.4,1.5c-4.9,0.6-8.3,4.3-7.8,8c0.3,2-0.1,4.1-0.5,6.1c-0.3,1.4-1.4,2.6-1.6,3.9c-0.2,0.8,0.5,1.8,0.9,2.7
	c0.7-0.3,1.5-0.6,2.1-0.9c2.6-1.4,5.3-2.8,7.9-4.3c3.9-2.1,8.2-2.5,12.6-2.4c5.5,0.2,10.9-0.1,16.4,0.1c3.4,0.2,6.8,1,10.2,1.5
	c1.3,0.2,1.8,0.2,1.3-1.8c-2.2-8.6-7.7-12.8-16.1-13.6c-3.3-0.3-3.1-1.7-2.2-4.3c0.9-2.3,1.4-4.9,1.6-7.4c0.3-2.8,0-5.7,0.1-8.5
	c0.1-1,0.7-2,1.1-3c0.1-0.3,0.5-0.6,0.8-0.8c0.1,0.3,0.4,0.7,0.4,1c0,6,0.3,12-0.1,17.9c-0.2,2.5,0.4,3.3,2.4,2.7
	c1.4-0.4,3.5-1.5,3.8-2.6c0.5-2.4,1-2.1,2.9-1.3c2.4,1.1,6.5-0.9,6.6-2.9c0.1-2.7,0.1-5.5,0-8.3c0-1.1-0.4-2.3-0.6-3.4
	c-0.3,1.1-0.7,2.1-0.8,3.2c-0.1,0.8,0,1.5-0.1,2.3c0,0.2-0.5,0.6-0.7,0.6c-0.3,0-0.7-0.3-0.8-0.5c-0.3-1.8-1.3-4-0.7-5.4
	c1.9-4.4,4.2-8.6,6.7-12.7c0.9-1.4,2.9-2,4.5-2.9c-0.8,1.5-1.6,3.1-2.4,4.5c-0.2,0.4-0.8,0.7-1.1,1.1c-0.9,1.9-1.6,3.6,1.7,3.6
	c2.6,0,5.2,0.6,7.8,0.7c9.4,0.3,18.9,0.8,28.3,0.7c20.1-0.1,40.3-0.4,60.4-0.8c4.2-0.1,8.3-0.4,12.4-0.8c0.8-0.1,1.9-0.6,2.1-1.2
	c0.2-0.6-0.3-1.7-0.8-2.3c-1.7-2.1-3.6-4.2-5.4-6.3c-0.8-0.9-1.5-2-2.2-3c1.6-0.9,3.1-2.5,4.7-2.6c10.3-0.3,19.7,1.9,27.3,9.7
	c1.4,1.4,3.9,2.5,5.8,2.4c5.1-0.1,10.2-0.8,15.2-1.4c5.8-0.7,11.5-1.5,17.2-2.3c2.5-0.3,5-0.4,7.4-0.8c6.3-1.2,12.6-2.5,18.9-3.8
	c7.2-1.5,14.5-3,21.7-4.7c6.3-1.4,12.7-2.9,19-4.7c6.1-1.8,12.2-3.7,15.6-9.9c2.6-4.9,5.5-9.6,8.1-14.5c0.3-0.6,0.3-1.7-0.1-2.2
	c-0.3-0.4-1.4-0.5-2.1-0.4c-1,0.3-1.9,1-2.8,1.5c-6.8,3.9-13.4,8.1-20.4,11.5c-8.1,4-16.5,7.4-24.9,10.9c-4.7,2-9.5,3.9-14.4,5.4
	c-4.9,1.5-9.9,2.3-14.8,3.4c-1.3,0.3-2.6,0.6-4,0.9c1.1-1.1,2.1-2.2,3.2-3.2c0.3-0.3,0.9-0.2,1.4-0.3c4.5-1,9.1-1.7,13.4-3.2
	c3.7-1.3,7-3.7,10.6-5.3c9-4.1,18.3-7.5,27.1-12.1c12.9-6.8,25.4-14.2,37.6-22.4c17.9-12,33.9-26.2,49.6-40.8
	c8-7.5,15.5-15.7,23-23.7c3.6-3.8,7.1-7.8,10.4-11.9c6.5-8.3,13.1-16.7,19.1-25.4c7.2-10.4,13.9-21,20.5-31.8
	c3.9-6.4,7.2-13.2,10.5-20c4.4-9,8.5-18.1,12.8-27.2c0.6-1.3,1.6-2.5,2.4-3.8c0.1,1.8,0.3,3.5,0.4,5.3c0,0.1-0.2,0.2-0.3,0.3
	c-2.6,6.4-4.7,13.1-7.8,19.2c-6.4,12.8-13.2,25.5-20.2,38.1c-5.1,9.1-10.9,17.9-16.4,26.9c-0.7,1.1-1.4,2.2-2.4,2.8
	c-4.8,3.4-6.8,8.1-6.9,13.8c-0.1,4,0.7,8-2,11.6c-0.5,0.7-0.4,2-0.2,2.9c0.1,0.8,0.7,1.5,1.1,2.2c0.7-0.5,1.5-0.8,1.9-1.4
	c3.3-4.5,4.9-9.4,4.8-15.1c0-3,1-6,1.8-8.9c0.3-1,1.5-1.6,2.3-2.4c0.1,1.2,0.3,2.5,0.2,3.6c-0.4,2.9-1,5.8-1.3,8.7
	c-0.1,0.7,0.7,1.5,1,2.3c0.5-0.5,1.2-0.9,1.6-1.5c3.3-5.2,6.6-10.4,9.7-15.7c7.1-12.5,14.2-25,20.8-37.8c4.6-8.8,8.8-17.8,12.4-27
	c4.3-11,7.8-22.3,11.6-33.5c1.7-5,3.5-10,4.7-15.1c1.4-6.1,2-12.3,3.3-18.4c1.2-5.6,3.6-11.1,4.4-16.7c1.5-10.9,2.3-21.8,3.2-32.8
	c0.5-5.8,0.8-11.6,0.8-17.5c-0.1-10-0.3-19.9-0.8-29.9c-0.6-13.2-1.5-26.4-2.3-39.7c-0.2-2.8-1-5.5-1.5-8.3
	c-1.3-6.7-2.6-13.4-3.9-20.1c-1.1-5.5-1.8-11.1-3.4-16.4c-2.2-7.3-5-14.5-7.4-21.7c-3.1-8.9-5.7-18-9.3-26.7
	c-3.9-9.5-8.7-18.6-13-27.9c-6.6-14.4-14.7-27.9-23.4-41c-5.2-7.7-10.6-15.3-16.3-22.6c-5.1-6.6-10.6-12.9-16.1-19.2
	c-6.7-7.7-13.4-15.5-20.6-22.8c-5.9-6-12.5-11.3-19-16.7C870.4,144.9,860.8,137.2,850.9,129.1z M583.5,870.8
	c0.6-0.1,1.4-0.5,1.9-0.3c0.9,0.3,1.6,0.9,2.4,1.4c-0.1-1.3,0-2.6-0.2-3.9c-0.2-1.7-1.4-3.7-0.8-4.9c3.2-5.9,6.8-11.7,10.3-17.4
	c0.3-0.5,1.3-0.5,2-0.8c0.2,0.6,0.5,1.2,0.7,1.9c0.2,1,0.1,2.1,0.5,2.9c2.7,4.2,7.9,5.4,12.9,3.1c4.3-1.9,7.2-7.2,5.8-11.3
	c-3.5-10.2-14.6-14.8-24.3-8.7c-7.5,4.7-13.4,11.1-16.7,19.6c-0.2,0.5-0.9,0.8-1.4,1.2c-0.3-0.4-0.9-0.9-0.8-1.3
	c0.5-3.5-1.8-5.6-4-7.7c-1.5-1.4-3-3.9-4.7,0c-0.1,0.2-1.7,0-2.5-0.2c-2.5-0.7-5-1.8-7.5-2.3c-0.8-0.2-1.8,1-2.8,1.6
	c0.6,0.5,1.3,1.1,1.9,1.6c1.1,1.1,2.2,2.1,3.3,3.2c4.1,4.2,4.3,9.9,5.4,15.2c0.9,4.3,1.4,8.7,2.4,13c1.4,6,2.7,12,4.7,17.8
	c1.6,4.7,4.3,9.1,6,13.7c2.9,7.9,7.8,14.2,14.6,19c1.4,1,3.2,1.3,4.8,1.9c-0.8-1.4-1.8-2.8-2.5-4.3c-0.5-0.9-0.7-1.9-1.1-2.9
	c1,0.3,2,0.4,2.9,0.9c0.7,0.4,1,1.4,1.6,2c2.2,2.1,4.2,4.4,6.6,6.1c4,2.9,8.2,5.5,12.6,7.9c1.6,0.9,4.2,1.4,5.7,0.7
	c4.6-2.1,9.2-4.4,13-7.6c5.8-4.9,10.9-10.8,16.4-16.1c0.6-0.6,1.7-0.7,2.6-1c0,1,0.4,2,0,2.8c-0.3,0.7-1.3,1.1-1.9,1.8
	c-2.5,2.6-5.1,5.2-7.5,7.8c-0.4,0.4-0.1,1.4-0.1,2.1c0.4-0.1,1,0,1.3-0.2c3.4-2.5,7.1-4.7,9.9-7.7c2.7-2.9,4.5-6.6,6.4-10.1
	c2.2-4.2,4.7-8.4,6.1-12.9c2.5-7.7,4.3-15.5,6.2-23.4c1.1-4.5,1.9-9.1,2.4-13.7c0.7-6.3,3.1-11.5,7.8-15.8c0.8-0.7,1.5-1.6,2.2-2.4
	c-1.4-0.3-2.8-1-4.2-0.9c-1.1,0-2.2,0.9-3.2,1.4c-1.9,1-3.7,1.3-5.3-0.7c-0.4-0.5-1.6-0.9-2.3-0.7c-2.4,0.7-5.7,6.4-5.8,9.2
	c0,1-0.4,2.1-0.6,3.1c-0.8-0.9-1.9-1.6-2.3-2.6c-2.5-6.3-6.8-11.3-11.9-15.5c-3.9-3.3-7.9-6.2-13.8-6c-6.8,0.2-10.7,3.7-13.6,8.8
	c-2,3.6-1.3,6.9,0.9,10.7c2.2,3.8,5.1,4.6,8.3,4.5c5.6-0.2,8.2-2.7,9-7c0.1-0.7,0.6-1.3,0.9-1.9c0.5,0.4,1.3,0.6,1.6,1.2
	c4.4,7.2,8.6,14.5,12.9,21.7c0.6,1,1.2,2.1,1.8,3.2c0.2-1.2,0.4-2.3,0.5-3.5c0.1-0.8,0.2-1.6-0.1-2.3c-1.8-4.3-3.8-8.5-5.7-12.7
	c-0.3-0.7,0-1.5,0-2.3c0.6,0.4,1.3,0.6,1.8,1.1c4.3,4.3,5.6,10,6.1,15.6c0.4,4.6-0.9,9.3-1.5,14c-0.2,1.3-1,2.4-1.3,3.7
	c-2.5,9.2-7.2,17.3-13.5,24.1c-7.9,8.4-17.4,14.4-30,11.9c-15.5-3.1-24.4-13.7-30.7-27c-2.7-5.6-4.1-11.7-6.1-17.6
	c-2.5-7.5,1.7-20.3,6.2-24.8c0.4-0.4,1.2-0.6,1.8-0.8c-0.2,0.6-0.3,1.4-0.6,1.9c-4.1,5.6-4.1,12.5-6,18.8c-0.2,0.7,0.3,1.6,0.4,2.4
	C582.3,872.9,582.9,872.2,583.5,870.8z M665.1,930.8c2,0.3,4,0.3,5.9,0.8c3.3,0.9,7.2,0.3,9.7,3.8c3.8,5.3,8.5,10.1,7.4,17.5
	c-0.1,0.8,0.7,1.7,1.1,2.6c0.8-0.5,1.9-0.9,2.4-1.6c1.6-2.9,2.9-6,4.5-9c5-9,3.7-17.7-1.9-25.8c-2-2.9-5.4-4.9-7.8-7.6
	c-0.7-0.8-1-2.8-0.5-3.7c2.2-3.8,4.8-7.3,7.1-11c0.7-1.1,0.9-2.9,0.5-4.1c-1.2-3.5-2.8-6.8-4.5-10.1c-0.6-1.1-1.7-1.9-2.6-2.9
	c-0.7,1.1-1.6,2.1-2.1,3.2c-1.7,3.8-2.9,8-5.1,11.4c-6.5,9.8-13.3,19.3-20.2,28.8c-1.6,2.2-3.8,4.2-5.9,5.9c-2.2,1.8-4.8,3-6.9,4.8
	c-0.9,0.7-1.7,2.7-1.3,3.6c2,4.2-0.9,3.4-3.2,3.5c-5.7,0.1-6.8,2.1-3.9,7c0.7,1.2,1.5,2.2,2.3,3.3c5.3,7.4,10.7,14.6,15.7,22.1
	c4.3,6.4,9.2,12.8,8.3,21.3c-0.1,0.8,0.7,1.8,1,2.6c0.8-0.5,2.1-0.8,2.3-1.5c1.1-2.8,1.8-5.7,2.8-8.5c0.5-1.3,1.3-2.5,1.9-3.8
	c0.6,0.9,1.2,1.8,1.9,2.6c0.5,0.5,1.2,0.8,1.8,1.2c0.4-0.7,1.3-1.5,1.2-2.1c-0.6-3.6-1.4-7.1-2.3-10.6c-0.1-0.5-0.9-0.8-1.4-1.2
	c-0.5-0.5-0.9-1-1.3-1.5c0.8-0.3,1.6-0.8,2.4-0.7c2.9,0.4,5.7,1.1,8.6,1.6c5.8,1,11.6,1.4,17.4-0.6c2.6-0.9,6.1-0.9,7.7-2.6
	c4-4.6,8.8-8.9,7.2-16.6c-0.8-3.9-2-7-4.9-9.2c-4-3-8.4-2.9-10-0.2c-2.3,3.8-4.6,7.6-6.8,11.5c-0.4,0.8-0.5,2-0.2,3
	c0.7,3.1,0.8,3.1-2.5,2.3c-0.8-0.2-1.6-0.7-2.4-0.7c-8.3-0.3-15.9-2.8-23.2-6.6c-0.9-0.5-2.4-0.1-3.6-0.1c0.7,0.9,1.2,2.1,2,2.8
	c5.9,4.5,12.3,7.9,20,7.8c0.4,0,0.7,0.4,1.1,0.7c-0.3,0.3-0.6,0.8-0.9,0.8c-8.2,1.6-19.2-2.6-24.6-9.8c-3.8-5.1-7.8-10-11.7-15
	c-0.3-0.4-0.2-1.1-0.2-1.6c0.5-3.1,3.5-2.1,5.3-2.9C656.5,933.7,660.5,932.3,665.1,930.8z M560.3,972.9c2.6-0.6,5.1-1.4,7.7-1.9
	c0.8-0.2,1.8,0.5,2.8,0.7c-0.5,0.7-0.9,1.5-1.5,2.2c-0.7,0.9-1.9,1.7-1.9,2.6c-0.3,2.8-0.2,5.7,0,8.5c0.1,1.6,0.6,3.3,2.7,1.4
	c2.1-2,1.5,0,1.9,1.2c0.8,2.4,1.8,4.7,3,6.9c0.3,0.6,1.4,0.8,2.1,1.2c0.4-0.8,0.9-1.5,1-2.3c0.6-6.4,2.8-12.2,6.9-17.3
	c2.1-2.7,4.1-5.5,6-8.3c5.6-7.9,11.1-15.7,16.6-23.7c0.3-0.4-0.5-2.3-1-2.4c-3.1-0.5-6.3-0.2-9.3-1c-2.3-0.7-3.5,0-4.6,1.5
	c-3.3,4.3-6.9,8.4-9.8,13c-4.7,7.2-15.7,10.5-23,9.7c-0.4,0-0.7-0.4-1.1-0.7c0.3-0.3,0.6-0.8,0.9-0.8c7.9-0.4,14.2-4.4,20.4-8.6
	c0.7-0.5,1.1-1.4,1.6-2.2c-0.9,0-2-0.3-2.8,0c-5.6,2-11.1,4.3-16.8,6.1c-4.4,1.3-9,2-13.5,2.8c-0.1,0-0.6-1-0.6-1.6
	c-0.1-2.1,0.5-4.4-0.2-6.2c-1-2.8-3.2-5.1-4.4-7.8c-1.8-4.1-3.5-5.1-7.7-3.8c-6.3,2-7.9,5.5-8.8,12.9c-0.9,7.4,6.3,13.6,12,16.3
	C545.7,974.4,552.8,972.9,560.3,972.9z M726.3,936.2c5.5-1,11-2.3,16.5-3c10.8-1.5,21.6-2.5,32.4-4c5.8-0.8,11.5-2,17.3-3.1
	c5-1,10-2.1,15-3.1c6.9-1.3,14-2.2,20.8-4c7.5-1.9,14.8-4.8,22.3-6.8c11.6-3.1,22.9-6.9,32-15c2.9-2.6,5.9-5.9,5-10.6
	c-0.1-0.8-0.6-2.1-1.1-2.1c-0.8-0.1-2,0.3-2.6,0.8c-1.3,1.3-2.1,3.3-3.6,4.2c-7.9,4.6-15.5,10.1-24,13c-10.3,3.5-20.5,7.7-31.5,9
	c-6.4,0.7-12.6,3.1-19,4.5c-5.6,1.2-11.3,2.1-16.9,3.2c-5.4,1-10.7,2.2-16.1,3c-7.7,1.2-15.6,1.2-23,3.4c-9.2,2.7-18.6,1.8-27.9,3.5
	c-5.7,1-11.6,0.7-17.4,0.9c-4.4,0.2-2,3.5-2.5,5.5c-0.6,2.3,0.9,2.4,2.6,2.3C711.5,937.2,718.5,936.7,726.3,936.2z M384.2,909.9
	c1.1,0.5,2.1,1.2,3.2,1.5c4.5,1.3,9,2.5,13.6,3.7c8,2.1,16,4.6,24.1,6.3c7.6,1.7,15.4,2.6,23.1,4c10,1.8,19.9,3.8,29.9,5.3
	c11.6,1.8,23.2,3.3,34.8,4.7c8.3,1,16.6,1.7,25,2.3c1,0.1,2.8-1.3,2.9-2.2c0.2-1.8,1.4-4.4-2.4-4.8c-10.2-0.9-20.3-2-30.4-3.1
	c-9-1-18-1.8-26.9-3.1c-6.5-0.9-12.8-2.6-19.3-3.8c-4.7-0.8-9.6-1-14.3-2c-5.5-1.1-10.9-3-16.4-4.2c-6-1.3-12.1-1.7-18-3.3
	c-8.9-2.4-17.7-5.2-26.3-8.4c-10.1-3.7-19.8-8.2-27.3-16.3c-0.7-0.8-2.8-1.5-3-1.3c-0.9,1-1.5,2.4-1.8,3.8c-0.2,0.8,0.4,1.9,0.9,2.7
	c4.6,6.6,10.9,11.3,18.4,14.2C377.1,907.2,380.2,908.6,384.2,909.9z M675.2,804.6c-1.3,0.3-2.9,0.8-0.9,2.1
	c5.3,3.5,9.1,7.8,8.4,14.7c-0.3,3.1,0,6.4-1.1,9.1c-1.5,3.6-0.2,7.3,4,7.2c3.3,0,5.5,0.9,7.7,3.3c0.5,0.6,2.2,0.2,3.3,0.3
	c0-1,0-1.9-0.1-2.9c-0.2-2.4-0.4-4.9-0.6-7.3c-0.1-1.6,0.1-3.3,0-5c-0.2-3-0.5-5.9-3.2-8c-0.5-0.4,0-2.1,0-3.3
	c0.9,0.5,1.9,0.9,2.7,1.6c4.7,4.5,4.3,10.6,3.8,16.2c-0.3,3.2-0.4,5.6,1.8,8.1c1.4,1.6,2,3.3-1.5,3.5c-8.1,0.5-14.1,4.2-16.6,12.3
	c-0.3,1,0.1,2.3,0.2,3.4c1-0.1,2-0.1,3-0.3c1.4-0.4,2.7-1.4,4-1.4c6.5-0.2,13,0.3,19.5-0.2c7.9-0.5,14.6,2.3,21.1,6.1
	c0.8,0.5,1.9,0.4,2.9,0.5c0-1.2,0.6-2.9,0-3.6c-2.5-3.2-5.3-6.1-8-9.1c-0.5-0.6-0.8-1.4-1.2-2c0.7,0,1.5-0.2,2.1,0.1
	c1.7,0.8,3.4,1.8,5.1,2.7c0.5,0.2,1.2,0,1.8-0.1c-0.1-0.5-0.1-1.3-0.5-1.6c-2.2-1.8-4.2-4.3-6.7-5c-4.8-1.4-9.9-1.8-14.9-2.5
	c-3.5-0.5-4.4-1.9-4.2-5.3c0.3-3.9,0.6-8.1-0.5-11.8C702.6,813.2,690.9,805,675.2,804.6z M586.2,926.9c-1.1-1.6-2.2-3.2-3.2-4.8
	c-2.7-3.9-5.3-7.8-8-11.8c-1.7-2.5-3.4-5-5.1-7.5c-4.7-6.8-10.8-12.9-11.2-22.1c-0.1-2.2-1.9-2.7-3.4-1c-1.5,1.6-2.7,3.5-3.8,5.4
	c-1,1.6-2.3,3.2-2.6,5c-1.2,6.2,3,10.4,6.2,14.7c4.1,5.4,4.4,5.5-1.4,8.9c-6.3,3.7-12.8,17.6-9.5,24.8c2.4,5.2,4.9,10.3,7.4,15.5
	c0.3,0.6,1.1,0.9,1.6,1.4c0.3-0.8,1-1.5,1-2.3c0.2-7.2,3-13.1,8.3-17.8c1.2-1.1,2.2-3.1,3.5-3.3c4.6-0.7,9.5-1.8,13.9-0.9
	c5.9,1.2,11.3,4.2,17,6.5c0.5,0.2,1.1,0.3,1.6,0.4c-0.1-0.7,0.1-1.8-0.3-2.1C594.3,932.9,590.4,930.1,586.2,926.9z M880.3,731.1
	c-1.1,0.8-2.3,1.5-3.2,2.5c-3.7,3.7-7.7,6.9-8.1,12.9c-0.3,4.1-2,8.2-2.9,12.3c-0.1,0.7,0.6,1.5,0.9,2.3c0.7-0.3,1.9-0.5,2.1-1
	c0.9-2.8,1.6-5.8,2.4-8.7c0.3-1.1,0.8-2.1,1.2-3.2c0.4,1,0.9,2,1,3c0.2,1-0.1,2.1,0.1,3.1c0.1,0.7,0.4,1.7,0.8,1.9
	c0.6,0.2,1.6-0.2,2.1-0.6c3.9-3.5,7.8-6.9,11.4-10.6c10.4-10.5,20.7-21,30.9-31.7c2.5-2.6,4.9-5.7,6.5-8.9
	c3.8-7.4,5.5-15.6,7.1-23.8c0.1-0.5,0.4-0.9,0.4-1.4c0-0.6,0-1.5-0.4-1.8c-0.4-0.3-1.3-0.1-1.8,0.2c-0.7,0.5-1.4,1.2-1.9,1.9
	c-6.1,7.4-11.8,15.2-18.4,22.1C900.8,711.7,890.6,721.1,880.3,731.1z M306.8,689.3c2.6,4.7,4.6,10,8.1,14
	c10.1,11.6,20.8,22.6,31.3,33.9c1.9,2.1,3.3,2.7,3.6-1c0-0.4,0.8-0.8,1.3-1.2c0.3,0.4,0.9,0.8,1,1.2c0.1,2-0.1,4,0.1,5.9
	c0.1,0.8,1.2,1.5,1.9,2.2c0.4-0.7,1.1-1.5,1.1-2.2c-0.1-4.2-0.3-8.3-0.8-12.4c-0.2-2.3-0.8-4.5-1.6-6.7c-0.3-0.8-1.4-1.3-2.2-1.9
	c-0.3,0.7-0.7,1.4-0.8,2.1c-0.1,2.4,0,4.9-0.1,7.3c0,0.7-0.5,1.4-0.8,2.1c-0.5-0.8-1.4-1.5-1.4-2.3c-0.2-3.4,0.1-6.8-0.1-10.2
	c-0.1-1.5-0.7-3.2-1.7-4.3c-4.6-5.1-9.6-9.9-14.1-15.1c-8.4-9.6-16.5-19.5-24.7-29.2c-0.6-0.7-1.3-1.4-1.9-2.1
	c-0.3,1-0.5,2.1-0.9,3.1c-0.3,0.9-0.8,1.8-1.3,2.7c-0.3-0.9-1-1.8-1-2.7c0.1-4.4,0.3-8.8-3.1-12.3c-0.7-0.6-1.4-1.2-2.1-1.8
	c-0.3,1-0.9,2.1-0.9,3.1c0,2,0.6,3.9,0.7,5.9c0.1,2.1-0.8,4.5-0.1,6.4c1.5,4.1,3.7,8,5.6,12c0.3,0.6,0.7,1.2,1.1,1.9
	c0.7-0.7,1.5-1.4,1.9-2.3c0.5-1,0.7-2.1,1-3.1c0.2,1.3,0.5,2.6,0.6,3.9C306.5,687.1,306.4,688,306.8,689.3z M450,865
	c-3.1-0.8-6.3-1.5-9.4-2.5c-8.9-2.7-17.8-5.5-26.8-8.1c-3.3-1-6.7-1.9-10.2-2.4c-0.8-0.1-2.7,1.6-2.7,2.3c0.4,5.1-1.4,9.4-4,13.5
	c-1.5,2.3-0.2,3.4,1.8,4c6,1.7,12,3.4,18.1,4.8c8.9,2.1,17.9,4,26.8,6.1c5.4,1.3,8.7-1,10.7-6.4C456.2,871.2,453.4,868.4,450,865z
	 M481.7,946.2c-0.7-0.3-1.3-0.6-2-0.8c-7.7-1.3-15.4-2.5-23.1-3.9c-7-1.2-13.9-2.4-20.8-3.9c-5.7-1.3-11.3-3.1-17-4.6
	c-7.5-1.9-15.1-3.4-22.4-5.8c-7.7-2.5-15.3-5.4-22.5-9.1c-6-3-11.8-6.8-16.9-11.2c-3-2.6-4.3-7.1-6.5-10.7c-0.4-0.7-1.2-1.2-1.8-1.9
	c-0.4,0.9-1.3,1.9-1.1,2.6c1.1,3.7,1.9,7.6,3.8,10.8c3.9,6.5,10.6,10.2,17,13.6c8.3,4.3,17,8.1,25.8,11.5c6.4,2.4,13.1,3.9,19.7,5.7
	c4.7,1.3,9.3,2.4,14,3.4c6.5,1.5,13,3,19.5,4.3c4.4,0.8,8.9,1,13.3,1.6c4.2,0.6,8.4,1.6,12.6,2.3c6.1,0.9,12.2,1.6,18.4,2.3
	c9.6,1.1,19.2,2.2,28.9,3c1.3,0.1,2.8-1.5,4.2-2.2c-1.4-0.8-2.8-1.9-4.3-2.2c-4.5-0.7-9.1-1.1-13.7-1.6
	C498.7,948.3,490.6,947.3,481.7,946.2z M845,870.8c0.2-0.4,0.5-0.8,0.4-1.1c-1.9-4.9-4.1-9.6-3.6-15.2c0.2-2.3-2-3.1-4.1-2.7
	c-4.5,1-8.9,2-13.3,3.2c-8.8,2.5-17.4,5.2-26.2,7.5c-4.6,1.2-8.5,3.2-9.5,8.1c-0.5,2.7-0.4,5.9,0.6,8.3c1.4,3.2,4.7,4.6,8.4,3.7
	c10.5-2.5,21.1-5.1,31.6-7.7C834.4,873.8,839.5,872.5,845,870.8z M831.5,938.5c3.1-1,6.2-1.9,9.2-3c11.7-4.1,23.3-8.4,34.2-14.7
	c8.4-4.9,16.5-9.8,19.1-20.1c0.4-1.4-0.3-3.1-0.4-4.7c-1,0.9-2.2,1.7-2.9,2.8c-1.8,2.8-2.7,6.5-5.1,8.6c-7,6.2-15.1,10.9-23.9,14
	c-8.8,3.1-17.6,6.2-26.5,8.8c-9.6,2.8-19.3,5.3-29,7.4c-9.8,2.1-19.6,3.8-29.5,5.5c-8.1,1.4-16.2,2.8-24.3,3.8
	c-7.4,1-14.8,1.5-22.2,2.4c-3.2,0.4-6.4,1.4-9.5,2.3c-0.7,0.2-1.6,1.4-1.5,2.1c0.1,0.6,1.2,1.6,1.9,1.6c3,0.2,6,0.3,8.9,0
	c8.1-0.9,16.2-2,24.3-3.1c7.8-1,15.6-2.1,23.4-3.3c5.8-0.9,11.6-1.9,17.4-2.9c5.3-1,10.5-2,15.7-3.1
	C817.3,941.7,824,940.1,831.5,938.5z M488.7,839.5c5.9,0.8,11.8,1.4,17.6,2.4c7.8,1.3,15-2.1,22.6-2.5c2-0.1,2.4-2.3,1.9-4
	c-0.7-2.5-1.8-4.9-2.5-7.4c-0.1-0.4,0.7-1.3,1.2-1.8c0.6-0.6,1.4-0.9,2.1-1.4c-0.6-0.5-1.2-1.4-1.9-1.5c-1.5-0.2-3.3,0.4-4.6-0.2
	c-7.9-3.6-14.5,4.2-14.4,10.5c0,2.3-0.9,2.9-3,2.8c-3.1-0.3-6.2-0.5-9.3-0.8c-2.1-0.2-4.2-0.4-6.2-0.8c-5.9-1.2-11.8-2.7-17.7-3.8
	c-6.8-1.2-13.7-1.7-20.3-3.2c-9.8-2.3-19.6-4.8-29.1-8.1c-8.9-3.1-17.5-6.9-25.9-11.2c-4.1-2.1-7.5-5.8-10.8-9.2
	c-1.4-1.4-1.8-3.9-2.9-5.7c-0.4-0.6-1.4-0.8-2.1-1.2c-0.4,0.9-1.2,2-1,2.6c1.9,5.1,3.2,10.6,8.5,13.6c6.5,3.6,12.6,8,19.4,11.1
	c7.1,3.3,14.6,5.8,22.1,8.1c6.4,2,13.1,3.3,19.7,4.7c6.3,1.4,12.6,2.6,18.9,3.9C476.6,837.4,482.3,838.4,488.7,839.5z M400.9,760.9
	c-3.3-2.3-6.6-4.6-9.9-6.8c-0.4-0.3-1.2-0.1-1.8,0c-0.1,0-0.2,0.8-0.1,1c5.7,9.4,10.7,19.2,19,26.9c7.8,7.3,17.5,10.5,27.1,13.9
	c6.8,2.4,13.9,3.8,20.9,5.5c1.5,0.4,3.1,0.7,4.7,0.7c0.7,0,1.4-0.8,2.1-1.2c-0.4-0.6-0.7-1.6-1.2-1.7c-4.4-1.3-6.8-4.6-9.4-7.9
	c-3.7-4.9-9.4-6.7-14.6-9.4C425.2,775.4,413.3,768.2,400.9,760.9z M631.5,895.6c0.3,4,0.6,8,0.7,12.1c0,0.7-0.4,1.5-0.6,2.3
	c-0.8-0.4-1.8-0.7-2.4-1.4c-0.5-0.7-0.8-1.8-0.8-2.7c-0.1-5.6,0-11.2-0.1-16.8c0-0.5-0.4-1-0.6-1.6c-0.3,0.4-0.7,0.8-0.9,1.2
	c-4.1,8.1-3.2,16.8-3,25.4c0,2.7,1.7,4.5,4.5,2.7c1.9-1.2,3.2-3.3,4.8-5c0.2-0.3,0.7-0.7,0.8-0.6c3.7,1.3,6,0.7,7.6-3
	c1.3-3.1,1.3-6.7,2.5-9.8c2.1-5.7,4.6-11.2,7-16.8c0.2-0.5,1.2-0.7,1.8-1.1c0.3,0.7,0.9,1.4,0.9,2.1c0,1.9-0.4,3.7-0.4,5.6
	c0,0.8,0.7,1.5,1,2.3c0.4-0.7,0.9-1.3,1.2-2.1c2.3-6.1-0.6-12.3,0-18.4c0-0.3-0.4-0.7-0.6-1.1c-0.3,0.3-0.8,0.6-0.8,0.9
	c-0.3,1.4-0.5,2.9-0.8,4.3c-0.1,0.6-0.5,1.2-0.8,1.8c-0.4-0.5-1-1-1.2-1.6c-0.5-2.5-0.7-5.1-1.2-7.7c-0.2-1-0.6-2.8-1.1-2.9
	c-1.5-0.2-3.4-0.1-4.6,0.6c-2.4,1.4-4.6,3.3-6.8,5.1c-3.3,2.7-7,5.3-4.6,10.6c0.5,1.1,0.6,2.9,0,3.8
	C630.5,887.3,631.8,891.1,631.5,895.6z M600.1,906c1.5,3.9,4.3,6.4,8.3,7.6c1.1,0.3,2.1,1.2,3.2,1.6c1.8,0.6,3.9,1.9,5.4,1.4
	c1.1-0.3,2-3.1,1.9-4.7c-0.3-6.2-0.9-12.5-1.5-18.7c-0.1-1.2-0.7-2.3-1.1-3.4c-0.6,1-1.7,2-1.9,3.1c-0.7,4.4-1.1,8.8-1.7,13.3
	c-0.1,0.8-0.7,1.5-1.1,2.2c-0.4-0.6-1.1-1.2-1.1-1.8c-0.1-5.1,0-10.1-0.1-15.2c-0.1-2.9-0.5-5.8-0.7-8.7c-0.1-1.2-0.7-2.7-0.2-3.7
	c1.7-3.6,1.3-5.4-2.1-7.7c-3-2-5.9-4.3-9-6.3c-2.4-1.5-4.7-1.1-5.6,1.9c-1.8,5.9-3.5,11.6-0.4,17.9
	C595.7,891.3,600.8,897.5,600.1,906z M840.8,810c-1.9,0.9-3.9,1.9-5.8,2.7c-5.3,2.2-10.4,4.8-15.9,6.5c-9.4,2.9-19,5.4-28.5,7.8
	c-4.7,1.2-9.6,1.9-14.4,2.7c-6.6,1.2-13.2,2.3-19.8,3.5c-5.6,1.1-11,3-16.8,2.4c-1.1-0.1-2.7,0.1-3.5,0.8c-1.3,1.1-2.2,2.7-3.2,4.2
	c1.1,0.4,2.3,1.2,3.3,1.1c3.5-0.3,7.1-0.9,10.6-1.5c8-1.3,16-2.5,23.9-3.9c10-1.7,20.1-2.9,29.8-5.6c15.8-4.3,31.3-9.7,45.4-18.3
	c6-3.6,12.2-7.6,13.3-15.5c0.1-0.9-0.2-1.9-0.3-2.9c-0.8,0.4-1.9,0.5-2.4,1.1c-1.6,2.1-2.6,4.8-4.5,6.6
	C848.8,804.8,845.1,807.3,840.8,810z M828.4,783c-0.6,1.2-1.4,2.3-1.9,3.5c-0.3,0.6-0.2,1.4-0.3,2.1c0.7-0.1,1.5,0.1,2.1-0.2
	c1.9-1,3.8-2,5.6-3.3c6.9-4.9,11-11.5,12.7-19.8c0.4-1.9,2-3.5,3.1-5.2c0.1-0.2,0.9-0.3,1-0.3c0.2,0.4,0.5,0.9,0.4,1.4
	c-0.8,3.9-1.8,7.8-2.5,11.7c-0.1,0.5,0.5,1.5,0.9,1.6c4.2,0.6,6.4-2.7,7.7-5.6c3-6.7,5.4-13.8,7.8-20.7c0.3-0.7-0.5-1.8-0.8-2.7
	c-0.7,0.2-1.5,0.3-2.1,0.7c-8.6,6-17.2,11.9-25.7,18.1c-1.4,1-2.8,2.9-2.9,4.5C833.3,773.8,831,778.2,828.4,783z M377.3,743.5
	c-1-0.7-1.9-1.6-3-2.1c-0.8-0.4-1.9-0.4-2.9-0.5c0,1-0.3,2,0,2.9c0.4,1.5,1.1,2.9,1.6,4.3c4.7,12.8,12,23.7,24.1,30.7
	c0.6,0.4,1.4,0.5,2.1,0.8c-0.2-0.8-0.4-1.6-0.7-2.4c-0.2-0.6-0.5-1.1-0.8-1.6c-3.5-5.9-7.6-11.5-10.4-17.7c-1.4-3.1-1.3-6.9-4.3-9.4
	C381.2,747,379.4,745.4,377.3,743.5z M731.3,833.7c0-6.8-4.7-11.5-11.1-11.2c-2,0.1-4-0.3-5.9,0.1c-1.1,0.2-2.1,1.4-3.1,2.2
	c0.8,0.3,1.6,0.4,2.3,0.8c0.5,0.3,1.1,1.5,1.1,1.5c-2.6,2.1-1.9,5.2-2.8,7.8c-1.4,4.1,1.2,4,3.5,4.6c2.4,0.6,4.8,0.8,7.1,1.5
	C728.9,843.1,731.3,841.5,731.3,833.7z M550.6,911.4c2.8-1.1,2.1-3.1,1.1-5c-1.5-3-3-6-4.9-8.7c-1.3-2-3.1-3.5-5.9-1.8
	c-3.5,2.1-6.5,4.3-5.5,9c0.2,0.9,0.4,2,0,2.7c-1.3,2.1-0.8,3.7,1,5.2c1.6,1.3,3.2,2.8,4.9,4c0.4,0.3,1.3,0.1,1.8-0.2
	C545.4,914.9,547.6,913.1,550.6,911.4z M690.7,907.6c0.7,1.5,1.2,3.4,2.3,4.5c1.3,1.3,3.3,1.8,4.9,2.8c3,1.9,5.7,1.2,8.3-1.8
	c2.2-2.6,0.6-4.2-1.2-5.9c-1-1-1.7-2.3-2.6-3.5c1.4,0.9,2.7,1.8,4.1,2.8c0.6,0.4,1.1,1,1.6,1.6c0.2-0.9,1-2,0.7-2.7
	c-1.7-4.2-3.9-8.2-8.6-9.7c-1-0.3-3.1,0.1-3.5,0.9C694.5,899.8,692.9,903.6,690.7,907.6z M742.5,861.1c-0.1-0.2-0.3-0.4-0.4-0.6
	c-0.6-1.3-1.1-2.7-1.7-4c-0.5,1.4-1.4,2.9-1.3,4.3c0.2,3.4,1.1,6.8,1.4,10.2c0.2,2.4-1.7,3.4-3.7,2.3c-3.8-2.2-7.5-4.8-11.6-6.6
	c-3.4-1.5-7.1-2.2-10.7-3.1c-0.5-0.1-1.2,0.7-1.8,1.1c0.5,0.4,0.9,0.9,1.4,1.2c2.9,1.3,5.9,2.5,8.8,3.9c6.2,3.2,11.9,7,16.5,12.4
	c2.1,2.4,4.6,1.8,4.9-1.3C744.9,874.3,746.5,867.7,742.5,861.1z M509.6,870.4c-1.1,0.8-2.1,1.7-3.2,2.4c-0.7,0.5-1.6,0.8-2.4,1.2
	c-0.3-0.9-0.9-1.8-0.9-2.7c-0.1-3.6,0-7.2-0.1-10.8c0-0.8-0.5-1.7-0.8-2.5c-0.8,0.8-1.8,1.5-2.2,2.4c-0.7,2-1.5,4.2-1.5,6.3
	c-0.2,5.2-0.2,10.4,0,15.6c0,0.7,1.6,1.7,2.5,1.9c0.6,0.1,1.4-1.2,2-2c0.9-1.2,1.3-2.9,2.4-3.6c7.7-4.4,15.5-8.6,23.3-12.9
	c0.8-0.4,1.5-1,2.2-1.5c-0.8-0.3-1.7-0.8-2.5-0.8C521.4,863.2,516.3,868,509.6,870.4z M697.6,978c-3.6,0-7.2-0.3-10.8,0.2
	c-1.6,0.2-4.1,2.2-4.1,3.3c0.1,5.3-2.5,8.9-6.1,12.2c-0.5,0.4-0.5,1.4-0.7,2.1c0.7,0.1,1.4,0.3,2.1,0.2c5.1-0.8,6.8-4.8,8.4-9
	c0.4-1.1,1.5-2.4,2.5-2.7c6.1-2,12.4-3.6,18.5-5.6c1.2-0.4,1.9-2.1,2.9-3.2c-0.7-0.4-1.5-1.4-2-1.2C705,975.4,701.7,976.7,697.6,978
	z M771.5,877c0.5-1.5,0.9-3,1.4-4.5c0.2-0.6,0.5-1.2,0.8-1.9c-0.7-0.1-1.5-0.3-2.2-0.2c-2.2,0.2-4.6,0.1-6.6,0.8
	c-2.3,0.8-5,1.9-6.4,3.7c-2.2,3-2.2,7-0.8,10.5c1,2.6,3.7,3.2,6.5,2.8c2.8-0.4,1.8-2.6,1.9-4.2c0.1-2.7-0.1-5.4,0.1-8.1
	c0.1-1,0.7-2,1-3c0.4,0.9,1.1,1.8,1.2,2.7c0.4,3,0.5,6.1,0.9,9.1c0.1,0.7,0.8,1.3,1.3,2c0.3-0.8,0.9-1.5,1-2.3
	C771.6,882.2,771.5,880,771.5,877z M563,991.1c-1.6-3-3.1-6-2.9-9.7c0.1-1.1-1.8-3.2-2.9-3.3c-6.5-0.3-13,0.3-19.2-2.4
	c-0.8-0.3-2.2,0.7-3.3,1.1c0.9,0.9,1.7,2.2,2.7,2.6c3.6,1.2,7.3,2.5,11.1,3.1c4.3,0.7,7.2,2.6,8.7,6.7c0.6,1.7,1.3,3.7,2.6,4.6
	c1.8,1.3,4.3,1.7,6.5,2.4c-0.9-1.5-1.8-3-2.6-4.5C563.6,991.7,563.5,991.6,563,991.1z M668.2,951.7c0.9-0.2,1.8-0.4,2.7-0.6
	c-0.6-0.6-1-1.3-1.7-1.7c-2.8-1.7-5.6-3.3-8.3-5.1c-0.6-0.4-1-1.1-1.5-1.6c0.8-0.4,1.5-1,2.3-1c3.3-0.1,6.6,0.2,9.8-0.1
	c2.4-0.2,4.8-1.2,7.2-1.9c-1.2-2.7-3.3-3.7-6.2-3.5c-0.4,0-0.8-0.7-1.2-0.7c-5.6-0.1-11.1,0.3-16.1,3.2c-0.5,0.3-0.7,1.9-0.4,2.6
	C657.4,946.7,663.1,948.3,668.2,951.7z M364.1,752c0.7,1,1.3,2.1,2.2,2.9c1.3,1.3,4,3.7,4.1,3.5c2.3-2.1,0.2-4.1-0.5-6.2
	c-0.2-0.4-0.5-0.8-0.6-1.3c-1.1-3.4-2.8-6.8-3.1-10.3c-0.4-5-2.2-8.8-5.9-11.9c-0.5-0.4-1.6-0.7-1.8-0.5c-0.5,0.6-1.1,1.6-0.9,2.3
	C359.5,737.6,361.6,744.6,364.1,752z M570.3,951.3c1.8-0.1,3.9,0.4,5.2-0.5c4.2-2.8,8.1-6.1,12.1-9.1c1.7-1.2,0.8-2-0.3-2.7
	c-6.1-4.4-15-5.1-22.8-0.5c-0.7,0.4-1.3,0.9-1.9,1.4c0.9,0.3,1.8,1,2.7,1c4.9,0.1,9.9,0,14.8,0.1c0.8,0,1.6,0.4,2.4,0.8
	c0.6,0.3,1.1,0.8,1.6,1.2c-0.5,0.4-1,0.8-1.5,1.1C578.6,946.1,574.4,948.3,570.3,951.3z M778.1,886.7c4.6,0,6.4-2.1,4.9-6.5
	c-1.2-3.6-0.9-6.7,1.1-9.8c0.4-0.6,0.4-1.8,0-2.3c-0.4-0.5-1.6-0.9-2.3-0.7c-1.9,0.6-3.8,1.4-5.6,2.3c-0.7,0.3-1.6,1.1-1.7,1.6
	c-0.2,3.5-0.4,7.1,0.1,10.5C775,883.4,776.7,884.8,778.1,886.7z M484,885.9c4.3-4.1,1.7-12.4-4.5-14.5c-2.1-0.7-3.7-0.4-3.7,2.5
	c0.1,4,0,8,0,12.1c0,0.4-0.2,0.9,0,1.1c0.7,0.7,1.7,1.9,2.2,1.8C480.1,888.3,481.8,887.2,484,885.9z M467.4,879.3
	c1.6-4.4,0.8-8-2.9-10.5c-1.1-0.7-2.8-0.6-4.3-0.7c-0.2,0-0.6,1-0.6,1.5c0,4.9-0.1,9.8,0,14.7c0.1,2.5,2.3,3.5,4.6,2.4
	C467.1,885.3,467.8,883,467.4,879.3z M537.4,888.2c-0.7,0.7-1.6,1.4-2.1,2.2c-0.4,0.6-0.6,1.8-0.2,2.3c0.4,0.6,1.8,1.1,2.2,0.9
	c2.5-2,6.3-3.8,7.1-6.4c1.5-5.3,3.1-10.1,6.8-14.2c0.3-0.4,0.1-1.2,0.2-1.8c-0.7,0-1.7-0.3-2.1,0c-2.3,2.1-4.9,4.2-6.6,6.7
	C540.6,880.9,539.4,884.5,537.4,888.2z M696.5,880.9c0.7,1.8,1.8,3.4,2.1,5.3c0.6,4,2.9,6.1,6.7,6.7c1.1,0.2,2.3-0.1,3.5-0.2
	c-0.7-0.9-1.3-1.9-2-2.8c-1.6-2.2-3.4-4.2-4.8-6.5c-1.8-3.1-3.1-6.4-5-9.5c-0.3-0.6-2-0.3-3.1-0.4c0,1.1-0.3,2.4,0.1,3.4
	C694.4,878.1,695.4,879.2,696.5,880.9z M847.4,860.7c0.7,2,1.4,4,2.2,6c0.2,0.5,1,1.3,1.2,1.2c0.7-0.2,1.8-0.8,1.9-1.4
	c0.2-1-0.3-2.2-0.3-3.3c0.1-4-3.5-7.7-1.2-12c0.2-0.4-1.1-1.7-1.8-2.6c-0.9,0.7-2.6,1.4-2.6,2.2C846.5,854,846.9,857.2,847.4,860.7z
	 M393.5,848.7c-0.4,0.6-1.1,1.2-1.1,1.8c0.3,4.8-0.1,9.3-3.1,13.4c-0.4,0.5-0.2,1.5,0,2.3c0.2,0.7,0.6,1.6,1.1,1.8
	c0.5,0.2,1.4-0.4,1.8-0.9c0.9-1.2,1.9-2.5,2.4-4C396.3,858.3,397.9,853.4,393.5,848.7z M471.3,886.3c0.5-0.2,1.3-0.4,1.3-0.6
	c0.1-4.2,0.2-8.4,0.2-12.6c0-0.4-0.7-0.7-1-1.1c-0.4,0.6-1.1,1.2-1.1,1.7C470.6,877.8,470.8,881.8,471.3,886.3z M713.9,967.9
	c-0.6,1.1-1.6,2.2-1.8,3.4c-0.2,0.8,0.4,2,1,2.5c0.5,0.4,1.9,0.4,2.4,0c0.6-0.5,1.2-1.8,1-2.5C716.2,970.1,715.3,969.1,713.9,967.9z
	 M527,969.1c0.1,1.7,0.2,3.3,0.4,5c0,0.2,0.7,0.4,1,0.6c0.6-1.7,1.2-3.4,1.5-5.1C530,969.3,528,968.7,527,969.1z M561.4,954
	c1.9,0,3.8,0.1,5.7-0.1c0.6-0.1,1.1-1.1,1.6-1.7c-0.6-0.2-1.3-0.6-1.9-0.6c-2.2,0.2-4.4,0.5-6.6,0.7
	C560.4,953,560.5,953.5,561.4,954z M588.5,885.9c-0.3-1.3-0.5-2.6-0.8-3.9c-0.1-0.3-0.7-0.6-1.2-0.7c-0.2,0-0.7,0.4-0.6,0.6
	c0.2,2.2,0.4,4.4,0.8,6.6c0.1,0.5,1.1,0.8,1.7,1.3c0.2-0.5,0.5-1,0.6-1.6C589,887.6,588.9,886.9,588.5,885.9z M648.5,857.6
	c-0.6-1.6-1.1-3.2-1.8-4.8c0-0.1-1.3,0-1.5,0.4c-0.3,0.5-0.4,1.4-0.1,1.8C646,856.1,647.1,857,648.5,857.6z M595.5,856.5
	c0.2-0.2,0.3-0.4,0.5-0.5c1-0.8,2-1.6,2.9-2.5c-0.3-0.3-0.6-0.6-0.9-0.9c-1,1-2,2.1-3,3.1C595,855.8,595.1,856,595.5,856.5z
	 M593.2,858c0,0.5,0,1,0,1.5c0.4-0.1,0.8-0.3,1.2-0.4C594.1,858.6,593.8,858.1,593.2,858z"/>
<path d="M311.7,654.7c-8.7-13.8-17.6-27.2-25.5-41.2c-5.2-9.1-9.8-18.7-13-28.6c-3.4-10.5-7.4-21.2-6.2-32.7
	c0.5-4.4,2.1-8.7,5.9-10.5c5.2-2.4,10.1-0.2,14.4,3.4c6.2,5.1,9.7,12.1,13.6,18.8c4.9,8.4,9.2,17.1,14,25.5
	c7.7,13.7,15.4,27.5,23.6,40.9c5.2,8.5,11.2,16.6,16.9,24.7c1.8,2.5,4.2,4.6,5.9,7.3c2.8,4.5,5,9.3,7.9,13.7
	c2.4,3.8,5.2,7.5,8.2,10.9c6.7,7.5,13.5,14.8,20.5,22.1c3.8,3.9,8,7.5,11.9,11.3c0.4,0.4,0.6,0.9,0.8,1.4c-0.5-0.2-1.2-0.3-1.6-0.6
	c-9.4-8.8-19.3-17.2-28-26.6c-10.3-11.3-19.8-23.4-29.4-35.4c-12.6-15.6-23.1-32.7-32.6-50.3c-6.2-11.5-13-22.7-19.6-34
	c-1.1-1.9-2.6-3.6-4.1-5.2c-3.2-3.4-8.4-5.2-11-3.9c-2.3,1.1-5.1,9.3-4.1,12.6c3.3,10.4,6.1,20.9,10.2,31c3.4,8.3,8,16.1,12.8,23.7
	c6.2,9.9,12.9,19.5,19.7,29c2.7,3.8,5.9,7.1,9,10.6c5,5.6,9.8,11.3,15.1,16.6c6.2,6.2,12.5,12.3,19.3,17.7
	c10.6,8.4,21.4,16.5,32.6,24.1c10.6,7.1,21.7,13.4,32.8,19.8c7.8,4.4,15.8,8.5,23.9,12.3c7.1,3.3,14.5,6,21.9,8.8
	c6.6,2.5,13.1,5.2,19.8,7.3c4.6,1.5,9.4,2.2,14.2,3.1c0.7,0.1,1.6-0.8,2.3-1.2c-0.8-0.4-1.6-1.2-2.3-1c-4.2,1.2-7-2.2-10.3-3.4
	c-8.8-3.2-17.5-7.1-25.7-11.6c-12.6-7-25-14.6-37.2-22.3c-7.1-4.5-13.8-9.7-20.7-14.5c-0.5-0.3-0.8-0.9-1.2-1.4c0.4,0,1-0.2,1.3,0
	c10.6,6.2,21.2,12.4,31.8,18.6c9.5,5.6,18.8,11.8,28.6,16.8c11,5.7,22.6,10.2,33.8,15.5c5.3,2.5,10.8,3.7,16.4,5.3
	c4.7,1.3,9.2,3.4,14,4.5c6.5,1.6,13.1,2.6,19.7,4c12.5,2.5,25,5.1,37.9,4.8c5-0.1,10.1,1.6,15.2,2.4c1.6,0.3,3.2,0.3,4.8,0.6
	c0.5,0.1,1,0.4,1.5,0.6c-0.5,0.3-1.1,0.9-1.6,0.9c-4.7-0.2-9.4-0.4-14.1-0.7c-2.2-0.2-4.5-0.8-6.6-0.7c-11.4,0.8-22.4-1.6-33.5-3.1
	c-7.7-1.1-15.4-1.8-23.1-3.2c-6.5-1.1-13-3-19.5-4.4c-5.6-1.2-11.3-2-16.8-3.4c-3.7-0.9-7.3-2.3-10.9-3.5
	c-9.5-3.2-19.1-6.2-28.5-9.7c-5-1.8-9.9-4.2-14.7-6.5c-7-3.3-14.1-6.6-20.9-10.1c-6.5-3.4-12.9-6.9-19.2-10.7
	c-8.1-4.9-16.2-9.8-23.8-15.3c-9-6.4-17.8-13.3-26.4-20.3c-5.5-4.4-10.9-9.1-15.7-14.2c-9.2-10-18-20.3-26.9-30.6
	C316.4,661.3,314.2,658,311.7,654.7z M277.4,546.9c-3.6,0.9-6,3.7-5.7,7.9c0.4,5,1.4,9.9,2.3,14.8c0.3,1.5,1.2,2.8,1.8,4.3
	c0.5-1.2,0.9-2.3,1.4-3.5c0.2-0.6,0.6-1.1,0.7-1.7c0.9-7.7,5.9-10.5,12.9-7.2c0.8,0.4,1.7,0.3,2.6,0.4c-0.2-1,0-2.2-0.6-2.8
	c-3.3-3.7-6.6-7.4-10.1-10.8C281.6,547.4,279.7,547.4,277.4,546.9z M520,784.9c0.5-0.7,1-1.3,1.5-2c-0.6-0.2-1.3-0.8-1.8-0.7
	c-1.5,0.3-2.9,0.8-4.4,1.2c1.2,0.6,2.3,1.2,3.5,1.8C519.1,785.4,519.4,785.3,520,784.9z"/>
<path d="M930.4,247.3c8.6,11.7,15.9,23.8,20.9,37.3c2,5.4,3.9,10.9,5,16.5c0.7,3.4,0.2,7.2-0.7,10.6c-2,7.9-4,15.9-7.1,23.4
	c-1.8,4.3-5.2,8.2-8.8,11.4c-3.9,3.4-12.6,0.9-15.8-3.5c-4.7-6.5-7.6-13.8-10.2-21.3c-3-8.6-7.5-16.7-11.4-25.1
	c-8.2-17.6-16-35.5-24.9-52.7c-6.2-12-13.8-23.3-21.6-34.4c-9.4-13.3-19.4-26.1-29.5-38.8c-4.7-6-10.6-11-15.7-16.7
	c-5.9-6.4-11.7-12.9-17.2-19.6c-2.7-3.3-2.3-6.5,0.4-7.6c0.5-0.2,1.5-0.3,1.8,0c0.4,0.3,0.3,1.2,0.3,1.8c0,0.7-0.4,1.5-0.3,2.2
	c0.1,0.8,0.6,1.6,1,2.2c0.1,0.1,1.4-0.3,1.5-0.5c0.1-0.7-0.2-1.4-0.3-2.1c-0.1-0.6-0.3-1.7-0.2-1.8c1-0.4,2.3-1,3.1-0.7
	c3.8,1.5,7.6,3,11.1,5c6.6,3.8,13.1,7.7,19.4,12c5.7,3.8,11.3,7.9,16.5,12.4c10.6,9.2,21.5,18.2,31.2,28.2
	c14.5,15.1,28.9,30.3,40.9,47.6C923.1,237.6,926.7,242.3,930.4,247.3z M811.8,150.3c4.5,4.3,9.3,8.3,13.5,12.9
	c3.8,4.1,7.3,8.5,10.7,12.9c7,9.1,14,18.1,20.6,27.4c6.4,9,12.6,18.2,18.2,27.7c7.7,13.1,15.1,26.5,22,40
	c5.4,10.5,9.6,21.6,14.9,32.1c2.7,5.3,6.7,9.9,10.5,14.6c3,3.7,9.7,3.6,11.7-1.7c1.8-4.8,3.4-9.9,3.8-15c0.6-7.7-0.3-15.3-1.9-23.1
	c-2.1-9.8-4.7-19.3-9.8-27.7c-6.9-11.5-15-22.4-23.3-32.9c-7.7-9.8-16.1-19.1-24.9-28c-10-10.1-20.3-20-31.3-28.9
	c-12.1-9.9-24.9-19-39-26.1c-1.8-0.9-3.9-1.3-5.9-1.5c-1.6-0.1-3.3,0.4-1.5,2.7c1.7,2.2,3,4.7,4.7,6.9
	C806.9,145.2,809.2,147.5,811.8,150.3z M940.6,278.4c0.9,4.7,2.3,9.3,2.6,14c0.6,8,0,15.9-2.2,23.8c-2.7,9.7-9.4,12.3-17.4,8.7
	c-0.8-0.3-1.4-0.9-2.2-1.2c-0.4-0.2-0.9,0-1.3,0c0,0.3,0,0.7,0.1,1c1.5,3.4,2.6,7.1,4.7,10c5,6.7,11.6,8,16.4,0.9
	c6.2-9.2,8.7-19.9,9.5-30.8c0.4-5.6-1-11.5-2.6-17c-1.9-6.6-4.7-13-7.3-19.4c-0.5-1.2-1.5-2.1-2.3-3.1c-0.3,1.2-0.7,2.4-0.7,3.7
	c0,0.9,0.5,1.8,0.7,2.8C939.2,273.8,939.7,275.9,940.6,278.4z"/>
<path d="M772.3,752c10.8-5.4,21.3-10.7,31.5-16.3c10.8-5.9,21.5-12.3,32.2-18.4c5.3-3,10.7-5.9,16-9.1c4.1-2.5,7.9-5.7,12.1-8.1
	c4.1-2.2,8.5-3.9,12.9-5.3c2.1-0.7,5.2,2.7,5.2,5.2c0,3.9-1.4,7.4-3.8,10.4c-2.3,2.8-4.8,5.5-7.3,8.1c-5.5,5.6-10.9,11.3-16.7,16.6
	c-8.8,8-18.3,15.2-28.8,21.1c-7.1,4-14.3,7.8-21.5,11.5c-5.7,2.9-11.9,4.7-18.3,5.2c-6.2,0.5-12.5,1.2-18.7,1.4
	c-2.6,0.1-5.2-1-7.9-1.4c-4.8-0.8-6.3-7.9-2.9-11.7c4-4.4,9.6-5.6,14.3-8.5C771.1,752.5,771.5,752.3,772.3,752z M806.4,761.7
	c6.7-3.6,13.7-7,20.2-11c7.1-4.5,14.1-9.2,20.7-14.5c6.8-5.5,13.8-11.2,17.2-19.8c1.2-3.1-0.5-6.5-3.7-6c-3.5,0.5-7.1,1.7-10.2,3.4
	c-10.7,6-21.2,12.4-31.8,18.5c-12.2,7-24.6,13.6-36.7,20.6c-3.5,2-6.7,4.9-9.4,7.9c-2.4,2.7-1.2,6.1,2.2,7.3c1.7,0.6,3.6,0.9,5.4,1
	C789.5,769.5,797.7,765.4,806.4,761.7z M871.4,715.3c2.4-3.7,4.8-7.2,7-11c0.6-1,0.7-2.7,0.4-3.8c-0.2-0.6-1.9-1-2.9-1
	c-4.9-0.2-8.3,2.9-12.1,5.2c-2.6,1.6-0.9,2.8,0,2.9c4.8,0.4,5.1,3.8,5.4,7.4C869.1,715.2,870.3,715.4,871.4,715.3z M762.6,762.8
	c-0.4,1.5-4,1.7-1.9,4.3c1.5,1.9,3.8,4.2,5.8,2.2c1.5-1.4,1.2-4.6,1.7-7.1C766.5,762.3,764.8,762.4,762.6,762.8z"/>
<path d="M274.9,509.2c-2.3,7.9-6.9,8.8-13.7,6.8c-5.7-1.7-8.3-6.5-10.4-11.3c-4.2-9.7-5.2-20.2-6.3-30.6c-0.7-6.5-2-13-2.2-19.5
	c-0.1-4.5,1.1-9,1.7-13.5c0.2-1.3,0.3-2.7,0.5-4.1c0.8-6.4,1.1-12.9,2.7-19c2.2-8.8,5.3-17.3,8.2-26c1.5-4.4,6-8.2,9.5-8.3
	c4.3-0.1,5.9,1.2,5.9,5.6c0,3.1-0.5,6.2-0.7,9.3c-0.3,3.4-0.6,6.7-0.7,10.1c-0.1,4.6,0.1,9.3-0.1,13.9c-0.1,3.6-0.7,7.3-0.7,10.9
	c0.1,8.3,0.2,16.6,0.8,24.8c0.7,9.8,1.9,19.5,3.1,29.3c0.8,6.4,2,12.8,3,19.2C275.6,507.5,275.2,508.3,274.9,509.2z M248.4,425.8
	c-0.5,7.3-1.3,14.5-1.5,21.8c-0.1,6.5,0.7,12.9,0.6,19.4c-0.1,8.3,2.9,15.7,6.4,22.9c1.2,2.4,3.5,4.6,5.9,5.8
	c3.1,1.5,7.4-2.7,7.1-7.9c-0.6-10.1-1.8-20.2-2.2-30.4c-0.4-10.7-0.1-21.5-0.1-32.2c0-4.6,0-9.3,0-13.9c0-3.5,0.3-7.1-0.1-10.6
	c-0.4-3.6-3.9-4.7-6.1-1.8c-2.1,2.7-3.5,6-4.6,9.3C252,413.9,250.5,419.7,248.4,425.8z M260.8,509.4c2,0.6,4.3,2,6,1.5
	c2.3-0.6,2.8-3.2,2.6-5.7c-0.2-2.3,0-4.6-0.1-7c0-0.8-0.4-1.5-0.6-2.3c-0.7,0.5-1.5,0.9-2,1.5c-2.7,3.7-8,4.7-10.6-0.5
	c-0.3-0.7-1.3-1.1-2-1.7c-0.4,0.9-1.2,1.9-1,2.6C254.4,502.3,255.8,506.7,260.8,509.4z M262.3,390.2c-0.5,1.1-1,2.1-1.5,3.2
	c1.7,0.3,3.5,0.8,5.2,0.7c0.3,0,1.1-2.7,0.9-2.8C265.6,390.7,264.1,390.3,262.3,390.2z"/>
<path d="M946.4,383.7c-1.2-6.2-1.7-11.9-0.4-17.8c2.2-10.1,7.5-18.8,12.1-27.8c4-7.7,10.6-8.5,16.5-2.3c1.6,1.7,3.3,3.5,4.2,5.6
	c3,6.6,6.4,13.1,8.4,20.1c2.1,7.1,2.9,14.6,4,21.9c0.5,3.5,0.5,7,0.8,10.5c0.7,8.5-2.5,15.6-7.8,21.9c-3.6,4.3-8,8-11.9,12.1
	c-4.5,4.8-12.8,2.5-15.1-3.4c-3-7.7-5.5-15.5-7.7-23.4C948.1,395.4,947.5,389.7,946.4,383.7z M966.9,425.4c1.8-0.7,3.8-1.1,5.2-2.3
	c2.5-2,4.8-4.3,6.9-6.8c5.5-6.6,9.5-13.9,9.2-22.8c-0.3-6.7-2.4-13.1-5.6-18.9c-2.7-4.9-6.1-9.5-9.8-13.7c-4.7-5.1-13.5-4-17.3,1.6
	c-6.2,9.2-4.9,19.4-3.2,29.4c1.2,7.2,3.4,14.3,5,21.5C958.8,420.1,961.8,425.6,966.9,425.4z M978.9,360.8c1.3,2.1,2.5,4.2,3.9,6.1
	c0.6,0.9,1.7,1.4,2.6,2c-0.3-0.9-0.7-1.7-1-2.6c-0.3-0.8-0.7-1.6-0.8-2.4c-1-7.2-6.1-11.4-11.6-15.1c-4.1-2.7-10-2.1-13,0.9
	c-0.7,0.7-1.2,1.8-1.7,2.7c1,0.3,2,1,3,1c2.3,0,4.6-0.5,6.9-0.3C972.3,353.5,975.3,357.2,978.9,360.8z M977,348.8
	c0.2-1.1,1-2.6,0.6-3.1c-2-2.2-4.2-4.4-6.6-6.1c-3.1-2.1-5.6-0.2-7.6,2.1c-0.5,0.5-0.6,1.6-0.4,2.3c0.2,0.5,1.4,1.1,1.8,0.9
	C969.8,342.6,973.1,345.7,977,348.8z"/>
<path d="M692.4,97.5c-3-2.2-6.1-3.8-8.4-6.2c-2.2-2.3-1.4-6.3,1.2-7.8c6.7-4,13.6-5.1,21.4-2.8c5,1.5,9.2,3.9,13.5,6.5
	c3.1,1.8,4,4.5,3.1,7.1c-0.8,2.3-2.9,5.5-4.8,5.8c-7.1,0.9-14.3,1.4-21.4-0.5C695.6,99.2,694.1,98.4,692.4,97.5z M698.8,96.2
	c3,0.4,6.1,1.1,9.1,1.1c4,0,5.7-3.2,4.4-7c-0.5-1.3,0.2-3.5-0.5-4c-1-0.8-2.9-0.4-4.5-0.5c-0.4,0-0.9,0.1-1.1,0
	c-5.2-3.1-10.7-1.7-16-0.6c-3.4,0.7-4,3.8-1.3,5.7C691.8,92.9,695.2,94.2,698.8,96.2z M715.8,94.6c-0.2,3.2,1.6,2.9,3.1,1.4
	c1-1,1.8-3.1,1.4-4.2c-0.6-1.7-2.3-3-3.5-4.5c-0.5,0.8-1.3,1.5-1.3,2.3C715.5,91.1,715.9,92.7,715.8,94.6z"/>
<path d="M729.9,787.8c-4,0.5-8,1.7-11.6,1c-6.3-1.2-8.3-7.1-4.8-12.5c3.1-4.8,12.4-6.9,18-5.2c3.4,1,5.8,2.1,6.8,5.6
	c0.2,0.8,0.6,1.9,0.3,2.3C735.9,781.9,733,784.7,729.9,787.8z M729.4,783c1.9-1.6,1.5-3.1-0.1-4.8c-3.4-3.4-8.1-3.5-11.4,0
	c-2.2,2.4-1.7,6.2,1.3,6.7C722.4,785.6,726.1,786.3,729.4,783z M730.1,773.7c1.1,1.1,2.1,2.2,3.3,3.2c0.4,0.3,1.1,0.1,1.7,0.1
	c-0.9-1.4-1.7-2.9-2.9-4.1C731.9,772.5,730.6,773.1,730.1,773.7z"/>
<path d="M744.4,112c-2.8-1.2-5.8-1.9-7.6-3.7c-1.7-1.6-2.8-4.3-3.1-6.7c-0.7-5.2,5.1-8.9,10.5-6.3c3.6,1.7,6.7,4.5,9.6,7.3
	c1,1,1.1,3.9,0.3,5.2c-0.8,1.5-2.9,2.5-4.6,3.3C748.1,111.8,746.4,111.8,744.4,112z M738.6,105.8c1.2,0.6,2.2,1.6,3.5,1.8
	c1.1,0.2,2.8,0.1,3.6-0.6c1-0.9,2.1-3.2,1.7-3.7c-1.5-1.8-3.5-3.5-5.6-4.4c-1.2-0.5-4,0.5-4.5,1.5
	C736.7,101.8,737.9,103.8,738.6,105.8z M750.6,104.7c0.2,0.6,0.3,1.3,0.5,1.9c0.3-0.2,0.7-0.4,1-0.7
	C751.8,105.4,751.4,104.8,750.6,104.7z"/>
<path d="M550.2,821.7c0.3,1.6,0.6,2.7,0.7,3.9c0,0.7-0.4,1.5-0.6,2.3c-0.6-0.8-1.4-1.5-1.7-2.4c-0.6-1.9,1.2-4.7-2.2-5.7
	c-0.1,0,0-2.2,0.5-2.9c0.9-1.2,2.2-2,3.3-2.9c0.2,0.8,0.6,1.6,0.6,2.3C550.8,817.9,550.5,819.6,550.2,821.7z"/>
<path d="M513.6,850.9c0.5-0.3,0.8-0.6,1.2-0.6c0.9,0,1.8,0.1,2.7,0.1c-1,0.9-2,1.8-3,2.6C514.2,852.4,513.8,851.7,513.6,850.9z"/>
<path d="M611.2,837.3c2.1,2.2,4.1,4.1,3.3,7.3c-0.1,0.4-0.5,0.7-0.7,1c-0.3-0.3-0.7-0.6-0.8-0.9c-0.4-1.7-0.1-4.3-1-4.8
	c-3-1.6-6.4-2.4-9.7-3.5c-0.6-0.2-1.3,0.1-1.9-0.1c-0.5-0.2-0.9-0.7-1.4-1.1c0.5-0.4,0.9-1,1.4-1.1
	C604.3,833.5,608,834.1,611.2,837.3z"/>
<path d="M634.8,835c2.6-0.5,5.1-0.8,7.5-0.9c0.5,0,1,0.7,1.5,1c-0.5,0.4-1.1,1.2-1.6,1.2c-3-0.2-5.7,0.3-7.8,2.8
	c-0.3,0.3-1.7-0.3-2.5-0.4c0.3-0.8,0.5-1.6,0.9-2.3C633.2,835.9,634,835.6,634.8,835z"/>
<path d="M516.7,835c-0.1-2.1-0.1-4,0.1-5.9c0-0.4,0.6-0.8,0.9-1.3c0.2,0.5,0.7,1,0.7,1.5c0.1,2.7,0.1,5.5,0,8.2
	c0,0.4-0.4,0.8-0.6,1.2c-0.3-0.4-0.8-0.7-0.9-1.2C516.8,836.8,516.9,836,516.7,835z"/>
<path d="M726.5,836.9c-0.8,0.2-1.5,0.3-2.1,0.3c0.5-1.4,1-2.9,1.6-4.3c0.1-0.2,0.8-0.2,1.3-0.3C727,834,726.8,835.4,726.5,836.9z"/>
</svg>
