<?xml version="1.0" encoding="utf-8"?>
<!-- Generator: Adobe Illustrator 25.2.0, SVG Export Plug-In . SVG Version: 6.00 Build 0)  -->
<svg version="1.1" id="Contours" xmlns="http://www.w3.org/2000/svg" xmlns:xlink="http://www.w3.org/1999/xlink" x="0px" y="0px"
	 viewBox="0 0 1440 900" style="enable-background:new 0 0 1440 900;" xml:space="preserve">
<style type="text/css">
	.st0{fill:#D6C79A;}
</style>
<path class="st0" d="M631.2,11.4c262.8,0,525.3,0,787.8,0c3.1,0,6.1,0.3,9.1,0.7c0.7,0.1,1.5,0.9,1.7,1.6c0.3,0.8,0.1,1.8,0.1,2.8
	c0,288.1,0,576.4,0,864.5c0,4-1.7,5.5-6.4,5.5c-4.7,0-9.4,0-14.2,0c-5.5,0-10.9,0-16.4,0c-32.3,0-64.9,0-97.2,0c-30,0-59.9,0-89.7,0
	c-6.6,0-13.2,0-19.9,0c-297,0-594,0-891.1,0c-8.2,0-16.2,0-24.4,0c-14.3,0-28.5-0.1-42.8,0c-4.1,0-8.3,0.5-12.3,0.6
	c-1.7,0-3.6-0.6-5.4-0.6c-47.4,0-94.9-0.1-142.4,0c-6,0-11.8,0.7-17.7,0.6c-10.9-0.1-21.9-0.3-32.6-0.8c-3-0.1-4.8-2.3-4.9-5.1
	c0-2.5,0-4.8,0-7.3c0-285,0-569.9,0-854.9c0-1.8,0.2-3.8,0.9-5.5c0.4-0.9,2-1.9,3.2-2.1c3.2-0.3,6.3-0.2,9.4-0.1
	c4.2,0.1,8.5,0.5,12.8,0.5c4.4,0,8.7-0.5,13.1-0.5C244.8,11.4,437.9,11.4,631.2,11.4 M710.6,15.5C575,15.7,439.4,16,304,16.2
	c-28.6,0-57.2-0.5-85.8-0.6c-7.4,0-14.8,0.6-22.1,0.6c-8.4,0-17-0.6-25.5-0.6c-41.5,0.2-82.8,0.5-124.2,0.6
	c-5.6,0-11.2-0.5-16.7-0.7c-3.2-0.1-6.3,0.3-9.3-0.1c-2.1-0.3-2.8,0.3-3.2,1.7c-0.2,0.9,0,1.8,0,2.8c0,286.1,0,572.2,0,858.2
	c0,0.9-0.3,1.9,0.1,2.8c0.4,0.7,1.4,1.5,2.3,1.5c5.5-0.1,11-0.5,16.5-0.6c6.9-0.1,13.8,0,20.6,0c14.2,0,28.4,0,42.6,0
	c30.9,0,61.8,0,92.7,0c6.7,0,13.2,0.6,19.9,0.6c5.5,0,11.1-0.6,16.6-0.6c5.2,0,10.5,0.6,15.6,0.6c5.4,0,10.8-0.6,16.1-0.6
	c12.4-0.1,24.9,0,37.3,0c7.2,0,14.4,0,21.6,0c286.3,0,572.6,0,858.8,0c30.4,0,60.9,0,91.3,0c10.3,0,20.4,0,30.6,0
	c17.1,0,34.2,0,51.3,0c2.6,0,5.1,0,7.7,0c10.2,0,20.4-0.1,30.5,0c5.9,0.1,11.7,0.6,17.6,0.6c4.8,0,9.7-0.5,14.5-0.6
	c4.8-0.1,4.8,0,4.1-4.5c-0.1-0.7,0-1.3,0-2.1c0-11.6,0-23.2,0-34.9c0-87,0-174.1,0-261.2c0-11.9,0.7-23.8,0.7-35.5
	c0-11.5-0.7-23-0.7-34.5c0.1-20.9,0.5-42,0.7-62.9c0-6.9-0.7-13.8-0.7-20.8c0.1-14.3,0.7-28.4,0.7-42.7c0-15.7-0.7-31.3-0.7-46.9
	c-0.1-105.2,0-210.4,0-315.6c0-0.6-0.1-1.1,0-1.7c0.2-1.8-0.6-2.6-2.8-2.7c-10.2-0.1-20.3-0.6-30.4-0.6c-10.1,0-20.1,0.5-30,0.6
	c-5.1,0-10.2-0.6-15.3-0.6c-28.2,0.2-56.5,0.7-84.8,0.6c-46.4-0.1-92.6-0.6-139-0.6C985.8,15.5,848.7,15.5,710.6,15.5z"/>
<path class="st0" d="M1197.6,29.2c9.2,0,18.2-0.1,27.1,0c4,0,8,0.6,12,0.6c4,0,8-0.5,12-0.6c1.7,0,3.6,0.4,5.4,0.5
	c1.4,0.1,3,0.1,4.5,0.1c3.8,0,7.8,0.1,11.6,0c2.1-0.1,4.1-0.6,6.1-0.6c23.9,0,47.8-0.1,71.8,0c4.3,0,8.6,0.7,13,0.6
	c6.8,0,13.6-0.4,20.3-0.7c3.9-0.2,5.6,1.1,6.1,4.6c0.9,6.7,5.7,10.6,11.6,14.3c3.6,2.3,5.7,1.3,8.3-0.7c2.2-1.7,2.8-0.7,2.9,1.2
	c0.1,2.9,0,5.5,0,8.4c0,85.5,0.1,171.1-0.1,256.5c0,6.9-3.1,13.5-6.7,19.8c-3.7,6.5-9.2,11.1-16.4,14.3c-1.3,0.6-2.5,2.9-2.5,4.4
	c-0.3,7.7-0.1,15.4-0.1,23c0,3.9-1.5,5-6,5.3c-10.5,0.5-18.7,5.2-25.1,12.2c-4.8,5.2-8.6,11.3-12.4,17.3c-2.1,3.4-3.2,7.3-4.4,11.1
	c-3.3,10.3-3.8,20.7-3.7,31.3c0.1,6.3,0.5,12.5,1.5,18.7c0.8,4.5,2.8,8.7,4.5,13c3.2,7.8,7.6,14.8,13.8,21c4.4,4.4,8.9,8.3,15,10.5
	c3.9,1.3,8.1,2.4,12.2,3.1c3.6,0.7,4.4,2.9,4.5,5.6c0,7.4,0.2,14.9-0.1,22.3c-0.1,2.9,1.2,4.6,3.8,5.3c8.7,2.8,12.9,9.4,16.7,16.2
	c4.9,8.7,5.4,18.2,5.4,27.8c-0.1,81.2-0.1,162.5-0.1,243.9c0,2.4,0.1,4.8-1,6.8c-0.7,1.2-3.5,2.3-5.2,2.3c-6.7,0-9.9,4.4-13.6,8.3
	c-2.3,2.4-3.1,4.9-3.3,8.1c-0.1,1.2-2.4,2.6-3.7,3.6c-0.5,0.3-1.4,0.1-2.3,0.1c-439.6,0-879.3,0-1318.9,0.1c-6.4,0-8.4-2.5-8.9-7.9
	c-0.4-4.5-7.9-11.7-12.7-12.2c-6.2-0.6-7.9-1.3-7.9-7.4c0.1-86.3,0-172.4,0.1-258.6c0-8.5,3.9-15.6,9.2-22.3
	c3.6-4.7,8.7-7.6,13.9-10.3c2.4-1.1,2.7-2.6,2.7-4.6c-0.1-7.1,0-14.3,0-21.3c0-5.3,0.7-5.5,6.3-6.1c6.1-0.5,11.4-3.2,16.3-6.5
	c8.9-5.7,14.5-13.8,19.1-22.7c3.5-6.6,5.1-13.4,7.2-20.3c2.7-9,2.1-18.1,1.6-27.1c-0.3-7.4-2.5-14.7-4.4-22
	c-2.2-8.5-6.2-16.4-12.2-23.2c-5.2-5.7-10.8-11.4-19.2-14.1c-3.7-1.1-7.1-2.4-11-2.5c-3-0.1-3.7-2.5-3.7-4.7c0-7.4-0.1-14.9,0-22.3
	c0-3-1.2-4.5-4.2-5.9c-9.2-4.3-15-11.2-18.8-20.1c-3.2-7.4-2.7-14.6-2.8-22c-0.1-83.5,0-166.9-0.1-250.4c0-3.3,1.1-4.5,4.7-4.7
	c7.2-0.6,14.3-7,15.8-13.7c1.3-5.8,7-8.4,14.3-6.7c2,0.5,4.2,0.1,6.4,0.1c3,0,5.9-0.2,8.7-0.2c13.1,0,26.4,0,39.5,0
	c15.9,0,32,0,47.9,0c10.1,0,20.1-0.1,30.1,0c7.2,0.1,14.3,0.6,21.5,0.6c8.5,0,17.1-0.6,25.8-0.6c21-0.1,42.2,0,63.3,0
	c269.6,0,539.2,0,808.8,0c7,0,13.9,0.6,20.8,0.6c3.6,0,7.2-0.6,10.8-0.6c8.6-0.1,17.4,0,26,0C1184,29.2,1190.6,29.2,1197.6,29.2
	 M996.8,863.8c54.3,0,108.7,0,163,0c64.9,0,129.9,0,194.8,0c3.9,0,8,0,11.9,0c4.9,0,9.8,0.1,14.7-0.1c0.9,0,2-0.9,2.5-1.7
	c1.3-2.5,2.6-4.9,3.8-7.5c2.6-4.7,6.4-8.4,12.3-9.1c4.1-0.6,5.1-2.6,5.1-5.8c0-84.5,0-169.2-0.1-253.8c0-3.4-0.4-6.9-1.5-10.1
	c-1.6-4.4-3.8-8.6-6.4-12.6c-2.8-4.3-6.9-7-12.3-8.5c-3-0.8-5.7-2.5-5.5-6.5c0.4-7.5,0.1-15.1,0.1-22.7c0-2.6-1-3.6-3.8-3.8
	c-6-0.2-11.3-2.7-15.8-5.9c-4.8-3.5-9.3-7.4-13.1-11.9c-4-4.7-7.8-10.2-10.4-15.7c-2.7-5.8-4.1-12.3-5.5-18.5
	c-1.3-5.7-2.8-11.6-2.9-17.4c-0.2-11.7,1.4-23.2,5.6-34.3c1.8-5.2,3.6-10.7,6.6-15.4c4.9-7.3,10.2-14.6,18.3-19.6
	c4.7-2.9,9.5-5.6,15.4-6.3c4.4-0.5,5.7-1.4,5.7-5.5c0-6.7,0-13.5,0-20.2c0-4.3,1.2-5.6,6-7.2c5.3-1.7,10.1-4.9,12.7-9.1
	c4.6-7.5,7.4-15.5,7.4-24.5c-0.3-83.9-0.1-167.9-0.1-251.7c0-0.6,0.2-1.2,0-1.6c-0.7-1-1.2-2.6-2.5-3.1c-3.2-1.6-7-2.5-9.7-4.6
	c-3.3-2.7-7-5.8-8.2-9.3c-2-5.8-1.3-6.4-8.1-6.4c-437.3,0-874.4,0-1311.7,0c-0.3,0-0.5,0-0.8,0c-2.9-0.6-4.2,0.9-5.4,3
	c-1.7,3.1-3.1,6.7-5.5,9.1c-3,3-6.6,5.9-10.7,7.5c-5.7,2.3-6,1.6-6,7.1c0,83.5,0,166.9,0,250.4c0,7.4,1.8,14.3,6.1,20.7
	c3.8,5.8,8.3,11.2,16,12.8c3.2,0.7,3.7,2.4,3.7,4.7c0,7.8,0,15.6,0,23.4c0,2.3,0.6,3.4,3.4,3.9c10.4,2.1,19.5,6.2,26.4,13.5
	c8.1,8.6,14.1,18.4,17.5,29.4c2.6,8.4,4.5,16.7,4.4,25.4c-0.1,6.9,0.1,13.8-0.9,20.6c-0.9,5.7-3.7,11.2-5,16.9
	c-1.2,5.7-4.3,10.6-7.4,15.5c-5.4,8.5-12.6,15.7-22.4,20.1c-3.9,1.8-7.7,4.5-12.7,3.9c-2.5-0.3-3.3,1.3-3.3,3.5
	c0.1,7.7,0.1,15.4,0,23c0,3-1.3,5.2-4.7,6.5c-3.1,1-6.3,2.4-8.5,4.3c-8.3,7.2-12.3,16.4-12.3,26.6c-0.2,71.2-0.1,142.2-0.1,213.4
	c0,13.4,0,26.8,0,40.2c0,3.7,1.3,5.3,5.4,6.3c0.7,0.1,1.4,0.1,2.2,0.3c7.2,2.9,11.8,7.7,13.7,14.6c0.8,2.8,2.2,3.7,5.5,3.7
	c40.2-0.1,80.5-0.1,120.9-0.1c23.9,0,47.9,0,71.9,0C502.8,863.8,749.4,863.8,996.8,863.8z"/>
<path class="st0" d="M78.4,451.7c-1.7,0.6-3.2,1.1-4.5,1.6c-6.1,2.4-6.3,8-8.4,12.5c-0.4,0.8-1,1.5-1.5,2.3
	c-0.8-0.6-1.7-0.9-2.2-1.6c-1.1-1.6-2.2-3.3-2.7-5.1c-1.3-5.5-6-7.6-11.2-8.9c-1-0.3-2.3-0.2-3.1-0.8c-0.9-0.7-1.7-1.8-2-2.9
	c-0.1-0.5,1.2-1.4,2.3-1.8c3-1,6.3-1.4,8.8-2.9c2.1-1.1,3.5-3.5,4.6-5.4c1.4-2.5,2.5-5,3.6-7.6c0.3-0.7,0.9-1.2,1.2-1.9
	c0.5,0.6,1.1,1.1,1.2,1.8c1,2.8,2.1,5.4,2.9,8.2c1.2,4.6,5.6,5.5,9.5,7.1c0.7,0.3,1.4,0.2,2.1,0.5c1.2,0.8,2.5,1.7,3.6,2.7
	C81.5,450.1,80.2,450.9,78.4,451.7z"/>
<path class="st0" d="M1366,452.6c-1.1-0.4-2.2-0.5-2.9-0.9c-1.3-0.8-2.6-1.8-3.7-2.9c1.2-0.7,2.3-1.5,3.6-1.9
	c6.1-1.6,11.1-4.3,12.8-10.5c0.4-1.3,0.6-2.8,1.2-4c0.3-0.7,1.3-1.3,2.1-1.3c0.9,0.1,2.1,0.7,2.4,1.4c1.2,2.6,1.8,5.2,3.3,7.7
	c0.9,1.5,2.5,2.9,4.1,3.7c2.4,1,5.2,1.3,7.6,2.4c1.2,0.5,2.2,1.8,3.3,2.8c-1.2,0.9-2.3,1.9-3.6,2.7c-1.2,0.6-2.7,0.9-3.9,1.2
	c-6.7,1.3-8.2,6.5-10,11.4c-0.5,1.3-1.4,2.6-2.3,3.8c-1.2-1.2-3.3-2.5-3.6-3.9C1374.7,458.9,1372.2,454.7,1366,452.6z"/>
<path class="st0" d="M1397.5,862.7c1.2-2.1,2.3-3.7,5.1-2.6c3.2,1.2,5.4,4.2,4.4,6.5c-0.9,2.1-2.6,3.2-5.2,2.9
	c-3-0.4-4.5-1.7-4.5-4.5C1397.3,864.2,1397.3,863.5,1397.5,862.7z"/>
<path class="st0" d="M1404.2,38.2c-6.3,0-7.4-1.4-6.2-5.9c0.6-2.4,2.2-3,3.9-2.9c1.7,0.1,4.2,0.9,4.8,2.2c0.7,1.3-0.2,3.5-0.6,5.2
	C1405.9,37.3,1405.1,37.7,1404.2,38.2z"/>
<path class="st0" d="M172.1,176.5c-1.7,1.1-3.6,1.8-4.8,3.1c-1.5,1.6-2.6,3.3-1.5,6.2c2.3,6.4,1,12.9-0.8,19.3
	c-2.3,8.2-7.7,14.9-14.1,20.8c-6.3,5.9-13.1,11.5-20.4,16.4c-5.4,3.6-11.6,7-18,8.5c-6.2,1.5-8.4,5.1-9.1,9.5
	c-1.5,8.4-6.5,15.2-11.1,22.3c-4.7,7.3-11.9,12.3-19.2,16.7c-4.6,2.8-4.4,4.9-3.5,8.5c1.1,3.8,2.1,7.7,3.1,11.6
	c0.9,3.9-7.1,10.5-11.3,9.2c-0.6-0.2-1.2-0.8-1.4-1.2c-0.1-0.3,0.5-0.9,1-1.2c1.3-0.9,3-1.4,4.1-2.6c4.2-3.6,4.1-4.1,0.4-8.1
	c-0.5-0.5-0.5-1.3-0.5-2.2c0-1.3,0.1-2.8,0.1-4.1c0-4.3-1.7-5.1-6-3c-2.3,1-4.6,2.2-7,2.9c-1,0.3-2.4-0.7-3.6-0.9
	c0.7-0.9,1.2-2.4,2.2-2.8c5.5-1.9,5-2.2,4.2-7.7c-0.4-2.9-0.8-5.6-1-8.5c0-0.8,0.9-1.5,1.3-2.4c0.6,0.6,1.3,1.1,1.6,1.8
	c1.1,3.1,2,6.4,3,9.5c0.3,1,0.7,2.1,1,3c1.2-0.8,3.2-1.4,3.4-2.4c0.3-2.3-0.2-4.6-0.6-6.9c-0.4-2.9-1.1-5.5-1.3-8.4
	c-0.1-0.5,1-1,1.4-1.5c0.5,0.5,1.2,0.8,1.4,1.3c1.1,3.8,2.3,7.7,3.1,11.6c0.4,2.2,0.5,2.5,2.7,0.9c5.3-3.4,5.4-3.5,3.6-8.9
	c-1.2-3.5-2-7.3-3.2-10.8c-0.5-1.3-1.7-2.6-2.7-3.8c-2.7-3.8-5.5-7.6-8-11.5c-0.6-0.9-0.2-2.5-0.2-3.6c1.1,0.6,2.9,0.9,3.3,1.7
	c2.2,4.8,8,8,7.8,14.1c0,1,2.2,2.1,2.9,3.3c1.6,3.1,3.1,6.5,4.6,9.5c0.5,0.9,1.5,1.4,2.4,2.3c0.5-1.1,1.5-2.6,1.2-3.4
	c-1.4-3.8-3.4-7.5-5-11.2c-0.4-0.9-0.9-1.8-0.9-2.8c0-1,0.6-2.1,0.9-3.1c0.7,0.8,1.5,1.4,2.1,2.4c2.1,3.9,4,7.9,6.1,11.8
	c0.3,0.6,0.8,0.9,1.2,1.4c0.4-0.6,1.1-1.1,1-1.6c-0.3-1.5-0.8-3.1-1.2-4.7c-0.2-0.7-0.6-1.3-0.9-2.1c-1.4-2.8-3.1-5.5-4.4-8.3
	c-0.3-0.6-0.1-1.4-0.2-2.2c0.9,0.1,2.3-0.1,2.6,0.3c2.1,2.9,5.3,5.4,5.1,9.4c0,0.9,0.6,1.8,0.9,2.8c0.8-0.6,1.8-1,2.4-1.7
	c1.2-1.8,2.8-3.8,3.5-5.9c0.3-0.9-0.7-2.6-1.4-3.5c-2.6-3-5.5-5.7-7.9-8.7c-0.8-0.9-0.5-2.7-0.8-3.9c1.2,0.6,2.6,0.9,3.4,1.6
	c2.5,2.5,4.6,5,7.1,7.6c0.6,0.7,1.4,1,2.3,1.6c0.5-0.9,1.3-1.8,1.3-2.8c-0.1-1.8-0.2-3.5-2.5-4.9c-3.7-2.5-6.9-5.4-10.2-8.4
	c-0.6-0.6-0.9-1.4-1.1-2.4c-0.2-0.6,0.1-1.2,0.1-1.8c0.5,0.3,1.2,0.4,1.5,0.8c3.6,2.8,7.1,5.5,10.8,8.2c0.8,0.6,2.1,0.8,3.2,1.1
	c-0.1-1.3,0.4-3-0.4-3.9c-1.4-1.5-3.6-2.6-5.4-3.8c-2.8-1.9-5.6-3.9-8.2-6.1c-0.7-0.6-0.6-1.9-0.9-3c1.1,0.1,2.4-0.1,3.1,0.4
	c3.5,2.3,6.7,4.7,10.2,6.9c0.6,0.4,1.5,0.4,2.4,0.6c0-0.8,0.2-1.7-0.2-2.2c-3.4-3.1-6.8-6.2-10.4-9c-1.3-1.1-3.4-1.8-4.6-3
	c-0.7-0.6-0.5-1.9-0.8-2.9c1,0.1,2.3,0,3.1,0.5c3.1,2.1,5.9,4.4,8.8,6.6c0.8,0.6,1.8,0.7,2.9,1c-0.4-0.7-0.5-1.6-1.1-2.2
	c-3.8-2.8-7.9-5.3-11.8-8.1c-1-0.7-2.1-1.3-2.8-2.4c-0.3-0.4,0.2-1.5,0.7-2.1c0.2-0.2,1.4,0,2,0.4c3,1.8,5.9,3.9,8.7,5.7
	c0.6,0.4,1.5,0.3,2.4,0.4c0-0.8,0.4-1.9,0-2.3c-2.1-1.6-4.1-3.5-6.6-4.7c-2.6-1.2-5.5-1.7-8.2-2.9c-1.2-0.6-2.3-1.9-2.9-3.2
	c-0.5-0.9-0.3-2.1,1.6-1c2.9,1.4,6,2.6,8.9,3.6c0.5,0.2,1.1,0.1,1.6,0.1c0-0.6,0.2-1.1-0.1-1.6c-1.8-3.1-3.6-5.8-8.4-6.3
	c-3.7-0.3-7.3-2.3-11-3.2c-1.5-0.5-3.4-0.4-4.9-0.8c-0.9-0.2-1.5-0.9-2.4-1.5c0.7-0.6,1.3-1.7,2.1-1.7c2.6,0.1,5.6-1,7.7,1.4
	c0.3,0.4,1,0.7,1.5,0.7c1.2,0.1,2.7,0,3.9-0.1c-0.8-0.9-1.4-1.7-2.3-2.6c-0.6-0.6-1.4-0.9-2.2-1.4c1-0.9,1.8-1.9,3.1-2.7
	c0.4-0.2,1.4,0.2,2.1,0.5c7,4.2,11.8,10.5,15.8,16.7c3,4.7,6,9.7,5.9,15.7c-0.1,3.6,1.2,7.2,2,10.9c0.2,0.9-0.1,2.1,0,3
	c0.1,1.2,0.5,2.5,0.7,3.6c1.3-1,3.6-2.1,3.8-3.3c0.6-3.2,0.1-6.7,0.3-9.9c0.1-0.9,1-1.7,1.5-2.6c0.5,0.8,1.2,1.5,1.3,2.5
	c0.4,2.1,0.4,4.2,0.9,6.3c0.3,1,1.5,2.9,1.8,2.9c1.7-0.6,3.6-1.2,4.8-2.5c0.6-0.6,0.7-2.7,0.1-3c-2.9-2.3-2.4-5-2.3-7.8
	c0-0.6,0.9-1,1.3-1.6c0.3,0.5,0.6,0.9,0.8,1.5c0.3,1.1,0.3,2.5,0.9,3.5c0.3,0.7,1.2,1.1,2,1.7c0.3-0.7,0.9-1.3,1-2.1
	c0.1-1.4-0.1-3,0.1-4.5c0.1-0.6,0.7-1,1.1-1.5c0.4,0.6,1.1,1.1,1.1,1.6c-0.2,2.9,1.3,6.3-2.3,8.5c-0.4,0.2-0.4,0.9-0.5,1.3
	c0.5,0.1,1.1,0.4,1.3,0.2c2.3-1,4.8-1.8,4.5-4.8c-0.2-2.2-0.2-4.4,0-6.6c0.1-0.8,1-1.5,1.4-2.3c0.5,0.8,1.2,1.5,1.3,2.5
	c0.2,0.9,0,2.1,0.1,3.1c0.1,1.1,0.2,2.3,0.3,3.4c1.3-1.3,3.4-2.6,4-4.2c0.4-0.9-1.1-2.7-1.6-4c-0.4-0.8-0.8-1.5-1.1-2.4
	c0.8-0.1,1.6-0.5,2.4-0.4c0.8,0.2,1.5,0.8,2.1,1.3c0.3,0.3-0.2,1,0.1,1.2c0.5,0.6,1.2,1.2,1.7,1.2c0.9,0,1.7-0.6,2.6-0.9
	c-0.5-0.5-1.2-0.9-1.2-1.4c-0.3-1.4-0.5-2.9-0.6-4.4c0-0.2,1-0.6,1-0.6c0.6,0.7,1.2,1.3,1.6,2.1c0.4,0.6,0.6,1.1,0.9,1.8
	c0.7-0.7,1.8-1.3,2.1-2.2c1.8-6.7-1-12.3-4.8-17.8c-0.5-0.8-0.4-1.8-0.6-2.9c0.9,0.2,2.2,0.1,2.6,0.6c2.2,2.6,4.1,5.2,6,8
	c0.7,1,0.9,2.5,1.5,3.5c0.4,0.7,1.3,1,2.1,1.5c0.3-0.9,0.8-2.1,0.7-3c0-0.7-1.1-1.1-1.2-1.9c-0.2-0.7,0.1-1.5,0.2-2.4
	c0.5,0.4,1,0.9,1.5,1c0.8,0.1,2.2-0.2,2.2-0.5c0.3-0.9,0.4-2.2-0.1-3c-1.1-1.7-2.7-3.3-3.9-5c-0.6-0.8-1.3-1.6-1.3-2.6
	c0-1,0.8-2.2,1.2-3.2c0.8,0.9,1.8,1.8,2.5,2.9c1.1,1.9,1.8,4.1,2.9,6.2c0.1,0.2,0.9,0.3,1,0.2c0.6-0.6,1.3-1.1,1.3-1.8
	c0.1-4.9,0-9.9,0.1-14.9c0.1-2.9-1.2-3.2-3.9-2.5c-8.2,2.5-16.2,4.9-24.5,7c-3.4,0.9-7.1,0.9-10.7,0.8c-1.2,0-2.4-1.6-3.6-2.6
	c1-0.5,2-0.9,2.9-1.4c1.8-0.9,3.2-1.9,2.6-4.5c-0.6-2.9-0.2-5.9-0.1-8.8c0-0.4,0.7-1,0.9-0.9c0.8,0.2,1.8,0.6,2.1,1
	c0.5,1.3,0.6,2.8,0.8,4.2c0.3,1.8,0.3,3.8,0.9,5.5c0.4,1.1,0.8,2.6,3.3,1.7c4-1.1,8.4-1.2,12.6-2.4c3.5-0.9,6.6-2.7,9.9-4.1
	c0.4-0.2,0.5-1,0.7-1.5c0.8-1.8,0.1-4.8,4.2-4c0.3,0.1,1.1-2.2,1.8-3.2c0.5-0.7,1.3-1.2,2.1-1.8c0.3,0.8,0.6,1.5,0.9,2.5
	c0.2,0.7,0.2,1.5,0.5,2.3c0.3,0.5,1,0.8,1.5,1.1c0.3-0.6,1-1.1,0.9-1.6c-0.3-1.7-1-3.5-1.3-5.3c-0.2-0.8-0.2-2.1,0.2-2.4
	c6-4,8.7-10.2,12.5-15.6c0.6-0.8,1.2-1.6,1.8-2.5c2-2.4,2.9-4.7,1-7.5c-0.2-0.3-0.6-0.6-0.5-0.8c1.1-4.2-2.1-6.8-4.2-9.7
	c-0.6-0.9-0.4-2.4-0.5-3.5c1.1,0.4,2.5,0.6,3.2,1.2c2.7,2.7,5,5.4,7.7,8.1c0.9,0.9,2.4,1.1,3.6,1.7c-0.4-1.1-0.4-2.6-1.2-3.5
	c-2-2.4-4.2-4.4-6.4-6.7c-0.6-0.7-1.2-1.3-1.5-2.2c-0.4-0.7-0.4-1.5-0.6-2.4c1.1,0.3,2.5,0.4,3.1,0.9c2.2,2.3,3.9,4.7,6,7
	c0.4,0.4,1.1,0.6,1.5,0.9c0.3-0.6,0.8-1.1,0.8-1.7c0.1-3.5-3.2-5.2-5.1-7.6c-0.8-0.9-2.2-2.4-2-2.7c1.5-1.9,2.7-0.2,3.8,0.8
	c0.5,0.4,1.1,0.7,1.5,1c0.3-0.7,0.9-1.4,0.9-2.1c-0.4-3-0.8-6.1-1.5-9c-0.2-0.7-0.9-2.1-2.4,0c-5.7,7.8-13.3,13.7-22.1,18.6
	c-1.6,0.9-3.7,1.4-5.7,1.5c-7.1,0.4-10.1,1.9-11.4,8.1c-1.5,7.1-7.1,11.4-12.1,16.1c-4.8,4.6-11.2,7.1-18,8.8
	c-5.2,1.3-10.5,2.1-15.7,0.6c-1.1-0.3-2-1.3-3-2.1c1.1-0.4,2.3-1,3.5-1.2c2.9-0.4,6.1,0.9,8.4-1.8c0.3-0.3,2.1,0.4,3.3,0.6
	c1,0.2,2.1,0.2,3.1,0.4c-0.3-0.9-0.4-2.1-1.1-2.6c-1.7-1.4-3.8-2.7-5.7-4c-0.5-0.4-0.6-1-0.9-1.6c0.7,0,1.3,0,2.1,0.1
	c0.9,0.1,1.7,0.3,2.6,0.5c-0.5-0.7-0.8-1.5-1.4-2.2c-0.8-0.7-1.6-1.1-2.6-1.7c-1.2-0.9-0.9-4.2,0.6-4.7c0.3-0.1,0.9,0.6,1.2,0.9
	c1.4,1.4,2.8,3.2,4.3,4.5c0.7,0.6,2.2,0.5,3.3,0.6c1.2,0.1,3.2-1.5,3.4,1.2c0,0.5,1.3,1.1,2.3,1.4c1.1,0.4,2.3,0.4,3.4,0.6
	c-0.6-0.8-1.1-1.6-1.6-2.4c-0.4-0.5-0.9-0.9-1.3-1.2c-3.3-2.8-3.3-2.7,0.7-4.5c0.4-0.2,0.6-0.7,0.8-1c-0.9-0.3-1.6-0.8-2.6-0.9
	c-0.3,0-0.7,1-1.2,1.5c-1.8,2.3-3.6,2.2-5.4,0c-0.8-0.9-2-1.5-2.6-2.6c-0.3-0.5,0.3-1.5,0.5-2.4c0.7,0.2,1.7,0.3,2.1,0.7
	c1.5,3,3.7,2.1,6,0.9c0.9-0.4,2.2-0.7,3.2-0.5c2.6,0.5,4.9,1.4,7.4,1.9c3.4,0.7,5.9-1,8.2-2.8c0.4-0.3,0.5-1,0.3-1.4
	c-0.1-0.3-1-0.6-1.4-0.5c-3,0.5-6,0.9-8.8,1.5c-0.3,0.1-0.7,0.5-0.9,0.5c-4.4-1.7-8.7-3.5-13.1-5.3c-0.4-0.2-0.4-1.1-0.6-1.7
	c0.6-0.1,1.2-0.4,1.6-0.3c1.2,0.3,2.5,0.7,3.6,1c3,0.9,6,2.8,8.8,2.9c3.7,0.1,7.6-0.9,11.1-2.1c1.2-0.4,2.2-2.6,2.6-4
	c0.3-0.9-0.6-2.3-1-3.3c-0.7,0.6-1.4,1.1-2.1,1.8c-2,2.5-7.3,4-10,2.9c-0.6-0.3-1.2-1.3-1.2-1.8c0.3-0.9,1.2-2.2,2-2.2
	c4.2,0.2,6.6-2.9,9.8-4.4c2.9-1.3,3-5.5,0.5-7.5c-0.5-0.4-1.7-0.8-2-0.5c-2.4,2.5-5.5,0.8-8.2,1.3c-2.3,0.5-4.4,1.2-6.6,1.8
	c-0.1-2.1,0.6-4.5-0.4-6.2c-2.9-4.7,0.6-7,3.6-9.6c1.7-1.5,4.1-2.9,0.1-4.7c-0.9-0.4-0.7-2.7-1-4.1c1.2,0.2,2.9-0.1,3.6,0.6
	c4.3,3.5,9.7,6.7,12.5,11c3.5,5.2,5.1,11.6,4.9,18.1c0,1,0.5,3,1.2,3.1c1.3,0.3,3.4,0,4.4-0.7c0.7-0.5,0.5-2.3,0.6-3.4
	c0.1-1-0.4-2.4-0.1-3.3c0.3-0.8,1.4-1.3,2.3-2.1c0.5,0.7,1.2,1.2,1.3,2.1c0.4,1.2,0.5,2.6,0.8,3.8c0.2,0.6,0.7,1.1,1,1.6
	c0.7-0.4,1.7-0.7,2-1.1c0.3-1.1,0.2-2.4,0.1-3.5c-0.1-0.9-0.7-1.6-0.7-2.5c-0.1-2.1-0.8-4.6,1.8-5.6c0.3-0.1,2.1,2.6,3.1,4
	c0.1,0.2,0.3,0.4,0.3,0.6c-0.1,1.6-0.1,3.3,2.2,3.9c0.5-1.7,1.2-3.4,1.3-5.1c0.1-1.4-1.1-2.9-1.1-4.3c0-0.9,1.2-1.7,1.7-2.7
	c0.6,0.8,1.2,1.5,1.8,2.5c0.2,0.4-0.1,0.9,0.1,1.3c0.3,1,0.7,2.1,1.1,3c0.7-0.9,1.3-1.9,2-2.9c0.2-0.4,0.2-0.9,0-1.3
	c-1.3-3.7-2.5-7.3,1.8-10.2c1.1-0.8,1.6-2.3,2.5-3.3c0.3,1.4,0.6,3,1,4.5c0.2,0.9,0.4,2.1,0.6,3.1c0.8-0.3,1.7-0.4,2.2-0.9
	c0.8-1,1.4-2.3,1.6-3.5c0.1-0.8-1.1-1.6-1.3-2.6c-1-3-1.2-5.6,1.7-8.5c2.2-2.2,2.5-5.8,3.5-8.8c0.2-0.5-0.3-1.1-0.4-1.8
	c-0.5,0.3-1,0.6-1.5,0.8c-1.1,0.3-2.9,1.1-3.3,0.8c-1.4-1.3-2.7-3-3.7-4.7c-0.2-0.3,0.7-1,1.1-1.5c0.8,0.5,1.5,0.9,2.4,1.4
	c0.8,0.6,1.5,1.1,2.4,1.8c-0.3-1-0.6-2.2-0.9-3.3c-0.3-0.9-0.5-1.8-0.7-2.9c0.9,0.4,2,0.7,2.7,1.2c0.9,0.8,1.5,1.9,2.2,2.9
	c0.4,0.7,0.7,1.3,1,2.1c0.7-0.4,2-0.7,2-1.1c0.1-0.9-0.3-1.9-0.8-2.8c-1.4-1.9-3.4-3.7-4.6-5.7c-0.5-0.8,0.2-2.2,0.4-3.2
	c0.9,0.7,2,1.1,2.6,2.1c1.7,2.6,3.4,5.1,4.8,7.8c0.4,0.7,0.5,1.6,0.3,2.4c-0.8,2.7-1.6,5.2-2.7,8c-0.2,0.5-0.5,0.9-0.8,1.4
	c-0.4,0.7-0.9,1.4-1.2,2.2c0.8-0.6,1.8-0.9,2.4-1.7c1.7-3,3.7-5.9,5-9c1.2-3.1-1.2-5.6-2.8-8.2c-1.2-2.2-3.2-3.8-4.7-5.8
	c-0.5-0.7-0.8-1.6-0.8-2.5c0-0.7,0.7-1.3,1-2.1c0.7,0.4,1.5,0.6,2,1.1c2,2.9,3.8,5.6,5.9,8.5c0.4,0.5,1.1,0.9,1.5,1.3
	c0.3-0.6,0.9-1.1,0.9-1.7c0.6-6.4-3-11.2-7-16c-1.3-1.6-3.5-3.2-1.2-5.3c0.3-0.3,1.7-0.3,2.1,0c1.3,1.7,2.6,3.6,3.8,5.3
	c0.4,0.5,1.1,0.8,1.6,1.1c0.2-0.6,0.8-1.1,0.6-1.6c-0.7-1.9-1.5-3.8-2.3-5.6c-0.2-0.6-0.3-1.6,0-1.8c0.6-0.3,1.7-0.5,2.3-0.1
	c1.2,0.9,3.2,1.9,3.4,3.1c0.6,4.6,0.1,9.2,1,13.8c1.1,5.5-3.2,11.4,1.1,16.7c0.8,0.9,2,1.6,3,2.5c0.3-0.9,0.3-1.8,0.9-2.6
	c1.7-2.5,2.1-4.6,0.1-7.2c-0.8-0.9-0.2-2.9,0-4.4c0.1-0.6,0.9-1.1,1.3-1.6c0.5,0.6,1.1,1,1.4,1.6c2.4,4.2,4.7,8.3,6.9,12.5
	c0.2,0.5-0.8,1.7-1.5,2.3c-1,0.7-2.5,0.9-3.5,1.6c-1.2,0.9-2.2,2.2-3-0.2c-0.1-0.2-0.9-0.4-1-0.3c-0.4,0.4-0.8,0.9-0.8,1.3
	c0,0.5,0.4,0.9,0.6,1.4c-1.4-0.2-3.3-0.1-4.3-0.9c-1-0.7-1.1-2.4-1.6-3.4c-0.4-0.7-1.2-1.1-1.7-1.7c-0.4,0.7-1.1,1.2-1.2,1.9
	c-0.2,2.1,0.5,4.4-2.1,5.7c0.5,0.7,1.1,1.8,1.5,1.8c3.9,0.1,7.9-0.1,11.7-0.2c3.6-0.1,6.4-1.2,8.9-3.7c1.5-1.4,4.3-2.4,6.7-0.2
	c0.4,0.4,1.3,0.2,2.1,0.2c-0.4-0.5-0.8-0.9-1.2-1.5c-0.3-0.5-0.7-1-0.6-1.5c0.2-0.8,0.7-1.5,1-2.4c0.5,0.5,0.9,1.4,1.3,1.4
	c2.5,0.2,5,0.3,7.5,0.1c0.8-0.1,1.5-0.9,2.4-1.3c-0.8-0.6-1.5-1.2-2.5-1.7c-1-0.6-2.3-0.8-3.2-1.4c-0.7-0.5-1.2-1.4-1.1-2.3
	c0-0.4,1.2-0.9,2-1.1c4.8-0.8,9.8-1.3,14.6-2.2c0.8-0.1,1.4-0.6,2.3-0.9c-0.7-0.6-1.3-1.7-2-1.7c-3.5,0.4-7.4-1.5-10.3,1.7
	c-0.4,0.4-1.3,0.5-2.1,0.7c0-0.7-0.3-1.7,0.1-2.1c2.3-1.8,3.8-4.4,8.3-3.3c4.5,1.1,9.4,0.6,12.7-3.4c0.3-0.4,0.4-0.8,0.6-1.1
	c-0.6,0-1.1,0-1.6,0c-3.5,0-6.9,0.1-10.4-0.1c-0.7,0-1.3-0.9-2.1-1.4c0.8-0.4,1.5-1.1,2.4-1.1c5.1,0.4,10-0.4,14.3-2.9
	c1-0.6,1.5-1.5,2.4-2.4c-1.1,0.1-2.2,0.2-3.3,0.2c-2.4,0-4.3,1.2-6.3,1.8c-2.8,0.9-6.2-0.4-9.3-0.8c-1-0.1-2-0.9-3-0.9
	c-3.6,0.3-3.6-2.9-5.2-4.3c-0.3-0.3,0.5-1.5,0.8-2.4c0.5,0.3,1.2,0.6,1.5,0.9c3.5,2.9,13.6,4.1,17.8,2.2c0.4-0.2,0.9-0.6,1.1-0.9
	c2-3.4,6.8-5.4,10.7-4.5c2.1,0.5,3.5,4.2,2,6.7c-6,10.8-12.9,20.8-23.6,28.6c-4.2,3-8.2,6.2-13.1,8.1s-10,3.9-15.1,5.2
	c-3.8,0.9-7.9,1.2-11.9,1.3c-2.6,0.1-5.1-0.9-7.7-1.1c-1.2-0.1-3.3,0-3.8,0.8c-2,2.6-3.2,5.4-5,8.1c-1.5,2.3-1.2,4.3-0.7,6.7
	c1,3.5,2.1,7,2.1,10.5c0,8.1,1.2,16.2-1.3,24.1c-2.2,6.8-5.2,13-9.2,19.3C181.8,167.9,176.6,171.6,172.1,176.5 M138.8,105.5
	c0-0.9,0-1.8,0-2.8c-1,0.4-2.1,0.7-2.8,1.2c-1.4,1.1-3,2.6-4.2,3.9c-0.4,0.4-0.4,1-0.7,1.6c0.7,0,1.4,0.4,1.8,0.1
	C134.8,108.4,136.5,107.1,138.8,105.5 M134.2,146c-1,0.1-1.8,0.1-2.9,0.2c-0.7,0.1-1.3,0.3-2.1,0.4c0.3,0.7,0.6,1.8,1,1.9
	c1.6,0.2,3.5,0.1,5.1-0.2c0.8-0.1,1.4-0.9,2.2-1.3C136.7,146.7,135.8,146.3,134.2,146 M172.2,170c0.9-1.1,2-2.3,2.6-3.4
	c0.4-0.9,0.1-2.1,0-3.1c-0.8,0.6-1.5,0.9-2.2,1.6c-0.8,0.7-1.4,1.4-2,2.4C169.7,168.8,170.2,170.1,172.2,170 M118.7,156.7
	c1.4,2.1,4.6,2.3,5.7,0.4c0.1-0.2,0.1-0.7,0-0.7c-2-0.7-3.8-1.7-6-1.9C117,154.3,117.1,155.5,118.7,156.7 M192.7,91.8
	c-1.6-1.4-2.6-0.4-2.6,0.9c0,1.4,0.5,3,0.8,4.5c0.5-0.3,1.2-0.6,1.3-0.9C192.6,94.9,192.8,93.5,192.7,91.8 M176.4,161.5
	c1,0.5,2,0.9,2.9,1.5c-0.3-1.7-0.6-3.5-1.1-5.2c-0.1-0.3-1.2-0.3-1.7-0.4C176.4,158.4,176.4,159.6,176.4,161.5 M142.6,109.6
	c-1.3-1.7-1.3-1.7-3.7,0.7c-0.4,0.4-0.4,1-0.6,1.6c0.8,0.1,1.7,0.4,2.3,0.1C141.3,111.5,141.6,110.7,142.6,109.6 M184,152.6
	c0-0.6,0.2-1.1,0-1.6c-0.2-0.6-0.8-0.9-1.2-1.4c-0.4,1-0.7,2.2-1.1,3.2C182.2,152.8,183,152.8,184,152.6 M218.1,80.4
	c-0.6-0.8-1.2-1.5-1.7-2.5c-0.4,0.7-0.9,1.4-1.2,2.2C215.9,80.4,216.8,80.5,218.1,80.4 M183.2,109.3c0.2-0.9,0.3-2.1,0.5-3
	c-0.5,0.2-1.4,0.4-1.4,0.6C182.2,107.7,182.5,108.8,183.2,109.3 M160.8,175.5c-0.9,0.8-1.7,1.5-2.6,2.4l0.4,0.4
	c0.9-0.6,1.7-1,2.6-1.7C161.3,176.5,161.2,176.1,160.8,175.5 M184.7,140.1c0.5,0.2,1,0.5,1.5,0.7c0.2-0.3,0.3-0.6,0.5-0.9
	C186,139.7,185.4,139.6,184.7,140.1z"/>
<path class="st0" d="M141.6,678.5c0.1-2.4,0.4-4.6,0.5-6.9c0-0.7-0.4-1.3-0.6-2.1c-0.6,0.4-1.2,0.8-1.7,1.1
	c-0.2,0.1-0.4,0.3-0.5,0.5c-0.8,0.9-1.5,1.8-2.4,2.9c0.1-1.7-0.3-3.7,0.5-5c1-1.5,1.2-1.8-0.6-2.9c-3.6-2.2-2.9,1.1-3.6,2.3
	c-0.8,0.9-1.1,2.3-1.5,3.3c-2.6-1-5.6-1.6-7.5-3.3c-1.7-1.5,0.2-5.7,2.7-6.8c0.2,1.6,0,3.1,0.3,4.6c0.1,0.8,1.1,1.3,1.7,2.1
	c0.4-0.3,0.8-0.5,1.1-0.8c1.2-2.1-0.1-5-2.9-5.9c-0.9-0.7-1.5-1.5-2.7-1.9c-0.3-0.1-1.7,1-1.8,1.7c-0.3,1.7,0,3.5-0.2,5.2
	c-0.1,0.6-0.8,1.1-1.2,1.7c-0.8-0.8-2.4-1.5-2.3-2.3c0.1-2.4,0.9-4.7,1.2-7c0.2-0.9,0.4-2.4-0.1-2.8c-1.2-1-3-1.6-4.5-2.5
	c-0.5,1-1.2,2.1-1.3,3.1c-0.4,2.2-0.5,4.4-0.9,6.7c-0.1,0.7-0.7,1.3-1.1,1.9c-0.7-0.8-1.8-1.4-1.8-2.3c-0.2-3.3,0-6.7-0.1-9.9
	c0-0.9-0.6-2.1-1.2-2.9c-0.3-0.4-1.4-0.8-1.8-0.6c-0.6,0.3-1.2,1-1.2,1.7c-0.6,5.4-0.7,10.9-1.6,16.2c-0.7,3.8-1.7,7.9-3.9,11.2
	c-4.6,6.7-10,13-15.3,19.4c-0.7,0.9-2.5,1.1-3.8,1.4c-0.5,0.1-1.5-0.5-1.7-0.9c-0.2-0.6,0.1-1.4,0.5-2.1c1.2-1.6,2.6-3.2,3.8-4.7
	c-1.7,0.8-3.5,1.5-5.3,2.3c-1.7,0.7-3.6,1.7-5.3,1.5c-2.9-0.4-5.6-1.5-8.4-2.5c0.7-0.6,1.2-1.6,2-1.7c5.5-0.8,11-1.1,16.4-2.3
	c4.4-0.9,8.1-3.2,9.8-7.3c0.2-0.5,0-1,0-1.6c-0.5,0.1-1.1,0.2-1.5,0.4c-3.1,1-6.1,2.3-9.1,3.1c-0.6,0.2-1.5-0.4-2.4-0.6
	c0.6-0.7,1-1.7,1.7-2.2c4.4-2.1,8.8-3.9,13.2-5.7c0.5-0.2,1.2-0.4,1.4-0.8c0.9-1.3,1.5-2.9,2.4-4.2c-1.5,0.5-3.3,0.9-4.6,1.5
	c-3.2,1.5-6.1,3.2-9.1,4.7c-0.5,0.2-1.2,0.1-1.7,0.1c0.3-0.4,0.7-0.8,0.8-1.2c0.5-1.5,1.2-3.1,1.1-4.7c-0.2-2.5,1.1-3.7,3-4.9
	c4.1-2.9,8.4-5.6,12.3-8.7c0.9-0.7,0.5-2.7,0.7-4.1c-1.2,0.4-2.4,0.7-3.4,1.2c-3.2,1.7-6.1,3.8-9.2,5.4c-0.7,0.4-1.8-0.1-2.9-0.1
	c0.3-0.7,0.4-1.6,1-2.2c3-2.2,6-4.1,8.9-6.2c1.7-1.2,3.5-2.6,5-3.9c0.5-0.5,0.6-1.7,0.2-2.3c-0.4-0.5-2-0.7-2.5-0.3
	c-2,1.2-3.7,2.9-5.6,4.3c-1.5,1.1-3.3,2.3-5,3.1c-0.5,0.2-1.3-0.2-2.1-0.4c0.2-0.6,0.2-1.2,0.7-1.6c3.5-2.9,7.1-5.6,10.3-8.8
	c1.2-1.2,1.2-3.6,1.6-5.4c0.1-0.3-1.1-1-1.5-1c-0.7,0-1.5,0.5-2.1,1c-2.3,2.6-4.2,5.2-6.6,7.8c-0.6,0.6-2,0.5-3.1,0.7
	c0.1-1.2-0.2-2.9,0.5-3.7c2.8-3.3,5.7-6.5,8.7-9.4c1.8-1.8,2.1-3.5,0.1-5.2c-0.4-0.3-0.8-0.6-1.1-0.9c-1-1-2-2.3-3-3.3
	c-0.9,1.3-1.7,2.8-2.7,4.2c-1.5,2.6-3.2,4.9-4.9,7.4c-0.3,0.4-1.3,0.3-2.1,0.4c0-0.7-0.2-1.3,0.1-1.8c2.2-4.1,4.5-8.2,6.6-12.3
	c0.5-0.9,0.3-2.3,0.2-3.3c0-0.4-0.6-0.9-0.9-0.9c-0.5,0-1.1,0.4-1.2,0.7c-1.1,1.8-2.1,3.8-3.2,5.6c-1.2,2.3-2.6,4.6-3.9,6.8
	c-0.2,0.4-0.9,0.7-1.2,0.6c-0.3,0-0.9-0.7-0.8-0.9c0.2-1.3,0.5-2.9,1-4.1c1.5-3.4,3.4-6.7,4.9-10.2c0.3-0.7,0.3-1.6,0-2.4
	c-0.4-0.9-1.2-1.7-1.8-2.8c-0.5,0.7-1.2,1.3-1.5,2.2c-1.7,4.8-3.7,9.5-7.4,13.7c-2.7,3.1-3.8,7.2-6,10.8c-0.7,1.1-2.4,1.8-3.6,2.8
	c0.1-1.5-0.4-3.4,0.4-4.7c2.1-3.3,4.8-6.3,7.1-9.4c0.7-0.9,0.4-2.4,0.9-3.4c1.5-3.9,3.4-7.7,5.1-11.5c1-2.3-3.1-8-5.9-7.9
	c-0.6,0-1.5,1.4-1.6,2.4c-0.8,5.6-2.4,11.1-7.1,15.2c-0.9,0.8-2.3,0.9-3.4,1.4c0.5-1,0.7-2.6,1.4-3c2.6-1.4,2.8-3.4,3-5.8
	c0.2-2.8,1.2-5.4,1.7-8.3c0.3-1.6,0.6-3.4,0.3-5c-0.1-0.7-1.4-1.5-2.5-1.6c-0.6-0.1-1.7,0.9-2,1.7c-1.2,4.1-2.1,8.2-3.2,12.3
	c-0.1,0.4-0.7,0.7-1,0.9c-0.4-0.4-1.2-0.8-1.2-1c0-3.7-0.5-7.5,0.3-11c0.7-3.3,0.9-5.3-3.3-6.6c-1.8-0.5-4.9-1.2-3.5-3.8
	c0.5-0.8,4.1-0.5,6.1,0c2.4,0.6,4.3,2.3,6.6,3c2.2,0.7,4.2-0.2,4.1-2.5c-0.1-2.4-1.1-4.6-1.6-6.9c-0.2-0.6-0.4-1.2-0.5-1.8
	c0.6,0.1,1.3,0.4,1.7,0.2c1-0.4,2.5-0.9,2.7-1.5c0.4-1.8,0.5-3.9-1.6-5.1c-1.2-0.7-2.5-1.4-3.5-2.5c-0.9-0.9-1.3-2.1-2-3.1
	c1.2,0.2,2.6,0.2,3.6,0.6c2,0.9,3.9,2.1,5.9,3.1c2.2,1.2,2.8,3.1,2.4,5.2c-0.9,4.6-1.5,9.2-2.9,13.7c-0.8,2.9,0.3,5,2.8,6.4
	c11.8,6.1,19.9,15.4,26.4,25.6c3.2,4.9,4.4,10.9,6.2,16.5c0.8,2.7,1.6,4.6,4.8,5.7c8.7,3.3,17.2,7,24.7,12.3
	c7.3,5.1,15.2,9.9,20,17.4c1.2,1.9,4,3,5.1,4.9c3.3,5.6,6.5,11.3,7.2,18.1c0.4,3.7,0.4,7.5,0.5,11.2c0,0.5,0.2,1,0,1.3
	c-3.7,4.9,0.5,7,4,9.3c7.1,4.7,11.8,11.2,16.6,17.7c4.7,6.5,7.1,13.5,8.2,20.9c1,7,0.9,14.3,0.8,21.3c0,2.8-0.8,5.6-1.8,8.2
	c-1.4,3.5-0.9,6.5,1.8,9.1c0.7,0.7,1.2,1.5,1.6,2.5c1.4,2.9,3,4.3,7.4,3.7c6.2-0.8,13-0.9,18.9,0.7c7.1,1.8,13.9,5.1,20.3,8.6
	c13.2,7.2,21.9,18.4,29.2,30.4c1.5,2.8,3.5,6.7,1.1,8.5c-2.1,1.5-6.7,0.3-10.2,0.3c-0.5,0-1.2-0.4-1.2-0.7c-2.1-5-6.5-6.8-11.9-4.7
	c-2.7,1-5.3,2.2-8.1,3.1c-0.4,0.1-1.4-0.2-1.4-0.4c-0.1-0.6-0.1-1.6,0.3-1.8c3.6-1.7,7.1-4,10.9-4.9c3.6-0.9,7.8-0.4,11.2,1.8
	c0.7,0.5,1.7,0.6,2.7,0.7c0.5,0.1,1.5-0.3,1.4-0.4c0-0.6-0.2-1.5-0.6-1.7c-2.2-0.9-4.4-2.1-6.8-2.6c-3.2-0.6-6.4-0.5-9.5-0.9
	c-0.7-0.1-1.2-0.9-2-1.4c0.7-0.6,1.3-1.7,2-1.7c3.2,0,6.4,0.5,9.5,0.6c0.9,0,1.7-0.5,2.7-0.8c-0.6-0.7-1.1-1.3-1.7-1.8
	c-4-2.9-8.6-2.4-13.2-1.7c-1.2,0.2-2.5-0.2-3.6-0.7c-0.6-0.2-1-1-1.3-1.6c0.8-0.3,1.5-0.5,2.3-0.8c2.3-0.9,4.4-1.8,6.7-2.8
	c-0.3-0.5-0.6-1.3-0.8-1.2c-2.3,0.5-4.5,1.1-6.9,1.5c-1,0.2-2.2-0.2-3.1-0.6c-0.9-0.4-1.4-1.1-2.3-1.6c-1-0.6-2.1-1-3.1-1.6
	c0.9-0.8,1.5-1.8,2.6-2.4c1.5-0.7,3.4-0.9,5-1.5c0.6-0.2,1-0.6,1.4-0.9c-0.4-0.4-0.8-0.9-1.2-1c-3.2-1.3-6.6-1.9-9.7-0.6
	c-2.9,1.2-4.2,0.1-6.1-1.3c-6-4.7-12.6-7.8-20.7-7.7c-3.2,0-4.2,1.3-3.9,4c0.1,0.9,0.4,1.9,0.8,2.9s1.1,1.9,1.6,2.9
	c1-0.9,2-1.9,2.9-2.9c0.1-0.1,0-0.3,0-0.3c0.7-0.9,1.2-2.1,2.1-2.9c0,0,1.3,0.5,1.3,0.8c0.2,1.2,0.1,2.7,0,3.9
	c0,0.3-0.5,0.5-0.8,0.7c-5.3,3.4-4.7,8-3.6,12.9c0.5,2.3-0.5,4.8-0.6,7.2c-0.1,3.5,0.1,7.1-0.1,10.6c-0.1,1.3-0.8,3-1.7,4.1
	c-0.6,0.6-2.3,0.4-3.6,0.5c0.1-0.9,0-1.9,0.2-2.9c0.4-1.5,1-3.1,1.2-4.7c0.1-0.3-0.6-0.9-0.9-0.9c-0.4,0-1.1,0.3-1.2,0.7
	c-1,1.3-1.7,2.9-2.8,4.1c-0.5,0.6-1.3,0.9-2.1,1.4c-0.3-1.1-1.2-2.7-0.7-3.5c1.6-2.9,3.7-5.4,5.9-8.2c2.4-3,2.2-6.5,2-9.9
	c0-0.4-0.7-0.9-1.1-1.2c-0.4,0.4-0.8,0.8-1.2,1.1c-2,2.7-3.7,5.2-5.9,7.8c-0.5,0.6-1.6,0.7-2.6,0.9c0-1-0.5-2.5,0-3.2
	c1.7-2.9,3.6-5.6,6-8.1c2.9-3,2.3-5.7,0.3-8.7c-1.3-2.1-2.5-4.4-3.8-6.5c-0.4-0.6-1.2-0.8-1.8-1.1c0.1,0.7-0.1,1.5,0.2,2.1
	c1.4,2.7,3.4,5.1,4.7,7.9c0.4,0.8,0.2,2.2-0.3,2.9c-1.8,3.1-4,6.1-6.2,9c-0.3,0.4-1.2,0.3-1.7,0.5c-0.1-1-0.7-2.5-0.2-3.2
	c1.2-1.7,3-3.2,4.4-4.8c0.4-0.5,1-1,1-1.6c0-0.9-0.4-2.1-0.6-3c-0.8,0.8-1.8,1.3-2.3,2.3c-1.5,3.6-3.7,4.4-7,2.6
	c-2.6-1.4-2-3.3-1.2-5.2c0.2-0.5,1.3-0.7,2.2-0.9c0.2,0.5,0.5,1,0.8,1.5c0.4,0.9,0.9,1.6,1.2,2.6c0.3-0.8,0.4-1.7,1-2.4
	c3.1-3,3.8-5.7,0.1-8.8c-0.3-0.3,0.9-2.2,1.4-3.2c0.7-1.3,1.8-2.8,2.1-4.2c0.1-0.8-1.1-1.7-1.7-2.8c-0.4,0.8-0.8,1.5-1.2,2.4
	c-0.3,0.8-0.3,1.7-0.8,2.5c-0.6,0.7-1.5,0.9-2.5,1.4c-0.2-0.8-0.7-1.5-0.6-2.4c0.4-1.8,1.4-3.7,1.4-5.5c0-2.2,1.5-4.9-2.2-6.5
	c-0.9-0.4-1-2.3-1.5-3.4c-0.3-0.5-0.8-0.9-1.2-1.4c-0.4,0.5-1.1,0.9-1,1.3c0.3,1.6,0.9,3.3,1.2,4.9c0.3,1,0.8,2.1,0.8,3.1
	c0,0.9-0.6,1.8-0.9,2.8c-0.7-0.7-1.2-1.3-2.1-2.1c-3.9-3.3-4.1-7.1-2.4-11.5c0.4-0.9-0.3-2.2-0.6-3.1c-0.2-0.5-0.9-0.8-1.2-1.1
	c-0.4,0.5-1,0.9-1,1.3c0.3,2.3-0.4,4-2.5,5.3c-0.7,0.5-1.2,1-1.8,1.5c0-0.9,0-1.8,0.1-2.9c0.3-3.2,0.8-6.4,1-9.5
	c0-0.4-0.6-0.9-1-1.3c-0.4,0.4-1.1,0.7-1.2,1c-1,2.2-1.7,4.4-2.9,6.6c-0.3,0.6-1.2,0.9-2,1.3c-0.4-0.8-1.2-1.4-1.2-2.3
	c0.2-2.1,0.7-4.1,1.1-6.2c0.1-0.8,0.6-1.7,0.3-2.3c-0.5-0.8-1.5-1.2-2.4-1.8c-0.4,0.6-1,1.1-1.2,1.7c-0.3,0.8-0.3,1.7-0.6,2.6
	c-0.3,0.9-0.8,1.7-1.2,2.7c-0.9-1.1-2.1-2.2-2.7-3.4c-0.4-0.9,0.3-2.3-0.2-3c-0.8-1.2-2-2.7-3.4-3c-2.5-0.7-2.7,1-2.7,2.9
	c0.1,8.1-2.1,15.8-7,22.4c-2.4,3.1-6.8,4.9-10.5,7.2c-0.6,0.4-2.2-0.6-3.4-0.9c0.3-0.8,0.4-1.8,1.1-2.4c2.2-1.7,2.2-3.4-0.1-5
	c-0.9-0.6-2-0.9-2.6-1.7c-1.4-1.5-3.9-3.4-3.8-4.9c0.2-3.3,4.8-6.6,8-6.7c3-0.1,6,0.4,8.8-0.2c1.5-0.3,3.6-1.9,4-3.3
	c0.8-2.3-1.2-3.5-3.6-4.1c-1.1-0.3-2-1.1-3.1-1.5c-1.2-0.5-2.4-0.9-3.6-1c-2.8-0.1-4.2-0.6-2.5-3.4c0.6-0.9,0.5-2.2,0.9-3.1
	c0.2-0.4,0.8-0.7,1.2-1c0.1,0.5,0.2,0.9,0.4,1.4c0.2,0.4,0.6,1,1,1.1c1.2,0.1,2.6-0.1,3.7,0.1c0.9,0.1,1.7,0.6,2.6,0.9
	c-0.5,0.5-1.1,0.9-1.3,1.4c-0.2,0.4-0.1,0.9,0.1,1.4c0.1,0.2,0.7,0.1,1,0.3c2.8,1.4,5.1,2.7,3.6-2.1c-0.2-0.6,0-1.3-0.1-2.1
	c-0.1-0.5-0.2-1-0.5-1.5c-1.7-2.4-12.7-4.2-15.6-2.9c-2.5,1-5,1.6-7.7,2.4c-0.6,0.2-1.3-0.4-2.1-0.6c0.4-0.7,0.5-1.6,1.1-1.9
	c5.6-3,11.8-3.2,18-2.9c0.5,0,0.9,0.8,1.3,0.9c0.9,0.4,1.8,0.5,2.9,0.8c-0.3-0.9-0.2-2.3-0.9-3c-3-3.5-7.1-2.2-11-2.2
	c-2.1,0-4.5,0.3-6-0.6c-2-1.2-3-1-4.3,0.4c-0.7,0.8-1.4,1.6-2.5,2.1c-0.8,0.4-1.8,0.1-2.8,0.1c0.1-0.9-0.1-2.2,0.5-2.6
	c3.6-2.8,7.5-5.1,11.1-7.9c0.9-0.7,1.2-1.8,1.8-2.9c-1.2,0.3-2.6,0.3-3.6,0.8c-2.6,1.1-4.9,2.6-7.4,3.9c-2,1-3.6,2.5-5.6,3.6
	c-0.6,0.4-1.2,0.7-2,0.7c-0.3,0-0.8-0.9-0.7-1.4c0.4-2.8,0.1-4.6-3.9-4.1c-0.5,0.1-2.4-2.9-2-3.5c0.9-1.5,3-2.7,4.4-3.9
	c0.3,0.5,0.8,1,0.8,1.5c-0.2,1.1-0.6,2.4-1,3.6c1.1-0.7,2.1-1.4,3.2-2.1c1.6-1,3.4-2.1,5-3c0.6-0.3,1.1-0.8,1.5-1
	c-0.8-0.3-1.4-0.9-2.3-0.9c-4.1-0.3-8.3-0.4-12.3-0.8c-1.2-0.1-2.4-0.9-3.6-1.4c1.2-1,2.4-3.1,3.6-3.1c3.8-0.1,7.8,0.4,11.6,0.9
	c11.8,1.5,20.2,8.4,27.4,16.1c3.6,3.8,4.9,9,7.6,13.6c0.7,1.1,2.1,2.7,3.3,2.8c7.7,0.6,14.3,3.5,19.9,8c4.9,3.9,8.8,8.7,13.1,13.1
	c0.5,0.5,1.2,0.9,1.7,0.9c0.4,0,1.1-0.7,1.2-1.1c0.6-2.9,1.1-5.7,1.4-8.6c0.1-0.7-0.5-1.3-0.7-2.2c-0.6,0.3-1.2,0.6-1.8,1
	s-1,1.1-1.6,1.3c-0.8,0.3-1.6,0.2-2.6,0.3c0.1-0.8-0.1-1.8,0.4-2.4c1.1-1.1,2.7-1.9,3.9-3c1.1-0.9,2.3-2.2,2.9-3.4
	c0.4-0.9-0.1-2.3-0.2-3.3c-0.9,0.6-1.6,1.1-2.6,1.7c-2.1,1.5-4,3.3-6.2,4.7c-0.5,0.3-1.6-0.3-2.6-0.5c0.3-0.5,0.5-0.9,1-1.3
	c3.2-3.1,6.5-6.3,9.7-9.4c0.4-0.4,0.3-1.1,0.5-1.8c-0.6,0.1-1.3,0.1-1.7,0.4c-2.2,1.6-4.4,3.2-6.4,5c-1.5,1.4-2.7,3.3-4,4.8
	c-0.3,0.3-1.4,0.3-2,0c-0.4-0.3-0.7-1-0.7-1.5c0.1-0.6,0.6-1.1,1-1.6c3.9-3.5,4.3-8.4,5.4-12.8c0.3-1-1.2-2.7-2.2-3.9
	c-3.5-5.2-7.1-10.5-10.5-15.7c-0.9-1.4-1.2-2.6-3.8-2.1c-2.5,0.4-1.2-2.1-0.9-3.4c0.6-1.8,1.1-3.7,1.4-5.6c0.1-0.5-0.6-1-1-1.6
	c-0.4,0.4-1,0.7-1.2,1.1c-0.8,1.6-1.3,3.2-2.1,4.8c-1.2-1.3-2.5-2.8-3.8-4c-1.2-1.1-3-2.2-3.6-3.5c-1.5-3.6-5-4.9-8.5-6.2
	c-4.6-1.5-9.4-2.7-14.1-4c-2.7-0.8-4.7,0.9-5.1,4.4c-0.2,1.5,0.2,3.2-0.1,4.7c-0.2,0.9-1.2,1.5-1.7,2.4c-0.6-0.8-1.6-1.4-1.7-2.4
	c-0.3-1.6-0.2-3.4-0.1-5.1c0.1-2.7,0.4-5.1-3.6-5.7c-0.7-0.1-1.1-1.8-1.6-2.8c1.2-0.4,2.4-1.1,3.5-1c1.8,0.1,3.6,1.1,5.5,1.1
	c4.8-0.1,9.3,0.4,13.9,2.2c5.3,1.9,10.8,3.7,16.1,5.3c2.8,0.9,3.4-1.3,3.5-2.8c0.2-3.2-0.4-6.6-0.5-9.7c0-1.4,0.6-3,0.5-4.5
	c0-0.9-0.8-1.9-1.2-2.9c-0.6,0.6-1.2,1.1-1.6,1.7c-1.2,1.9-2.4,4-3.6,5.8c-0.3,0.5-1.2,0.6-1.8,0.9c-0.2-0.7-0.7-1.5-0.5-2.1
	c1.4-2.7,3.2-5.2,4.7-7.9c0.5-0.8,0.9-1.5,1.1-2.4c0.1-0.6-0.3-1.1-0.5-1.7c-0.6,0.4-1.2,0.7-1.7,1c-0.9,0.6-1.7,1.1-2.7,1.6
	c0.1-1,0.1-2.3,0.4-3.3c0.2-0.6,1.2-1,1.2-1.5c0-1.4-0.3-2.9-0.5-4.4c-0.7,0.8-1.6,1.5-2.2,2.5c-2.6,4.2-4.9,8.5-7.5,12.6
	c-0.4,0.6-1.2,0.9-1.8,1.2c-0.2-1-1-2.3-0.6-3c1.8-4.1,4.2-8.1,6.1-12.2c1.4-3.1-0.9-5.9-1.6-8.7c-0.4-1.4-1.4-0.7-2.1,0.4
	C143.7,676.1,142.7,677.2,141.6,678.5 M132.6,787c-0.5-0.4-1.1-0.9-1.5-1.2c-0.4,0.7-1,1.3-1,2.1c0,0.8,0.3,1.7,0.8,2.5
	c1.6,2.1,3.4,4,5.3,5.9c0.4,0.4,2.2,0.3,2.3,0.1c1.1-2.5,2.5-4.8,2.8-7.5c0.1-1-1.7-2.6-3.1-3.4c-0.8-0.6-2.2-0.7-3.3-0.8
	c-0.3,0-0.6,0.6-1,0.9c1,0.3,2.2,0.5,3,1c1,0.7,2,1.6,2.3,2.7c0.2,0.8-0.6,1.7-0.9,2.7c-1-0.6-2.1-1-2.9-1.7
	C134.4,789,133.9,788.1,132.6,787 M121.4,740.2c-2.8,1.8-5.6,3.6-8.3,5.5c-0.6,0.4-0.7,1.2-1.1,1.8c0.9,0,2.1,0.3,2.8-0.1
	c2.5-1.2,4.6-3.1,7.1-4.2C124.7,741.9,123.9,741.4,121.4,740.2 M88.6,669.4c-0.4,0.6-0.8,1-1.2,1.6c0.7,0.1,1.5,0.6,2,0.3
	c3.6-2.2,7.1-4.4,10.6-6.7c0.3-0.2,0.1-0.9,0.1-1.3c-0.6,0-1.2-0.2-1.5,0c-0.9,0.4-1.5,0.9-2.4,1.4
	C93.7,666.2,91.4,667.7,88.6,669.4 M135.7,750.6c-2.3,0-4.5-0.1-6.8,0.1c-0.7,0.1-1.2,0.9-2,1.4c0.6,0.2,1.2,0.5,1.8,0.5
	c2.4,0.1,4.7,0.1,7.1,0c0.8,0,1.5-0.3,2.4-0.4C137.8,751.6,137.1,751.1,135.7,750.6 M170.2,728.2c0.9,1.7,1.6,3.5,2.7,5.1
	c0.3,0.5,1.1,0.9,1.5,1.2c0.4-0.7,1.2-1.6,1-1.9C173.9,730.9,172.1,729.2,170.2,728.2 M179.5,739.2c0.3-0.6,0.8-1.1,0.7-1.7
	c-0.2-0.8-0.9-1.3-1.2-2.1c-0.8,0.6-2.2,1.1-2.3,1.8c-0.2,1,0.4,2.3,0.7,3.4C177.7,740.2,178.4,739.9,179.5,739.2 M186.2,750.9
	c-0.3-1.4-0.6-2.9-1.1-4.4c-0.2-0.4-1.2-0.7-1.7-0.8c-0.2,0-0.9,0.6-0.9,0.7C183.6,748,184.7,749.6,186.2,750.9 M230.6,813
	c0.4,0.7,0.9,1.9,1.1,1.9c1.1-0.2,2.1-0.7,3.1-1.1c-0.9-0.3-1.7-0.6-2.7-0.8C231.9,812.9,231.7,813,230.6,813 M159.2,720.3
	c0.3,0.7,0.6,1.3,0.9,2.1c0.4-0.2,0.7-0.4,1.1-0.6C160.7,721.1,160.2,720.6,159.2,720.3 M188.1,754.7c-0.4,0.8-0.7,1.6-1.1,2.5
	c0.3,0.1,0.7,0.2,1,0.3C188.2,756.6,188.4,755.8,188.1,754.7z"/>
<path class="st0" d="M1277.4,782.8c1.2,3,2.5,5.6,3.5,8.3c0.8,2.1,1.2,4.1,1.8,6.2c0.4,1,0.9,2.3,1.6,3.1c2.3,2.6,4.8,4.7,7.2,7.2
	c0.4,0.5,0.7,1,1,1.6c-1,0-2.3,0.4-2.8,0c-2.5-2.3-5.6-3.8-6.5-7.5c-0.6-2.3-3.2-4-4.7-6.1c-0.4-0.5-0.9-1-1.1-1.6
	c-1.2-4.7-2.6-9.3-3.8-14.1c-0.3-1.1-0.7-2.3-1-3.4c-1,0.8-2.1,1.5-3,2.5c-0.7,0.7-0.7,2.3-1.3,2.5c-4.7,1.4-4.6,3.9-3.3,7.7
	c1.4,3.9-0.8,7-4,8.6c-2.3,1.1-3.1,0.6-3.5-1.4c-0.1-0.8-0.3-1.4-0.6-2.2c-0.4-0.9-0.9-1.7-1.2-2.6c-0.6,0.9-1.6,1.7-1.7,2.8
	c-0.2,2.8-0.3,5.4,2,7.9c0.8,0.9,0.8,2.5,0.9,3.7c0,0.5-0.8,1.3-1.2,1.3c-0.5,0.1-1.3-0.5-1.6-0.9c-0.9-1.3-1.5-2.9-2.6-4.2
	c-0.4-0.6-1.2-0.9-1.7-1.4c-0.2,0.9-0.9,1.8-0.6,2.6c0.4,1.3,1.4,2.7,2,4.1c0.4,1.2,1.1,3.4,0.5,3.8c-4.3,2.9,0.1,6.1-0.4,9
	c-0.2,1,3.5,2.5,5,3.9c0.6,0.6,0,1.9,0,3c-0.6-0.3-1.3-0.5-1.7-0.9c-1-0.9-1.7-2.2-2.8-3c-0.6-0.6-1.5-0.9-2.4-1.3
	c-0.1,0.9-0.7,2.3-0.2,3c1.4,2.4,3.4,4.5,5,6.7c0.3,0.4,0.3,1.2,0,1.5c-0.3,0.3-1.3,0.5-1.6,0.2c-3.4-2.8-5.7-6.2-6.8-10.2
	c-0.1-0.3,0.2-0.8,0-0.9c-1.2-1.1-2.5-2.3-3.6-3.3c0,1.2-0.1,2.6-0.1,3.9c0,1.2,0.5,3.3-0.2,3.8c-3.6,2.5-2.7,5.8-1.8,8.6
	c0.9,3.2,3.5,6.1,4.9,9.1c0.8,1.6,1.7,3.9,1.1,5.2c-1.2,2.9-6,4.6-8.4,3.3c-1.5-0.8-2.9-3.1-3-4.7c-0.3-6.8-0.2-13.7-0.1-20.6
	c0.1-4.7,2-9,3.7-13.3c1.7-4.4,0.8-5.8-4.2-5.7c-6.1,0.1-12,1.2-16.4,5.3c-1.7,1.6-2.9,1.3-4.5,0.3c-0.7-0.5-1.7-0.9-2.6-0.9
	s-1.6,0.7-2.5,0.9c0.7,0.3,1.5,0.6,2.2,0.9c1.2,0.9,2.4,1.8,3.6,2.9c3.1,2.5,6.3,4.7,7.7,8.4c0.2,0.6,0.3,1.2,0.4,1.8
	c-0.7-0.2-1.6-0.3-2.1-0.8c-2.4-2.5-4.4-5-6.8-7.4c-3.6-3.5-8.2-3.4-12.8-2.9c-0.8,0.1-1.3,1.1-2.1,1.7c0.8,0.3,1.4,0.6,2.3,0.9
	c2,0.9,4,1.7,5.9,3c2.1,1.4,0.6,2.1-1,2.6c-1.2,0.4-2.6,1-3.8,1.4c-1.3,0.4-2.8,0.7-4.1,0.8c-1.7,0.1-3.5-0.2-5.2-0.1
	c-0.5,0-1,0.6-1.4,0.9c0.4,0.4,0.8,0.9,1.2,1c1.6,0.3,3.4,0.4,5,0.8c0.8,0.2,1.3,0.7,2.1,1c-0.6,0.6-1.2,1.5-1.8,1.5
	c-3.1,0.2-6.2,0.3-9.2,0c-4-0.4-6,2.2-8.3,4.3c-0.4,0.3-0.1,1.1-0.1,1.8c0.5-0.2,1-0.4,1.5-0.5c3.5-0.5,6.9-1,10.4-1.3
	c0.7-0.1,1.4,1.2,2.3,1.9c-0.9,0.5-1.6,1-2.6,1.3c-4.1,1.4-9-1-12.9,2.1c-1,0.8-1.7,1.7-2.7,2.7c1.3,0,3.3,0.6,4,0
	c4.2-2.9,9.1-2.3,13.6-1.6c2.8,0.4,5.3,2.9,7.6,4.7c0.5,0.4-0.7,2.4-1.1,3.6c-0.5-0.5-1.2-0.9-1.5-1.5c-4.4-5.4-15.1-4.7-18.1,1.2
	c-0.9,1.6-6.3,2.8-9.1,2.4c-3.8-0.5-3.3-2.9-3-4.9c0.3-1.9,1.2-3.9,2.2-5.6c4.5-8.7,11.2-16.1,18.7-22.9
	c7.1-6.5,15.7-10.4,24.9-13.7c6.4-2.5,13.1-3.5,19.6-2.5c8,1.3,11.3-1.9,14.3-7.7c2.6-4.8,0.5-9.2-0.5-13.8
	c-0.4-1.5-0.9-3.1-1.1-4.7c-1.2-8.7,0.6-17.4,3.2-25.6c3.7-12.3,11.3-22.8,22.2-31.2c0.3-0.2,0.5-0.6,0.8-0.7
	c5.9-1.6,5.6-6.1,4.9-10.1c-1.2-7.4-0.7-14.5,2.5-21.5c2.4-5.3,6.2-9.7,10.4-14.1c2.9-3,6.1-5.7,9.3-8.5c3.7-3.2,7.6-6.4,11.7-9.1
	c3.8-2.7,8.1-4.9,12.4-6.9c4.2-1.9,8.9-3.1,13.2-4.9c1-0.4,2-2.1,2.1-3.2c0.7-9.2,5.5-16.9,10.8-24.5c5.7-8.2,13.6-14.4,22.2-19.9
	c1.7-1,2.2-2.1,2.2-3.7c-0.1-4.8-0.5-9.4-2.7-14.2c-0.9-1.9,0.2-5.3,1.7-7.2c2.2-2.6,6-3,9.5-2.8c0.4,0,1.2,0.9,1.1,1.1
	c-0.4,0.6-1,1-1.6,1.4c-2,1.2-5.4,0.9-5.5,4.2c0,0.2-0.3,0.4-0.3,0.6c1,4.7,1.8,9.5,3.1,14.3c0.5,1.8,1.5,1.9,3.6,0.9
	c3.2-1.7,6.7-3.1,10.2-4.4c0.9-0.3,2.3,0.6,3.4,0.9c-0.4,0.8-0.6,1.6-1.1,2.4c-0.4,0.5-1.1,0.8-1.7,1c-1.6,0.8-4.5,1.3-4.7,2.5
	c-0.6,2.6,0,5.3,0.1,8c0.1,1.9,0.3,3.8,0.2,5.7c0,0.6-0.9,1.1-1.2,1.7c-0.6-0.5-1.4-0.9-1.5-1.5c-0.6-3-1.2-6.1-1.5-9
	c-0.2-1.5,0.3-3.4-2.5-3.1c-2.7,0.3-3.3,1.9-2.9,3.9c1.2,5,2.4,10.1,3.9,15c0.5,1.4,2.1,2.7,2.8,4.1c0.3,0.6,0.2,1.8-0.3,2.4
	c-1.3,1.4-2.3,0.6-2.7-0.9c-0.3-0.8-0.4-1.6-0.8-2.5c-0.5-1-0.7-2.7-1.5-3.1c-5.3-2.9-4.4-7.8-4.2-12.1c0.1-2.7-1.1-2.6-2.3-1.7
	c-4.5,2.9-8.9,5.9-13.1,9.2c-0.7,0.5-0.4,2.5-0.1,3.6c0.3,1.3,1.2,2.6,1.7,3.8c1.1,2.2,2.2,4.2,3.2,6.4c0.4,0.8,0.5,1.7,0.4,2.6
	c-0.1,0.6-0.6,1.4-1.1,1.5s-1.5-0.4-1.7-0.9c-1.3-3.1-2.6-6.4-3.9-9.5c-0.3-0.8-1.2-1.2-2-1.8c-0.6,0.7-1.6,1.4-1.5,2.2
	c0.1,1,0.9,2.2,1.3,3.2c1.6,3.1,3.6,6.3,5.1,9.4c0.5,0.9,0.1,2.4,0.1,3.5c-1-0.4-2.5-0.6-2.9-1.3c-2-3.5-3.7-7.1-5.5-10.6
	c-0.3-0.5-0.6-1.3-0.9-1.3c-0.6,0-1.4,0.3-1.8,0.8c-3.6,3.9-3.4,8.8,0.6,12.6c2.6,2.5,5,4.9,7.5,7.5c0.6,0.6,0.8,1.5,1.2,2.4
	c-1.1,0.1-2.8,0.8-3.3,0.3c-3-2.6-5.9-5.2-8.4-8.1c-0.9-0.9-1.3-2.2-2.1-3.2c-0.6,1-1.3,2.1-1.8,3.1c-1,2.3-1,3.7,1.8,5.2
	c3.6,1.9,6.4,4.9,9.3,7.7c0.5,0.5,0.3,1.6,0.4,2.6c-1,0-2.3,0.3-2.8-0.2c-3.3-2.8-7.9-4.4-8.9-8.8c0-0.2-1.2-0.4-1.3-0.2
	c-1.8,1.8-0.7,6.4,1.6,7.7c3.3,1.8,6.4,3.8,9.4,5.8c1,0.7,1.3,1.9,1.8,3c0.2,0.5-0.1,1.2-0.1,1.8c-0.7-0.2-1.5-0.2-2.1-0.6
	c-3.1-2.5-6-4.9-9-7.4c-0.4-0.3-1.5-0.4-1.7-0.2c-0.5,0.7-1.2,1.6-1,2.4c0.2,0.9,1,1.7,1.7,2.4c4.3,3.4,8.8,6.7,13.2,10.1
	c0.7,0.5,1.1,1.2,1.6,1.9c-1.2,0.2-2.8,0.8-3.6,0.4c-3.5-2.1-6.6-4.5-9.9-6.7c-0.5-0.3-1.2-0.3-1.8-0.4c0.1,0.6-0.1,1.3,0.3,1.6
	c4,2.8,8.2,5.3,12.2,8.1c1.1,0.7,2.1,1.5,3.1,2.5c-1.5,0.2-3.5,1-4.5,0.5c-3-1.4-5.5-3.5-8.3-5.2c-0.7-0.4-1.3-0.7-2.1-0.9
	c-0.1,0.8-0.6,1.8-0.2,2.3c1.3,1.6,3.2,2.9,4.6,4.6c0.5,0.6,1,1.7,0.7,2.2c-1.2,1.8-0.8,3.2,0.7,4.7c3.1,3.1,5.9,6.3,11.3,6.4
	c4.2,0.1,8.5,1.5,12.8,2.7c1,0.3,1.6,1.4,2.5,2.2c-1.1,0.4-2.2,1.2-3.2,1.1c-4.3-0.6-8.8-0.5-12.5-3.3c-0.7-0.6-2.2-0.3-3.3-0.4
	c0.5,0.7,0.9,1.6,1.5,2.2c1.5,1.1,3.4,2.1,5,3.1c0.4,0.3,0.9,0.7,0.9,1c0,0.3-0.6,0.7-1,0.9c-2,1.5-4.8,0.9-8.4-2.8
	c-3.4-3.4-6.7-6.8-9.3-10.6c-3.6-5.1-6.8-10.5-7.2-16.9c-0.1-2.1-1.2-4.1-1.7-6.3c-0.3-1.1-0.4-2.5-0.5-3.6
	c-0.1-2.4,0.1-4.6-0.1-6.9c-0.1-0.7-0.9-1.5-1.5-1.8c-0.5-0.2-1.8,0.4-2.1,0.9c-0.7,2.2-1.3,4.4-1.5,6.7c-0.2,1.5,0.6,3.2,0.6,4.8
	c0,0.9-0.7,1.7-1.1,2.7c-0.9-0.8-2.3-1.5-2.5-2.5c-0.6-2.2-0.4-4.4-1-6.6c-0.3-0.9-1.4-1.7-2.2-2.8c-1,0.9-2.8,1.7-2.9,2.8
	c-0.2,2.6,0.4,5,0.6,7.6c0.1,1.1-4.3,5.8-5,5.3c-1.5-0.9-2.9-2.5-3.9-4c-0.8-0.9-0.9-2.4-1.3-3.5c-0.4,0.2-1.2,0.4-1.2,0.6
	c-0.2,1.3-0.3,2.9-0.2,4.2c0,0.6,0.8,1,1,1.6c0.3,0.8,0.8,1.6,0.6,2.4c-0.1,0.5-1.4,0.9-2.1,0.8c-0.8-0.2-1.6-0.9-2.1-1.7
	c-0.5-0.8-0.4-1.8-0.9-2.8c-0.3-0.6-1-1-1.4-1.6c-0.5,0.6-1.2,1-1.3,1.6c-0.2,1-0.6,2.7,0,3.4c2,2.5,0.6,3.7-1.5,4.8
	c-2.2,1.1-4.3,2.1-6.6-0.2c-0.4-0.4-2.4,0-2.5,0.2c-1,4.2-1,8.4,1.2,12.3c1.2,2.4,2.8,4.7,3.9,7.1c0.3,0.6-0.1,1.3-0.2,2.2
	c-0.7-0.3-1.6-0.4-2.1-0.9c-1.3-1.4-2.8-3-3.7-4.7c-0.8-1.3-1.2-2.6-3.1-0.9c-0.3,0.3-1.2,0.1-1.7,0.1c0.1-0.5,0.3-0.9,0.4-1.4
	c0.4-2.1,0.9-4,1.2-6.1c0-0.3-0.7-0.9-1-0.9c-0.4,0-0.9,0.5-1.1,0.9c-2.7,8.9-8.8,17.1-7.7,27c0.1,1.1,0.4,2.5,1,3.4
	c0.4,0.6,1.7,0.9,2.5,0.8c8.2-2.5,16.1-5.1,24.3-7.3c3.9-1,8.2-1.1,12.2-1.3c1-0.1,2.2,1.1,3.2,1.7c-0.9,0.9-1.6,2.7-2.5,2.7
	c-4-0.1-3.8,2.2-3.6,4.5c0.3,2.4,1,4.7,1.2,7c0.1,0.7-0.1,1.5-0.6,2.1c-0.3,0.3-1.4,0.1-2.1-0.2c-3.2-1.5-3-4.5-3.2-7
	c-0.4-5.1-0.2-5.1-6-3.9c-4.4,0.9-8.7,1.8-13.1,2.8c-0.3,0.1-0.7,0.3-0.9,0.5c-3.3,2.5-6.8,4.7-9.7,7.5c-3,2.9-5.3,6.5-7.9,9.7
	c-2.4,2.9-4.8,5.7-7.2,8.5c-0.1,0.1-0.2,0.2-0.3,0.2c-4.2,1.2-6.2,3.7-5.3,7.9c0.1,0.5-0.9,1.2-1.5,1.7c-2.7,1.8-3,4.3-0.9,6.7
	c1.1,1.1,3.2,2.5-0.2,3.3c0.4,1,0.6,2.2,1.2,3c1.2,1.6,3,3,4.1,4.7c0.4,0.6,0,1.6,0,2.6c-1-0.2-2.4-0.1-3.1-0.7
	c-2.5-2.3-4.7-4.6-7-7c-0.8-0.8-1.2-1.8-1.7-2.8c-0.3-0.6-0.5-1.2-0.8-1.9c-0.5,0.8-1.2,1.4-1.4,2.4c-0.6,2.1-1.1,4.2-1.5,6.4
	c-0.1,0.2-0.1,0.5,0,0.7c2.5,6.2,0.4,12.5,1.5,18.8c0.3,1.4,1.3,2.2,2.8,0.6c0.9-1,1.8-2.1,2.7-3.1c4.7-6.5,11.8-10.5,18.7-14.6
	c3.4-2.1,7.5-3.5,11.4-3.9c3.5-0.4,5-1.2,5.4-4.2c0.6-4.7,3.9-8.2,6.8-11.9c5.4-6.9,12.7-11.5,21.1-14.5c5.2-1.8,10.8-3.5,16.6-2.6
	c2.1,0.4,3.9,1.2,5.9,2.2c0.5,0.2,0.8,1,1.1,1.5c-0.7,0.4-1.4,0.9-2.2,0.9c-2.4,0.1-4.8,0-7.2,0.1c-0.6,0-1.2,0.6-1.8,0.9
	c0.4,0.4,0.8,0.8,1.1,1.2c2.3,3.1,4.5,6.4,6.7,9.5c0.2,0.2-0.3,1.1-0.4,1.1c-1.1-0.1-2.9,0-3.3-0.6c-1.6-2.3-2.9-4.6-4.2-7
	c-1.4-2.7-3.5-4.6-6.9-4.5c-0.8,0-1.4,0.6-2.2,0.9c0.5,0.5,1,0.9,1.5,1.3c0.7,0.5,1.3,0.9,2.2,1.4c-0.5,0.3-1.1,0.9-1.4,0.9
	c-1-0.2-2.6-0.4-2.9-0.9c-1-2.4-2.5-2.2-4.2-0.9c-0.4,0.3-0.7,0.8-1,1.1c0.5,0.3,1,0.7,1.4,0.9c1.3,0.6,2.8,1.3,4.2,1.4
	c1.3,0.2,2.8-0.4,4.1-0.6c1.1-0.1,2.1-0.2,3.2-0.3c-0.4,0.7-0.6,1.4-1.2,1.9c-1.2,0.9-1.4,1.5-0.1,2.6c0.9,0.6,1.7,1.3,2.4,2.2
	c0.6,0.8,0.7,1.7,1.1,2.7c-1.2-0.1-2.7,0.3-3.6-0.2c-4.1-2.4-8.4-4.7-12.1-7.6c-3.1-2.5-4.3,0.4-6.4,0.9c0.2,0.4,0.3,1,0.6,1.1
	c1.7,0.3,4.1,0,5.4,0.9c3.6,2.5,6.9,5.4,10.3,8.3c0.5,0.4,0.6,1.2,0.8,1.8c-0.9,0-2,0.3-2.5-0.1c-3-1.9-5.7-4.2-8.4-6.3
	c-0.6-0.4-1.2-1-1.7-1c-3.2-0.1-6.3-0.2-9.4,0c-0.9,0.1-1.6,1-2.5,1.7c0.9,0.3,1.6,0.9,2.6,0.9c2.7,0.1,5.4-0.1,8.1,0.1
	c1,0.1,1.7,0.9,2.8,1.4c-0.4,0.6-0.9,1.5-1.2,1.5c-3.6-0.3-7.4-0.7-11-1c-2-0.2-4-0.3-4.6,2.1c-0.2,0.8-0.1,1.6-0.2,2.6
	c0.7-0.3,1.3-0.8,2.1-0.8c4.8-0.2,9.8-1.4,14.6,0.7c1.4,0.7,3.3,0.6,4.8,1c1,0.3,1.7,1,2.7,1.6c-0.7,0.3-1.4,0.9-2.2,0.9
	c-2.1,0-4.5,0.3-6.3-0.6c-4.3-2.2-8.3-3.2-12.6-0.1c-0.7,0.5-2.2,0.9-2.7,0.7c-3.7-2.4-2.8,1.2-3.6,2.4c-0.5,0.7-0.1,1.7-0.1,2.8
	c0,1,0.1,2.1,0.2,3.1c1.1-0.6,2.2-1.1,3.2-1.9c2.3-1.7,4.4-3.6,6.7-5.2c0.3-0.2,1.6,0.2,2.1,0.7c1.1,1.4,1.8,3,2.8,4.6
	c-1.8,0.2-3.8,0.4-5.7,0.7c-4,0.8-9.3,5.6-9,8.3c0.1,0.9,0.7,1.6,0.7,2.5c0,2.9,0.9,2.6,2.9,0.9c2.2-1.7,10.1-1.8,12.2-0.5
	c1.8,1.1,1.8,3.4-0.1,4.6c-2.7,1.6-5.2,3.4-8.1,4.7c-2.6,1.2-1.8,2.9-0.9,4.4c0.9,1.3,1.8,1.4,3.2,0.1c2.5-2.7,5-5.2,7.8-7.7
	c0.7-0.6,2.2-0.6,3.3-0.8c-0.3,1-0.2,2.6-0.9,3.2c-2.8,2.4-5.9,4.4-8.5,6.7c-0.3,0.2,0.1,1.5,0.5,1.8c1.7,1,4.4,2.5,3,4.2
	c-1.5,1.7-3.9-0.2-6-1.1c-9.4-4.5-11.8-12.8-14.2-21c-0.8-2.7-0.6-5.5-0.9-8.3c-0.1-0.7-0.5-1.8-0.7-1.8c-0.9,0-2.2,0.1-2.7,0.7
	c-0.9,1-2,2.6-1.7,3.7c0.3,2.8,1.2,5.4,2.1,8.1c0.9,2.5,2.2,4.7,3.1,7.1c0.2,0.7-0.2,1.4-0.3,2.3c-1-0.2-2.7-0.2-3-0.8
	c-1.2-1.8-2-3.8-2.8-5.8c-1.4-3.9-2.7-7.9-4.1-11.9c-0.3-0.7-1.4-0.9-2.3-1.4c-0.4,0.8-1.1,1.5-1.1,2.4
	C1276.8,777.4,1277.1,779.9,1277.4,782.8 M1270.2,732c-3.1,0.4-1.6,2.6-1.7,4c0,0.5,1,0.9,1.5,1.4c0.5-0.7,1.2-1.3,1.3-2.1
	c0-1.1-0.4-2.4-0.3-3.4c1.6-0.4,6.8-5.9,6.4-7.2c-0.2-0.8-1-1.4-1.5-2.2c-0.1-0.1-0.9,0.2-1,0.4
	C1273.6,726.2,1269.5,728.1,1270.2,732 M1316.4,666c1.6,1.4,2.5,0.4,2.7-0.9c0.2-1.5,0.1-3.2,0-4.7c0-0.6-0.6-1.1-0.9-1.7
	c-0.7,0.6-2,1-2.1,1.7C1315.9,661.9,1316.1,663.8,1316.4,666 M1260.3,741.5c3.5,1.5,2.8-2.4,4.6-3.1c0.5-0.2-0.2-2.6-0.3-4
	c-0.6,0.2-1.4,0.3-1.6,0.7C1261.8,737.2,1261,739.3,1260.3,741.5 M1240.5,844.6c-2.5,2.2-0.6,4.2,0.2,6.3c0.1,0.3,1.1,0.6,1.4,0.4
	c0.5-0.2,1.1-0.9,1-1.2C1242.6,848.2,1242,846.4,1240.5,844.6 M1299.5,673.9c0.8,0.2,1.5,0.4,2.4,0.6c0.2-1.1,0.5-2.4,0.5-3.5
	c0-0.3-0.9-0.6-1.3-0.9C1300.3,671.2,1299.8,672.2,1299.5,673.9 M1259.1,745.3c-2.2-0.1-2.3,1.3-2.3,2.8c0,0.6,0.6,1,1,1.6
	c0.4-0.9,0.9-1.7,1.2-2.8C1259.2,746.8,1259.1,746.4,1259.1,745.3 M1245.5,816.1c-0.3-1-0.6-2.1-0.9-3.1c-0.5,0.3-1.2,0.6-1.3,0.9
	C1243.2,815.1,1242.4,816.8,1245.5,816.1 M1308.5,785.9c0.4,0.1,0.9,0.2,1.2,0.2c-0.7-0.9-1.3-2.1-2.2-3c-0.1-0.2-0.9,0.1-1.3,0.2
	C1306.8,784,1307.5,784.8,1308.5,785.9 M1259.8,790.1c0,0.9-0.1,2.1,0,3c0,0.3,0.6,0.5,0.9,0.7c0.2-0.8,0.7-1.6,0.5-2.4
	C1261.2,790.7,1262.8,788.6,1259.8,790.1 M1301.7,786.6c0.1,0.8,0.2,1.5,0.3,2.4c0.6-0.3,1.2-0.6,1.7-0.9
	C1303.2,787.5,1302.6,786.9,1301.7,786.6 M1245.9,819.3c0.3,0.5,0.5,0.9,0.8,1.3c0.4-0.3,0.7-0.6,1.1-0.9
	C1247.2,819.4,1246.8,819.2,1245.9,819.3z"/>
<path class="st0" d="M1298.5,137.1c0.3,4.5,2.3,6.4,7.1,6.2c3.2-0.1,6.9,1.3,9.4-1.8c0.2-0.2,1.6,0.5,2.7,0.7
	c-0.5,0.4-1,0.9-1.4,1.2c-0.7,0.5-1.4,0.9-2.3,1.2c0.3,0.5,0.7,1.2,1,1.2c1,0,2.3,0,3.1-0.5c2.7-1.4,5-3.3,7.6-4.7
	c0.7-0.4,1.7-0.4,2.6-0.5c-0.3,0.9-0.4,1.9-1.1,2.6c-1.7,1.4-2.9,3.6-6,3.6c-1.3,0-1.5,3.3-4.3,2.6c-1-0.3-2-0.2-3-0.5
	c-3.2-0.9-6.2-1.9-9.3-2.9c-0.1,0-0.6,0.8-0.7,1.2c0,0.2,0.5,0.5,0.8,0.7c3.7,2.3,7.5,4.6,11.2,6.8c0.2,0.1,0.5,0.3,0.6,0.5
	c2.7,5.2,8.6,4.4,13.2,5.6c3.4,0.9,7.1,0.5,10.7,0.9c0.9,0.1,1.6,1,2.6,1.6c-0.8,0.6-1.3,1.4-2.3,1.6c-11.8,2.5-21.9-1.4-31.3-7.3
	c-6.5-4-11-9.6-15-15.7c-0.8-1.2-0.8-2.9-1.2-4.4c-1.2-4.7-6-5.2-10-6.3c-5.9-1.3-10.6-4.3-15.2-7.5c-5.3-3.7-10.1-7.8-13.6-13
	c-0.3-0.4-1.2-0.9-1.4-0.8c-0.6,0.3-1.3,0.9-1.2,1.3c0.7,3.8-1.7,7.8,0.8,11.5c0.4,0.6,0,2.1-0.5,2.8c-1.5,2.4-1.5,4.4,0.3,6.7
	c0.4,0.5,0.2,1.3,0,2.2c-0.2,1.1-0.5,2.4-0.7,3.5c0,0.3,0.4,0.9,0.7,0.9c0.5,0,1.2-0.2,1.4-0.5c3.3-3.7,6.4-7.5,9.5-11.2
	c0.2-0.2,1-0.4,1-0.3c0.6,0.8,1.5,1.7,1.4,2.5c-0.2,1-1.5,1.9-2.1,3c-0.6,1.4-0.6,3.1-1.1,4.7c-0.4,1.3-0.8,2.9-1.7,4
	c-2.6,2.9-2.6,4.9,0.1,7.6c1,0.9,1.5,2.4,2.5,3.5c0.7,0.9,1.5,1.7,2.5,2.7c0.2,0.2,0.8,0.4,0.8,0.5c-1.1,2.8,0.1,3.3,2.9,2.5
	c0,0.6,0.3,1.2,0,1.6c-2.4,4.3-1.3,6.1,3.9,6.5c2.6,0.2,3.3,1.6,3.2,3.7c-0.1,1.8-1.2,1.7-2.6,1c-0.9-0.5-1.3-1.4-2.3-1.7
	c-0.8-0.3-1.8,0-2.8,0c0.4,0.7,0.7,1.3,1.2,1.8c1.3,1.3,2.8,2.7,4.2,3.8c0.4,0.3,1.3,0.3,1.7,0c1.1-0.8,1.8-1.8,3.1-2.6
	c1.2-0.7,3-1.4,3.4,1c0.1,0.9,1.2,1.5,1.8,2.4c0.4,0.5,0.8,1,1.1,1.6c-0.7,0.1-1.3,0.3-2.1,0.4c-0.8,0.1-1.5,0.1-2.4,0.2
	c0.5,0.6,1.1,1.6,1.4,1.6c5.3-0.2,8.8,3.4,13.2,4.9c4.6,1.5,9.5,2.6,14.4,3.4c0.6,0.1,2.4-1.4,2.4-2.4c0.1-4.2,1.2-7.9,3.9-11.3
	c0.5-0.6,1.2-0.9,1.7-1.3c0.2,0.6,0.6,1.2,0.5,1.8c-0.4,3.1-0.5,6.5-1.5,9.3c-1.2,3.3-0.5,4.6,3.1,5.4c1.3,0.3,3.8,1.8,3.7,2.2
	c-0.9,2.3-3.3,2.2-5.3,1.8c-7.5-1-15-2.1-22.4-3.5c-3.3-0.7-6.2-2.5-9.3-3.6c-1.3-0.5-3.5-1.2-4.2-0.8c-1.2,0.9-2.6,2.8-2.5,4.1
	c0.1,4.5,0.7,9,1.4,13.5c0.3,1.6,1.7,3.3,3,4.7c2,2.4,3.6,4.7,3.2,7.8c-0.1,0.6,1.2,1.3,2,1.8c2,1.2,4.1,2.3,4.1,5
	c0,0.9,1.8,1.6,2.8,2.6s1.5,1.9,2.5,2.9c0.6,0.7,1.2,1.1,2,1.7c0.3-0.8,0.8-1.5,1-2.4c0.2-0.6-0.2-1.4,0.1-1.6c0.9-0.6,2-0.9,3-1.3
	c0.1,0.7,0.5,1.4,0.3,2.1c-0.2,1.4-1.1,2.9-1,4.4c0.1,1,1.3,2.2,2.1,3.1c0.5-0.9,1.1-1.9,1.5-2.9c0.2-0.4-0.2-0.9,0.1-1.3
	c0.8-1,1.6-2.2,2.6-3.1c0.1-0.1,1.3,0.3,1.4,0.5c0.1,1.2,0.1,2.6-0.2,3.7c-0.4,1.7-1.2,3.5-1.4,5.2c-0.1,0.6,0.9,1.3,1.2,2.1
	c0.6-0.8,1.2-1.4,1.5-2.3c0.3-0.9-0.2-1.8,0.1-2.8c0.2-0.5,1.2-0.8,1.8-1.1c0.1,0.6,0.2,1.1,0.3,1.7c0.6,2.6-1.7,5.8,2.7,7.2
	c0.4,0.1,0.9,0.1,1.3,0.2c0-0.3,0.1-0.7,0-0.9c-0.3-2.2-0.9-4.4-0.8-6.6c0-0.6,1.8-1,3-1.6c0.2,0.7,0.8,1.3,0.7,2.1
	c-0.3,2.4-1.3,4.7-1.1,7c0.2,1.4,2.4,2.7,3.6,4c0.7-0.9,1.6-1.8,2-2.9c0.5-1.8,0.2-3.8,0.8-5.5c0.3-0.9,1.8-1.6,2.8-2.5
	c0.3,0.9,1,2.1,1,3c-0.1,2.5-0.5,4.8-0.7,7.3c0,0.6,0,1.4,0.4,1.8c1.1,1,2.4,1.8,3.6,2.9c0.4-1.2,1.1-2.7,1.2-3.9
	c0.5-4-1.3-8.4,2.3-11.9c0.1-0.1,0-0.2,0-0.3c-1.2-5.3,1.2-9.9,3.8-14.4c4.4-7.8,10-14.8,18.3-19.7c0.6-0.4,1.5-0.1,2.5-0.2
	c-0.1,1,0.2,2.5-0.4,3.2c-0.9,1.2-2.5,2.3-3.6,3.4c-0.4,0.4-0.3,1-0.5,1.6c0.5-0.2,1-0.4,1.5-0.6c4.2-1.1,8.5-2.5,12.9-3.4
	c1-0.2,2.3,0.9,3.5,1.5c-0.9,0.6-1.7,1.4-2.8,1.7c-6,1.4-11.9,2.8-17.9,4.2c-3.5,0.9-5.9,2.9-6.6,6.3c-0.1,0.5-0.1,1-0.1,1.5
	c0.6-0.1,1.2,0,1.7-0.3c3-1.1,6-2.7,8.9-3.6c1.3-0.5,3.1-0.1,4.5-0.2c-0.9,0.8-1.5,1.8-2.7,2.4c-3.4,1.5-6.7,3.5-10.3,4
	c-3.8,0.6-5.2,3.3-7.4,5.2c-0.3,0.3,0.1,1.4,0.6,1.9c0.2,0.2,1.3,0,2-0.3c3.3-1.5,6.4-3.2,9.7-4.7c0.7-0.3,1.8,0,2.8,0.1
	c-0.8,1-1.4,3-2.5,3.2c-6.1,0.9-9.9,4.8-14.2,8.1c-0.5,0.4-0.4,1.5-0.6,2.4c0.7-0.3,1.5-0.5,2.1-0.9c2.9-3,6.3-5.1,10.4-6.6
	c1.1-0.4,2.4,0,3.6,0c-0.7,0.7-1.2,1.5-2,2.2c-4.1,3-8.4,6.1-12.5,9.1c-0.8,0.6-1.5,1.5-1.6,2.5c-0.2,1.1,0.2,2.5,0.3,3.6
	c1-0.7,2-1.2,2.9-1.9c2.5-1.7,4.8-3.7,7.5-5.2c0.7-0.4,2.2,0.2,3.3,0.3c-0.5,0.7-0.9,1.6-1.5,2.2c-3.6,2.5-7.3,4.7-10.8,7.1
	c-1.1,0.8-2.1,2.3-2.4,3.5c-0.2,0.8,1,1.8,1.4,2.9c0.5-0.6,1-1.1,1.5-1.6c3.5-2.7,7-5.1,10.6-7.7c0.4-0.3,1.1-0.1,1.6-0.1
	c0,0.6,0.2,1.2-0.1,1.6c-1.2,1.4-2.4,2.9-3.7,4.1c-2.4,2.2-5,4-7.4,6.2c-0.9,0.8-2,2.2-1.7,3c0.3,1.7,1.4,3.3,2.3,4.9
	c0.8-1.2,1.4-2.7,2.5-3.7c2.3-2.6,4.6-4.9,7.3-7.1c0.6-0.5,2.4,0.1,3.6,0.2c-0.4,0.8-0.7,1.6-1.2,2.4c-3.1,3.6-6.5,6.9-9.2,10.7
	c-1,1.2-0.7,3.8-0.1,5.4c0.7,1.9,2.4,3.7,3.6,5.4c0.6-1.6,1.1-3.4,1.8-5c1.7-3.6,3.7-7.1,5.7-10.6c0.1-0.2,1.7,0,1.7,0.1
	c0,1.7,0.4,3.7-0.3,5.2c-1.6,3.7-3.9,7.2-5.7,10.9c-0.4,0.9-0.1,2.1,0,3c0,0.2,1.2,0.5,1.4,0.3c0.7-0.9,1.2-1.7,1.7-2.8
	c1.4-2.9,2.8-5.8,4.3-8.6c0.2-0.4,1.6-0.3,2.5-0.4c0.1,0.7,0.4,1.3,0.2,1.8c-1.7,4-3.7,8-5.4,12.1c-0.4,1-0.3,3,0.5,3.6
	c3.8,3.2,8,6.2,12.1,8.9c0.8,0.5,2.1,0.5,3.2,0.6c0.2,0,0.7-0.9,0.6-1.2c-2.1-4.2-1.2-9.4,2.3-12.3c2-1.6,3.3-3.4,2.7-5.9
	c-0.1-0.3-0.1-0.8,0-0.9c0.6-1.1,1.2-2.4,1.8-3.4c0.4,1,1,2.2,1.2,3.2c0.6,4.4-3.1,7.6-3.9,11.6c-0.7,3.3-2.2,6.6-2.7,9.9
	c-0.1,0.9,1.8,2.3,3,3.4c1-0.9,2.6-1.7,2.9-2.9c0.7-2.2,0.6-4.4,0.9-6.6c0.1-0.9,0.3-2.1,0.9-2.8c0.6-0.7,1.6-1,2.6-1.5
	c0.3,0.9,1,2.1,0.9,3c-0.3,3-0.8,6.1-1.4,9c-0.8,3.7,1.4,4.8,4.8,5.7c1.2,0.4,2.4,1.3,3.4,2.3c0.2,0.2-0.6,1.6-1,1.7
	c-1.2,0.2-2.7,0.2-3.8-0.2c-3.3-1.1-6.4-2.6-9.7-3.8c-2.1-0.8-5,2.4-4.1,4.9s0.2,4.5-0.8,6.7c-1.8,4.1,0,7.5,5.2,8.8
	c0.8,0.2,1.4,0.6,2.3,0.9c-0.7,0.5-1.3,1-2.2,1.4c-3.8,1.4-6.8-0.8-8.8-2.9c-1.6-1.6-2.2-4.7-2-7.1c0.4-4.4,1.5-8.7,2.6-13
	c0.7-3-1.2-4.8-3.6-6.2c-10.3-5.7-18.2-13.7-23.9-23c-3.6-6.1-7.7-12.5-7.8-20.1c0-1.4-3-3.5-5-4.3c-12-4.3-22.9-10.1-32.3-18.1
	c-7.2-6.2-14.4-12.3-19.2-20.2c-2.6-4.1-5.3-8.2-4.7-13.3c0.3-2.8-0.6-5.5-0.6-8.3c0-1.8,0.3-3.7,0.8-5.5c1.3-5.2-2.6-8.3-6.3-10.6
	c-10.3-6.5-15.7-15.8-20.2-25.6c-4.3-9.7-5.5-20-4.5-30.6c0.4-3.8,1.5-7.6,2.6-11.4c0.8-2.9,0.4-5.5-1.8-8c-1.2-1.3-1.7-3.3-3.1-4.7
	c-1.3-1.5-2.6-2.9-5.9-1.9c-7.4,2.2-15,0.5-22.2-1.4c-13.9-3.8-25.2-11.3-34-21.7c-3.9-4.7-8-9.5-11.4-14.6
	c-1.7-2.6-2.5-5.7-3.3-8.6c-0.2-0.8,1.5-2.7,2.4-2.7c3.6,0.1,7.2,0.8,10.8,1.2c0.7,0.1,1.2,0.6,1.8,0.9c-0.6,0.4-1.2,0.7-1.6,1
	c-0.7,0.5-1.3,0.9-2.1,1.4c0.8,0.2,1.4,0.5,2.3,0.5c4.8,0,9.8,0.2,14.6-0.1c2-0.1,3.8-1.4,6-1.9c1.4-0.3,2.1,0.1,1,1.5
	c-1.6,2.4-3.5,4.1-7,3.9c-1.2-0.1-2.7,0.7-4,1c-2.7,0.9-5,1.6-7.8-0.3c-2-1.3-5.7-0.2-6.7-3.5c-0.4,0.3-1.2,0.5-1.2,0.9
	c-0.5,2.5,3.6,6.1,6.3,6.1c3.6-0.1,7.1,0.3,10.7,0.6c0.5,0,1.2,0.9,1.2,1c-0.3,0.6-1.1,1.6-1.4,1.5c-3.6-0.6-7.8,1.6-11.1-1.3
	c-0.2-0.2-0.7-0.1-1.1-0.2c-0.1,0.6-0.5,1.4-0.3,1.6c2.1,1.6,4,4,6.5,4.7c2.6,0.7,5.7-0.3,8.5-0.3c1.1,0,2.4,0.3,3.4,0.8
	c0.6,0.3,0.7,1.2,1,1.9c-0.8,0.2-1.4,0.5-2.3,0.5c-2.4,0.1-4.8,0-7.2,0.1c-0.5,0-1.1,0.5-1.5,0.7c0.3,0.5,0.5,1,1,1.4
	c2.3,1.8,8.1,1.5,10.1-0.4c0.3-0.4,0.7-0.7,1-1c0.2,0.5,0.6,0.9,0.6,1.3c-0.3,2.4,1.3,2.6,3.4,2.9c1.2,0.2,2.3,1,3.5,1.5
	c-1.1,0.6-2.1,1.2-3.2,1.7c-0.8,0.4-1.8,0.4-2.7,0.8c-0.9,0.4-1.5,0.9-2.4,1.5c0.5,0.6,1,1.5,1.6,1.8c3.1,0.9,6.1,1.7,8.8-0.8
	c0.6-0.5,1.5-0.7,2.4-0.9c0,0.7,0.3,1.5,0,2.2c-1.3,3-0.9,3.9,2.8,2.6c0.7-0.3,2.3,0.7,3.1,1.3c4.2,4.2,9.8,4.3,15.4,4
	c2.2-0.1,4.3-0.4,6.5-0.7c-0.6-1.7-1.2-3.4-1.8-5.1c-0.2-0.5,0.2-1.1-0.1-1.6c-0.5-1.1-1.2-2.4-1.8-3.4c-0.4,1-0.8,2.2-1.2,3.3
	c-0.1,0.4,0.1,0.9-0.2,1.2c-1.2,1.2-2.6,2.5-4,3.6c-0.2,0.1-1.4-0.6-1.4-0.7c0.5-1.4,0.9-2.9,1.6-4.3c0.8-1.2,2.2-2.2,2.9-3.4
	c0.9-1.6,1.7-3.4,1.7-5.1c0-7.9-0.5-15.9-0.6-23.8c0-1.1,1-2.6,2-3.3c1-0.8,2.6-0.9,3.8-1.2c0.1,1.1,0.3,2.4,0.2,3.5
	c-0.1,1-0.7,2.2-0.6,3.1c0,0.5,1.1,0.9,1.5,1.4c0.4-0.5,0.9-0.9,1.2-1.4c0.8-0.9,1.2-2.2,2.3-2.9c0.5-0.4,1.6,0,2.6,0
	c-0.1,0.7,0.1,1.3-0.3,1.8c-1.6,2.6-4.1,4.8-5.2,7.7c-1.2,3.3-1.6,6.9-2.3,10.5c-0.1,0.4,0.9,0.9,1.2,1.4c0.6-0.5,1.2-0.9,1.6-1.5
	c1.2-2.2,2.1-4.6,3.5-6.7c0.5-0.8,2.2-0.9,3.3-1.2c0,1,0.3,2.3-0.2,3c-2.3,3.7-5,7.3-7.2,11.1c-0.6,0.9-0.1,2.6-0.1,3.9
	c1.2-0.9,3.5-1.6,3.6-2.8c0.9-4.9,4.6-8.2,7.9-11.8c0.7-0.8,1.1-1.8,2-2.4c0.7-0.4,1.8-0.1,2.9-0.1c-0.3,0.6-0.5,1.1-0.9,1.6
	c-2.8,3.4-5.6,6.8-8.2,10.4c-0.4,0.6,0.4,1.9,0.7,3c0.7-0.7,1.5-1.1,2.1-1.9c0.6-0.8,0.6-1.9,1.2-2.7c0.4-0.5,1.4-0.7,2.3-0.7
	c0.4,0,1.2,0.9,1.1,1.1c-0.4,0.6-1.2,0.9-1.5,1.4c-1.1,1.7-2.2,3.4-3,5.2c-0.9,2.2-1.4,4.5-2.2,6.7c-0.1,0.5,0.1,1,0.2,1.6
	c0.4-0.4,0.8-0.8,1.2-1c0.7-0.3,1.3-0.5,2.2-0.7c0.2,0.8,1,1.8,0.6,2.4c-1.1,1.7-2.8,3.3-3.8,5c-0.6,0.9-0.6,2.4-0.6,3.5
	c0,0.4,1,0.7,1.5,1c0.3-0.5,0.6-0.9,0.9-1.3c0.6-1,1-2.3,1.8-3.1c0.6-0.7,1.6-0.9,2.6-1.3c0.2,1,0.8,2.4,0.4,3.2
	c-0.9,2.5-3.6,4.5-2.5,7.3c0.7,1.6,2.3,3,3.5,4.4c0.9,0.9,1.8,1.8,2.9,2.8c0.4,0.4,1,0.5,1.5,0.7c0.1-0.5,0.5-1.3,0.3-1.5
	c-1.1-0.8,1-4.3-2.9-2.8c-0.3,0.1-2.5-2.1-2.2-2.8c0.6-1.4,2.1-2.7,3.2-4c0.9,0.8,1.7,1.5,2.8,2.3c3.6,2.9,2.5,6.4,1.4,9.8
	c-0.2,0.7-0.3,1.6,0.1,2.2c2.2,2.6,4.5,4.9,6.9,7.4c0.5,0.5,1.3,0.5,2.1,0.8c0-0.6,0-1.1,0.1-1.7c0.2-2.1,0.4-4.2,0.8-6.3
	c0.1-0.7,0.7-1.3,1.1-1.9c0.7,0.8,1.7,1.5,1.8,2.4c0.2,1.7-0.2,3.5-0.4,5.3c-0.1,1.2-0.5,2.6-0.2,3.7c0.2,0.7,1.4,1.7,2.1,1.6
	c0.9-0.1,2-0.9,2.3-1.7c0.6-1.3,0.5-3,0.9-4.5c0.1-0.5,1.1-0.8,1.5-1.1c0.5,0.6,1.2,1.1,1.2,1.7c0.2,1.8-0.3,3.8,0.2,5.4
	c0.4,1.1,1.7,2.7,3,2.9c2.5,0.5,2.2-1.4,2.2-2.9c0.6-9.8,3.5-18.9,11.8-25.7c1.7-1.4,3.8-2.7,5.9-3.9c1.3-0.9,3.1-1.4,3.8,0.4
	c0.4,0.9-0.3,2.8-1.1,3.2c-3.2,1.5-4,2.8-0.2,4.5c0.8,0.3,1.2,1,1.8,1.6c5.7,5.1,6,5.2,2.1,11.4c-0.9,1.3-4.4,1.9-6.8,1.8
	c-2.8,0-5.5-1-8.3-1.6c-0.7-0.1-1.3-0.1-2.1-0.1c-0.1,2.4-0.7,4.7-0.1,6.9c0.6,2.2,5,4.2-0.7,5.5c-0.4,0.1-1,1.1-0.8,1.6
	C1296.4,132.4,1297.3,134.8,1298.5,137.1 M1266.7,166.2c0.2,0.1,0.4,0.2,0.5,0.2c0.1,0,0.2-0.2,0.2-0.2c-3.4-2.6-0.9-7.3-5.1-9.8
	c-2.5-1.4-3.4-4.9-5-7.5c-0.3-0.4-1.2-0.5-1.7-0.7c0,0.6-0.3,1.1-0.1,1.5C1259,155.2,1262.7,160.6,1266.7,166.2 M1306.7,108.2
	c0.9,0.5,1.7,1.1,2.8,1.2c0.8,0.1,1.7-0.5,2.7-0.7c-0.6-0.5-1.2-0.9-1.7-1.4c-1.2-1.2-2.3-2.7-3.6-3.8c-0.7-0.6-1.6-0.9-2.6-1.3
	c-0.6,1.1-1.8,2.7-1.4,3.4C1303.2,106.7,1304.9,107.1,1306.7,108.2 M1245.5,84.5c0.6-1.2,1.3-2.5,1.7-3.7c0.3-1,0.2-2.3,0.1-3.4
	c0-0.2-0.7-0.4-1-0.5c-0.3,0.8-0.5,1.6-0.9,2.4c-0.4,0.9-1.1,1.6-1.3,2.6c-0.4,1.3-0.7,2.8-0.8,4.1c0,0.4,1.1,0.7,1.5,1
	C1245.1,86.3,1245.3,85.8,1245.5,84.5 M1300.5,110.3c0.9,0.8,1.6,1.7,2.7,2.4c0.5,0.2,1.4-0.4,2.3-0.7c-1.1-1.1-2.2-2.4-3.3-3.5
	C1301.5,109,1300.8,109.4,1300.5,110.3 M1306.3,115.4c0.8-0.3,1.5-0.4,2.4-0.8s1.4-0.9,2.2-1.3c-1.1-0.1-2.3-0.5-3.2-0.2
	C1306.8,113.4,1306.5,114.5,1306.3,115.4 M1256.9,138.1c0.7,0.5,1.3,1,2.1,1.5c0.3-0.7,0.7-1.3,1-2.1
	C1258.9,137.7,1258.1,137.7,1256.9,138.1z"/>
<path class="st0" d="M1286.2,159.6c0.3-0.3,0.4-0.4,0.5-0.4c1.2-0.4,2.5-0.7,3.6-0.9c-0.2,1.2-0.5,2.6-0.6,3.8
	c-0.2,1.8-0.3,3.7-0.2,5.5c0.1,0.7,1,1.2,1.4,1.9c0.8-0.8,2.3-1.7,2.1-2.5c-0.8-3.5,2.7-2.8,4.3-3.7c0.2-0.1,1.1,0.4,1.4,0.7
	c0.1,0.1-0.2,0.7-0.4,0.9c-1.3,2.3-3,4.4-4.2,6.7c-0.3,0.6,0.2,1.8,0.8,2.6c0.4,0.5,1.5,0.4,2.3,0.9c2.9,1.7,4,1.5,4.7-1.9
	c0.3-1.7,2.8-3.3,4.4-4.7c0.3-0.3,1.2-0.2,1.6,0c0.2,0.1,0.4,0.9,0.2,1.1c-1.7,3.1-3.5,6.3-5.4,9.2c-0.4,0.6-2,1.1-2.5,0.9
	c-3.6-2.2-7.1-4.4-10.6-6.7c-2.4-1.6-4.4-3.5-6.7-5.2c-2.1-1.6-2-3.1,0-4.7C1284.5,162,1285.2,160.8,1286.2,159.6z"/>
<path class="st0" d="M1274.3,751.9c-1,1.2-1.6,2.9-3.9,1.6c-0.3-0.2-1,0.1-1.5,0.2c0.1,0.5,0.3,0.9,0.4,1.4c0.2,0.8,0.4,1.5,0.7,2.4
	c-1-0.3-2.1-0.5-2.9-0.9c-2.3-1.3-2.5-2.9-0.2-4.6c1.1-0.9,1.6-2.4,2.5-3.5c2.6-3.7,5.1-7.4,7.8-11.1c0.4-0.5,1.1-0.9,1.5-1.3
	c0.3,0.5,0.7,0.9,1,1.3c0.9,1.3,1.8,2.8,2.7,4.2c0.2,0.4,0,1.1-0.3,1.5c-0.2,0.2-1,0.2-1.4,0.1c-1-0.2-1.8-0.6-2.9-0.9
	c0,0.3-0.2,0.8-0.1,0.9c1.2,0.7,2.4,1.4,3.7,2.1c0.6,0.3,1.4,0,2.3,0c-0.7,0.9-1.3,1.8-2.2,2.6c-0.2,0.2-1.2-0.2-1.4-0.5
	c-0.9-0.8-1.4-1.7-2.4-2.6c-0.6-0.5-1.4-0.7-2.2-0.9c-0.1,0.9-0.7,2.1-0.3,2.6c1.7,2.4,3.8,4.5,5.9,6.7c0.7,0.8,1.2,1.7,1.7,2.7
	c-1.5-0.2-3.5,0-4.8-0.7c-1.2-0.6-2.1-2.2-3.2-3.4c-1.1-0.9-1.8-1.7-2.8-2.6c-0.2,0.4-0.5,1-0.4,1
	C1272.3,750.9,1273.3,751.3,1274.3,751.9z"/>
<path class="st0" d="M1379.3,265c-2.8,4.1-5.7,7.9-7.9,12.1c-1.7,3.3-2.5,7.1-3.7,10.6c-0.2,0.5-0.9,1.1-1.1,1.1
	c-0.7-0.3-1.8-0.9-1.7-1.2c0.1-2.3,0.1-4.7,1.1-6.8c1.4-3.1,3.9-5.8,5.6-8.7c2.3-3.8,4-7.9,6.3-11.7c0.6-0.9,2.5-1.1,3.7-1.6
	c0,1.1,0.4,2.5,0,3.5C1381.2,263.1,1380.2,263.9,1379.3,265z"/>
<path class="st0" d="M163.2,151.6c1.1,0.3,2,0.4,2.9,0.5c-0.3-0.9-0.3-2.1-0.9-2.9c-1.3-1.9-4.8-2.9-4-6.1c0.2-0.8,0.8-1.4,1.2-2.2
	c0.6,0.6,1.2,1.1,1.7,1.7c2.3,2.8,4.6,5.3,6.7,8.2c0.4,0.5-0.3,2.4-0.5,2.4c-4.2,0-3.7,3.6-5.4,5.5c-0.8,0.9-1.4,1.8-2.2,2.9
	c-0.5-0.8-1-1.5-1.4-2.4c-1.3-2.4-2.7-4.7-4-7.1c-0.2-0.4-0.3-0.9-0.5-1.3c0.5,0.1,1.3,0.1,1.4,0.4
	C159.9,153.8,161.5,152,163.2,151.6 M162.3,155.6c0.5,0,1.1,0,1.5-0.1c-0.2-0.4-0.5-0.8-0.7-1.1
	C162.8,154.6,162.4,154.9,162.3,155.6z"/>
<path class="st0" d="M1275.8,156.3c-5.2-2.6-7-7.3-10.2-11c-0.6-0.8-0.2-2.3,0-3.4c0-0.3,0.8-0.5,1.2-0.7c0.5,0.8,1,1.5,1.4,2.5
	c0.3,0.6,0.7,1,1.1,1.6c0.4-0.4,0.8-0.8,1.2-1c0.6-0.4,1.2-0.6,1.8-0.9c-0.1,0.6-0.2,1.1-0.4,1.6c-0.2,0.5-0.8,0.9-0.7,1.4
	c0,1,0.3,2.1,0.5,3.1c0.8-0.6,1.7-1,2.5-1.8c1.3-1.5,2.5-3.2,3.8-4.7c0.4-0.5,1.3-0.6,2.1-0.9c0.2,0.9,0.8,1.9,0.5,2.6
	c-1.2,1.8-2.8,3.5-4.1,5.2c-0.5,0.7-1,1.4-1.3,2.3c0.8,0.3,1.6,0.5,2.4,0.8c0.7,0.3,1.3,0.7,2.1,1
	C1278.4,154.7,1277.4,155.5,1275.8,156.3z"/>
<path class="st0" d="M1212.1,58.8c1,0.1,1.6,0.2,2.3,0.3c-0.5,1.1-0.8,2.6-1.5,3.5c-0.8,1-2.3,1.8-3.2,3c-0.6,0.8-0.7,1.8-1.1,2.9
	c1.1-0.3,2.6-0.2,3.3-0.9c2.1-1.9,3.7-4.3,5.7-6.5c0.6-0.7,1.4-1,2.3-1.5c0.2,0.8,0.7,1.6,0.6,2.4c-0.8,3.8-3.6,6.4-6.7,8.6
	c-0.7,0.5-1.3,0.9-2,1.4c-0.6,0.6-1.1,1.2-1.6,1.8c-0.6-0.8-1.2-1.5-1.7-2.5c-0.4-0.8-0.2-2.1-0.7-2.5c-4.1-2.6-1.7-4.3,0.6-6.4
	C1209.4,61.5,1210.6,60,1212.1,58.8z"/>
<path class="st0" d="M1228.5,833.1c-1.7-1.4-2.6-2.9-3.1-4.9c-0.7-2.7-2.7-5.2-4.7-7.4c-3.3-3.5,0.6-4.6,2.3-6.3
	c2.3-2.2,3,1.3,4.7,1.4c0.1,0,0.2,0.9,0.3,1.5c-0.6-0.1-1.2-0.2-1.8-0.3c-0.9,0-1.6,0.1-2.6,0.1c0.3,0.7,0.5,1.3,1,1.8
	c2.9,2.8,4.9,5.6,4.2,9.8c-0.2,1.4,1,3,1.3,4.6c0.1,0.4-0.6,0.9-0.9,1.4C1229.1,834.5,1228.9,833.9,1228.5,833.1z"/>
<path class="st0" d="M1298.9,137.1c1.6-0.5,4.1-1.8,5.3-1.2c6,3,10.4-0.8,15.4-2.2c1-0.3,2.1-0.7,3.1-0.7c0.7,0,1.2,0.8,2,1.1
	c-0.4,0.5-0.7,1.2-1.2,1.4c-2.7,0.9-5.4,1.8-8.2,2.9c-1.7,0.6-3.6,2.2-5.1,1.8C1306.3,139.6,1302.7,138.2,1298.9,137.1z"/>
<path class="st0" d="M1330.6,153.6c0,2.3-0.4,3.4-3.5,2.3c-2-0.8-4.2-2.1-6.7-0.4c-0.5,0.3-1.8-0.5-2.8-0.8c0.4-1,0.5-2.7,1.3-3.2
	c4-2.4,8.3-4.4,12.4-6.6c0.3-0.2,0.9,0,1.2,0c0,0.6,0.1,1.1-0.1,1.5c-0.6,1.3-1.3,2.7-2.3,4.2c-0.6,0.2-1,0.1-1.2,0.2
	c-1.1,0.5-2.1,0.9-3.1,1.5c1,0.4,2.1,0.9,3.1,1.1C1329.5,153.7,1330.1,153.6,1330.6,153.6z"/>
<path class="st0" d="M1289.5,734.7c0.2,1.9,0.4,3.6,0.7,5.2c-1.7-0.8-3.9-1.2-5.4-2.5c-4.3-3.6-3.7-6.9,1.4-9.8
	c0.3-0.2,1.1-0.1,1.2,0.1C1289.4,729.7,1291.4,731.6,1289.5,734.7z"/>
<path class="st0" d="M215.1,821.4c2.6-0.6,3.1-1.5,1.3-3.5c-0.4-0.5-0.7-1.3-0.5-1.8c0.8-1.4,1.5-0.6,2.4,0.1c0.4,0.4,1,0.9,1.4,0.9
	c4.8-0.3,2.8,1.8,1.6,3.6c-1.4,2.4-3.2,4.5-4.4,6.9c-0.6,1-0.7,2.5-1.1,3.7c-0.3,0.8-0.7,1.5-1.1,2.4c-0.7-0.8-1.8-1.5-1.8-2.3
	c0.2-2.2,0.9-4.2,1.3-6.3C214.6,823.9,214.9,822.8,215.1,821.4z"/>
<path class="st0" d="M1313.2,680.3c-0.1-1.6,0-3.1,0.2-4.6c0.9,0.2,2.3,0.1,2.7,0.6c2.7,4.1,5.2,8.3,7.7,12.4
	c0.5,0.8,0.6,1.8,0.7,2.9c0,0.1-1.6,0.7-1.7,0.5C1319.4,688.3,1316.4,684.4,1313.2,680.3z"/>
<path class="st0" d="M172.5,802.7c1.2-1.9,2.2-4.6,5.2-3.1c3.2,1.5,4,5.2,2.3,7.7c-0.5,0.7-0.9,1.4-1.3,2.3
	c-0.5,0.8-1.2,1.4-1.7,2.2c-0.7-0.8-1.3-1.4-2.1-2.3c-0.8-0.9-2-1.6-2.3-2.7C172.2,805.6,172.5,804.3,172.5,802.7z"/>
<path class="st0" d="M153.4,728.3c0.6-0.5,1.3-1,1.4-0.9c1.8,1.6,5.3,3.5,5.1,4.9c-0.3,2.4-3.1,4.4-4.8,6.5c-0.3,0.4-1,0.6-1.5,0.7
	c-0.8,0.2-1.6,0.2-2.5,0.2c0.3-0.7,0.8-1.2,0.9-1.9c0.3-2.7,0.5-5.3,0.8-8.1C152.9,729.3,153.1,728.9,153.4,728.3z"/>
<path class="st0" d="M126.9,214.2c1,1.8,2,3.4,2.6,5.1c0.3,0.9,0.1,1.9,0.2,2.9c-1-0.3-2.6-0.2-3-0.9c-3.1-4.7-5.9-9.4-8.6-14.3
	c-0.2-0.3,0.1-1.1,0.2-1.1c0.7,0,1.6-0.1,2,0.2c1.3,1.4,2.6,3.1,3.8,4.7C124.8,211.9,125.8,213,126.9,214.2z"/>
<path class="st0" d="M141.3,678.5c0.8,6.9-3.3,12.1-8.2,16.7c-0.5,0.5-1.5,0.5-2.4,0.8c-0.2-0.9-1-2.2-0.6-2.8
	c3.2-4.8,6.5-9.7,9.9-14.5C140.2,678.5,140.8,678.5,141.3,678.5z"/>
<path class="st0" d="M139.1,209.9c0.8,1.9,1.6,3.6,2.4,5.2c0.3,0.7,0.2,1.5,0.3,2.4c-1-0.3-2.6-0.2-3-0.8c-2.9-3.7-5.5-7.5-8-11.3
	c-0.6-0.9-0.7-2.1-0.7-3.1c0-0.7,0.7-1.2,1.1-1.9c0.6,0.4,1.3,0.8,1.8,1.3C135.1,204.1,137.1,206.9,139.1,209.9z"/>
<path class="st0" d="M121.8,683.9c2-2.9,3.8-5.2,6-7.7c0.4-0.5,1.1-0.7,1.5-1c0.3,0.7,1.1,1.5,0.8,2.1c-1.2,2.9-2.8,5.5-4.3,8.3
	c-1.1,1.8-2.6,3.6-3.9,5.3c-0.5,0.6-1.2,0.9-1.7,1.3c-0.4-0.6-1.2-1.4-1.2-1.8C119.6,688.2,120.6,686.3,121.8,683.9z"/>
<path class="st0" d="M1227.8,80.2c-2.5,4-3,4.1-6.6,1.5c-1.5-1-1.5-2.4-0.6-3.5c2.6-3.1,4.8-6.4,5.2-10.5c0.1-0.6,1-1,1.4-1.5
	c0.5,0.7,1.2,1.2,1.3,2.1c1.2,4-1.6,6.8-3.6,9.9c-0.5,0.8-0.9,1.5-1.3,2.4c1-0.3,1.8-0.7,2.9-0.9
	C1226.9,79.6,1227.3,79.9,1227.8,80.2z"/>
<path class="st0" d="M176.2,86.1c2.9,1.5,4.7,3.9,4.7,7c0,0.6-0.5,1.1-0.7,1.7c-0.5-0.3-1.1-0.5-1.5-0.8c-0.7-0.3-1.3-0.5-2.1-0.8
	c0.2,0.7,0.2,1.4,0.6,2.1c0.6,1.2,2.9,2.6,0.5,3.7c-1.8,0.9-3.4-0.2-4.2-2.1c-1.1-2.3-2.4-4.1,0.5-6.3
	C174.9,89.9,175.3,87.8,176.2,86.1z"/>
<path class="st0" d="M1262.7,809c-1.1-2.5-2.7-4.7,1.2-6.5c1.8-0.8,5-1.1,6,0.7c0.6,1,0.9,2.7,0.6,3.7c-0.4,1.1-1.5,1.4-2.3-0.2
	c-0.3-0.8-0.9-1.3-1.3-2.1c-0.5,0.3-1.3,0.6-1.3,0.9c0,0.8,0.3,1.6,0.8,2.4c0.9,1.2,3.8,2.5,1.2,4
	C1264.6,813.6,1264.3,810.3,1262.7,809z"/>
<path class="st0" d="M1311.7,221.4c0.5-1.4,1.2-2.9,2-4.2c2.2-3.4,4.4-6.8,6.7-10.2c0.3-0.4,1.5-0.6,2.3-0.4
	c0.4,0.1,0.9,1.3,0.6,1.7c-2.6,4.3-5.2,8.5-8.1,12.7C1314.8,221.7,1313,221.5,1311.7,221.4z"/>
<path class="st0" d="M197.8,394.8c-2.4,2.3-5.1,2.2-7.1,0.6c-1.1-0.9-1.5-3.4-1-4.7c0.6-1.3,2.9-2.7,4.5-2.9
	C197.7,387.6,199.7,391.3,197.8,394.8z"/>
<path class="st0" d="M1297.6,207c-1.2,2.8-2.5,5.2-3.6,7.8c-0.3,0.5-1,0.9-1.4,1.2c-0.5-0.6-1.2-1-1.4-1.6c-0.7-1.9-1.2-3.9-1.8-5.8
	c-0.1-0.4,0.2-1.1,0.4-1.1c4,0,5.2-3.2,7.4-5.3c0.5-0.5,1-1,1.6-1.4c0.4-0.2,1.1-0.1,1.4,0c0.2,0.1,0.3,0.8,0.1,1.1
	C1299.6,203.5,1298.7,205.2,1297.6,207z"/>
<path class="st0" d="M1262.2,90.4c1.2-1.3,2.2-2.6,3.5-3.4c0.5-0.3,1.3-0.2,2.1-0.2c0,0.8,0.3,1.6,0,2.4c-0.2,0.6-1.2,0.9-1.4,1.4
	c-0.2,0.6,0.2,1.3,0.4,2.1c0.6-0.3,1.1-0.5,1.6-0.9c0.7-0.4,1.3-0.9,2.1-1.2c0.2,0.9,0.7,1.7,0.6,2.6c-0.1,0.7-0.7,1.2-1.1,1.9
	c-0.9,1.3-1.8,2.8-2.8,4.2c-1.5-2.1-3.3-4-4.7-6.2C1261.8,92.4,1262.2,91.5,1262.2,90.4z"/>
<path class="st0" d="M972.9,182.4c-1.7,2.9-4.6,2.2-7.1,1.8c-0.8-0.1-1.7-2.2-2-3.4c-0.5-2.8,1.5-4.6,4.6-4.6c3.1-0.1,4.9,1,4.4,4.1
	C972.8,181,972.9,181.5,972.9,182.4z"/>
<path class="st0" d="M1029,98.6c-3.3-0.9-6.5-2.4-5.9-5.5c0.3-1.4,2.9-3.4,4.6-3.7c1.3-0.2,3.6,1.7,4.5,3.2c0.6,0.9-0.3,2.8-0.9,4.1
	C1031.1,97.5,1030.2,98,1029,98.6z"/>
<path class="st0" d="M144.5,165.3c-0.1-0.9-0.3-1.6-0.1-2.3c0-0.2,1.2-0.5,1.4-0.3c1.3,1.2,3.1,2.5,3.9,4c1.2,2.3,2.2,4.7,3,7.1
	c0.3,0.8-0.4,1.8-0.6,2.8c-0.5-0.5-1.1-0.9-1.5-1.3c-0.6-0.6-1.2-1-1.8-1.6c-0.6,0.9-1.2,1.8-1.8,2.8c-0.4,0.7-0.9,1.2-1.2,1.9
	c-0.3-0.9-1.2-2.7-0.9-2.9C149.2,171.8,145.7,168.8,144.5,165.3z"/>
<path class="st0" d="M1378.2,631.2c1.4,2.6,2.9,4.8,3.9,7.3c0.2,0.5-0.6,1.3-0.9,1.9c-0.5-0.4-1.2-0.7-1.5-1.1
	c-2.4-3.2-4.7-6.5-6.9-9.7c-0.6-0.9-0.6-2.3-0.4-3.2c0.2-0.8,1.2-1.4,1.8-2.2c0.6,0.7,1.3,1.2,1.7,2.1
	C1376.8,627.8,1377.3,629.4,1378.2,631.2z"/>
<path class="st0" d="M703.9,810.5c-0.9-4,0.2-6.3,3.1-6.3c1.7,0,4.6,0.6,5.1,1.5c0.7,1.5,0.1,3.9-0.7,5.5c-0.3,0.7-2.8,0.8-4.1,0.7
	C706.2,811.9,705.1,811.1,703.9,810.5z"/>
<path class="st0" d="M222.5,63.7c-0.6-1-1.2-1.9-1.2-2.9c0-1.1,0.6-2.3,0.9-3.4c0.5,0.9,1,1.7,1.5,2.6c2.1,2.5,4.2,4.7,6.4,7.1
	c1.6,1.7,3.5,3.5,5,5.3c0.3,0.3,0.2,1.1-0.1,1.3c-0.4,0.2-1.2,0.3-1.5,0C229.9,70.6,226.3,67.2,222.5,63.7z"/>
<path class="st0" d="M180.9,80.1c1.5,1.5,3.3,2.8,4.6,4.2c0.7,0.7,0.8,1.7,1.1,2.7c-1.2,0.1-3,0.7-3.6,0.2c-1.8-1.7-4.5-2.9-4.8-6.1
	c-0.2-1.5-2.5-2.9-3.7-4.4c-0.7-0.8-1.6-1.4-2-2.3c-0.3-0.7,0.2-1.6,0.3-2.6c0.9,0.3,2,0.5,2.6,1C177.4,75,179.2,77.4,180.9,80.1z"
	/>
<path class="st0" d="M157.4,168.7c-0.5,0.8-0.8,1.2-1.3,1.5c-0.7,0.4-1.5,0.7-2.4,0.9c-0.3-0.8-0.7-1.5-0.8-2.5
	c-0.3-2.7-0.5-5.2-0.7-7.9c0-0.7,0.2-1.7,0.7-2.1c0.7-0.4,2-0.6,2.8-0.3C158.7,159.9,159.8,165.8,157.4,168.7z"/>
<path class="st0" d="M1138.3,745.5c1.6-1.3,2.8-3.5,5.4-2.4c2.5,1,4.8,2.7,3.7,5.2c-1,2.5-3.8,3.2-6.4,2.7
	C1138.3,750.5,1137.1,748.4,1138.3,745.5z"/>
<path class="st0" d="M1302.4,687.3c-0.5-1.6-1.2-2.9-1.4-4.3c-0.1-0.6,0.7-1.8,1.1-1.8c0.8,0,2.1,0.3,2.6,0.9c2.1,2.9,4,5.8,6,8.7
	c0.2,0.4,0.5,0.8,0.5,1.1c-0.1,1-0.3,2.2-0.4,3.3c-1.1-0.4-2.7-0.6-3.4-1.2C1305.5,692.1,1304.1,689.8,1302.4,687.3z"/>
<path class="st0" d="M1295,804.6c-2.8-2.2-4.6-4.4-3.9-7.6c0.1-0.6,0.6-1.1,1-1.6c0.4,0.3,0.9,0.6,1.2,0.9c3.2,3.5,6.3,7,9.3,10.5
	c0.6,0.7,0.8,1.6,1.2,2.6c-1.2-0.1-2.9,0.3-3.7-0.3C1298.2,807.9,1296.8,806.2,1295,804.6z"/>
<path class="st0" d="M275.8,162.5c0.4,3.5-1.8,4-4.5,4.1c-2.7,0.1-4-1.1-4.6-3.4c-0.8-3.2,1.7-4.4,4.2-4.7
	C273.3,158.3,275.7,159.2,275.8,162.5z"/>
<path class="st0" d="M1293.9,721.6c-1,4,1.8,6.8,3.9,9.9c0.9,1.3,1.7,2.9,2.3,4.3c0.2,0.6-0.3,1.5-0.9,1.9c-0.3,0.2-1.6-0.2-2-0.6
	c-2.2-3.1-4.1-6.5-6.2-9.6C1289,724.5,1290.8,722.9,1293.9,721.6z"/>
<path class="st0" d="M1215.1,624.8c4.4,0.2,6.9,3.4,5.2,6.5c-0.3,0.6-1.6,1.1-2.4,1c-2.1-0.2-4.7-0.2-6.1-1.3
	C1209.6,629.1,1211.5,625.5,1215.1,624.8z"/>
<path class="st0" d="M149.6,100.9c-1.3-1.2-2.7-2.5-3.9-3.5c-2.9-2.6-5.7-5-8.4-7.7c-0.6-0.6-0.6-1.6-0.9-2.6c1,0.2,2.2,0.2,3.1,0.5
	c6.3,2.3,7.7,8.8,12.8,12.3c0.2,0.1,0.1,0.6,0.2,0.9C151.4,100.9,150.7,101,149.6,100.9z"/>
<path class="st0" d="M1264.7,290.4c2.1-0.1,4.5-0.6,5.6,0.3c1.2,0.9,1.7,3.4,1.2,4.8c-0.6,1.7-2.9,2.9-5.2,2.2
	c-1.2-0.4-3.2-1.4-3.3-2.4C1263,293.9,1264,292.3,1264.7,290.4z"/>
<path class="st0" d="M146.5,800.5c0.2-0.3,0.1-0.5,0.2-0.5c1.4-1.5,2.5-3.9,5.5-2.9c-0.9,1.5-1.5,3.3-2.8,4.7
	c-1.6,2.1-3.6,3.9-5.6,5.8c-0.7,0.7-1.6,1.3-2.7,1.6c-0.8,0.2-1.6-0.2-2.6-0.4c0.2-0.7,0.2-1.4,0.7-1.8
	C141.7,804.8,144,802.8,146.5,800.5z"/>
<path class="st0" d="M1300.3,89.2c0.6-0.2,1-0.2,1.2-0.2c1.2,0.3,2.5,0.6,3.7,0.9c-1,0.7-2.1,1.3-3,2.2c-2.3,2.1-4.5,4.2-6.8,6.3
	c-0.4,0.4-0.5,1-0.9,1.3c-1.2,0.8-2.5,1.3-3.6,1.9c0.3-1.3,0.1-3.1,1-4.2C1294.5,94.6,1297.3,92,1300.3,89.2z"/>
<path class="st0" d="M1218.7,832.4c0.9,1.2,1.7,2.4,2.3,3.5c0.3,0.7,0,1.5,0,2.4c-1.1-0.2-2.7-0.1-3.3-0.7c-3.1-3.2-6-6.7-8.8-9.9
	c-0.4-0.5-0.7-0.9-1.1-1.4c0.8-0.3,1.7-0.9,2.3-0.7c2,0.9,3.8,2.2,5.5,3.5C1216.7,829.9,1217.5,831.1,1218.7,832.4z"/>
<path class="st0" d="M1365.4,617.2c-0.6-2.9-4.2-5.2-0.5-8.1c0.5-0.4,1.3-0.8,1.7-0.7c0.5,0.2,1.1,1,1,1.5c-0.4,2.6,1.1,4.3,2.4,6.4
	c0.9,1.3,0.7,3.4,0.6,5.1c0,0.6-1.2,1.1-1.7,1.7c-0.4-0.6-0.8-1.2-1.2-1.8C1366.9,620.2,1366.2,618.9,1365.4,617.2z"/>
<path class="st0" d="M1309.1,202.1c3.8-0.6,2.8,2.5,2.3,3.2c-2,3.4-4.4,6.6-6.8,9.7c-0.3,0.4-1.3,0.4-2.1,0.6
	c-0.2-0.9-0.8-2.3-0.4-3c1.3-2.8,3.1-5.2,4.7-7.8C1307.4,203.9,1308.2,203.2,1309.1,202.1z"/>
<path class="st0" d="M142.2,736c2.5-4.4,4.9-8.5,7.5-12.5c0.3-0.5,1.6-0.5,2.6-0.7c-0.1,0.9,0.2,1.8-0.3,2.6
	c-2.5,3.8-5,7.5-7.8,11.1C144,736.8,142.9,736.4,142.2,736z"/>
<path class="st0" d="M546.9,130.9c-5.9,0-7.8-2.1-5.1-5.3c0.9-1,3.6-1.5,5.3-1.3c2,0.2,3.3,1.5,3,3.8
	C549.8,129.7,549.9,131.2,546.9,130.9z"/>
<path class="st0" d="M70.2,673.1c3.3-0.9,6.3-1.5,9.4-2.2c0.5-0.1,1.2,0.4,1.7,0.6c-0.4,0.5-0.8,1-1.2,1.4c-3.6,3.1-8.4,3-12.9,4
	c-0.7,0.1-1.6-0.9-2.6-1.5c0.7-0.6,1.2-1.4,2.1-1.7C67.8,673.2,69,673.3,70.2,673.1z"/>
<path class="st0" d="M1301.9,725.6c-0.8-2.2-1.5-4-2-6.1c-0.2-1,0.3-2.2,0.5-3.3c0.8,0.6,1.8,1,2.4,1.8c2,3.2,3.8,6.6,5.6,9.9
	c0.2,0.3-0.1,1-0.5,1.3c-0.3,0.3-1.2,0.4-1.4,0.2C1304.8,728.3,1303.5,727.1,1301.9,725.6z"/>
<path class="st0" d="M160.6,740.4c0.6-0.9,0.8-1.8,1.3-2.5c0.6-0.6,1.4-0.9,2.3-1.4c0.2,0.9,0.6,1.8,0.6,2.9c0,0.5-0.5,0.9-0.7,1.3
	c-0.4,0.9-0.9,1.8-1.2,2.9c1-0.3,1.8-0.6,2.9-0.8c0.5-0.1,1,0,1.5,0c-1,1.5-1.8,3.2-3.1,4.7c-0.2,0.2-1.3-0.1-2-0.3
	c-0.5-0.2-0.8-0.9-1.3-1.1c-1.3-0.6-2.9-1-4.2-1.5C157.9,743.1,159.1,741.7,160.6,740.4z"/>
<path class="st0" d="M67.1,224.1c-1.1-0.9-2.9-2.3-2.7-2.6c1-1.4,2.3-1.8,4.3-0.9c2.5,1,5.5,1.2,8,2.4c1.1,0.5,1.5,2.2,2.4,3.3
	c-1.1,0.1-2.3,0.3-3.3,0.1C73,225.9,70.2,225,67.1,224.1z"/>
<path class="st0" d="M232,828.9c-2,2.3-3.6,4.4-5.6,6.4c-0.9,0.9-2,1.7-3.1,2.4c-0.5,0.3-1.3-0.1-2.1-0.2c0.1-0.6,0.1-1.3,0.4-1.8
	c2.5-3,4.9-5.9,7.5-8.8c0.7-0.8,2.2-1.6,2.9-1.4C234.3,826.3,232.7,827.6,232,828.9z"/>
<path class="st0" d="M138.6,178.8c-1.5-2.7-3.1-5-4.4-7.5c-0.4-0.8-1-1.5-1-2.4c0-0.9,0.5-1.8,0.8-2.8c0.7,0.6,1.6,1,2.2,1.7
	c2.3,3.2,6,5.9,5.3,10.4c-0.1,0.7-0.9,1.3-1.3,2.1C139.5,179.8,139.1,179.4,138.6,178.8z"/>
<path class="st0" d="M1374.5,225c-3.4,0.7-6.4,1.2-9.3,1.9c-0.5,0.1-0.9,0.3-1.3,0.4c-0.1-0.6-0.5-1.3-0.3-1.6
	c1.1-1,2.3-2.2,3.6-2.8c2.1-0.9,4.3-1.6,6.5-2.4c0.9-0.3,5.1,3.4,4.6,3.7C1377.4,224.9,1376.1,224.9,1374.5,225z"/>
<path class="st0" d="M1371.6,676.3c-2.8-0.8-5.2-1.4-7.5-2.5c-0.5-0.2-0.8-1.7-0.4-2.2c0.4-0.5,1.6-0.8,2.5-0.6
	c3.2,0.8,6.3,1.6,9.2,2.9c1,0.4,1.5,1.7,2.4,2.8c-1.1,0.1-2.3,0.4-3.4,0.3C1373.5,677,1372.7,676.6,1371.6,676.3z"/>
<path class="st0" d="M116.6,225.5c-2-2.8-3.9-5.1-5.4-7.8c-0.5-0.8,0.4-2.3,0.7-3.4c0.8,0.5,1.8,0.9,2.4,1.5
	c2.2,3.1,4.1,6.5,6.1,9.6c0.1,0.2-0.7,1-1,0.9C118.5,226.5,117.6,226,116.6,225.5z"/>
<path class="st0" d="M1203.2,838.3c-0.6-1.7-3.8-2.7-1.6-4.7c0.1-0.1,2.7,1.4,3.8,2.7c2,2.1,3.9,4.2,5.5,6.5
	c0.5,0.7-0.2,2.2-0.4,3.2c-1-0.4-2.3-0.5-2.9-1C1206,842.7,1204.7,840.5,1203.2,838.3z"/>
<path class="st0" d="M167.8,751.1c-1.7,1.8-3.4,3.5-5,5.1c-0.1,0.1-1.4-0.4-1.5-0.8c-0.7-3.4,3.1-4.9,4.2-7.6c0.4-0.9,2-1.6,3.1-2.2
	c0.7-0.3,1.6-0.2,2.6-0.3c0,0.7,0.3,1.6-0.1,2.2C170.1,748.7,169,749.7,167.8,751.1z"/>
<path class="st0" d="M237,62.4c-3.2-2.6-5.7-4.9-5.1-8.9c0.1-0.7,0.6-1.3,0.9-2.1c0.6,0.4,1.6,0.8,1.7,1.2c0.7,3.8,3.3,6.3,6.4,8.5
	c0.4,0.3,0.1,1.7-0.4,2.3C238.7,65.5,238.2,63,237,62.4z"/>
<path class="st0" d="M229.6,58.1c2.7,3,5.3,5.6,8,8.3c0.4,0.4,0.5,0.9,0.7,1.4c-0.8,0.2-2,0.7-2.3,0.5c-3.2-2.9-6.4-5.8-9.1-9
	c-0.6-0.7,0.4-2.4,0.7-3.6C228,56.2,228.8,57.1,229.6,58.1z"/>
<path class="st0" d="M141.4,723c-1.6,2.4-3.4,4.4-5.1,6.4c-0.4,0.5-1.1,0.7-1.5,1c-0.3-0.6-1.1-1.3-0.9-1.6c1.6-3.2,3.6-6.5,5.5-9.5
	c0.1-0.2,2.1,0.1,2.2,0.3C141.7,720.5,141.5,721.6,141.4,723z"/>
<path class="st0" d="M1327.7,674c1.4,1.6-1.1,5.1,3.4,5c0,0,0.2,0.9,0,1c-0.7,0.6-1.5,1.4-2.3,1.4c-1.1-0.1-2.6-0.6-3.1-1.3
	c-1.3-2.4-2.5-4.7-3.5-7.3c-0.2-0.5,0.4-1.4,0.9-2.1c0.2-0.2,1.2,0.1,1.7,0.4C1325.9,672.3,1326.6,673.1,1327.7,674z"/>
<path class="st0" d="M228.7,837c2.5-2.6,4.8-4.8,7.4-6.9c0.4-0.3,1.3,0,2.1,0c-0.2,0.5-0.4,1-0.8,1.4c-2.4,2.7-4.7,5.2-7.2,7.9
	c-0.3,0.3-0.6,0.7-0.8,1c-0.4,0.9-0.7,1.7-1.1,2.7c-0.4-0.5-1.1-0.9-1.2-1.4c-0.1-0.9-0.1-2.1,0.2-3.1
	C227.6,838.2,228.3,837.9,228.7,837z"/>
<path class="st0" d="M1311,131.1c-3.5,0.5-6.6,0.8-9.9,0.9c-0.3,0-1-1.4-0.9-1.5c1.4-1,2.2-2.4,1.3-4.1c0.8,0,1.7-0.1,2.5,0.2
	c2.2,0.7,4.3,1.7,6.5,2.1C1314,129.2,1312,130,1311,131.1z"/>
<path class="st0" d="M1322.2,225c1.4-3,2.8-5.7,4.3-8.3c0.4-0.6,1.4-0.8,2.3-1.1c0.3,0.8,1.1,1.7,0.9,2.4c-1.4,3.1-3.2,6.2-4.9,9.1
	c-0.2,0.4-1,0.4-1.4,0.6C1322.9,226.9,1322.6,226.2,1322.2,225z"/>
<path class="st0" d="M1330.6,150.8c0.9,0,2.2-0.3,2.6,0.1c2.1,1.8,2.6-0.1,3.5-1c0.6-0.6,1.3-1,2.1-1.6c0.3,0.9,1.2,2.2,0.9,2.7
	c-1.8,2.6-4,4.8-6.2,7.3c-0.2,0.2-1.3-0.1-1.4-0.3c-0.1-0.6-0.2-1.4,0.1-1.8c2.2-1.9,1.3-2.6-1.3-2.7
	C1330.6,152.4,1330.6,151.6,1330.6,150.8z"/>
<path class="st0" d="M1242.4,830.3c0.4-1.3,0.7-2.4,1.1-3.4c0.7,0.9,1.2,1.6,2,2.6c1.6,2.2,3.4,4.2,4.9,6.4c0.4,0.6,0.5,1.3,0.7,2.2
	c-0.9,0.1-2.2,0.6-2.5,0.2C1246.5,835.6,1244.4,833,1242.4,830.3z"/>
<path class="st0" d="M1208.1,58.6c-1.2,1.5-2,3-3.3,4.2c-0.6,0.6-2,0.6-3,0.9c0.1-0.8-0.2-1.7,0.2-2.3c2.4-3,4.9-5.9,7.5-8.8
	c0.1-0.1,1.4,0.3,1.5,0.6C1212.2,55.7,1209.8,57,1208.1,58.6z"/>
<path class="st0" d="M118.7,670.9c-0.1,2.3,0,4.3-0.4,6.2c-0.2,1-1.2,2.1-1.8,3c-0.5,0.7-1.2,1.1-2,1.7c-0.6-0.9-1.8-2.1-1.6-2.8
	c1.1-3,2.6-5.8,3.9-8.7C116.8,670.1,118,670.5,118.7,670.9z"/>
<path class="st0" d="M71.8,244.8c2.6,1.3,5,2.4,7.3,3.7c0.8,0.4,1.1,1.4,1.6,2.2c-1.2,0.4-2.8,1.4-3.4,1c-2.8-1.5-5.2-3.5-7.7-5.4
	c-0.4-0.3-0.1-1.1-0.1-1.8C70.2,244.5,70.9,244.5,71.8,244.8z"/>
<path class="st0" d="M153.6,111.6c-0.5-1.9-1.2-3.6-1.4-5.2c-0.1-0.5,1-1.5,1.3-1.5c0.8,0,1.8,0.6,2.3,1.1c1,1.5,1.7,3.2,2.3,4.9
	c0.3,1.1,0,2.6,0,3.8c-1.1-0.6-2.1-1-3.1-1.6C154.4,112.9,154,112.4,153.6,111.6z"/>
<path class="st0" d="M234.3,838.6c1.2-1.2,2.5-2.4,3.6-3.3c0.8-0.7,1.7-1,2.7-1.6c0.1,1,0.7,2.5,0.2,3.2c-1.7,2.5-4,4.7-6.1,7
	c-0.3,0.3-1.2,0.5-1.2,0.4c-0.6-0.7-1.4-1.5-1.2-2.1C232.4,840.9,233.4,839.9,234.3,838.6z"/>
<path class="st0" d="M174.1,139.8c2.3,2.4,4.8,4.7,0.6,7.3c-1.1,0.7-2.4,0.9-3.6,1.3c-0.2-1.4-0.9-3-0.5-4.4
	C171.1,142.6,172.6,141.3,174.1,139.8z"/>
<path class="st0" d="M1209.9,832.7c1.5,2.2,3.1,4.1,4.3,6.2c0.2,0.4-0.2,1-0.3,1.5c-0.5-0.2-1.2-0.4-1.5-0.7
	c-2.3-2.3-4.6-4.4-6.6-6.8c-0.5-0.6-0.1-1.9-0.1-2.9c0.8,0.4,1.6,0.7,2.4,1.1C1208.7,831.5,1209.2,832.1,1209.9,832.7z"/>
<path class="st0" d="M160.3,102.9c-0.3-0.9-0.5-1.7-0.6-2.6c1.2,0.1,3.3,0,3.5,0.5c1.2,2.5,1.8,4.9,2.6,7.5c0.1,0.3-1.1,1.1-1.4,1.1
	c-0.8-0.1-1.8-0.7-2.2-1.2C161.3,106.6,160.9,104.9,160.3,102.9z"/>
<path class="st0" d="M1281.1,150.2c3.9,2.9,3.9,4.7,0.2,9.1c-0.5,0.6-1.1,1.1-1.6,1.7c-0.4,0.5-0.8,0.9-1.2,1.4
	c-0.5-0.9-1.1-1.7-1.4-2.7c-0.1-0.2,0.2-0.6,0.4-0.9C1280,156.5,1282.4,154,1281.1,150.2z"/>
<path class="st0" d="M1368.7,649.3c1.3,0.8,2.8,1.3,3.7,2.2c0.2,0.2-0.6,1.3-0.9,2.2c-3.1-1.2-6.2-2.6-9.1-3.9
	c-0.1-0.1,0.5-1.4,0.8-2.3C1365,648.1,1366.7,648.6,1368.7,649.3z"/>
<path class="st0" d="M155.7,791.5c-2.4,1.8-3.2,0.1-2.8-1c0.8-2.6,1.8-5,3.6-7.1c1.4-1.7,2.6,0.3,2.3,1.2
	C158.1,787.1,156.9,789.1,155.7,791.5z"/>
<path class="st0" d="M1287.1,695.1c2.2,2.7,3.9,5.1,6.1,7.5c1.1,1.1,0.7,1.8-0.5,1.9c-1.2,0.1-3-0.2-3.6-0.9
	c-1.5-1.8-2.8-3.9-3.6-6.1C1285.1,696.8,1286.3,695.8,1287.1,695.1z"/>
<path class="st0" d="M1259.7,88.1c-1.2,1.1-2.2,2.4-2.9-0.2c-1-3.8,2-5.8,4-8.4c0.2-0.3,1.2,0,2,0c-0.2,1.3-0.2,2.9-0.6,4.1
	C1261.7,85.3,1260.7,86.5,1259.7,88.1z"/>
<path class="st0" d="M1285.7,106.9c1.3-1.1,2.8-1.9,4.1-2.8c-0.3,1.4-0.7,2.9-1,4.4c-0.3,1.3-0.4,2.8-0.9,4.1
	c-0.3,0.7-1.1,1.2-1.5,1.8c-0.5-0.6-1.2-1.1-1.2-1.7C1285.1,110.9,1285.4,109,1285.7,106.9z"/>
<path class="st0" d="M165.5,792.3c-0.8,1.4-1.2,2.8-2.1,3.9c-0.4,0.5-1.3,0.7-2.1,0.9c-0.3-0.7-1-1.3-0.9-2.1
	c0.2-1.4,0.5-3.1,1.3-4.2c0.9-1.1,2.6-1.7,3.9-2.7C165.8,789.5,165.7,790.9,165.5,792.3z"/>
<path class="st0" d="M1352.7,678.9c3.1,1.1,6,1.9,8.6,3.1c0.6,0.2,0.7,1.2,1.1,1.9c-0.7,0.2-1.5,0.8-2.1,0.6c-3-1.1-6-2.5-8.6-4
	C1350.5,679.9,1350,678.4,1352.7,678.9z"/>
<path class="st0" d="M1276.8,103.5c0.3-0.5,0.4-0.9,0.6-1c1.3-0.9,2.1-3.8,4.4-2.1c0.7,0.5,0.1,3.1-0.6,4.5
	c-0.7,1.2-2.4,2.2-3.6,3.2C1277.3,106.7,1277,105.2,1276.8,103.5z"/>
<path class="st0" d="M1364.2,247.8c2.6-1.1,5-2.3,7.5-3.3c0.3-0.1,0.9,0.1,1,0.3c0.2,0.4,0.3,1.1,0.1,1.3c-2.6,1.6-5.2,3.3-8,4.7
	c-0.4,0.2-1.2-0.4-1.8-0.7C1363.1,249.6,1363.5,248.9,1364.2,247.8z"/>
<path class="st0" d="M1254,768.9c-0.4-1.1-0.5-2.2-0.7-3.2c1,0.3,2.2,0.5,2.8,1c2,1.7,3.8,3.7,5.6,5.7c0.3,0.3,0,1.4-0.2,1.5
	c-0.8,0.2-2.1,0.4-2.5,0C1257.3,772.4,1255.8,770.7,1254,768.9z"/>
<path class="st0" d="M360.7,129.4c1.5-0.8,2.9-1.5,4.3-1.7c0.5-0.1,1.6,1.3,1.7,2.3c0.1,0.9-0.2,2.6-1,2.9c-1.2,0.6-3.3,0.9-4.1,0.4
	C360.8,132.7,360.9,130.8,360.7,129.4z"/>
<path class="st0" d="M174.7,758c-1.4-1.1-3-2.5-3.8-3.9c-1.1-1.7-1.2-3.6,1.6-4.4c0.4-0.1,0.9-0.3,1.2-0.4c0,0.5-0.1,0.9-0.1,1.3
	c0,0.9-0.1,1.6-0.1,2.6c0.9-0.2,1.6-0.5,2.6-0.7c0.4-0.1,1.2-0.1,1.2,0.1c0.2,0.4,0.3,0.9,0.1,1.3
	C176.7,755.2,175.7,756.5,174.7,758z"/>
<path class="st0" d="M153.4,93.4c0-1.7,0.2-3.2,0.4-4.7c1,1,2.1,2.2,2.9,3.3c0.9,1.4,1.6,3,2.3,4.6c0.2,0.4-0.2,1-0.3,1.5
	c-0.7-0.2-1.6-0.1-2-0.5C155.4,96.1,154.5,94.8,153.4,93.4z"/>
<path class="st0" d="M70.2,652.2c2.5-1.6,5.1-3.2,7.9-4.6c0.5-0.3,1.6,0.6,2.5,0.9c-0.6,0.6-1,1.5-1.6,1.7
	C76.2,651,74.1,654.6,70.2,652.2z"/>
<path class="st0" d="M1174.9,135.6c-0.6,1.5-1.1,2.9-1.8,4.1c-0.1,0.1-2.1-0.4-2.7-1c-0.8-0.9-1.7-2.4-1.3-3
	c0.6-1.1,2.1-2.2,3.5-2.6C1172.8,133,1174,134.6,1174.9,135.6z"/>
<path class="st0" d="M187.6,52.7c1.1,1.4,2.2,2.7,2.8,4c0.2,0.5-0.3,1.7-0.9,1.9c-1.7,0.6-6.7-4.4-6-5.9c0.4-0.9,1.2-1.4,1.8-2.3
	C186,51.2,186.8,51.9,187.6,52.7z"/>
<path class="st0" d="M1277.6,818.4c-1.3-1.6-2.7-3.1-3.6-4.7c-0.7-1-0.8-2.5-1.2-3.6c0.8-0.2,2.3-0.8,2.5-0.6c1.4,1.7,3,3.6,3.9,5.6
	C1279.7,816.2,1281.3,818.5,1277.6,818.4z"/>
<path class="st0" d="M1285,201c1.2-2.7,2.5-4.8,3.7-7.1c0.3-0.4,0.9-0.7,1.2-1c0.4,0.6,1.1,1.2,1,1.6c-1.1,2.8-2.5,5.4-3.6,8.2
	C1286.5,202.1,1285.7,201.8,1285,201z"/>
<path class="st0" d="M954.1,165.1c-0.3-1.6-0.4-3.2-0.4-4.7c1.1,0,2.5-0.3,3.1,0.2c1.1,0.9,2.5,2.4,2.4,3.5
	C958.7,167.1,956.4,166.2,954.1,165.1z"/>
<path class="st0" d="M1030.6,797.2c0.3,2.5-1.1,3.2-3,2.7c-1.4-0.5-2.7-1.6-3.9-2.7c1-1.1,2-2.4,3.1-3.5
	C1028,794.8,1029.3,795.9,1030.6,797.2z"/>
<path class="st0" d="M1187.2,173.4c-2-2.5-3.7-4.7-5.5-7.1c-0.3-0.5-0.6-1.1-0.4-1.6c0.1-0.4,1-0.8,1.4-0.8
	C1185.9,164.1,1189.2,171,1187.2,173.4z"/>
<path class="st0" d="M690.4,89c-0.7,1.5-1.4,2.9-2.2,4.1c-1.2-0.6-3.4-1-3.7-1.9c-0.4-0.9,0.4-2.9,1.2-3.7
	C687.8,85.9,689.1,87.4,690.4,89z"/>
<path class="st0" d="M1288,89c4.1,1.9,0.1,3.5-0.2,5.1c-0.3,1.2-2.6,2.2-3.9,3.1c-0.3-0.9-1.2-2.1-0.9-2.6
	C1284.3,92.8,1286,90.9,1288,89z"/>
<path class="st0" d="M197.6,526.6c-1.2,0.9-2.5,1.9-3.6,1.9c-0.9,0-2.3-1.4-2.3-2.4c-0.1-1,0.7-3,1.5-3.3
	C196.5,521.7,196.7,524.5,197.6,526.6z"/>
<path class="st0" d="M169.5,80.8c-0.6-0.9-1.5-1.3-1.7-2.1c-0.3-0.9,0.1-1.9,0.1-3c0.7,0.3,1.5,0.5,2.1,0.9c1,0.9,2.2,1.9,2.6,3.1
	c0.5,1.1,0.2,2.7,0.1,3.9c0,0.4-0.8,0.8-1.2,1C170.7,83.6,170.1,82.4,169.5,80.8z"/>
<path class="st0" d="M158.9,803.4c-1.1,1.5-2.1,2.9-3.3,3.9c-0.6,0.5-1.6,0.6-2.6,0.9c-0.1-0.7-0.6-1.5-0.3-2.1
	c1.4-2.1,3.2-4.1,4.7-6.1C158.1,801,158.4,802.2,158.9,803.4z"/>
<path class="st0" d="M1269.2,83.3c-1.2-2.7,2.5-7.7,5-7.3c0.6,0.1,1.3,0.7,1.4,1C1275.9,78.5,1271.1,83.1,1269.2,83.3z"/>
<path class="st0" d="M1257.4,125.3c1.5-0.7,3.1-1.2,4.4-1.8c-0.7,1.2-1.2,2.7-2.1,3.8c-0.9,1-2.1,2.1-3.2,2.9
	c-0.6,0.5-1.3,0.7-2.2,0.9c0-0.9-0.2-1.8,0.2-2.6C1255.3,127.4,1256.4,126.4,1257.4,125.3z"/>
<path class="st0" d="M1257.1,810.5c0.4-0.3,0.6-0.7,0.7-0.6c2.4,0.9,5.5,5.3,5.1,7.4c-0.1,0.4-1.3,0.9-1.4,0.8
	C1259,815.9,1255.8,814.4,1257.1,810.5z"/>
<path class="st0" d="M256.8,683.9c1.4,0.9,3.6,1.8,3.6,2.7c-0.1,1.2-1.5,2.6-2.8,3.5c-0.3,0.2-2.1-0.6-2.6-1.2
	C253.8,686.8,254.6,685.1,256.8,683.9z"/>
<path class="st0" d="M1274.5,347.1c-0.2-0.5-0.3-0.9-0.2-1.1c0.4-1.1,0.9-2.4,1.3-3.4c1.5,0.8,3.4,1.3,4.4,2.5
	c0.4,0.4-0.4,2.4-1.2,3.1C1277.5,349.6,1275.9,348.6,1274.5,347.1z"/>
<path class="st0" d="M110.3,157c-2.3,2.6-4.1,0.9-5.2-0.6c-1.3-1.9-1.6-4.2,0.8-5.9c0.2-0.1,1.2,0.4,1.3,0.8
	C108.3,153.1,109.3,154.8,110.3,157z"/>
<path class="st0" d="M1295.6,521.1c1,1.5,1.5,3.1,2,4.7c0,0.1-1.7,0.9-2.5,0.8c-1.4-0.4-2.8-1.3-4-2.1
	C1292.4,523.3,1293.8,522.2,1295.6,521.1z"/>
<path class="st0" d="M170.2,811c-2.1,2.4-4.1,4.3-6.3,6.2c-0.3,0.3-1.1,0.1-1.6,0.1c0.1-0.6,0-1.1,0.3-1.5c1.3-1.8,3-3.7,4.3-5.5
	C168.6,808.1,169.3,810,170.2,811z"/>
<path class="st0" d="M180.1,240.8c2.7,0.9,4.7,2.2,3.5,4.6c-0.4,0.7-2.8,1-4,0.8c-2.6-0.5-1.7-2.5-1.2-4
	C178.4,241.7,179.3,241.3,180.1,240.8z"/>
<path class="st0" d="M544.3,807.7c-1.3-2.3,0.3-3.4,1.8-3.5c1.3-0.1,3,1,4.3,1.6c-0.8,1.1-1.3,2.8-2.6,3.4
	C546.8,810.1,545,810.1,544.3,807.7z"/>
<path class="st0" d="M1268.8,814.2c1.6,1,3.3,2.3,4.7,3.6c0.4,0.4,0.6,0.9,0.8,1.3c0.4,0.9,0.8,1.8,1.2,2.8
	c-1.2-0.5-3.2-0.6-3.7-1.4C1270.5,818.6,1267,817.5,1268.8,814.2z"/>
<path class="st0" d="M1255.9,57.3c-1.4,0.4-2.8,0.7-4,0.8c-0.1,0-0.6-1.2-0.4-1.5c1.2-1.4,2.6-2.9,3.9-4.3c0.5-0.4,1.6-0.9,2-0.7
	c0.5,0.4,1.1,1.4,0.9,1.9C1257.8,54.7,1256.9,55.8,1255.9,57.3z"/>
<path class="st0" d="M1259.1,845.3c-1.1,0.5-2.8,1-3.3,0.7c-1.6-1.4-3-3.4-4.3-5.1c0.8-0.2,2-0.9,2.3-0.6
	C1255.7,841.8,1257.4,843.4,1259.1,845.3z"/>
<path class="st0" d="M1284.8,332c-1.6,0.5-3.6,1.3-4.4,0.9c-1-0.5-1.2-2.5-1.2-3.7c0-0.4,2.3-1.1,3.4-1
	C1284.7,328.4,1285.2,330,1284.8,332z"/>
<path class="st0" d="M179.7,818.6c0.6-2.9,1.2-5.5,2.2-8.4c0.1-0.3,1.2-0.7,1.3-0.5c0.6,0.4,1.3,0.9,1.4,1.5c0.7,3-0.9,5.1-3.6,6.7
	C180.6,818.1,180.2,818.3,179.7,818.6z"/>
<path class="st0" d="M472.5,94.5c-0.9-0.2-1.5-0.4-1.8-0.7c-1-0.9-1.7-2.1-2.7-3c1.4-0.8,3-1.6,4.4-2.5c0.5,0.9,1.4,1.9,1.4,2.9
	C474,92.2,473.2,93.5,472.5,94.5z"/>
<path class="st0" d="M936.6,742.5c0.8-0.4,1.4-0.6,2.1-0.9c1.4-0.8,3.4-1.3,3.6,0.7c0.2,1.2-0.8,3.5-2,4c-1.7,0.9-3.5-0.3-3.9-2.3
	C936.3,743.5,936.4,743.1,936.6,742.5z"/>
<path class="st0" d="M1233.2,813.9c1.7,2.8,0.9,4.5-2,5.4c-0.6,0.2-1.3-0.1-2.1-0.2c0.4-0.3,1-0.6,1-0.9c0.1-0.8,0-1.5-0.1-2.4
	c-0.2-0.9-0.5-2.1-0.7-3C1230.5,813.1,1231.7,813.4,1233.2,813.9z"/>
<path class="st0" d="M170.4,820c-1.2,0.7-2.1,1.1-3.1,1.6c0.3-0.9,0.4-2.1,0.8-3c0.3-0.7,0.8-1.3,1.2-1.8c1-0.9,2.2-1.6,3.4-2.5
	c-0.1,1.3,0,2.9-0.3,4.2C172.4,819.2,171.3,819.5,170.4,820z"/>
<path class="st0" d="M1274.5,801.9c-1.4-2.5-2.9-4.6-3.9-6.9c-0.3-0.6,0.5-1.5,0.9-2.4c0.7,0.7,2.1,1.3,2,1.8
	c-0.3,2.6,1.1,4.4,2.7,6.3C1276.2,800.7,1275.2,801.5,1274.5,801.9z"/>
<path class="st0" d="M1276.6,86.2c-1.3,1.1-2.8,1.9-4.2,2.8c0.4-1.3,0.7-2.8,1.2-4.1c0.2-0.7,0.5-1.6,1.1-1.9c1.2-0.7,2.6-1,3.8-1.5
	c-0.4,0.9-0.8,1.7-1.1,2.8C1277.1,84.8,1276.9,85.4,1276.6,86.2z"/>
<path class="st0" d="M187.6,845.1c-1.2,0.4-2.3,0.9-3.3,0.8c-0.7,0-1.2-0.8-1.8-1.2c1.8-1.3,3.7-2.9,5.7-4.2
	c0.3-0.2,1.6,0.1,1.6,0.2c0,0.9,0.1,1.7-0.3,2.6C189.2,844,188.4,844.3,187.6,845.1z"/>
<path class="st0" d="M1255.9,82c-3.6-0.5-2.1-3-1.8-4.5c0.1-0.8,2.3-1.4,3.5-2.2c0.4,0.8,1.2,1.6,1,2.3
	C1257.9,79,1256.9,80.4,1255.9,82z"/>
<path class="st0" d="M1255.5,816.3c1.2,1.5,2.5,2.9,3.3,4.5c0.3,0.6-0.3,1.5-0.5,2.4c-0.7-0.2-1.5-0.2-2.1-0.6
	C1253.2,820,1252.9,817.6,1255.5,816.3z"/>
<path class="st0" d="M179.3,818.6c-1,2.1-2,4.2-3.4,6.2c-0.3,0.4-1.7,0.2-2.8,0.3c0-0.9-0.3-2.1,0.2-2.6
	C175,821,177.1,819.8,179.3,818.6z"/>
<path class="st0" d="M165,80.8c1.7,1.8,3.3,3.6,4.5,5.5c0.2,0.3-0.3,1.2-0.8,1.6c-0.3,0.2-1.2,0.1-1.7-0.2
	C164.6,85.9,163.3,83.6,165,80.8z"/>
<path class="st0" d="M275.8,277.2c1.2-0.2,2.3-0.8,3.1-0.6c1.2,0.3,2.5,1,3.7,1.5c-1.1,0.4-2.1,0.7-3.2,1c-0.8,0.3-1.5,0.5-2.3,0.7
	c-1.2,0.3-2.4,0.6-3.6,0.9C274.2,279.7,274.8,278.4,275.8,277.2z"/>
<path class="st0" d="M171.9,102.1c0,0.9,0.1,1.4,0,2.1c-0.1,0.5-0.4,0.9-0.6,1.3c-0.3-0.4-0.8-0.7-1-1c-1.1-2.2-2.1-4.2-3-6.5
	c-0.1-0.3,0.7-0.9,1.1-1.4c0.4,0.4,0.8,0.8,1.1,1.2C170.2,99.1,171,100.4,171.9,102.1z"/>
<path class="st0" d="M1271,785c0.2,1.6,0.3,3.1,0.1,4.6c-0.1,0.5-0.9,0.9-1.2,1.3c-0.4-0.5-1.1-0.9-1.2-1.3
	c-0.3-2.2-0.4-4.2-0.4-6.4c0-0.2,1-0.6,1-0.6C1269.9,783.4,1270.4,784.2,1271,785z"/>
<path class="st0" d="M1266,819.9c2,1.1,3.6,2.4,4.9,3.6c0.2,0.2-0.8,1.8-1,1.8c-1.4-0.3-3.3-0.5-4.2-1.2
	C1264.6,823,1263.4,821.3,1266,819.9z"/>
<path class="st0" d="M57.4,279.1c-0.4-0.8-1.1-1.4-0.9-1.9c0.4-0.9,1.2-1.8,1.8-2.8c0.6,0.7,1.2,1.2,1.8,1.9c0.3,0.3,0.7,0.8,0.7,1
	c-0.1,1.1-0.4,2.4-0.7,3.5C59.3,280.4,58.4,279.8,57.4,279.1z"/>
<path class="st0" d="M1268.3,109.6c0.3-0.9,0.4-1.6,0.8-2.1c0.2-0.3,1-0.2,1.4-0.2c0,2.5,0,4.8,0,7.3c0,0.2-0.7,0.5-0.8,0.4
	c-0.5-0.4-1.2-0.9-1.3-1.3C1268.2,112.5,1268.3,111.2,1268.3,109.6z"/>
<path class="st0" d="M1308.5,219.5c-1.2,0-2,0-2.8-0.1c0.3-0.5,0.7-0.9,0.9-1.3c0.4-0.8,0.6-1.5,1.1-2.4c0.6-0.8,1.3-1.4,2.1-2.3
	c0.3,0.9,1,1.8,0.9,2.8C1310.5,217.3,1309.4,218.4,1308.5,219.5z"/>
<path class="st0" d="M168,797.2c0.6-1.3,1.2-2.5,1.8-3.3c0.1-0.1,1.4,0.5,1.3,0.6c-0.2,1-0.6,2.1-1,3c-0.1,0.4-0.3,0.8-0.5,1.1
	c-0.6,0.9-1.2,1.8-2,2.8C167.9,800.1,168,798.8,168,797.2z"/>
<path class="st0" d="M1369.8,632.5c0.8,0.9,1.8,1.7,2,2.6c0.1,0.9-0.7,1.8-1.1,2.8c-1.2-0.9-2.9-1.7-3.4-2.9
	C1366.7,633.6,1367.4,632.2,1369.8,632.5z"/>
<path class="st0" d="M72.3,683.9c1.1,0.7,1.8,1.4,2.6,2.2c-1.2,0.2-2.7,0.5-3.9,0.6c-0.6,0-1.2-0.5-2-0.7c-0.9-0.3-1.8-0.5-2.8-0.8
	c1.2-0.4,2.4-0.8,3.6-1C70.5,683.9,71.3,684,72.3,683.9z"/>
<path class="st0" d="M130.8,773.8c2.2,0,3.8-0.1,5.6,0.1c0.5,0,0.8,0.9,1.2,1.3c-1.2,0.4-2.5,0.9-3.7,1.2
	C133.8,774.7,128.6,777.7,130.8,773.8z"/>
<path class="st0" d="M1216.4,77.9c-3.7-0.7-1.1-2.4-0.5-3.1c0.9-1.2,2.5-2.2,3.8-3.1c-0.5,1.5-1,3.1-1.5,4.7
	C1218,76.7,1217.1,77.2,1216.4,77.9z"/>
<path class="st0" d="M224.8,72.7c0.7,0.9,1.5,1.5,1.6,2.4c0.2,0.9-0.2,2.1-0.4,3c-0.6-0.7-1.3-1.2-1.8-1.9c-0.6-0.8-1.1-1.6-1.4-2.6
	c-0.3-0.6-0.2-1.2-0.3-1.8C223.1,71.9,223.8,72.2,224.8,72.7z"/>
<path class="st0" d="M132.9,214.2c1.1,1.1,2.2,2.2,2.8,3.3c0.3,0.7-0.3,1.6-0.5,2.6c-0.7-0.3-1.5-0.4-2.1-0.9
	c-0.9-0.9-1.5-2.2-2.2-3.3C130.3,214.4,131.1,213.8,132.9,214.2z"/>
<path class="st0" d="M1269.8,73.2c0.5,1.8-2.6,4.6-4.3,4c-0.5-0.2-1.1-1-1-1.2c0.6-0.9,1.2-2.1,2.3-2.7
	C1267.3,72.9,1268.5,73.2,1269.8,73.2z"/>
<path class="st0" d="M1272.9,97.9c0.5,1.6,0.8,3.3,0.7,4.9c0,0.7-1,1.2-1.5,1.8c-0.5-0.7-1.3-1.4-1.2-2.1
	C1270.9,101.2,1271.8,99.5,1272.9,97.9z"/>
<path class="st0" d="M73.3,631.8c0.8,0.7,2,1.7,1.7,2.4c-0.4,1.1-1.6,1.9-2.7,2.9c-0.5-0.9-1.4-1.7-1.3-2.6
	C71.4,633.6,72.4,632.9,73.3,631.8z"/>
<path class="st0" d="M1307.5,678.9c1.2-0.4,2.2-0.6,3.3-0.8c-0.3,1.8-0.5,3.6-0.8,5.4c-0.4-0.1-0.9-0.1-1-0.3
	C1308.4,681.8,1307.9,680.5,1307.5,678.9z"/>
<path class="st0" d="M794.7,87.8c1.3-0.4,2.5-0.8,3.6-0.8c0.8,0,1.4,0.6,2.3,0.9c-0.8,0.6-1.6,1.7-2.4,1.7
	C796.8,89.5,795.7,88.5,794.7,87.8z"/>
<path class="st0" d="M215.7,146.9c-0.3-1-0.7-1.9-0.5-2.8c0.1-0.6,1-1,1.4-1.5c0.5,0.6,1.2,1,1.3,1.6c0.2,0.9,0.2,2.1,0,3
	c-0.1,0.5-0.8,0.9-1.2,1.4C216.5,148.1,216.2,147.5,215.7,146.9z"/>
<path class="st0" d="M283.4,782.8c0,0.8,0.1,1.2,0,1.7c-0.4,0.9-0.9,1.6-1.3,2.5c-0.3-0.4-0.9-0.7-0.9-1c-0.1-1.2,0-2.7,0-4
	C281.8,782.1,282.6,782.3,283.4,782.8z"/>
<path class="st0" d="M1304.2,774.8c0.9-0.4,1.4-0.9,2.2-0.8c1.6,0.1,3.4,0.5,4.9,0.7c-0.1,0.3-0.3,0.9-0.4,0.9
	C1308.5,775.4,1306.3,775.2,1304.2,774.8z"/>
<path class="st0" d="M1261.6,71.6c-0.1-1.1,0-2.2,0.1-3.2c1.4,0.2,3.1,0.4,4.5,0.5c-0.2,0.5-0.3,1.1-0.7,1.3
	C1264.4,71,1263.1,71.3,1261.6,71.6z"/>
<path class="st0" d="M178,68.5c2.7-2.2,2.7,0.4,3.3,1.3c0.4,0.7,0,1.7-0.1,2.7c-1.1-0.6-2.4-1-3.3-1.8
	C177.5,70.4,177.8,69.4,178,68.5z"/>
<path class="st0" d="M181.5,828c-1.1,0.9-2,1.5-3,2.3c-0.2-0.7-0.8-1.4-0.6-1.9c0.4-1,1.2-1.9,2-2.9
	C180.5,826.2,181.1,827.1,181.5,828z"/>
<path class="st0" d="M1369.8,265.4c-0.8-0.5-2.1-1.1-2-1.7c0.1-0.9,1-1.8,1.6-2.8c0.1-0.1,1.3,0.2,1.3,0.3c0.1,0.9,0,1.6-0.2,2.6
	C1370.6,264.4,1370.2,264.8,1369.8,265.4z"/>
<path class="st0" d="M184.2,838.3c-0.2-0.5-0.3-0.9-0.2-1.1c0.7-0.9,1.3-1.8,2.2-2.9c0.3,0.3,0.9,0.6,0.8,0.8
	c-0.2,1.4-0.5,2.9-0.8,4.5C185.5,839.2,184.9,838.8,184.2,838.3z"/>
<path class="st0" d="M1264.3,827.6c0.2,0.9,0.3,1.7,0.4,2.6c-1-0.3-2.3-0.3-2.9-0.9c-0.6-0.6-0.4-1.7-0.5-2.8
	C1262.2,826.9,1263.1,827.1,1264.3,827.6z"/>
<path class="st0" d="M1199.7,840c-0.2,1.1-0.5,2.2-0.8,3.1c-0.7-0.6-1.5-0.9-2.1-1.7c-0.3-0.6-0.3-1.5,0.1-2.2
	C1197.6,838,1198.1,838.1,1199.7,840z"/>
<path class="st0" d="M275.6,237.6c-0.3-0.6-0.7-1-0.5-1.3c0.4-0.9,1-1.9,1.5-2.9c0.5,0.7,1.2,1.2,1.3,2.1
	C278.1,236.6,278.5,238.4,275.6,237.6z"/>
<path class="st0" d="M1149.2,73.4c1.1,0.1,2,0.3,2.9,0.5c1,0.3,2,0.6,3,0.9c-0.2,0.4-0.3,1-0.5,1c-1.3,0-2.8,0.1-4-0.3
	C1150,75.3,1149.6,74.3,1149.2,73.4z"/>
<path class="st0" d="M240.8,551.6c-1-2.7,1.1-2.4,2.6-2.2c0.8,0.1,1.4,0.8,2.3,1.2c-1.1,0.5-2.1,0.9-3.3,1.3
	C241.9,552.1,241.4,551.7,240.8,551.6z"/>
<path class="st0" d="M1195.2,56.5c0.8-0.3,1.3-0.6,1.8-0.5c1.2,0.2,2.3,0.5,3.4,0.8c-0.3,0.4-0.5,1-0.8,1.1c-1.3,0.1-2.8,0-4-0.1
	C1195.3,57.8,1195.2,57.2,1195.2,56.5z"/>
<path class="st0" d="M70.8,262.1c2-2.8,2.8-0.4,3.8,0.5c0.2,0.2-0.5,1.1-0.7,1.8C72.9,263.7,71.8,263.1,70.8,262.1z"/>
<path class="st0" d="M1260.5,581.4c-1.1-0.1-2-0.4-2.9-0.7c0.7-0.6,1.2-1.7,2-1.7c1.1-0.1,2.2,0.6,3.3,0.9
	C1262.1,580.2,1261.4,580.7,1260.5,581.4z"/>
<path class="st0" d="M200.5,362.9c-3-0.1-2-2.1-2.1-3.5c0-0.4,0.8-0.8,1.2-1.1c0.4,0.4,1.2,0.8,1.2,1.2
	C200.9,360.6,200.7,361.6,200.5,362.9z"/>
<path class="st0" d="M1240.8,506.1c0.4,1.3,0.7,2.6,0.9,3.7c-0.9-0.1-2.2,0-2.5-0.4C1238.3,507.9,1238,506.3,1240.8,506.1z"/>
<path class="st0" d="M133.7,122.2c0.2,0.9,0.3,2.2,0.1,2.2c-1.1,0.2-2.4,0.2-3.6,0.2c0-0.6-0.2-1.6,0.1-1.7
	C131.3,122.3,132.4,122.3,133.7,122.2z"/>
<path class="st0" d="M923.5,756.7c-0.6-1.3-0.9-2.9-1-4.2c0,0,1.2-0.2,1.7-0.2C924.1,753.7,924,755.2,923.5,756.7z"/>
<path class="st0" d="M972.9,775.9c-0.6,0.5-1.2,0.6-1.8,0.7c-0.3-1.1-0.7-2.4-0.7-3.5c0-0.4,1-0.9,1.4-1.2c0.4,0.8,0.8,1.5,1,2.4
	C973,774.7,972.9,775.2,972.9,775.9z"/>
<path class="st0" d="M1225,304.1c2.2,0.3,3,1.2,1.7,2.8c-0.4,0.5-1.7,0.2-2.8,0.3C1224.2,306,1224.4,305,1225,304.1z"/>
<path class="st0" d="M79.2,326.7c0.4-1.3,0.7-2.4,1.1-3.4c0.6,0.3,1.7,0.6,1.7,0.8c0,0.9-0.3,2.1-0.8,3
	C81.1,327.3,79.9,327.1,79.2,326.7z"/>
<path class="st0" d="M188,652.8c0.3-0.8,0.8-1.7,1.2-1.7c1.2,0,2.6,0.5,3.8,0.8c-0.4,0.4-0.7,1-1.2,1.1
	C190.7,653,189.3,652.9,188,652.8z"/>
<path class="st0" d="M304,793c0.1-1.3,0.2-2.5,0.4-3.4c0-0.1,0.8-0.1,1.2-0.2c0.2,1.1,0.5,2.4,0.5,3.6
	C306.2,793.1,304.6,793.3,304,793z"/>
<path class="st0" d="M244.1,54.8c3.1,0.3,2,2.3,1.8,3.7c0,0.1-1.2,0.1-1.7,0.2C244.1,57.5,244,56.2,244.1,54.8z"/>
<path class="st0" d="M729.7,813.2c0.5,0.8,1.2,1.8,1.1,1.9c-0.8,0.6-1.7,1-2.8,1.1c-0.3,0-1.2-1.5-1.1-1.7
	C727.6,814,728.6,813.5,729.7,813.2z"/>
<path class="st0" d="M132.5,681.3c0.3-0.4,0.5-0.5,0.6-0.7c0.5-0.9,1.1-1.9,1.5-2.9c0.2,0.9,0.9,2.2,0.6,2.9
	c-0.5,0.9-1.7,1.6-2.7,2.5C132.4,682.6,132.3,682,132.5,681.3z"/>
<path class="st0" d="M359.9,57.9c-1.1,0-2-0.2-2.9-0.4c0.6-1.1,1.2-2.3,1.7-3.4c0.4,0.8,0.9,1.5,1.2,2.4
	C360.3,56.9,360.1,57.4,359.9,57.9z"/>
<path class="st0" d="M1181.7,122.6c1.2,1.7,0.6,2.9-1.5,2.7c-0.8-0.1-1.4-0.9-2.3-1.5C1179,123.4,1180.2,123,1181.7,122.6z"/>
<path class="st0" d="M184.5,59.9c0.8,0.2,1.5,0.4,2,0.9c0.5,0.6,0.8,1.3,0.8,2.1c0,0.2-1.3,0.8-1.7,0.6c-0.7-0.4-1.2-1.1-1.5-1.8
	C183.9,61.3,184.3,60.6,184.5,59.9z"/>
<path class="st0" d="M911.5,129.4c0.4,0.9,0.7,1.5,0.9,2.3c-0.9,0-1.8,0.2-2.7-0.1c-0.6-0.2-1-1-1.4-1.6
	C909.3,129.7,910.4,129.5,911.5,129.4z"/>
<path class="st0" d="M186.4,223.4c-0.4,2.6-2,1.7-3.4,0.9c-0.3-0.2,0.2-1.3,0.3-2.1C184.4,222.7,185.3,222.9,186.4,223.4z"/>
<path class="st0" d="M1167.3,666.8c0.6-0.5,1.2-0.7,1.6-0.7c1.2,0,2.4,0.2,3.6,0.3c-0.3,0.5-0.6,1.3-0.8,1.3
	C1170.2,667.5,1168.8,667.4,1167.3,666.8z"/>
<path class="st0" d="M222.9,825.1c0.9-1.6,1.8-3.2,3-4.6c0.1-0.1,0.9,0.2,1.2,0.3c-0.1,0.4-0.1,0.9-0.4,1.1
	C225.6,823.2,224.3,824.3,222.9,825.1z"/>
<path class="st0" d="M1295.6,507.4c-0.3-0.9-0.2-2.1,0-3c0-0.1,1.2-0.1,1.7,0.2c0.7,0.3,1.3,0.8,2.1,1.1
	C1298.2,506.1,1297.1,506.7,1295.6,507.4z"/>
<path class="st0" d="M1309.2,600.1c-0.5-1.2-0.7-2.6-0.8-3.8c0.5,0,1.1,0,1.5,0C1309.8,597.5,1309.7,598.9,1309.2,600.1z"/>
<path class="st0" d="M1262.9,497.7c-0.5,1.1-1,1.9-1.3,2.8c-0.5-0.4-1.4-0.8-1.5-1.1c-0.1-0.8,0.4-1.6,0.6-2.6
	C1261.3,497,1262.1,497.2,1262.9,497.7z"/>
<path class="st0" d="M432.4,65.5c-0.6,1-1.3,2.1-2.2,2.9c-0.3-0.6-1-1.1-1-1.6C429.5,65.2,430.5,64.4,432.4,65.5z"/>
<path class="st0" d="M335.6,162.6c0.1-1,0.3-2.1,0.6-2.9c0.9,0.7,1.7,1.3,2.7,2.1C337.9,162.2,336.9,162.4,335.6,162.6z"/>
<path class="st0" d="M332,88.2c0.4-1.1,0.7-1.9,1.1-2.8c0.4,0.9,1.1,1.9,1.1,2.9c0,0.9-0.7,1.6-1.1,2.6
	C332.7,90.2,332.4,89.5,332,88.2z"/>
<path class="st0" d="M324.2,130.7c-2.5,2.1-2.7-0.4-3.6-1.2c-0.1-0.1,0.5-1.2,0.9-1.2C323.5,127.9,324.6,128.5,324.2,130.7z"/>
<path class="st0" d="M1256.9,778c-0.4,0.9-0.9,1.3-1.2,1.8c-0.6-0.9-1.2-1.7-1.6-2.8c-0.1-0.5,0.5-1,0.9-1.6
	C1255.4,776.1,1256.2,776.9,1256.9,778z"/>
<path class="st0" d="M1255.9,838.3c-0.4,0-0.7-0.1-0.7-0.3c-0.1-1.1-0.1-2.5-0.2-3.6c0.7,0.2,2,0.4,2,0.5
	C1256.8,835.9,1256.5,836.9,1255.9,838.3z"/>
<path class="st0" d="M123.4,345c0.2-1.8,1.2-2.6,2.9-1.4c0.5,0.3,0.8,1.7,0.4,2.3C125.3,347.7,124.5,345.9,123.4,345z"/>
<path class="st0" d="M133.3,412.1c0.4-0.3,0.6-0.7,0.7-0.6c1.2,0.2,2.4,0.5,3.6,0.8c-0.4,0.4-0.7,0.8-1.2,1.1
	C134.7,414.6,133.7,414,133.3,412.1z"/>
<path class="st0" d="M472.7,791.2c1.2,0.1,2.4,0.5,3.6,0.8c-0.5,0.7-0.8,1.9-1.3,2.1C472.5,794.4,472.5,792.8,472.7,791.2z"/>
<path class="st0" d="M915,737.3c-1.7-0.2-3.5-0.6-5-0.9c1.6-0.3,3.3-0.6,4.9-0.9C915,736,915.1,736.5,915,737.3z"/>
<path class="st0" d="M1184.5,762.1c1.4,0.1,2.7,0.3,3.9,0.6c-0.7,0.6-1.5,1.6-2.2,1.5C1185.5,764,1185,762.9,1184.5,762.1z"/>
<path class="st0" d="M70.2,212.1c0.9,0,1.6,0,2.2,0.3c0.6,0.5,1.1,1.1,1.3,1.8c0.1,0.2-0.9,1.1-1.2,1c-0.8-0.2-1.4-0.7-2-1.2
	C70.2,213.6,70.2,213,70.2,212.1z"/>
<path class="st0" d="M836.4,784c-0.2-0.8-0.3-1.3-0.3-1.8c1.4,0.3,3,0.6,4.5,0.9c-0.7,0.4-1.3,0.9-2.2,1.1
	C837.9,784.3,837.2,784.2,836.4,784z"/>
<path class="st0" d="M1220.5,299c-0.2-0.6-0.3-1-0.2-1.5c0.2-0.8,0.6-1.6,0.9-2.5c0.5,0.4,1.3,0.9,1.3,1.2
	C1222.6,297.5,1223.8,299.5,1220.5,299z"/>
<path class="st0" d="M346.6,840c1.2,0.3,2.5,0.7,3.6,1c-0.6,0.5-1.1,0.9-1.6,1.4C347.8,841.8,347.2,840.9,346.6,840z"/>
<path class="st0" d="M1307,122.6c0.5-0.3,1.1-0.5,1.5-0.3c1,0.4,1.8,0.9,2.9,1.4c-0.4,0.3-0.9,0.9-1.1,0.9
	C1309.2,124.1,1308.1,123.6,1307,122.6z"/>
<path class="st0" d="M259.9,638.6c-0.4,1.6-0.8,2.9-2.6,1.4c-0.5-0.4-0.8-0.9-1.2-1.4C257.4,638.5,258.6,638.3,259.9,638.6z"/>
<path class="st0" d="M254.5,139.8c-1-0.6-1.6-1-2.3-1.6c0.6-0.4,1.2-1.1,1.6-1c1,0.3,1.7,0.9,2.8,1.4
	C256.2,139,255.5,139.4,254.5,139.8z"/>
<path class="st0" d="M126.5,518.1c-0.1-0.3,0-0.4,0.1-0.4c1.5-0.1,3.1-0.1,4.6-0.2c0,0,0.1,0.5,0.1,0.7
	C129.7,518.3,128.1,518.3,126.5,518.1z"/>
<path class="st0" d="M146.7,460c0,0.6,0.1,0.8,0,0.9c-0.3,0.8-0.6,1.6-0.9,2.5c-0.5-0.9-1.1-1.8-1.2-2.8
	C144.6,460.4,146,460,146.7,460z"/>
<path class="st0" d="M1138.4,799.3c1,0.4,1.4,0.8,2.1,1.1c-1.2,0.3-2.3,0.7-3.5,0.8c-0.5,0-1.1-0.7-1.6-1
	C1136.3,800,1137.2,799.6,1138.4,799.3z"/>
<path class="st0" d="M1212.1,462.6c-0.9,0.5-1.7,0.6-2.7,0.7c0.1-0.9,0.2-2.1,0.2-3C1210.5,461,1211.2,461.7,1212.1,462.6z"/>
<path class="st0" d="M392,811.7c-1.2,0.2-2,0.7-2.7,0.6c-0.7-0.1-1.2-0.8-1.8-1.1c0.5-0.3,1.2-0.9,1.5-0.8
	C390.1,810.8,392.4,808.9,392,811.7z"/>
<path class="st0" d="M246.1,840c0.2,0.5,0.3,1,0.2,1.1c-0.9,0.5-1.7,0.9-2.8,1.2c-0.1,0-0.5-0.8-0.7-1.1
	C243.7,840.7,244.8,840.3,246.1,840z"/>
<path class="st0" d="M1096.8,801.1c-0.2-0.9-0.2-1.5-0.2-2.3c0.7,0.2,1.5,0.2,2,0.6c0.4,0.4,0.5,1.1,0.7,1.8
	C1098.6,801.3,1097.8,801.3,1096.8,801.1z"/>
<path class="st0" d="M1245.5,205.1c0.4,0.9,0.7,1.7,0.4,2.6c-0.1,0.3-1.4,0.2-2.3,0.3C1244.1,207,1244.5,206,1245.5,205.1z"/>
<path class="st0" d="M266.7,668.8c1.2,0.4,2.1,0.8,2.9,1.1c-0.8,0.3-1.6,0.9-2.2,0.8c-1-0.4-1.7-1.2-2.7-1.9
	C265.3,668.8,265.8,668.8,266.7,668.8z"/>
<path class="st0" d="M118.7,568.5c-0.5-1-0.7-2.1-0.8-3.1c0.5,0,1.1,0,1.5,0C119.3,566.4,119.2,567.5,118.7,568.5z"/>
<path class="st0" d="M277.6,763.1c-1.2-0.2-2.2-0.6-3.3-0.9c0.6-0.5,1.2-0.9,1.8-1.3C276.7,761.5,277.2,762.3,277.6,763.1z"/>
<path class="st0" d="M897.1,154.7c-0.1-1.1,0-2.3,0.1-3.2c0.6,0.3,1.2,0.6,1.7,0.9C898.6,153.3,897.9,154.1,897.1,154.7z"/>
<path class="st0" d="M74.4,680.9c-0.8,0.2-1.5,0.4-2.1,0.1c-0.6-0.4-1.1-1-1.5-1.5c1.2-0.2,2.6-0.3,3.9-0.5
	C74.6,679.7,74.6,680.2,74.4,680.9z"/>
<path class="st0" d="M500.6,110.9c-0.5-0.8-0.7-1.5-0.8-2.5c1,0.2,1.8,0.3,2.9,0.5C502,109.7,501.5,110.4,500.6,110.9z"/>
<path class="st0" d="M204.2,698.5c0.1-1,0.4-1.9,0.6-2.9c0.6,0.6,1.2,1,1.8,1.6C206.1,697.7,205.2,698.1,204.2,698.5z"/>
<path class="st0" d="M1077.1,720.5c0.9,0.3,1.6,0.8,2.5,1.2c-0.7,0.5-1.2,0.9-2,1.3C1077.3,722.3,1077.1,721.4,1077.1,720.5z"/>
<path class="st0" d="M1256.4,121.5c-2.8,1-1.5-0.9-1.5-1.5c-0.1-0.7,0.6-1.2,1-1.9c0.4,0.6,1,1.1,1.2,1.8
	C1257,120.2,1256.6,120.8,1256.4,121.5z"/>
<path class="st0" d="M1263.5,654.5c0.4,1.1,0.5,2.2,0.7,3.2c-0.8-0.4-1.5-0.8-2.4-1.2C1262.3,655.8,1262.8,655.1,1263.5,654.5z"/>
<path class="st0" d="M513.7,63.4c-0.1-0.9,0-1.7,0.1-2.6c0.8,0.2,1.4,0.4,2.3,0.6C515.4,62.2,514.7,62.9,513.7,63.4z"/>
<path class="st0" d="M178.6,650.9c2.2,1,0.8,1.8-0.1,2.4c-0.4,0.2-1.3-0.3-2.1-0.5C177.2,652.2,177.6,651.6,178.6,650.9z"/>
<path class="st0" d="M658.7,83.3c0-0.3,0.1-0.6,0.3-0.7c0.9-0.3,1.6-0.6,2.6-0.9c0.1,0.6,0.2,1,0.3,1.6
	C661,83.5,660,83.5,658.7,83.3z"/>
<path class="st0" d="M1372.1,685.7c-1.5,0-3-0.1-4.3-0.3v-0.6c1.5-0.1,3.1-0.2,4.6-0.3C1372.4,684.9,1372.3,685.2,1372.1,685.7z"/>
<path class="st0" d="M1219.7,569.1c-0.8,0.3-1.4,0.3-2.3,0.3c0.2-0.8,0.4-1.5,0.6-2.4C1218.6,567.7,1219.1,568.3,1219.7,569.1z"/>
<path class="st0" d="M1264.5,414.6c-0.9-0.5-1.3-0.9-1.7-1.4c1.1-0.4,2.1-0.8,3.2-1.1C1265.5,412.9,1265.2,413.7,1264.5,414.6z"/>
<path class="st0" d="M212.8,213.4c-0.8,0.1-1.4-0.1-2.3-0.3c0.3-0.8,0.7-1.5,1-2.4C211.9,211.5,212.4,212.3,212.8,213.4z"/>
<path class="st0" d="M140.1,122.2c-1.2,0.2-2.1,0.3-3.1,0.4c0.7-0.6,1.3-1.2,2.1-1.8C139.5,121.1,139.9,121.5,140.1,122.2z"/>
<path class="st0" d="M308.7,134.1c-0.2,0.9-0.6,1.5-1,2.3c-0.5-0.4-1-0.9-1.4-1.2C306.9,134.7,307.7,134.3,308.7,134.1z"/>
<path class="st0" d="M468.5,784.3c-0.3-0.6-0.4-1-0.5-1.5c0.7,0,1.2,0.1,2,0.1c-0.3,0.9-0.7,1.6-1,2.6
	C468.9,785.1,468.8,784.8,468.5,784.3z"/>
<path class="st0" d="M720.6,82.4c-0.6,0.8-1.3,1.3-2.3,1.8c-0.2-0.4-0.4-0.9-0.6-1.2C718.7,82.6,719.5,82.4,720.6,82.4z"/>
<path class="st0" d="M1153.4,221.7c0.3-0.6,0.8-1,1.2-1.5c0.4,0.4,0.8,0.7,1.2,1C1155.1,221.5,1154.3,221.7,1153.4,221.7z"/>
<path class="st0" d="M858.9,802.7c-0.7-0.7-1-1.3-1.1-2.1c0-0.1,0.7-0.3,1-0.5C859,801,859.1,802,858.9,802.7z"/>
<path class="st0" d="M237,646.3c-0.3,0.9-0.8,1.7-1.2,2.6c-0.3-0.2-0.6-0.3-0.9-0.5C235.4,647.7,236.1,646.9,237,646.3z"/>
<path class="st0" d="M1205.8,518.1c0.7,0.1,1.2,0.3,1.6,0.6c-0.5,0.6-1,1-1.4,1.6C1205.9,519.7,1205.7,519.1,1205.8,518.1z"/>
<path class="st0" d="M1370.9,212.9c1.1,0.2,1.8,0.5,2.8,0.8c-0.5,0.4-1.1,0.8-1.5,1C1371.7,214.1,1371.2,213.5,1370.9,212.9z"/>
<path class="st0" d="M435.3,209.9c-1-0.2-1.6-0.4-2.3-0.5c0.3-0.3,0.5-0.9,0.8-0.8c1,0.1,2.1,0.3,3.1,0.5
	C436.3,209.4,436.1,209.7,435.3,209.9z"/>
<path class="st0" d="M1273.3,163.7c-0.8-0.5-1.3-1-1.8-1.6c0.4-0.3,0.7-0.5,1.1-0.8C1272.9,162,1273.2,162.7,1273.3,163.7z"/>
<path class="st0" d="M258.4,795.2c-0.6,0.5-1.2,0.6-1.7,0.8c-0.1-0.7-0.2-1.3-0.2-2.1C257,794.3,257.7,794.6,258.4,795.2z"/>
<path class="st0" d="M1041,726.6c-0.1,0.8-0.4,1.3-0.8,1.8c-0.4-0.6-0.9-1.1-1.2-1.7C1039.6,726.7,1040.2,726.6,1041,726.6z"/>
<path class="st0" d="M163.2,258.9c0.1-0.6,0.3-1,0.6-1.5c0.6,0.3,1.2,0.7,1.7,0.9C165,258.5,164.2,258.8,163.2,258.9z"/>
<path class="st0" d="M1229.6,273.1c-0.9,0.2-1.8,0.1-2.8-0.1c0.2-0.3,0.4-0.9,0.5-0.9C1228,272.4,1228.7,272.5,1229.6,273.1z"/>
<path class="st0" d="M131.4,296.3c-0.5-0.7-0.8-1.5-1.2-2.5c0.4,0,1.2,0,1.2,0.1C131.6,294.7,131.6,295.3,131.4,296.3z"/>
<path class="st0" d="M1119.9,710.9c0.2,0.9,0.2,1.5,0.1,2.3c-0.4-0.1-1-0.3-1-0.3C1119.3,712.1,1119.6,711.4,1119.9,710.9z"/>
<path class="st0" d="M1366.4,679.2c1.1,0,2,0.1,2.9,0.3c-0.1,0.3-0.2,0.6-0.3,0.9C1368.1,680.1,1367,679.8,1366.4,679.2z"/>
<path class="st0" d="M1234.9,218.8c-0.8-0.5-1.2-0.9-1.4-1.5c0.4-0.2,0.7-0.4,1.1-0.6C1234.7,217.4,1234.9,218.1,1234.9,218.8z"/>
<path class="st0" d="M471.8,122.6c0.7,0,1.3,0.4,2,0.8c0.1,0.1-0.5,0.8-0.7,1.1C472.6,124.1,472.2,123.5,471.8,122.6z"/>
<path class="st0" d="M1096.1,147.2c0,0.6-0.1,1-0.2,1.5c-0.5-0.2-1-0.4-1.4-0.6C1094.9,147.8,1095.4,147.4,1096.1,147.2z"/>
<path class="st0" d="M1294.2,721.6c-0.2-0.1-0.2-0.2-0.2-0.3c0.1-0.8,0.3-1.6,0.5-2.5c0.3,0.1,0.7,0.2,1,0.3
	C1295.1,720,1294.9,720.8,1294.2,721.6z"/>
<path class="st0" d="M215.1,821.1c-0.1,0.2-0.3,0.2-0.4,0.2c-0.4-0.8-0.7-1.6-1.1-2.5c0.3-0.1,0.7-0.2,1-0.3
	C214.8,819.4,215,820.1,215.1,821.1z"/>
<path class="st0" d="M1317.9,231c-0.4-0.7-0.5-1.2-0.7-1.8c0.4,0.1,1.2,0.2,1.2,0.3C1318.4,230.1,1318.2,230.6,1317.9,231z"/>
<path class="st0" d="M963.6,735.9c-0.6-0.3-1-0.8-1.2-1.2c0.3-0.2,0.7-0.4,1-0.6C963.4,734.6,963.6,735.2,963.6,735.9z"/>
<path class="st0" d="M952.4,117.2c0.5-0.6,1-0.8,1.5-0.9c0.2,0.3,0.3,0.6,0.5,0.9C953.8,117.2,953.1,117.4,952.4,117.2z"/>
<path class="st0" d="M322.2,791c-0.3,0.7-0.6,1-1,1.3c-0.2-0.5-0.4-0.9-0.6-1.3C321.1,791,321.7,790.9,322.2,791z"/>
<path class="st0" d="M1365.4,218.8c0.8-0.4,1.4-0.4,2.3-0.3v0.6C1366.9,219.1,1366.2,219.1,1365.4,218.8z"/>
<path class="st0" d="M400.5,238.5c0-0.8,0.1-1.3,0.3-1.8c0.3,0.2,0.7,0.4,1,0.6C401.5,237.8,401.1,238.2,400.5,238.5z"/>
<path class="st0" d="M595.7,77.5c-0.7-0.1-1.2-0.3-1.6-0.6c0.4-0.3,0.7-0.6,1.1-0.9C595.4,76.4,595.6,76.9,595.7,77.5z"/>
<path class="st0" d="M28.1,861.9c1.2-2.1,2.3-3.7,5.1-2.6c3.2,1.2,5.4,4.2,4.4,6.5c-0.9,2.1-2.6,3.2-5.2,2.9c-3-0.4-4.5-1.7-4.5-4.5
	C27.9,863.4,27.9,862.7,28.1,861.9z"/>
<path class="st0" d="M31.8,31.3c1.2-2.1,2.3-3.7,5.1-2.6c3.2,1.2,5.4,4.2,4.4,6.5c-0.9,2.1-2.6,3.2-5.2,2.9c-3-0.4-4.5-1.7-4.5-4.5
	C31.6,32.8,31.6,32.1,31.8,31.3z"/>
</svg>
