<?xml version="1.0" encoding="utf-8"?>
<!-- Generator: Adobe Illustrator 25.2.0, SVG Export Plug-In . SVG Version: 6.00 Build 0)  -->
<svg version="1.1" id="Layer_1" xmlns="http://www.w3.org/2000/svg" xmlns:xlink="http://www.w3.org/1999/xlink" x="0px" y="0px"
	 viewBox="0 0 1249 900" style="enable-background:new 0 0 1249 900;" xml:space="preserve">
<style type="text/css">
	.st0{fill:#D6C79A;}
</style>
<path class="st0" d="M1017.4,251.1c6-3.9,11.7-7.8,17.6-11.4c2.8-1.7,6-3,9-4.4c5.6-2.6,11.3-5,16.9-7.7c3.1-1.5,6.1-3.3,9.2-5
	c0.8-0.5,1.7-1.2,2.6-1.2c1.8,0,3.5,0.5,5.2,0.7c-0.9,1.4-1.4,3.5-2.6,4.2c-6.9,3.6-14,6.7-20.9,10.3c-4.8,2.4-9.4,5.3-14.2,7.9
	c-4,2.1-8.1,4.1-12.2,6c-1.9,0.9-4,1.7-6,2.3c-1.5,0.5-3.1,0.8-4.7,0.7C1016.8,253.5,1014.6,252.3,1017.4,251.1z"/>
<path class="st0" d="M200.2,668.2c-7.5,3.8-14.7,7.5-22,11c-2.2,1.1-4.7,1.8-7.2,2.3c-0.9,0.2-2-0.6-3-1c0.5-0.8,0.8-1.9,1.5-2.4
	c4.7-2.8,9.5-5.6,14.4-8.2c7.3-3.8,15.4-5.7,22-11.6c4.6-4,11.6-5.3,17.5-7.8c0.9-0.4,1.8-0.6,2.8-0.8c1.2-0.2,2.4-0.2,3.6-0.2
	c-0.7,1.1-1.1,2.6-2.1,3.2c-4.4,2.7-9.6,4.4-13.3,7.8c-3.3,3-6.7,5.2-10.8,6.6C202.5,667.6,201.5,667.8,200.2,668.2z"/>
<path class="st0" d="M1099.7,605.8c1.6,0.7,3,1.3,4.1,2.2c1,0.8,1.8,1.9,2.8,2.9c-1.4,0.6-3,1.9-4.2,1.7c-3.1-0.6-6.2-1.9-9.2-3
	c-7.8-2.9-15.6-5.9-23.5-8.7c-2.5-0.9-5.3-1.2-7.9-1.3c-7.6-0.3-12.9-6.4-19.9-8.1c-0.3-0.1-0.8-0.8-0.7-1c0.2-0.4,0.7-0.9,1.1-1
	c1.1-0.1,2.3-0.2,3.5,0c6.6,1.2,13.2,2.4,19.7,3.9c2.3,0.5,4.3,1.9,6.6,2.7C1081,599.4,1090.1,602.6,1099.7,605.8z"/>
<path class="st0" d="M781-18.6c-3.3,8.4-8.1,16.5-9,25c-0.9,8.8-5.3,15.4-8.3,23c-0.3,0.8-0.7,1.6-1.3,2.2c-0.6,0.6-1.6,0.9-2.4,1.3
	c-0.1-0.9-0.4-1.9-0.2-2.7c1.5-6.5,4.3-12.6,4.1-19.7c-0.1-4,3.1-8.1,4.7-12.2c2-5.2,3.9-10.5,5.8-15.7c1.4-3.8,2.4-7.8,4-11.5
	c0.4-1,2.3-1.4,3.5-2.1c0.4,1.3,1.1,2.6,1,3.8C782.7-24.4,781.8-21.6,781-18.6z"/>
<path class="st0" d="M149.4,293.1c8.5,3,16.6,6.2,24.9,8.9c3.4,1.1,7.4,0.1,10.7,1.3c6.6,2.6,13,6,19.4,9.2c0.7,0.3,1,1.2,1.6,1.8
	c-0.7,0.2-1.4,0.6-2.1,0.4c-4.2-1-8.3-2.2-12.5-3.3c-1.9-0.5-3.8-1.2-5.7-1.2c-5.4-0.2-10.1-1.3-14.9-4.2c-5.1-3-11.5-3.9-17.2-5.9
	c-3.9-1.4-7.8-3-11.6-4.7c-0.8-0.4-1.2-1.8-1.8-2.7c0.9-0.4,1.8-1.1,2.6-1C144.8,291.9,146.9,292.6,149.4,293.1z"/>
<path class="st0" d="M419.6,41.4c1.7,4.6,3.3,9,4.8,13.3c0.2,0.5,0.4,0.9,0.4,1.4c-0.2,1.4-0.5,2.7-0.8,4.1c-0.8-1-1.9-1.9-2.2-3
	c-2.7-8.7-9.7-14.6-13.6-22.6c-1.5-3.1-2.1-6.6-3.6-9.7c-2.5-5.2-5.6-10-8-15.2c-1.5-3.1-2.4-6.5-3.3-9.8c-0.2-0.6,0.6-1.5,0.9-2.3
	c0.7,0.4,1.7,0.5,2.1,1.1c2.4,3.4,5.4,6.5,6.8,10.3c3.8,10,7.3,20.1,14.7,28.3C418.6,38.3,418.9,39.9,419.6,41.4z"/>
<path class="st0" d="M78.7,652c6.4-2.9,12.5-6,18.9-8.2c5.4-1.9,11.3-2.7,16.9-4c1.5-0.4,2.9-1.1,4.4-1.5c0.5-0.1,1.2,0.2,1.8,0.3
	c-0.3,0.5-0.4,1.3-0.8,1.6c-2.6,1.7-5.2,3.7-8,4.9c-7.1,3-14.3,5.8-21.6,8.5c-5.6,2.1-11.4,3.6-17,5.7c-3,1.1-5.7,3.1-8.6,4.5
	c-1.1,0.5-2.3,0.6-3.5,0.8c-0.3,0-0.8-0.5-0.8-0.8c-0.1-0.4,0-1.2,0.3-1.4C66.6,658.9,72.6,655.5,78.7,652z"/>
<path class="st0" d="M120.5,219c4.3,2.5,8.4,4.7,12.4,7.1c0.8,0.5,1.1,1.6,1.7,2.4c-0.8,0.1-1.8,0.6-2.5,0.4
	c-4-1.2-8.1-2.2-11.9-3.9c-8.4-3.7-16.5-8-24.9-11.7c-4.8-2.1-9.9-3.5-14.9-5.2c-0.3-0.1-0.9,0.1-1.1-0.1c-1.2-1-2.3-2.1-3.5-3.1
	c1.5-0.2,3.1-0.8,4.4-0.4c9.6,2.9,19.2,5.8,28.7,9.1C112.9,214.8,116.6,217,120.5,219z"/>
<path class="st0" d="M1149.8,258.9c-5.4,1.6-10.7,3-15.9,4.3c-2.1,0.5-4.3,1-6.4,1.3c-0.6,0.1-1.3-0.5-2-0.8
	c0.4-0.6,0.7-1.5,1.3-1.9c1.1-0.6,2.4-0.9,3.7-1.4c9-3.5,18-7,26.9-10.6c7-2.8,13.9-5.7,20.8-8.5c1.4-0.6,2.8-1.4,4.2-1.9
	c0.7-0.2,1.5,0,2.3,0c-0.3,0.8-0.3,2-0.9,2.3c-6.7,3.8-13.3,7.7-20.1,11.1C1159.3,255.1,1154.6,256.7,1149.8,258.9z"/>
<path class="st0" d="M1143.9,687.6c8.5,3.3,16.7,6.4,25,9.5c0.5,0.2,0.8,0.9,1.2,1.4c-0.5,0.3-1.1,0.9-1.6,0.9
	c-3.5-0.5-7.1-0.7-10.5-1.7c-14.9-4.2-28.8-10.8-42.3-18.4c-0.1-0.1-0.3-0.1-0.3-0.2c-1.1-1.4-2.1-2.9-3.1-4.3
	c1.6,0.2,3.3,0.1,4.8,0.6C1126.3,678.6,1135.5,681.9,1143.9,687.6z"/>
<path class="st0" d="M1209.5,286.1c3.2-0.3,6.1-0.6,9-0.7c0.9,0,1.8,0.9,2.7,1.4c-0.7,0.5-1.4,1.1-2.2,1.6
	c-8.9,5.3-19,7.1-28.6,10.2c-5.7,1.9-11.8,2.6-17.8,3.7c-1,0.2-2.1-0.8-3.2-1.2c0.9-0.6,1.8-1.4,2.8-1.8c12-4.4,23.9-8.8,35.9-13.1
	C1208.3,286,1208.8,286.1,1209.5,286.1z"/>
<path class="st0" d="M61.1,608.8c-11,4.8-22.1,8-33.7,9.3c-0.5,0.1-1.1-0.1-1.6-0.1c0.2-0.6,0.2-1.6,0.6-1.8c3.4-2,6.7-4.5,10.4-5.7
	c7-2.3,14.2-3.7,21.3-5.6c5.7-1.5,11.3-3.3,16.9-4.9c0.9-0.2,2.1,0.4,3.2,0.6c-0.6,0.9-1.1,2.2-1.9,2.6
	C71.4,605.3,66.4,607,61.1,608.8z"/>
<path class="st0" d="M118.6,162.1c3.9,2.5,7.6,4.8,11.2,7.2c0.8,0.6,1.2,1.8,1.7,2.7c-1-0.1-2.2,0.2-3.1-0.2c-6.7-3-13.5-6-20.1-9.3
	c-6.2-3-12.3-6.3-18.4-9.6c-1.3-0.7-2.4-1.8-3.4-3c-0.8-0.9-1.2-2.1-1.7-3.2c1.4-0.2,3-0.8,4.1-0.4c4.5,1.9,8.9,3.9,13.3,6.2
	C107.6,155.6,113,158.9,118.6,162.1z"/>
<path class="st0" d="M1145.1,744.5c5.7,3.8,11.1,7.5,16.5,11.2c0.5,0.4,0.7,1.2,1,1.9c-0.9,0.1-1.8,0.5-2.6,0.2
	c-12.1-3.5-22.8-10-33.3-16.6c-3.7-2.3-7.4-4.6-11-7c-0.5-0.3-0.8-0.8-1.1-1.3c0.5-0.3,1-1,1.5-1c1.3,0,2.8,0.1,4,0.6
	c7.3,3.3,14.5,6.7,21.8,10.1C1142.8,743.1,1143.8,743.7,1145.1,744.5z"/>
<path class="st0" d="M1051.1,80.5c4.1,0.8,4.2,1.9,1.8,5.2c-6.5,9.2-15.7,14.8-25.2,20.2c-3,1.7-5.6,3.9-8.5,5.5
	c-0.9,0.5-2.4-0.1-3.6-0.2c0.3-1.1,0.4-2.7,1.1-3.1c13.1-6.6,21.1-19.6,33.6-27C1050.5,81,1050.7,80.8,1051.1,80.5z"/>
<path class="st0" d="M100.8,416.7c-8.9-3.4-17.9-2.6-26.9-3c-4.9-0.2-9.7-1.3-14.5-2.3c-1-0.2-1.8-1.8-2.7-2.8c1-0.6,2-1.5,3.2-1.7
	c8.9-1.5,17.7-1.2,26.4,2c4.4,1.6,9.3,1.8,14,2.6c0.5,0.1,1.2-0.2,1.5,0c1.2,0.9,2.4,2,3.5,3.1C103.8,415.4,102.4,416.2,100.8,416.7
	z"/>
<path class="st0" d="M216.9,804.1c-1.3,1-2.6,1.6-3.4,2.7c-4.6,6.5-11.8,9.9-17.9,14.6c-0.9,0.7-2.6,0.3-3.9,0.4
	c0.3-1.2,0.4-2.4,0.9-3.4c5.6-10.9,16.7-15.2,26.1-21.4c2.8-1.9,5.6-3.8,8.6-5.4c0.8-0.4,2.1,0.1,3.1,0.2c-0.3,1-0.3,2.3-1,2.8
	c-2,1.7-4.4,3.1-6.5,4.7C220.9,800.7,219,802.3,216.9,804.1z"/>
<path class="st0" d="M1178.6,490.4c2.7,0.5,5.1,0.9,7.5,1.6c1.2,0.4,2.3,1.3,3.4,2c-0.8,0.9-1.6,1.8-2.4,2.6
	c-0.2,0.3-0.6,0.6-0.9,0.6c-6.9,0-13.8,0.3-20.7-0.3c-3.7-0.3-7.2-2.3-10.9-3.3c-2.8-0.7-5.7-1.1-8.6-1.6c-0.4-0.1-0.9,0.1-1.1,0
	c-1.4-1-2.7-2.2-4.1-3.3c1.4-0.4,3-1.4,4.3-1.3c5.2,0.6,10.4,1.7,15.6,2.4c1.8,0.2,3.7-0.2,5.6-0.1
	C1170.2,489.9,1174.2,490.2,1178.6,490.4z"/>
<path class="st0" d="M989.2,873.3c1.6,2.3,3,4.4,4.2,6.6c0.5,0.9,0.2,2.1,0.3,3.2c-1.1-0.1-2.6,0.2-3.3-0.4
	c-4.7-4.1-9.8-7.9-13.5-12.7c-5.1-6.6-9.1-14-13.3-21.1c-0.5-0.9-0.1-2.4-0.1-3.6c1,0.4,2.3,0.6,2.9,1.3c3.7,4.5,7,9.3,10.8,13.7
	C980.8,864.8,985,868.9,989.2,873.3z"/>
<path class="st0" d="M282.6,56.9c0,1.2-0.2,2.1-0.4,3.1c-0.8-0.4-1.9-0.6-2.4-1.3c-3.1-4.1-5.8-8.5-9.1-12.4
	c-2.8-3.4-6.3-6.3-9.2-9.7c-3-3.4-5.8-7.1-8.4-10.8c-0.5-0.8-0.2-2.7,0.4-3.5c0.5-0.6,2.1-0.3,3.3-0.4c0.1,0,0.2,0.2,0.3,0.3
	c4.8,5.6,12.2,8.8,14.7,16.9c1.4,4.7,5.8,8.4,8.6,12.6C281.5,53.2,281.8,55,282.6,56.9z"/>
<path class="st0" d="M1009.3,211.3c-3.8,2.5-7.2,4.9-10.9,6.9c-0.9,0.5-2.4-0.1-3.6-0.2c0.4-0.9,0.6-2.1,1.3-2.6
	c2.2-1.7,4.5-3.3,6.9-4.7c6.1-3.6,12.4-6.9,18.3-10.7c5-3.2,9.6-7.2,14.6-10.5c1.8-1.2,4.2-1.8,6.3-2.3c0.7-0.1,2.2,0.9,2.4,1.6
	c0.2,0.9-0.3,2.4-1.1,2.9c-3.7,2.5-7.5,4.8-11.4,7C1024.6,202.9,1017,207,1009.3,211.3z"/>
<path class="st0" d="M1075.7,553.9c6,1,11.7,1.9,17.2,3.2c4.2,0.9,8.3,2.3,12.3,3.7c0.9,0.3,1.4,1.9,2.1,2.9
	c-1.1,0.4-2.2,0.9-3.4,1.1c-7.3,1-13.4-3-20.1-4.6c-8.7-2.1-17.3-4.1-26-6.2c-1.9-0.5-3.8-1.3-5.6-2.2c-0.6-0.3-0.9-1.4-1.3-2.1
	c0.7-0.4,1.6-1.2,2.2-1c4.2,0.8,8.3,1.7,12.4,2.7C1068.8,552,1072,553,1075.7,553.9z"/>
<path class="st0" d="M1016.7,141.2c9.3-6.8,18.4-13.4,27.7-19.8c2.1-1.5,4.7-2.3,7.2-3.1c0.6-0.2,1.5,0.5,2.3,0.9
	c-0.4,0.8-0.6,1.9-1.2,2.4c-8.9,6.4-17.8,12.9-26.9,19.1c-4.8,3.3-9.7,6.3-14.7,9.3c-0.9,0.5-2.2,0.3-3.4,0.4c0.4-1,0.6-2.2,1.4-2.9
	C1011.3,145.4,1013.9,143.4,1016.7,141.2z"/>
<path class="st0" d="M1135.2,518.3c-5.2-1-10.1-2-14.9-3.1c-3.1-0.8-6.2-1.8-9.2-3c-0.7-0.3-0.9-1.8-1.4-2.8c1-0.1,2-0.5,2.9-0.3
	c6.4,1,12.8,1.9,19.2,3.1c9.2,1.7,18.3,3.6,27.5,5.4c0.1,0,0.2,0,0.3,0.1c1.4,1.1,2.8,2.1,4.2,3.2c-1.6,0.5-3.2,1.4-4.7,1.3
	c-5.6-0.6-11.2-1.5-16.8-2.4C1140.1,519.3,1137.9,518.8,1135.2,518.3z"/>
<path class="st0" d="M378.4,65.6c-6.4-10.2-13-20-19.2-29.9c-0.7-1.1,0-3.1,0-4.6c1.5,0.6,3.6,0.7,4.4,1.8c2.6,3.3,5.2,6.8,6.8,10.7
	c4.4,10.7,11.1,20,17.3,29.5c0.4,0.6,1,1.2,1,1.9c0.2,1.7,0.2,3.5,0.2,5.3c-1.2-1-2.7-1.9-3.6-3.2C383,73.4,380.7,69.7,378.4,65.6z"
	/>
<path class="st0" d="M157.9,347.3c-5.5-1.3-10.7-2.4-15.8-3.9c-1.3-0.4-2.2-1.9-3.3-2.9c1.4-0.6,3-1.8,4.3-1.6
	c6.5,1.4,12.9,3.2,19.3,4.7c9.2,2.3,18.5,4.4,27.7,6.8c2,0.5,3.7,2.3,5.5,3.5c-2.1,0.3-4.3,1.4-6.1,0.9c-9.7-2.9-19.5-5.7-29.6-6.9
	C159.3,348,158.8,347.5,157.9,347.3z"/>
<path class="st0" d="M735-30.9c2.4,4-0.3,7.3-1.1,10.6c-2.4,9.8-5.4,19.4-7.9,29.2c-1,4-1.5,8.1-2.5,12.2c-0.3,1.1-1.7,1.9-2.5,2.8
	c-0.4-1-1.3-2-1.2-2.9c0.6-3.3,1.5-6.6,2.2-9.9c1.3-5.8,2.6-11.6,3.9-17.4c1.7-7.7,3.2-15.4,5-23.1C731.2-31,732.3-33.4,735-30.9z"
	/>
<path class="st0" d="M196,779.3c10.3-6.9,20.3-13.6,30.4-20.4c2.2-1.5,4.4-3,6.7-4.3c0.9-0.5,2-0.9,3-1c0.7-0.1,1.5,0.4,2.2,0.6
	c-0.5,0.7-0.9,1.5-1.6,2c-6.8,5-13.5,10.1-20.4,15c-6.3,4.5-12.8,8.8-19.3,13.1c-0.9,0.6-2,0.8-3.1,0.9c-0.6,0-1.5-0.4-1.8-0.9
	c-0.2-0.4,0.2-1.3,0.6-1.8C193.7,781.4,194.8,780.5,196,779.3z"/>
<path class="st0" d="M85.7,385.4c-1.1-0.5-2-0.9-2.9-1.2c0.9-0.7,1.9-2,2.8-2c5,0.3,9.9,0.7,14.8,1.5c8,1.3,16,3,24,4.6
	c3.6,0.7,7.1,1.5,10.6,2.4c0.7,0.2,1.2,1,1.9,1.5c-0.7,0.5-1.5,1.5-2.2,1.5c-4.1-0.2-8.3-0.5-12.3-1c-3.9-0.5-7.7-1.3-11.5-2
	c-7.2-1.3-14.4-2.6-21.6-4C88.2,386.4,87,386,85.7,385.4z"/>
<path class="st0" d="M214.6,711.2c-2.8,1.5-5.2,3-7.9,3.9c-1.3,0.4-2.9-0.2-4.4-0.4c0.5-1.2,0.6-2.8,1.5-3.4
	c6.5-4.1,13.2-7.9,19.8-12c7.4-4.5,14.7-9.3,22.2-13.7c1.2-0.7,3.8-0.9,4.5-0.1c1.8,1.8-0.3,2.5-1.7,3.3
	c-7.4,4.5-14.9,8.9-22.2,13.6C222.3,705.1,218.6,708.2,214.6,711.2z"/>
<path class="st0" d="M1203.3,468c6.2,0,12,0.2,17.8-0.1c3.5-0.2,7-1.3,10.6-1.4c3.7-0.1,7.4,0.6,11.1,1.1c1.7,0.2,3.3,0.6,4.9,1.1
	c0.5,0.2,0.8,0.9,1.3,1.3c-0.5,0.4-1,1-1.5,1c-11,0.8-22,2-33,2.2c-6.6,0.1-13.3-1.4-19.9-2.2c-0.5-0.1-0.9-0.8-1.3-1.2
	c0.7-0.6,1.3-1.7,1.9-1.7C1197.8,467.9,1200.4,468,1203.3,468z"/>
<path class="st0" d="M942.7,868.7c-5.3-8.1-10.4-16-15.4-24c-0.3-0.4-0.5-0.9-0.5-1.3c-0.2-1.4-0.4-2.8-0.5-4.2
	c1.1,0.8,2.5,1.3,3.2,2.4c8.7,11.7,17.3,23.4,25.9,35.2c0.3,0.5,0.8,1.1,0.8,1.6c0,1.1-0.3,2.3-0.5,3.4c-1-0.2-2.3-0.1-2.9-0.7
	c-2.2-2.2-4.3-4.6-6.3-7C945.2,872.3,944.1,870.6,942.7,868.7z"/>
<path class="st0" d="M1036.2,888.2c7.3,3.9,11.7,10.2,16.1,16.5c0.4,0.5,0.3,1.4,0.5,2.1c-0.8,0-1.7,0-2.5-0.1c-0.3,0-0.7-0.2-1-0.4
	c-8.1-7.3-16.4-14.3-24.1-21.9c-4.1-4.1-7.2-9.3-10.7-14.1c-0.5-0.7-0.4-2-0.5-3c1,0.4,2.2,0.6,2.9,1.3
	C1023.3,875.1,1029.5,881.7,1036.2,888.2z"/>
<path class="st0" d="M916.4,116.9c-2.4,3.1-4.5,6.2-6.8,9c-0.4,0.5-1.5,0.6-2.3,0.8c-0.1-0.7-0.6-1.6-0.3-2.1
	c0.7-1.6,1.4-3.4,2.6-4.7c8.5-8.9,16-18.5,22.7-28.9c2.3-3.6,5.1-7,8-10.2c1-1.1,3.1-1.1,4.7-1.7c-0.2,1.7,0.3,3.8-0.6,4.9
	c-3.3,4.5-6.9,8.8-10.6,13C928.1,103.7,922.4,110.2,916.4,116.9z"/>
<path class="st0" d="M202.9,848.9c-8.8,6.8-15.3,15.3-22.1,23.5c-2.8,3.3-6.8,5.6-10.5,8.2c-0.7,0.5-2,0.2-3.1,0.3
	c0.3-0.9,0.4-1.9,1-2.6c2.3-2.7,4.7-5.3,7.1-7.9c4-4.5,7.7-9.4,12.1-13.5c5.4-5.1,11.4-9.6,17.3-14.3c0.6-0.5,1.7-0.4,2.6-0.6
	c-0.2,1-0.1,2.3-0.6,3.1C205.7,846.5,204.3,847.6,202.9,848.9z"/>
<path class="st0" d="M154.8,482.7c3.6-0.3,6.9-0.9,10.1-0.7c6.9,0.4,13.6-0.8,20.2-2.8c1.6-0.5,3.6-0.1,5.4,0.2
	c0.8,0.1,1.5,1,2.2,1.6c-0.8,0.6-1.6,1.5-2.5,1.6c-5.6,0.6-11.2,1.4-16.8,1.5c-6.7,0.2-13.2,1.1-19.7,2.8c-5.7,1.5-11.6,2-17.5,2.5
	c-1.2,0.1-2.6-1.6-3.9-2.5c1.1-0.9,2.2-2.5,3.4-2.7C141.9,483.6,148.2,483.2,154.8,482.7z"/>
<path class="st0" d="M1024.8,690.7c-6.7-4.1-13.2-8-19.7-11.9c-1.8-1-3.6-1.9-5.3-3.1c-0.5-0.4-0.5-1.5-0.7-2.3
	c0.6,0.2,1.2,0.3,1.9,0.5c11.7,2.8,21.5,9.2,31.3,15.7c4,2.7,8.7,4.5,13,6.7c0.7,0.4,1,1.3,1.5,2c-0.8,0.3-1.7,1.1-2.2,1
	C1037.8,697.2,1029.8,697.6,1024.8,690.7z"/>
<path class="st0" d="M1077.4,22.8c-0.8,2-1.6,4-2.9,5.5c-2.5,2.9-5.9,5.1-8,8.3c-5.8,8.6-13.7,14.9-21.6,21.2
	c-1.5,1.2-3.1,2.4-4.8,3.4c-0.6,0.4-1.5,0.1-2.3,0.2c0.2-0.7,0.1-1.5,0.5-2.1c1.4-1.8,2.7-3.6,4.4-5.1c7.3-6.7,14.8-12.9,20.3-21.5
	c2.9-4.5,8.7-7,13.2-10.4C1076.4,22.2,1076.9,22.5,1077.4,22.8z"/>
<path class="st0" d="M159.4,574.8c-2.4,1-4.4,2.3-6.5,2.9c-1.2,0.3-2.8-0.5-4.2-0.8c0.9-1.2,1.6-2.7,2.8-3.6
	c1.6-1.3,3.4-2.5,5.2-3.1c3.6-1.3,7.3-2.6,11.1-3c9.6-1.2,19.1-3,27.9-7.3c1-0.5,2.6,0.1,3.9,0.1c-0.7,0.8-1.2,2.1-2.1,2.5
	c-7.2,2.9-14.3,5.9-21.6,8.3C170.7,572.6,165.2,573.5,159.4,574.8z"/>
<path class="st0" d="M1102.7,414.6c3.6,0,6.8-0.1,10.1,0.1c0.8,0,1.5,0.9,2.3,1.4c-0.6,0.5-1.1,1.4-1.8,1.6
	c-2.9,0.9-5.8,2.1-8.7,2.3c-7.7,0.5-15.6,0.2-23.3,1c-7,0.7-13.9,2.5-20.8,3.7c-0.5,0.1-1.1,0.2-1.5,0c-1.5-0.7-2.9-1.5-4.3-2.3
	c1.3-0.8,2.5-2.1,3.8-2.3c5.2-0.5,10.4-0.3,15.5-1C1083.6,417.9,1092.9,416.2,1102.7,414.6z"/>
<path class="st0" d="M865.2,32.3c1-1.6,1.9-3,3-4.1c0.4-0.4,1.3-0.3,2-0.5c0.1,0.6,0.5,1.3,0.3,1.8c-2.8,5.5-1.5,12.3-6.1,17.2
	c-2.9,3-5.5,6.4-7.6,9.9c-2.8,4.7-5.2,9.7-7.7,14.5c-0.6,1.2-1.1,2.4-1.8,3.5c-0.6,0.9-1.6,1.7-2.4,2.5c-0.2-1.4-1-3-0.6-4.1
	c2.4-6,4.9-11.9,7.7-17.6c1.5-3.1,3.2-6.3,5.6-8.8C861.3,42.5,863.3,37.7,865.2,32.3z"/>
<path class="st0" d="M334.1,785.1c-6.4,7.9-12.6,15.6-18.7,23.4c-3.1,4-5.8,8.5-9,12.4c-1.3,1.6-4.2,3.8-5,3.4
	c-2.9-1.7-0.4-4.4,0.5-5.9c2.4-3.7,5.6-6.9,8.4-10.4c6.7-8,13.3-16.1,20.1-24.1c1.9-2.2,3.8-4.3,5.9-6.4c0.4-0.4,1.2-0.3,1.8-0.4
	c0.1,0.7,0.5,1.6,0.2,2.1C337.1,781.2,335.7,783,334.1,785.1z"/>
<path class="st0" d="M315.9,62.3c-6.1-8.3-12.1-16.4-18-24.5c-2.5-3.4-4.8-7-7-10.6c-0.6-1,0.1-2.6,0.1-3.9c1.2,0.5,2.7,0.6,3.4,1.5
	c4.1,5.4,8,10.8,11.8,16.3c4.5,6.6,8.8,13.3,13.1,20.1c0.8,1.3,0.8,3.1,1.1,4.7C319,64.8,317.6,63.6,315.9,62.3z"/>
<path class="st0" d="M1088.6,333.2c-3.6,1.2-7,3-10.5,3.1c-8.7,0.4-16.7,3.2-24.7,5.8c-1.4,0.4-2.6,1.3-4,1.6
	c-0.9,0.2-1.9-0.2-2.9-0.4c0.4-0.7,0.7-1.9,1.3-2.1c6.4-2.7,12.7-5.5,19.2-7.7c7.5-2.6,15.7-2.4,22.8-6.6c1.8-1.1,4.8-0.4,7.3-0.4
	c0.3,0,0.9,0.7,0.9,1.1c0,0.4-0.5,0.9-0.9,1.1C1094.3,330.2,1091.6,331.5,1088.6,333.2z"/>
<path class="st0" d="M229.3,224c-6.2-4.1-12-8.2-18.2-11.9c-2.7-1.6-6.1-2.1-9-3.5c-1.1-0.5-1.7-2.1-2.5-3.3
	c1.1-0.2,2.2-0.4,3.3-0.5c9.4-0.5,15.2,6.3,22.2,10.9c6.2,4.2,13.2,7.2,19.9,10.7c0.7,0.4,1.2,1.3,1.8,1.9c-1,0.4-2.2,1.3-3,1
	c-4.3-1.5-8.4-3.4-12.6-5C230.7,224.3,230.1,224.3,229.3,224z"/>
<path class="st0" d="M509.8,10.1c1.8,5.7,3.5,11.2,5,16.7c0.2,0.9-0.1,1.9-0.2,2.9c-0.6-0.4-1.6-0.7-1.9-1.3
	c-1.1-2.2-1.9-4.6-3.1-6.8c-4.3-8.2-6.5-17-7.5-26.2c-0.3-2.4-1.1-5.1-2.6-6.9c-2.4-2.8-1.8-5.9-1.9-8.9c0-0.4,0.5-0.9,0.8-1.4
	c0.5,0.3,1.2,0.6,1.5,1c5.2,7.2,9.1,14.9,8.6,24.2C508.4,5.6,509.2,7.7,509.8,10.1z"/>
<path class="st0" d="M969.1,755.7c-5.4-4.4-10.6-8.7-15.8-13c-0.8-0.6-1.7-1.2-2.2-2c-0.8-1.1-1.3-2.3-1.9-3.5
	c1.6,0.3,3.6,0.2,4.7,1.1c4.3,3.4,8.2,7.4,12.5,10.7c6.7,5.1,13.8,9.6,20.6,14.6c3,2.2,5.7,5,8.4,7.6c0.6,0.5,0.8,1.4,1.2,2.1
	c-0.9,0.4-2,1.3-2.6,1c-3.5-1.7-7.3-3.3-10.3-5.7C978.6,764.7,974,760.2,969.1,755.7z"/>
<path class="st0" d="M290.4,164.5c-10.3-10.1-21.9-18.1-33.4-26.2c-2.1-1.5-3.7-3.6-5.4-5.6c-1.6-1.8-0.5-3,1.3-2.7
	c2.1,0.3,4.3,1,5.9,2.3c3.4,2.6,6.3,5.9,9.6,8.6c8.4,7,16.9,13.9,25.4,20.8c0.5,0.4,0.9,0.9,1.4,1.4c1.4,1.5,3.7,2.6,2.7,5.3
	c-1.8-0.9-3.6-1.7-5.3-2.6C291.8,165.4,291.2,165,290.4,164.5z"/>
<path class="st0" d="M224.2,30.2c-7.9-7.1-15.7-13.9-23.1-21c-2.7-2.6-4.6-6-6.8-9.1c-0.3-0.4,0.3-2,0.8-2.2c0.7-0.3,2-0.1,2.6,0.5
	c3.3,2.8,6.5,5.6,9.5,8.7c7.8,8.1,15.5,16.4,23.2,24.7c0.4,0.4,1,1,0.9,1.5c-0.1,1.2-0.6,2.3-0.9,3.5c-0.7-0.6-1.5-1.1-2.2-1.8
	C226.9,33.5,225.7,31.9,224.2,30.2z"/>
<path class="st0" d="M592,19.2c-0.3-2.7-0.7-5.1-0.7-7.4c-0.2-5.4,0-10.6-1.4-16c-1.7-6.5-2.3-13.2-3.2-19.9c-0.5-4-0.6-8-0.8-12
	c0-0.9,0.7-1.7,1.1-2.6c0.7,0.4,1.5,0.8,2.1,1.3c3.3,2.9,2.4,7.1,2.8,10.8c0.6,5-0.2,10.1,0.2,15c0.8,9,2.1,17.9,3,26.9
	c0.2,1.7-0.5,3.4-0.7,5.1C593.5,20,592.8,19.8,592,19.2z"/>
<path class="st0" d="M44.7,431.8c2.4,0.8,4.6,1.4,6.7,2.1c0.5,0.1,0.8,0.6,1.2,1c-0.4,0.2-0.8,0.5-1.2,0.6c-2.7,0.3-5.6,1.2-8.1,0.7
	c-8.5-1.6-16.9-0.9-25.4,0c-5,0.6-10.1,0.2-15.2,0c-1,0-1.9-1.4-2.8-2.1c1-0.8,1.9-2.2,3-2.3c4.4-0.5,8.9-0.8,13.3-0.8
	c7.5-0.1,14.9-0.1,22.4,0C40.6,430.9,42.5,431.4,44.7,431.8z"/>
<path class="st0" d="M1148.6,220.6c1.7-0.3,3.2-0.5,4.6-0.3c0.8,0.1,1.4,1.1,2.1,1.7c-0.6,0.5-1.2,1.2-1.9,1.5
	c-8.1,4-15.8,8.9-24.8,11c-5.2,1.2-10,3.8-15.1,5.5c-0.8,0.3-1.9-0.3-2.9-0.5c0.6-0.7,1-1.7,1.7-2.1c10.8-5.3,21.7-10.4,32.6-15.6
	C1146.1,221.4,1147.3,221.1,1148.6,220.6z"/>
<path class="st0" d="M93.6,239.7c5.5,2.1,10.6,4,15.6,6.2c5.6,2.4,11,5.1,16.5,7.8c0.8,0.4,1.2,1.4,1.8,2.1
	c-1.3,0.3-2.7,1.2-3.8,0.8c-4.1-1.2-8.1-2.7-12.2-4.1c-6.6-2.4-13.2-4.8-19.7-7.4c-2.3-0.9-4.4-2.4-6.5-3.9c-0.8-0.6-1.4-1.5-2-2.3
	c1.3-0.4,2.7-1.4,3.9-1.2C89.3,238,91.2,239,93.6,239.7z"/>
<path class="st0" d="M1156.9,659.9c1.4,0.7,2.4,1.4,3.3,2.2c0.7,0.6,1.3,1.4,2,2.1c-1,0.4-2.1,1.2-3,1c-4.4-1-9-1.9-13.2-3.6
	c-7.6-3.1-15-6.8-22.4-10.3c-1.9-0.9-3.8-2-5.7-3.1c-0.4-0.2-0.3-1.1-0.5-1.6c0.9-0.2,1.9-0.8,2.7-0.6c4.3,1.4,8.6,3,12.8,4.6
	C1140.8,653.7,1148.7,656.8,1156.9,659.9z"/>
<path class="st0" d="M123.8,666.1c3-0.8,5.7-1.6,8.3-2.3c0.4-0.1,1,0.6,1.5,0.9c-0.6,0.7-1,1.7-1.8,2.1c-3.3,1.7-6.7,3.2-10,4.7
	c-6.3,2.9-12.5,6-18.8,8.7c-3.1,1.3-6.4,2.1-9.6,2.8c-0.8,0.2-1.9-0.8-2.9-1.2c0.7-0.6,1.3-1.3,2-1.8c8.8-7,19.6-9.1,29.7-13.2
	C122.6,666.7,123,666.4,123.8,666.1z"/>
<path class="st0" d="M119,465.5c4.4-1.6,8.5-4,12.7-4.3c9.2-0.6,18.6-1,27.6,2.2c0.6,0.2,1.1,0.8,1.6,1.3c-0.5,0.3-1,0.9-1.5,1
	c-3.5,0.3-7.1,0.6-10.6,0.8c-3.6,0.3-7.3,0.6-10.9,0.8c-5.6,0.3-11.1,0.6-16.7,0.7C120.4,467.9,119.6,466.5,119,465.5z"/>
<path class="st0" d="M969.1,88.2c-6.1,11.3-14.7,19.9-25.2,26.7c-0.8,0.5-2.1,0.2-3.1,0.3c0.3-0.9,0.4-2,1-2.7
	c7.1-8.3,14.3-16.5,21.5-24.7c0.9-1.1,1.9-2.3,3-2.9c0.9-0.5,2.2-0.3,3.4-0.3C969.5,85.7,969.4,86.9,969.1,88.2z"/>
<path class="st0" d="M978,785.5c3,2.4,5.9,4.5,8.7,6.8c1.4,1.2,2.5,2.6,3.7,4c0.2,0.3-0.1,1.4-0.4,1.5c-1.3,0.2-2.9,0.8-3.8,0.3
	c-9.4-5.8-17.9-12.4-24.2-21.7c-0.9-1.3-1.7-2.7-2.5-4c-0.4-0.6-0.6-1.3-0.9-1.9c1,0,2.2-0.3,2.9,0.1c1.7,1.1,3.2,2.4,4.6,3.8
	C970,778,973.9,781.6,978,785.5z"/>
<path class="st0" d="M281.1,807.9c5.2-5.4,10.2-10.6,15.3-15.6c1.4-1.4,3-2.6,4.7-3.5c0.9-0.4,2.2,0.2,3.4,0.4
	c-0.5,0.7-0.9,1.5-1.5,2.2c-5.4,6.4-10.7,12.9-16.1,19.2c-2.6,3.1-5.4,6-8.2,8.9c-0.3,0.3-1.6,0.3-1.8,0.1c-0.5-0.8-1.2-2-0.9-2.6
	C277.5,813.9,279.3,811,281.1,807.9z"/>
<path class="st0" d="M268.7,111.8c8.1,5.4,13.2,13.2,18.8,20.5c0.3,0.4,0.1,1.7-0.3,2.3c-0.2,0.3-1.4,0.1-2-0.2
	c-0.5-0.2-0.9-0.9-1.4-1.3c-8.6-7.5-17.2-15-25.6-22.7c-1.1-1-1.4-2.7-2-4.1c1.7,0.1,3.7-0.2,5.1,0.5
	C263.8,108.1,266.1,110,268.7,111.8z"/>
<path class="st0" d="M1102.7,436.3c7.5-0.5,14.6-1.2,21.7-1.4c1.2,0,2.5,1.4,3.8,2.2c-0.9,0.7-1.7,2-2.7,2.2c-5,1-10.1,2.2-15.2,2.3
	c-7.5,0.2-15-0.4-22.4-0.7c-0.8,0-1.5-0.7-2.2-1.1c0.9-0.7,1.7-1.8,2.6-1.9C1093,437.2,1097.7,436.8,1102.7,436.3z"/>
<path class="st0" d="M1159.2,334.1c4.4-0.9,8.4-1.9,12.4-2.7c1.2-0.2,2.5-0.4,3.6-0.2c0.7,0.2,1.2,1.2,1.8,1.8
	c-0.6,0.3-1.2,0.8-1.9,1c-8.1,2.6-16,5.6-24.2,7.6c-4.6,1.1-9.5,0.7-14.3,0.9c-0.7,0-1.4-0.8-2.1-1.2c0.5-0.6,0.9-1.6,1.6-1.8
	c3.1-0.9,6.3-1.6,9.4-2.4C1149.9,336.2,1154.4,335.2,1159.2,334.1z"/>
<path class="st0" d="M87.3,569.2c-5.4,1.3-10.6,2.4-15.8,3.4c-0.7,0.1-1.4-0.1-2.1-0.1c0.3-0.8,0.3-2.1,0.9-2.3
	c3.9-1.8,7.8-3.5,11.8-5c8.1-3,16.8-3.3,25.3-4.2c1.1-0.1,2.3,1.2,3.4,1.8c-1,0.7-1.9,1.7-3,1.9C101,566.2,94.2,567.6,87.3,569.2z"
	/>
<path class="st0" d="M926.5-22.4c1.1-0.6,2-1,2.9-1.4c0.2,1.1,0.9,2.6,0.4,3.4c-4.5,7.8-9.1,15.6-13.9,23.2
	c-1.8,2.8-4.1,5.3-6.3,7.8c-0.6,0.7-1.7,0.9-2.6,1.3c-0.1-1.2-0.8-2.8-0.3-3.6c4.6-7.4,9.4-14.7,14.1-22
	C922.7-16.5,924.5-19.4,926.5-22.4z"/>
<path class="st0" d="M1096.6,759c-11.7-3.4-20.6-10.6-29.7-17.7c-0.5-0.4-1-0.8-1.3-1.4c-0.7-1.1-1.2-2.3-1.8-3.5
	c1.4,0.2,3.1,0,4.2,0.6c4.3,2.5,8.3,5.3,12.5,8c5.4,3.4,10.9,6.6,16.2,10.1C1098,756,1101.1,757.4,1096.6,759z"/>
<path class="st0" d="M182.8,167.9c-2.3-0.6-4.6-1.2-6.5-2.4c-7.1-4.3-14.1-8.8-21.1-13.3c-1.8-1.2-3.6-2.5-5.3-3.9
	c-0.6-0.5-0.7-1.4-1.1-2.1c1-0.2,2.1-0.8,2.9-0.5c2.7,0.9,5.6,1.7,7.9,3.3c7.6,5.2,14.9,10.6,22.3,16.1
	C182.5,165.6,182.6,166.9,182.8,167.9z"/>
<path class="st0" d="M266.8,174.1c-6-4.8-11.8-9.5-17.6-14.1c-0.8-0.6-1.4-1.4-2.1-2.2c1.2-0.1,2.8-0.9,3.6-0.3
	c6.4,4.1,12.9,8.3,19,12.8c4.1,3,7.9,6.6,11.7,10.1c0.7,0.7,0.9,1.9,1.3,2.9c-1,0-2.2,0.4-2.9,0
	C275.5,180.4,271.3,177.3,266.8,174.1z"/>
<path class="st0" d="M137.7,699.4c-1.8,0.3-3.3,0.7-4.7,0.7c-1,0-2-0.7-3-1.1c0.5-1.1,0.8-2.5,1.6-3.1c3.5-2.5,7-4.9,11.4-6
	c4.4-1.1,8.4-3.9,12.7-5.8c1.2-0.5,2.6-0.9,3.8-0.9c0.7,0,1.3,1.1,2,1.7c-0.6,0.4-1.2,0.9-1.8,1.3c-2.7,1.9-5.2,4.1-8.1,5.7
	C147.3,694.6,142.7,696.9,137.7,699.4z"/>
<path class="st0" d="M153,506.5c6.7-2.8,13.4-3.9,20.4-3.8c5.5,0,11-1.4,16.5-2c1-0.1,2.1,0.9,3.2,1.4c-0.6,0.5-1,1.4-1.7,1.6
	c-3.2,1.1-6.3,2.5-9.6,2.9c-6.1,0.8-12.2,1.1-18.3,1.6c-3.2,0.3-6.5,0.6-9.7,0.7c-0.7,0-1.4-0.8-2.1-1.3
	C152.1,507.4,152.4,507,153,506.5z"/>
<path class="st0" d="M1105.1,212.6c-4.9,1.9-9.4,3.8-13.9,5.7c-0.7,0.3-1.4,0.5-2.1,0.5c-0.8,0-1.6-0.2-2.4-0.3
	c0.3-0.7,0.5-1.6,1-2.1c2.5-2.2,5-4.6,7.9-6.2c4.8-2.7,9.8-4.9,14.8-7.2c0.8-0.4,1.9-0.6,2.9-0.5c1.2,0.1,2.3,0.7,3.4,1.1
	c-0.6,1.2-1,2.7-1.9,3.4C1111.8,209.1,1108.6,210.8,1105.1,212.6z"/>
<path class="st0" d="M1129.8,615.8c4.1,1.3,7.8,2.6,11.5,3.9c0.5,0.2,0.9,0.4,1.2,0.8c1.4,1.7,2.8,3.4,4.2,5.1
	c-1.9,0.1-4,0.8-5.8,0.2c-6-1.8-12-4-17.9-6.2c-2.3-0.9-4.6-1.9-6.9-3c-0.6-0.3-1-1.1-1.5-1.6c0.9-0.4,1.8-1.1,2.7-1
	C1121.5,614.5,1125.5,615.2,1129.8,615.8z"/>
<path class="st0" d="M1092.5,397.4c-4.3,1.2-8.3,2.8-12.4,3.2c-7.8,0.7-15.7,0.7-23.6,0.8c-1.1,0-2.2-0.8-3.2-1.2
	c1-0.6,2-1.6,3.1-1.8c7.3-1.7,14.6-2.7,22.2-2.5c4.3,0.1,8.6-1.5,12.9-2c1.6-0.2,3.3,0.6,4.9,0.9
	C1095.2,395.6,1093.9,396.4,1092.5,397.4z"/>
<path class="st0" d="M112.2,279.2c4,3.7,9.1,4.5,13.7,6.2c1.6,0.6,3,1.4,4.5,2.3c0.4,0.3,0.5,1,0.8,1.6c-0.7,0.2-1.4,0.8-2,0.7
	c-7.8-1.7-15.6-3.3-23.2-5.5c-2.3-0.7-5.9-3.7-5.7-5.2c0.5-3.2,4.2-1.4,6.5-1.5C108.4,277.7,110.1,278.7,112.2,279.2z"/>
<path class="st0" d="M567.2,5.2c-0.3-6.4-0.4-12.5-0.8-18.6c-0.1-1.4-1.1-2.6-1.4-4c-0.2-0.9,0.2-1.9,0.3-2.9c0.9,0.6,2.1,1,2.6,1.9
	c1,1.9,2.2,3.9,2.4,5.9c1,10.8,1.7,21.7,2.4,32.6c0,0.7-0.7,1.5-1.1,2.2c-0.6-0.6-1.7-1.1-1.8-1.8C568.8,15.5,568,10.6,567.2,5.2z"
	/>
<path class="st0" d="M350.7,801c-2.8,3.4-5.5,6.5-8.1,9.7c-3.8,4.6-7.6,9.2-11.5,13.8c-0.3,0.4-0.9,0.6-1.4,0.8
	c-0.3-0.5-1-1.2-0.8-1.5c1.3-3.1,2.3-6.5,4.4-9c6.2-7.5,12.8-14.6,19.3-21.8c0.4-0.5,1.3-0.6,1.9-0.9c0,0.7,0.2,1.5-0.1,2.1
	C353.4,796.4,352.1,798.5,350.7,801z"/>
<path class="st0" d="M988,737.5c2.3,1.8,4.5,3.4,6.6,5.1c0.7,0.6,1.3,1.4,2,2.1c-1.1,0.4-2.5,1.3-3.4,0.9c-2-0.7-3.9-1.9-5.6-3.2
	c-4.6-3.6-9.1-7.4-13.5-11.2c-3.2-2.7-6.2-5.6-9.2-8.5c-0.6-0.6-0.8-1.6-1.2-2.4c1,0.1,2.1-0.2,2.8,0.2c2.7,1.4,5.4,2.8,7.7,4.6
	C978.9,729.2,983.3,733.3,988,737.5z"/>
<path class="st0" d="M1152.3,311.7c-5.1,1.1-9.8,2-14.5,3.3c-5.8,1.7-11.6,3.8-17.3,5.6c-0.6,0.2-1.2,0.4-1.8,0.3
	c-1.5-0.3-2.9-0.9-4.3-1.3c1.3-0.6,2.6-1.2,4-1.7c3.7-1.3,7.8-2,11.1-4c6.2-3.7,13-4.4,19.8-5.3c1.5-0.2,2.9-0.6,4.3-0.7
	c0.8,0,1.6,0.5,2.3,0.8c-0.5,0.5-1,1-1.5,1.5C1153.8,310.7,1153.2,311.2,1152.3,311.7z"/>
<path class="st0" d="M891.5,107.4c4.2-5.6,8.3-10.8,12.5-16c3.3-4.1,6.6-8.1,9.9-12.1c0.4-0.4,0.8-0.8,1.3-1.2c0.3,0.6,1,1.3,1,1.9
	c-0.1,1.3-0.2,2.8-0.9,3.9c-2.3,3.6-4.6,7.2-7.3,10.5c-4.1,4.9-8.5,9.7-12.8,14.4c-0.8,0.8-2,1.2-3.1,1.8
	C891.9,109.6,891.7,108.7,891.5,107.4z"/>
<path class="st0" d="M385.2,37.2c-1.4-2.2-2.7-4-3.6-6.1c-0.3-0.8,0.5-2,0.8-3.1c0.8,0.4,1.9,0.5,2.4,1.1
	c5.9,7.1,10.9,14.7,13.8,23.6c0.7,2,1.7,4,2.2,6c0.2,0.9-0.4,2-0.6,3c-0.8-0.6-1.9-1-2.4-1.7c-1.3-2.1-2.2-4.5-3.5-6.7
	C391.4,48,388.4,42.7,385.2,37.2z"/>
<path class="st0" d="M110.9,587.4c5.6-2,11.1-3.9,16.5-5.6c1-0.3,2.2,0.2,3.3,0.3c-0.6,0.9-1,2.2-1.8,2.6c-3.2,1.5-6.6,2.7-9.9,4
	c-3.8,1.5-7.5,3.3-11.4,4.1c-4.9,1.1-10,1.4-15,2c-0.6,0.1-1.2-0.7-1.9-1c0.6-0.6,1-1.7,1.7-1.9c3.4-1,6.8-1.7,10.2-2.5
	C105.3,588.9,108,588.2,110.9,587.4z"/>
<path class="st0" d="M1092.5,583.1c-3.5-0.6-6.8-2.1-10-2c-7.8,0.2-14.1-3.7-20.8-6.8c-0.5-0.2-1.1-0.5-1.6-0.8
	c-1-0.8-1.9-1.6-2.8-2.4c1.5-0.2,3.1-0.9,4.4-0.5c5.1,1.5,10.2,3.4,15.3,4.9c4.5,1.3,9.2,2,13.7,3.2
	C1092.7,579.2,1094.7,580.3,1092.5,583.1z"/>
<path class="st0" d="M1042.6,210.5c2.1,0.2,4,0.5,5.9,0.9c-1.4,1.2-2.6,2.5-4.2,3.5c-5.5,3.5-10.9,7.1-16.6,10.3
	c-2.9,1.6-6.1,2.7-9.3,3.6c-1.1,0.3-2.5-0.6-3.8-0.9c0.9-1,1.7-2.2,2.8-2.8c3.8-2,7.8-3.6,11.5-5.7
	C1033.6,216.7,1037.9,213.6,1042.6,210.5z"/>
<path class="st0" d="M881.6-0.8c2.9-5.6,5.4-11.2,8.4-16.5c1.5-2.7,3.9-4.9,6-7.2c0.4-0.4,1.4-0.4,2-0.6c0.1,0.7,0.4,1.5,0.2,2.1
	c-1.4,2.9-3,5.7-4.6,8.5c-3.3,6.1-6.6,12.2-9.9,18.3c-1.3,2.3-2.8,4.5-4.3,6.7c-0.4,0.6-1.2,0.8-1.9,1.2c-0.1-1-0.5-2.1-0.2-2.9
	C878.6,5.7,880.1,2.6,881.6-0.8z"/>
<path class="st0" d="M1041.6,322.5c-1.7,0-3-0.1-4.3-0.1c0.9-1,1.7-2.2,2.8-3c7-5,14.8-8.3,23.3-10.1c2-0.4,3.7-1.6,5.7-2.1
	c0.8-0.2,1.7,0.6,2.6,0.9c-0.4,0.7-0.6,1.7-1.2,2c-6.1,3.1-11.3,7.8-18.8,8C1048.4,318.2,1045.2,321,1041.6,322.5z"/>
<path class="st0" d="M170.4,328.5c-4.7-1.1-9.2-1.9-13.7-3c-1.2-0.3-2.4-1.1-3.4-1.9c-0.5-0.4-0.6-1.3-0.8-1.9
	c0.7-0.2,1.5-0.7,2.2-0.7c8.4,0,16.2,2.7,23.9,5.6c2.9,1.1,5.6,2.8,8.2,4.4c0.9,0.5,1.4,1.7,2.1,2.5c-1.2,0.1-2.6,0.7-3.7,0.3
	c-4.3-1.5-8.4-3.2-12.7-4.8C171.9,328.8,171.2,328.8,170.4,328.5z"/>
<path class="st0" d="M154,437.8c2.3-1,4.6-2.1,6.9-2.2c6.4-0.3,12.8-0.2,19.3-0.1c2.7,0,5.4,0.4,8.2,0.8c0.4,0.1,0.8,0.6,1.3,0.9
	c-0.4,0.5-0.7,1.3-1.1,1.4c-3.8,0.6-7.5,1.3-11.3,1.6c-6.2,0.4-12.4,0.8-18.6,0.7C157.1,440.8,155.5,439.1,154,437.8z"/>
<path class="st0" d="M180.3,197.2c-5.9-2.6-11.2-5.6-16.9-7.6c-6.2-2.3-11.5-5.8-16.1-10.3c-0.6-0.6-0.9-1.4-1.4-2.2
	c1.1,0,2.3-0.3,3.2,0.1c3,1.4,6,3,8.9,4.6c6.2,3.3,12.4,6.7,18.6,10.1c1.8,1,3.6,2,5.2,3.1c0.5,0.3,0.6,1.1,0.9,1.7
	C182,196.8,181.3,197,180.3,197.2z"/>
<path class="st0" d="M225,675.2c2.3,0.1,4.3,0.4,6.4,0.7c-1.4,0.9-2.9,1.8-4.3,2.6c-7.6,4.5-15.1,8.9-22.7,13.4
	c-0.7,0.4-1.5,1.2-2.2,1.2c-1.3,0-2.6-0.5-3.9-0.8c0.6-1,0.9-2.3,1.7-2.9c6.8-4.6,13-10.1,21.1-12.5
	C222.4,676.6,223.6,675.9,225,675.2z"/>
<path class="st0" d="M1214.8,231c-5.4,1.5-10.6,2.9-15.9,4.2c-0.7,0.2-1.6-0.3-2.4-0.4c0.4-0.7,0.6-1.8,1.2-2.1
	c4-2.1,8-4.3,12.1-6.1c4-1.7,8.2-3,12.4-4.6c0.6-0.2,1.1-0.8,1.6-0.8c1.6,0.1,3.1,0.3,4.7,0.5c-0.8,0.9-1.6,2.1-2.6,2.7
	C1222.3,226.7,1218.6,228.7,1214.8,231z"/>
<path class="st0" d="M99.1,336.5c-1.2-0.5-2.2-0.9-2.7-1.7c-0.6-1-1.2-2.3-1-3.3c0.1-0.6,1.9-1.2,2.8-1.1c3.5,0.3,7.1,0.6,10.5,1.6
	c5,1.5,9.9,3.5,14.7,5.4c0.7,0.3,1.3,0.9,1.9,1.4c-0.8,0.6-1.6,1.6-2.5,1.6c-2.5,0-5-0.3-7.4-0.7
	C110.1,338.6,104.8,337.5,99.1,336.5z"/>
<path class="st0" d="M46.2,668.2c0.9-0.3,1.6-0.6,2.3-0.5c0.6,0.1,1.1,0.5,1.7,0.8c-0.4,0.5-0.6,1.2-1.1,1.5
	c-3.3,1.8-6.4,3.7-9.9,5.1c-6.2,2.4-12.6,4.4-18.9,6.6c-0.7,0.2-1.6-0.1-2.4-0.1c0.3-0.7,0.3-1.8,0.9-2.1c3.7-2.2,7.3-4.7,11.3-6.2
	C35.4,671.2,40.8,670,46.2,668.2z"/>
<path class="st0" d="M1092.5,725.1c-7.2-6-16-8.6-23.6-13.4c-1.3-0.8-3.2-3-2.9-3.5c1.4-2.4,3-0.3,4.6,0.4
	c5.4,2.4,11.1,4.4,16.3,7.2c4.6,2.5,8.6,5.9,12.9,8.9c0.1,0.1-0.7,1.7-0.9,1.7C1096.7,726.2,1094.7,725.7,1092.5,725.1z"/>
<path class="st0" d="M1075.8,379.2c-5.2,0.6-10.2,0.9-15.2,1.4c-5.1,0.5-10.1,1.1-15.2,1.5c-0.7,0.1-1.5-0.4-2.3-0.6
	c0.7-0.6,1.3-1.5,2.1-1.6c5.5-1.1,11-2.1,16.5-3.2c4.6-0.9,9.2-2.1,13.8-3.1c1.5-0.3,3.6-1.6,4.3,0.8c0.2,0.8-0.9,2.2-1.7,3.2
	C1077.7,378.2,1076.8,378.6,1075.8,379.2z"/>
<path class="st0" d="M64.4,198.5c-1.2,3.3-3.8,1.9-5.5,1.3c-7-2.7-13.8-5.8-20.6-8.9c-2-0.9-3.6-2.5-5.4-3.8c2.7-0.2,5.5-0.9,8-0.4
	c3.2,0.7,6.3,2.2,9.2,3.7C54.9,192.9,59.5,195.7,64.4,198.5z"/>
<path class="st0" d="M1060.4,467.8c-0.1-1.1-0.2-2.5,0.2-2.8c1.4-0.8,3.1-1.6,4.7-1.6c8.5-0.1,17.1-0.1,25.6,0
	c0.8,0,1.7,0.8,2.5,1.2c-0.7,0.7-1.3,1.9-2.2,2c-3.4,0.6-6.8,1.2-10.2,1.3C1074.2,468.1,1067.4,468,1060.4,467.8z"/>
<path class="st0" d="M850.3,9.7c-3,5.1-5.8,10-8.7,14.8c-0.4,0.7-1.5,1.1-2.3,1.7c-0.1-0.9-0.6-2-0.3-2.8c2.8-6.5,5.7-13.1,8.6-19.5
	c1.3-2.9,2.8-5.8,4.4-8.6c0.8-1.5,1.7-3.3,3.9-1.9c2,1.3,1.1,2.6,0.2,4.3C854.1,1.5,852.4,5.5,850.3,9.7z"/>
<path class="st0" d="M1112.2,291.4c-0.2,1.1-0.3,2.5-0.9,2.8c-8,3.5-15.8,7.6-24.8,8.3c-1.6,0.1-3,1.5-4.6,1.8
	c-1.2,0.2-2.6-0.5-3.9-0.8c0.9-0.6,1.8-1.3,2.7-1.8c8.4-4.4,17.2-7.6,26.4-10.1C1108.7,291.1,1110.4,291.3,1112.2,291.4z"/>
<path class="st0" d="M196.6,522.2c1.8,0,3.2-0.1,4.6,0c0.5,0.1,1,0.6,1.6,0.9c-0.4,0.5-0.7,1.1-1.2,1.3c-0.9,0.4-1.9,0.9-2.7,0.8
	c-10.3-1-19.7,3.3-29.5,5.2c-0.8,0.2-2.4-0.2-2.5-0.5c-0.2-1.1-0.3-2.8,0.4-3.3c2.1-1.5,4.5-3.2,7-3.5
	C181.5,522.4,188.8,522.4,196.6,522.2z"/>
<path class="st0" d="M164.8,738.9c2.4-5.3,7.6-6.5,11.8-9c3.6-2.1,7.4-3.9,11.1-5.7c1-0.5,2.2-0.3,3.4-0.4c-0.5,1-0.6,2.3-1.4,2.9
	c-6.7,4.8-12.4,11.1-20.1,14.6C166.8,742.5,166.3,740.2,164.8,738.9z"/>
<path class="st0" d="M196.6,589.5c-5.7,1.8-11,3.6-16.2,5.4c-1.2,0.4-2.3,1.2-3.6,1.6c-0.6,0.2-1.4,0-2.1,0.1c0.1-0.7,0-1.6,0.4-2.1
	c3.2-3.9,7.6-5.9,12.2-7.6c5-1.8,10.1-3.5,15.2-5.2c1-0.3,2.1-0.7,3.2-0.6c0.9,0.1,1.7,0.8,2.5,1.2c-0.7,0.4-1.4,0.8-2.1,1.3
	C203,585.5,200,587.5,196.6,589.5z"/>
<path class="st0" d="M289.2,769.6c-1.8,1.5-3.4,2.9-5.2,4c-0.8,0.5-2,0.4-3,0.6c0.2-1,0-2.4,0.6-3.1c2.7-3.4,5.4-6.9,8.4-10
	c3.6-3.6,7.6-6.8,11.5-10.1c0.6-0.5,1.4-1,2.1-1.4c0.6-0.3,1.2-0.3,1.9-0.5c0,0.6,0.1,1.3-0.1,1.8c-0.9,1.6-1.8,3.2-3,4.5
	C298.2,760.2,293.8,764.8,289.2,769.6z"/>
<path class="st0" d="M1059.6,676.8c-2.4-1.4-4.7-2.5-6.8-3.8c-1.2-0.7-2.2-1.6-3.2-2.5c-0.3-0.3-0.4-0.9-0.6-1.3
	c0.6-0.2,1.4-0.6,1.8-0.4c8.2,3.2,16.3,6.4,24.5,9.8c1.4,0.6,2.9,1.4,3.9,2.5c1,1,1.5,2.5,2.2,3.7c-1.4,0.1-2.9,0.7-4.2,0.3
	c-2.9-1-5.7-2.4-8.5-3.7C1065.8,679.9,1062.8,678.4,1059.6,676.8z"/>
<path class="st0" d="M1208,713.3c1.9,0.7,3.4,1.4,4.8,2.2c0.6,0.3,0.9,1.1,1.3,1.7c-0.6,0.3-1.2,0.8-1.8,0.7
	c-6.9-0.2-13.1-2.7-19.2-5.8c-2.9-1.5-5.6-3.3-8.3-5c-0.9-0.6-1.7-1.4-2.5-2.1c0.5-0.5,1.1-1.5,1.4-1.4
	C1192.2,705.7,1200.5,708.2,1208,713.3z"/>
<path class="st0" d="M1055.7,179.9c0-1.4-0.2-3.3,0.5-3.8c5.7-4.4,11.5-8.7,17.4-12.8c1.2-0.9,2.8-1.5,4.3-1.6c0.8,0,2,1.2,2.3,2.1
	c0.2,0.9-0.2,2.4-0.9,2.9c-3.1,2.3-6.3,4.5-9.7,6.4C1065.1,175.6,1060.5,177.8,1055.7,179.9z"/>
<path class="st0" d="M350.4,100.6c1.2,1.5,2.5,2.6,3.1,4c0.5,1.1,0.2,2.6,0.2,3.9c-1.2-0.5-2.8-0.6-3.7-1.5
	c-1.8-1.8-3.1-4.1-4.7-6.1c-3.4-4-7-7.9-10.3-12c-1.5-1.8-4.5-4.2-2.2-6.4c2.4-2.3,4.5,1,5.9,2.6c3.5,4.1,6.4,8.6,9.6,12.9
	C348.8,98.9,349.5,99.7,350.4,100.6z"/>
<path class="st0" d="M269.9,730.9c-2,1.7-3.8,3.3-5.6,4.8c-2.6,2.1-5.2,4.2-7.9,6.2c-0.6,0.5-2.3,0.7-2.5,0.4
	c-0.6-0.8-1.1-2.4-0.7-3c1.2-1.8,2.6-3.7,4.4-5c5.4-4.2,11-8.2,16.5-12.2c0.8-0.6,1.6-1.5,2.4-1.5c1.1-0.1,2.3,0.4,3.4,0.7
	c-0.5,0.9-0.8,2-1.5,2.6C275.7,726.2,272.9,728.5,269.9,730.9z"/>
<path class="st0" d="M245.9,183.8c3.4-3,6.6-0.9,8.8,0.9c6.7,5.6,13,11.7,19.4,17.6c0.5,0.5,0.6,1.3,1,1.9c-0.8,0-1.9,0.2-2.5-0.2
	c-3.5-2.5-6.8-5.3-10.4-7.7c-4.8-3.2-9.8-6.2-14.7-9.4C246.6,186.4,246.3,185,245.9,183.8z"/>
<path class="st0" d="M139.1,607.1c7.1-2.5,14-4.8,20.9-6.9c1.7-0.5,3.7-0.1,5.6-0.1c-1.2,1.1-2.2,2.6-3.7,3.2
	c-7.6,3.2-15.2,6.1-22.8,9.1c-0.8,0.3-1.8,0.4-2.6,0.2c-1.2-0.3-2.3-1-3.4-1.5c0.9-1,1.6-2.2,2.7-3
	C136.6,607.6,137.9,607.6,139.1,607.1z"/>
<path class="st0" d="M1144.5,573.2c-5.4-1.6-10.3-3.2-15.3-4.9c-2.1-0.7-4.3-1.3-6.4-2.2c-0.7-0.3-1-1.2-1.5-1.8
	c0.7-0.4,1.5-1.2,2.2-1.1c7.9,1.2,15.9,2.4,23.8,4c1.3,0.3,3.3,2.5,3.2,3.7c-0.1,2.1-2.4,2.5-4.4,2.3
	C1145.7,573.2,1145.3,573.2,1144.5,573.2z"/>
<path class="st0" d="M750.6-2.5c-2.1,6.3-4.1,12.3-6.3,18.2c-0.2,0.5-1.2,1.1-1.8,1c-0.5-0.1-1.2-1.1-1.2-1.7c0.2-2,0.6-4.1,1.2-6
	c2.1-7.8,4.3-15.7,6.5-23.5c0.3-1,0.7-2.1,1.4-2.9c0.4-0.5,1.4-0.8,2-0.6c0.5,0.2,1.3,1.2,1.2,1.6C752.7-11.8,751.7-7.3,750.6-2.5z"
	/>
<path class="st0" d="M175.7,399.1c-5.2-0.3-10-0.3-14.7-0.9c-1.4-0.2-3.7-2.2-3.6-3c0.3-1.8,2-2,4.2-1.6c5.2,1,10.6,1.2,16,1.7
	c2.9,0.3,5.8,0.2,8.5,0.9c1.4,0.3,2.4,1.9,3.6,2.9c-1.2,0.5-2.5,1.6-3.7,1.5C182.6,400.4,179.3,399.6,175.7,399.1z"/>
<path class="st0" d="M230.6,245.1c2.7,1,5,2,7.2,3.1c0.5,0.2,0.8,0.8,1.2,1.2c-0.5,0.3-1,0.9-1.5,1c-0.7,0.2-1.6,0.3-2.3,0
	c-6-2.5-12.8-2.3-18.3-6.2c-3.3-2.4-7.1-4-10.6-6.1c-0.6-0.3-0.8-1.1-1.2-1.7c0.6-0.2,1.4-0.7,1.9-0.6c4.5,1.3,9,2.4,13.4,4.1
	C223.8,241.4,226.9,243.4,230.6,245.1z"/>
<path class="st0" d="M1020.5,72.4c0.7-0.6,1.1-1.1,1.7-1.3c0.8-0.2,1.7-0.2,2.5-0.3c0,1,0.3,2.3-0.2,2.8c-3.9,4.4-7.8,8.7-12,12.8
	c-2.8,2.8-6,5.2-9.2,7.7c-0.6,0.5-1.7,0.4-2.6,0.6c0.1-1-0.2-2.3,0.3-2.8C1007.4,85.4,1013.9,79,1020.5,72.4z"/>
<path class="st0" d="M943.9,788.6c0.7,1.7,2.2,4.1,1.7,4.6c-2.1,2-3.5-0.2-4.9-1.6c-6.3-6.3-12.7-12.6-19-19c-0.7-0.7-0.7-1.9-1-2.9
	c1.2,0.3,2.6,0.1,3.4,0.8C930.7,776.3,937.2,782.4,943.9,788.6z"/>
<path class="st0" d="M344.6,14.3c-3-3.8-5.9-7.3-8.6-11c-1.1-1.5-1.9-3.3-2.4-5.2c-0.3-1,0.2-3,0.6-3.1c1.2-0.3,3.3-0.2,3.8,0.5
	c2.7,3.8,5.2,7.8,7.4,11.9c1.9,3.5,3.5,7.3,5.1,11c0.2,0.5-0.1,1.3-0.1,2c-0.6-0.2-1.5-0.2-1.8-0.6C347.2,18.1,346,16.3,344.6,14.3z
	"/>
<path class="st0" d="M873.7,96.6c4.4-6.7,8.7-13,13.2-19.2c0.9-1.2,3-3.1,3.6-2.8c2.4,1.2,2.4,3.6,1,5.7c-1.8,2.7-3.8,5.4-5.9,7.9
	c-4.1,4.9-8.4,9.7-12.6,14.5c-0.4,0.5-0.9,1-1.3,1.5c-0.3-0.8-1.1-1.7-0.9-2.2C871.5,100.1,872.6,98.6,873.7,96.6z"/>
<path class="st0" d="M964.4,131.6c-4.2,4.4-8.1,8.7-12.1,12.9c-2.7,2.8-5.4,5.5-8.2,8.1c-0.7,0.6-1.9,0.7-2.9,1.1
	c0.1-1-0.1-2.4,0.5-3.1c4.5-5.2,9.2-10.4,13.8-15.5c1.7-1.9,3.4-3.8,5.4-5.4C963,128.1,964.2,128.8,964.4,131.6z"/>
<path class="st0" d="M325.6,135.1c-0.6,0.3-1.3,0.5-1.5,0.3c-6-5.1-12-10.2-17.8-15.6c-2.1-1.9-3.6-4.4-5.2-6.7
	c-0.3-0.5-0.1-1.4-0.2-2.1c0.6,0,1.4-0.2,1.8,0.1c1.9,1,4.1,1.8,5.6,3.3c5.4,5.4,10.7,11,15.8,16.6
	C325,131.9,325.2,133.5,325.6,135.1z"/>
<path class="st0" d="M176.2,227.5c-3.5-1.9-6.8-3.6-10-5.4c-0.7-0.4-1-1.4-1.4-2.1c0.9-0.4,1.9-1.3,2.5-1.1c3.7,1.1,7.4,2,10.8,3.7
	c5.1,2.6,10,5.6,15,8.6c1.2,0.7,2.1,2,3.1,3c-1.5,0-3.1,0.5-4.3,0C186.7,232.2,181.6,229.9,176.2,227.5z"/>
<path class="st0" d="M1114.5,369.1c3-1.2,5.7-2.4,8.5-3.3c3.6-1.2,7.3-2.2,11-3.1c3.1-0.7,6.2-1.3,9.4-1.5c1.5-0.1,2.9,1.4,0.9,2.6
	c-2.9,1.7-6.1,3.3-9.4,4.2c-5.7,1.6-11.5,2.6-17.2,4C1114.9,372.7,1113.7,371.8,1114.5,369.1z"/>
<path class="st0" d="M1079.3,509.2c-7-1-13.7-1.7-20.5-2.6c-0.9-0.1-1.6-1.3-2.4-2c0.9-0.6,1.8-1.8,2.7-1.7c7.3,0.5,14.7,1.2,22,1.9
	c2.1,0.2,4.1,0.6,6.1,1.1c0.9,0.2,1.6,1.1,2.4,1.8c-0.7,0.5-1.3,1.2-2,1.3C1084.9,509.3,1082.2,509.3,1079.3,509.2z"/>
<path class="st0" d="M830.2,57.7c-0.9,2.2-1.6,4.3-2.4,6.2c-0.3,0.7-1.2,1.1-1.9,1.7c-0.3-0.7-0.9-1.4-0.9-2
	c0-7.3,2.9-13.6,6.5-19.7c1.5-2.5,2.3-5.5,3.7-8.1c0.5-1,1.5-1.7,2.3-2.6c0.5,1,1.5,2.2,1.3,3.1c-0.9,3.6-1.9,7.2-3.3,10.6
	C834,50.5,832.1,53.9,830.2,57.7z"/>
<path class="st0" d="M985.1,170.8c-5.4,4-10.4,8-15.5,11.9c-0.7,0.5-2.2-0.1-3.3-0.2c0.3-0.9,0.3-2.1,1-2.6
	c5.4-4.9,10.8-9.7,16.3-14.5c1.3-1.1,2.6-2.4,4.1-3c1.1-0.5,2.6-0.1,4-0.2c-0.2,1.3-0.1,3-0.8,3.9
	C989.3,167.9,987.3,169.3,985.1,170.8z"/>
<path class="st0" d="M264.1,70.1c0.6,0.8,1.1,1.4,1.2,2.1c0.3,0.9,0.3,1.9,0.4,2.9c-0.8-0.4-1.8-0.6-2.4-1.2
	c-5.1-4.5-10.3-8.9-15.2-13.7c-2.3-2.2-4-5-5.8-7.6c-0.4-0.7-0.1-1.8-0.1-2.8c0.9,0.1,2-0.1,2.6,0.4c3.5,3.1,7.1,6.1,10.4,9.5
	C258.2,62.8,261,66.4,264.1,70.1z"/>
<path class="st0" d="M997.3,715.8c0.9,0.6,1.8,0.8,2.4,1.4c0.7,0.7,1.1,1.6,1.7,2.5c-0.9,0.5-1.8,1.1-2.8,1.3c-4.8,1-7.8-2.3-11-4.9
	c-4.6-3.8-9.1-7.9-13.5-12c-0.7-0.7-0.7-2.1-1-3.1c1,0.2,2.2,0.1,2.9,0.6C983.1,706.2,990.1,710.9,997.3,715.8z"/>
<path class="st0" d="M1017.8,659.7c-2.4-1.1-4.6-1.9-6.8-2.9c-1-0.5-1.8-1.3-2.7-1.9c1-0.4,2.1-1.3,2.9-1.1
	c5.5,1.5,11.1,3.1,16.4,5.1c4.2,1.6,8.2,3.7,12.3,5.7c0.6,0.3,1.1,0.9,1.6,1.4c-0.5,0.4-1,1.1-1.5,1.2c-1.5,0.2-3.2,0.4-4.7,0.1
	c-5.6-1.3-11.1-3.2-15.6-7C1019.4,659.9,1018.6,660,1017.8,659.7z"/>
<path class="st0" d="M1045.7,749.5c2.9,1.9,5.7,3.6,8.4,5.4c0.7,0.4,1,1.4,1.5,2.1c-0.8,0.4-1.8,1.3-2.5,1.2
	c-3.2-0.8-6.7-1.4-9.4-3.1c-5.1-3.1-9.8-6.9-14.5-10.6c-0.9-0.7-1.1-2.3-1.6-3.4c1.3,0.1,2.8-0.1,3.9,0.5c3.5,1.9,6.8,4.1,10.2,6.2
	C1042.8,748.4,1044.2,748.8,1045.7,749.5z"/>
<path class="st0" d="M95.2,439.4c-5,0-9.6,0.1-14.3,0c-3.4-0.1-6.7-0.4-10.1-0.8c-0.7-0.1-1.3-0.9-2-1.3c0.4-0.6,0.8-1.4,1.3-1.6
	c1.2-0.5,2.6-0.8,3.9-0.8c8.8,0.2,17.5,0.5,26.3,0.7c0.3,0,0.6-0.1,0.8,0c1.4,0.6,2.7,1.3,4.1,2c-1.4,0.4-2.8,0.8-4.2,1.1
	C99.2,438.9,97.4,439.1,95.2,439.4z"/>
<path class="st0" d="M492.4,30.6c0.6,0.8,1.2,1.4,1.3,2c0.2,1.6,0,3.2,0,4.8c-0.9-0.9-1.9-1.8-2.7-2.8c-6.6-7.5-7.9-17.4-11.9-26
	c-0.3-0.7,0.5-2,0.8-3.1c0.8,0.4,1.8,0.6,2.4,1.2c1,0.9,2,2,2.4,3.2C487.3,16.7,489.7,23.5,492.4,30.6z"/>
<path class="st0" d="M119.8,538.2c-3.8,1-7.5,1.9-11.2,2.6c-1.9,0.4-3.9,0.6-5.9,0.6c-0.7,0-1.4-0.8-2.1-1.2c0.5-0.6,1-1.4,1.6-1.8
	c5.7-3.8,12.6-4,19-5.4c2.5-0.5,5.2-0.8,7.8-0.7c1.1,0,2.2,1.2,3.3,1.9c-1,0.6-2,1.5-3.1,1.8C126.1,536.9,123,537.4,119.8,538.2z"/>
<path class="st0" d="M316.5,879.7c4.4-7.6,8.7-14.8,13.2-22c0.5-0.8,2.2-0.9,3.3-1.3c0.1,1.3,0.6,2.8,0.1,3.8c-2.2,4-4.7,7.9-7,11.8
	c-2,3.4-3.7,7-5.8,10.3c-0.6,1-2.2,1.3-3.4,1.9C316.8,882.9,316.6,881.5,316.5,879.7z"/>
<path class="st0" d="M905.2,816.4c-4-5.3-7.9-10.4-11.6-15.6c-0.6-0.8-1.1-1.9-1.2-2.9c-0.1-0.5,0.6-1.4,1.1-1.7
	c0.2-0.2,1.1,0.4,1.5,0.8c3.1,3.3,6.3,6.6,9.3,10.1c2.6,2.9,4.9,5.9,7.4,8.9c0.4,0.5,1.2,0.8,1.3,1.4c0.4,1.4,0.5,2.8,0.7,4.2
	c-1.5-0.3-3.2-0.4-4.4-1.1C907.8,819.4,906.7,817.9,905.2,816.4z"/>
<path class="st0" d="M1016.8,173.9c0.6-0.2,0.7-0.5,0.9-0.5c1.7-0.3,3.5-0.5,5.2-0.7c-1,1.3-1.8,3-3.2,3.9c-7,4.8-14,9.5-21.1,14.2
	c-0.7,0.4-1.5,0.8-2.3,0.8c-0.9,0-1.9-0.3-2.8-0.5c0.4-0.9,0.5-2.1,1.2-2.5c4.6-3.3,9.4-6.4,14.1-9.6
	C1011.5,177.4,1014,175.7,1016.8,173.9z"/>
<path class="st0" d="M195.8,146.1c7.5,4.6,14.7,9.1,21.8,13.7c0.5,0.3,0.8,1.1,1.2,1.6c-0.8,0.3-1.7,1.1-2.3,0.9
	c-2.3-0.8-4.6-1.9-6.8-3c-5.2-2.8-10.3-5.6-15.4-8.5c-0.5-0.3-1.2-0.6-1.4-1.1c-0.6-1.1-0.9-2.3-1.4-3.4
	C192.8,146.1,194.1,146.1,195.8,146.1z"/>
<path class="st0" d="M153.4,371.1c-2.8-0.8-5.3-1.4-7.9-2.2c-0.9-0.2-1.6-0.9-2.4-1.4c0.8-0.6,1.7-1.7,2.4-1.6
	c5.8,0.7,11.7,1.4,17.5,2.5c4,0.7,8,1.8,11.9,2.9c0.9,0.2,1.5,1.2,2.2,1.9c-0.8,0.4-1.6,1-2.5,1.1c-6.4,0.9-12.3-1.8-18.5-2.8
	C155.3,371.4,154.5,371.4,153.4,371.1z"/>
<path class="st0" d="M245.9,718.5c-6.2,3.9-12.3,7.7-18.4,11.3c-1.1,0.6-2.6,0.5-3.9,0.8c0.7-1.4,0.9-3.3,2-4.1
	c5.2-3.7,10.6-7.3,16-10.7c2.3-1.4,4.9-2.5,7.4-3.5c0.8-0.3,1.9,0.2,2.9,0.3c-0.5,0.9-0.7,2-1.4,2.6
	C249.2,716.5,247.6,717.3,245.9,718.5z"/>
<path class="st0" d="M1097.3,533.8c2,0.5,3.6,1,5.1,1.7c0.7,0.3,1.2,1,1.9,1.4c-0.7,0.5-1.5,1.5-2.2,1.5c-3.6-0.2-7.2-0.3-10.8-1
	c-6.4-1.2-12.7-2.8-19-4.4c-0.8-0.2-1.4-1.1-2.1-1.6c1.2-0.7,2.5-2.2,3.5-2C1081.5,530.6,1089.2,532.3,1097.3,533.8z"/>
<path class="st0" d="M245.1,811.4c-6.4,6.4-12.4,12.6-18.7,18.6c-1.4,1.3-4.8,2.8-5.1,2.5c-2-2.4,0.8-4,2-5.3
	c5.6-5.7,11.4-11.2,17.4-16.5C241.6,809.8,244.4,806.4,245.1,811.4z"/>
<path class="st0" d="M892.1,832.7c3.3,5.8,6.4,11.5,9.4,17.2c0.4,0.8,0,2.1,0,3.2c-0.8-0.6-1.9-1-2.4-1.8
	c-4.8-7.2-9.5-14.6-14.2-21.9c-0.3-0.4-0.5-0.9-0.5-1.3c-0.2-1.5-0.4-3-0.6-4.5c1.3,0.9,2.8,1.5,3.8,2.6
	C889.2,828.1,890.4,830.4,892.1,832.7z"/>
<path class="st0" d="M702.9-16.2c1.6-3.7,3-7.3,4.5-10.8c0.2-0.5,1-0.7,1.5-1c0.3,0.5,0.8,1,0.7,1.4c-0.5,3.6-1,7.3-1.8,10.9
	c-1.1,5.3-2.3,10.6-3.6,15.9c-0.2,1-0.6,2.2-1.4,2.9c-0.6,0.6-1.8,0.5-2.8,0.7c0-0.8-0.2-1.6-0.1-2.3
	C700.8-4.4,701.7-10.2,702.9-16.2z"/>
<path class="st0" d="M674.2,12.4c0.6-5.6,0.9-10.9,1.4-16.3c0.2-2.6,0.3-5.2,0.9-7.7c0.2-1,1.6-1.7,2.4-2.5c0.4,0.8,1.1,1.5,1.3,2.4
	c1.8,6,0.1,11.8-1.4,17.6c-0.7,2.7-0.4,5.7-0.9,8.5c-0.3,1.4-1.3,2.7-2,4c-0.6-1.3-1.3-2.6-1.8-3.9C673.9,13.9,674,13.2,674.2,12.4z
	"/>
<path class="st0" d="M1159.2,464.1c5.6,0.5,10.8,1,16,1.6c0.9,0.1,1.7,0.7,2.6,1.1c-1,0.6-2,1.8-3.1,1.8c-3.5,0.2-7,0.2-10.4,0.1
	c-6.3-0.2-12.7-0.5-19-0.8c-0.8,0-1.5-0.7-2.2-1.1c0.7-0.4,1.4-1,2.2-1.1C1149.7,465.1,1154.3,464.7,1159.2,464.1z"/>
<path class="st0" d="M639.2-4.8c-0.8,7.3-1.5,14.1-2.3,21c-0.1,0.5-0.5,1-0.7,1.4c-0.5-0.5-1.5-0.9-1.5-1.4
	c-0.1-10.9-0.1-21.8,0-32.8c0-0.5,1-1.3,1.5-1.3c0.5,0,1.4,0.8,1.5,1.4C638.2-12.8,638.7-9,639.2-4.8z"/>
<path class="st0" d="M551.8,16.1c0.4,3.8-1,7.4,1.5,10.6c0.4,0.5-0.5,2-0.8,3c-0.5-0.6-1.2-1.2-1.4-1.9c-1.1-4.7-2.1-9.4-3.2-14.1
	c-1.1-4.9-2.4-9.8-3.5-14.7c-0.2-0.7-0.1-2.1,0.3-2.3c0.9-0.5,2.6-0.9,3-0.4c1.4,1.5,3,3.3,3.2,5.1C551.5,6.1,551.5,10.9,551.8,16.1
	z"/>
<path class="st0" d="M348.8,64.2c-1.5-3-2.8-5.8-4-8.7c-0.2-0.6,0.3-1.4,0.4-2.1c0.6,0.2,1.5,0.2,1.8,0.7c3.3,4.6,6.5,9.1,9.6,13.8
	c2,3.1,3.8,6.4,5.4,9.7c0.4,0.8,0,2.1,0,3.2c-1-0.5-2.3-0.8-2.9-1.6C355.7,74.3,352.4,69.4,348.8,64.2z"/>
<path class="st0" d="M918.8,41c-1.4,1.9-2.4,3.7-3.8,5.2c-0.7,0.8-2.1,1-3.1,1.4c0.1-1.3-0.1-2.8,0.4-3.9c1.1-2.3,2.7-4.3,4-6.5
	c2.9-4.9,5.7-10,8.8-14.8c0.6-0.9,2.4-0.9,3.6-1.3c-0.1,1.3,0.3,2.9-0.3,3.9C925.4,30.4,922.1,35.6,918.8,41z"/>
<path class="st0" d="M1002.3,850.1c0.8,0.8,1.8,1.4,2,2.1c0.2,0.6-0.2,1.8-0.7,2.2c-0.4,0.3-1.6,0.1-2.1-0.4
	c-3.4-2.8-6.8-5.6-9.9-8.7c-2.6-2.6-4.9-5.6-7.1-8.6c-0.8-1.2-1.1-2.8-1.5-4.2c1.3,0.4,2.9,0.5,3.9,1.3c3.3,2.7,6.5,5.6,9.5,8.7
	C998.5,844.9,1000.2,847.5,1002.3,850.1z"/>
<path class="st0" d="M1152.1,282.1c-5.8,1.2-11.4,2.3-17,3.2c-0.6,0.1-1.4-0.5-2.1-0.8c0.5-0.5,0.9-1.1,1.5-1.5
	c7.5-4.3,15.8-6.1,24.2-7.7c1.1-0.2,2.5,0.7,3.7,1.1c-0.7,0.7-1.3,1.7-2.2,2.1C1157.6,279.8,1154.9,280.8,1152.1,282.1z"/>
<path class="st0" d="M1115.9,699.4c4,2.6,7.6,5.1,11.1,7.7c0.9,0.7,1.6,1.6,2.4,2.4c-1.4,0.1-3,0.7-4.2,0.2c-3.1-1.2-6.2-2.6-9-4.3
	c-4.1-2.4-8-5-11.9-7.6c-0.9-0.6-1.4-1.9-2-2.9c1.2,0.1,2.4-0.2,3.4,0.2C1109,696.4,1112.2,697.9,1115.9,699.4z"/>
<path class="st0" d="M107.6,618.1c0.9,0,1.4-0.1,1.9,0c0.9,0.3,1.8,0.7,2.6,1.1c-0.7,0.7-1.3,1.6-2.1,2c-7.6,3-15.1,6.6-23.6,6.2
	c-1.2-0.1-2.4-0.8-3.6-1.2c1-0.6,2-1.5,3.1-1.8c5.5-1.6,11-3.1,16.5-4.7C104,619.2,105.6,618.7,107.6,618.1z"/>
<path class="st0" d="M132.5,205.5c-5-1.7-9.3-4.2-12.7-8.1c-0.6-0.7-0.8-1.6-1.2-2.4c1.1-0.3,2.5-1.1,3.4-0.7
	c2.8,1.2,5.5,2.8,8.2,4.4c4.2,2.6,8.3,5.4,12.3,8.3c0.7,0.5,0.9,1.6,1.3,2.4c-1-0.1-2,0.1-2.8-0.2
	C138.1,208.1,135.4,206.8,132.5,205.5z"/>
<path class="st0" d="M70.4,460.3c3,0.5,5.6,1,8.2,1.6c0.7,0.2,1.2,1,1.8,1.5c-0.6,0.5-1.2,1.3-1.9,1.5c-1.9,0.4-3.9,0.7-5.8,0.8
	c-4,0.3-8,0.7-12,0.7c-1.4,0-2.8-1.2-4.2-1.8c0.9-0.9,1.6-2.4,2.6-2.6C62.7,461.2,66.4,460.8,70.4,460.3z"/>
<path class="st0" d="M190.4,540c4.3-0.8,8.2-1.7,12.2-2.2c1-0.1,2.2,1,3.3,1.5c-0.9,0.5-1.7,1.2-2.6,1.5c-6,1.9-12,3.6-18.4,3.2
	c-1.8-0.1-3.7,1-5.5,1.4c-1.2,0.3-2.3,0.6-3.5,0.7c-0.5,0-1-0.6-1.5-1c0.4-0.4,0.7-1.1,1.1-1.3c3.4-1.2,6.3-3.9,10.3-3.2
	C187,540.9,188.5,540.2,190.4,540z"/>
<path class="st0" d="M1061.2,358.3c2.6-0.2,5.1-0.2,7.5-0.1c0.5,0,1,0.6,1.6,0.9c-0.5,0.4-1,1.2-1.6,1.3c-7.2,1.7-14.3,3.3-21.5,5
	c-0.7,0.2-1.4,0.5-2.1,0.5c-1.7-0.1-3.3-0.4-5-0.6c1.5-1.3,2.9-3.3,4.7-3.8c3.4-1,7-1.1,10.5-1.7
	C1057.2,359.3,1059.1,358.9,1061.2,358.3z"/>
<path class="st0" d="M1010.5,43c1.5-0.4,2.8-0.7,4.1-0.9c-0.2,1.1-0.4,2.3-0.5,3.4c-0.6,5.3-5.3,7.4-8.4,10.7
	c-1.1,1.1-2.4,2.2-3.8,3c-0.8,0.5-1.9,0.4-2.9,0.6c0-1.1-0.4-2.5,0.1-3.1C1002.8,52.1,1006.5,47.7,1010.5,43z"/>
<path class="st0" d="M89,466.5c-3-0.6-2.9-2.1-1-3.2c3.1-1.8,6.2-4.1,10.4-2.4c2.9,1.2,6.3,1.6,9.4,2.4c0.5,0.1,0.9,0.8,1.3,1.2
	c-0.3,0.4-0.7,1-1.1,1.1c-4.9,0.6-9.8,1.2-14.8,1.5C92,467.3,90.7,466.7,89,466.5z"/>
<path class="st0" d="M868.5,79.7c-2.9,4.5-5.6,8.8-8.4,13c-0.5,0.7-1.6,1-2.4,1.4c-0.2-1.1-0.8-2.4-0.4-3.1
	c1.9-3.7,3.9-7.4,6.2-10.9c2.1-3.1,4.6-5.8,7-8.6c0.6-0.7,1.6-1,2.4-1.5c0,1.1,0.3,2.4-0.2,3.2C871.6,75.4,870.1,77.4,868.5,79.7z"
	/>
<path class="st0" d="M992.1,696.3c-3.3-2.2-6.3-4.3-9.2-6.6c-0.9-0.7-1.4-1.8-2.1-2.6c1.5-0.1,3.3-0.9,4.4-0.2
	c4.3,2.5,8.3,5.5,12.4,8.3c2.4,1.6,4.8,3.2,7.2,4.9c0.5,0.4,0.9,1.1,1.3,1.7c-0.6,0.2-1.4,0.8-1.8,0.6c-2.8-1.2-5.7-2.5-8.4-3.8
	C994.6,698,993.6,697.1,992.1,696.3z"/>
<path class="st0" d="M529.3,6.8c2.7-1.7,2.8,0.6,3.1,2c1.5,7.3,3,14.7,4.3,22.1c0.2,0.9-0.5,1.9-0.7,2.9c-0.8-0.5-2.1-0.8-2.3-1.5
	c-0.7-1.9-0.8-4-1.5-5.9C530,20.1,529.1,13.8,529.3,6.8z"/>
<path class="st0" d="M252.5,211.7c-3.3-2.6-6.5-4.9-9.6-7.3c-0.5-0.4-0.7-1.2-1-1.9c0.7,0,1.6-0.3,2.1,0c4.1,2.2,8.3,4.3,12.2,6.8
	c3.1,1.9,6,4.3,8.8,6.5c0.5,0.4,0.6,1.4,0.9,2.1c-1,0.2-2.2,0.8-2.9,0.4C259.5,216.3,256.1,214,252.5,211.7z"/>
<path class="st0" d="M1170.1,438.6c4.9-0.6,9.4-1.3,13.9-1.9c1.3-0.2,2.8,0,4.1,0.4c0.6,0.2,1.2,1.3,1.2,2c0,0.6-0.9,1.5-1.5,1.7
	c-6.2,1.7-12.4,2.5-18.8,0.9c-0.6-0.1-1.3,0.1-1.9-0.1c-0.9-0.3-1.6-0.8-2.5-1.2c0.9-0.6,1.7-1.4,2.7-1.8
	C1168,438.4,1168.9,438.6,1170.1,438.6z"/>
<path class="st0" d="M73.7,628c2.4,2.1,3.3,3.3-0.7,4.3c-4.6,1.1-8.9,3.4-13.4,4.6c-1.8,0.5-4-0.3-6-0.5c1.2-1.1,2.2-2.7,3.7-3.2
	C62.7,631.6,67.2,626.9,73.7,628z"/>
<path class="st0" d="M1043.9,288.5c1.1-0.5,1.8-1.3,2.5-1.3c1.4,0,2.8,0.4,4.2,0.6c-0.5,1-0.8,2.3-1.7,2.9c-2.6,1.7-5.2,3.4-8,4.7
	c-3.2,1.5-6.6,2.8-9.9,3.8c-0.9,0.3-2.2-0.4-3.3-0.6c0.6-0.8,1-1.9,1.8-2.3C1034.1,293.6,1038.8,291.1,1043.9,288.5z"/>
<path class="st0" d="M255.2,833.1c4-3.4,7.7-6.7,11.6-9.8c0.3-0.3,1.6,0.4,2.2,0.9c0.2,0.1-0.1,1.3-0.5,1.8
	c-3.9,4.5-7.7,8.9-11.7,13.3c-0.7,0.8-1.8,1.1-2.6,1.7c-0.4-1.1-1.1-2.3-0.9-3.4C253.4,836,254.3,834.7,255.2,833.1z"/>
<path class="st0" d="M1019.2,632.1c-0.8-0.5-1.2-0.9-1.5-1.4c0.4-0.3,0.8-0.8,1.2-0.9c0.9-0.1,1.9-0.3,2.7,0
	c5.6,1.7,11.1,3.6,16.6,5.4c0.6,0.2,1.2,0.4,1.5,0.8c0.5,0.8,1.3,1.9,1,2.5c-0.2,0.6-1.6,1.3-2.4,1.2c-2.5-0.4-5.1-0.8-7.3-1.8
	C1027.1,636.2,1023.3,634.1,1019.2,632.1z"/>
<path class="st0" d="M214.9,64.2c-0.8-1.2-1.3-2.2-1.9-3.1c1.3-0.1,2.8-0.6,3.9-0.2c6.2,2.3,10.1,7.2,13.6,12.6
	c0.4,0.6,0.1,1.6,0.1,2.4c-0.7-0.1-1.6,0-2.1-0.4C224.1,71.9,219.6,68.2,214.9,64.2z"/>
<path class="st0" d="M228.1,275.1c-4.9-1.4-9.6-3.1-14.4-4.7c-2.4-0.8-4.8-1.5-7-2.5c-0.8-0.4-1.1-1.8-1.6-2.7
	c0.9-0.2,1.7-0.7,2.6-0.7c8,0,14.2,4.6,20.8,8.4C228.7,273,228.4,274.2,228.1,275.1z"/>
<path class="st0" d="M242.4,845.8c1.6-0.6,3-1,4.4-1.4c-0.6,1.4-1,3-1.9,4.2c-3.3,4.1-6.8,8-10.4,11.9c-0.5,0.6-1.4,0.8-2.1,1.2
	c-0.4-0.9-1.2-1.9-1-2.6c0.8-2.4,1.5-5,3-6.8C236.7,849.9,239.6,848.1,242.4,845.8z"/>
<path class="st0" d="M237.4,88.2c-2-1.7-4.3-3.9-2.7-5.8c1.6-1.8,4.4-0.4,6.1,1.5c3.1,3.5,6.2,7.1,9.1,10.8c0.4,0.5-0.4,2-0.7,3.1
	c-0.6-0.4-1.3-0.7-1.9-1.2C244,93.9,240.8,91.1,237.4,88.2z"/>
<path class="st0" d="M1177.8,269.1c4.4-0.8,8.5-1.6,12.6-2.3c0.4-0.1,1.2,0.4,1.3,0.8c0.1,0.4-0.3,1.4-0.6,1.4
	c-5.8,1.4-10.3,6.7-16.8,6.2c-1.2-0.1-2.3-0.9-3.5-1.4c0.9-1.1,1.6-2.4,2.6-3.1C1174.6,269.9,1176.1,269.6,1177.8,269.1z"/>
<path class="st0" d="M1032.5,840.8c0.4,3.3-0.9,4.5-3.2,2.8c-4.5-3.4-8.6-7.3-12.7-11.1c-0.5-0.5,0-2.2,0-3.3c0.9,0.3,2,0.3,2.7,0.8
	C1023.7,833.5,1028,837.1,1032.5,840.8z"/>
<path class="st0" d="M986.1,75.1c-2.3,1.4-4.3,2.6-6.5,3.6c-0.5,0.3-1.4-0.2-2.2-0.3c0.3-0.6,0.6-1.3,1-1.9
	c3.1-3.9,6.1-7.8,9.3-11.6c0.8-0.9,1.9-1.7,3-2.1c0.5-0.2,1.5,0.4,2.1,0.8c0.3,0.2,0.5,1,0.3,1.3C990.8,68.3,988.6,71.6,986.1,75.1z
	"/>
<path class="st0" d="M205.3,612.9c-2.6,1.1-5,2.3-7.6,2.8c-1.4,0.3-2.9-0.9-1.2-2.5c2.1-1.9,4.2-3.9,6.7-5c3-1.4,6.4-2,9.6-2.8
	c0.9-0.2,2-0.4,2.9-0.3c0.8,0.1,1.5,0.6,2.3,0.9c-0.6,0.7-1.1,1.7-1.8,2.1C212.7,609.7,209,611.2,205.3,612.9z"/>
<path class="st0" d="M995.8,806.8c6.9,2.7,11.8,7.8,16.4,13.2c0.3,0.4,0.4,1.7,0.3,1.7c-1,0.3-2.4,0.9-3.1,0.5
	c-4.7-3-9.9-5.5-12.2-11.3C996.7,809.6,996.1,808.3,995.8,806.8z"/>
<path class="st0" d="M1149.9,436.3c3,0,5.5-0.2,8.1,0.1c0.9,0.1,1.8,1.2,2.7,1.8c-0.7,0.5-1.3,0.9-2.1,1.4
	c-5.5,3.4-11.7,1.9-17.6,2.1c-0.9,0-1.8-1.2-2.7-1.8c1-0.7,1.9-1.6,3-1.9C1144,437.2,1146.8,436.8,1149.9,436.3z"/>
<path class="st0" d="M1088.8,659.1c2.2,1.1,4.2,2.1,5.9,3.3c0.5,0.3,1,1.4,0.8,1.8c-0.2,0.5-1.2,1.1-1.8,1.1
	c-6.3-0.6-12.4-2-17.5-5.9c-0.5-0.4-0.8-1.1-1.2-1.6c0.7-0.3,1.3-0.8,1.9-0.9C1081.1,656.3,1084.9,657.2,1088.8,659.1z"/>
<path class="st0" d="M461.8,25.6c4.5,5.5,6.2,11.9,7.9,18.2c0.2,0.7-0.3,1.6-0.4,2.5c-0.8-0.6-1.9-1-2.3-1.7c-2.8-5-5.4-10.1-8-15.2
	c-0.2-0.3,0.1-0.8,0-1.1c-0.3-1-0.6-2-1-3C459.1,25.2,460.4,25.3,461.8,25.6z"/>
<path class="st0" d="M1129.2,414c5.2-1.2,10.1-2.4,15.1-3.1c1-0.1,2.2,1.7,3.3,2.7c-1.2,1.1-2.3,3.1-3.6,3.2
	c-4.6,0.4-9.2,0.3-13.8,0.1C1128.6,416.8,1127.4,416,1129.2,414z"/>
<path class="st0" d="M804,42.4c0.8-2.7,1.5-5.2,2.5-7.4c0.3-0.6,1.9-1.2,2.5-0.9c0.6,0.3,1.3,1.8,1.1,2.4c-2.2,6-4.5,12-7,17.9
	c-0.4,0.9-1.7,1.3-2.5,1.9c0-1-0.3-2.1-0.1-3.1C801.6,49.7,802.9,46.3,804,42.4z"/>
<path class="st0" d="M182.6,460.3c3.2,0,6-0.1,8.8,0.1c0.9,0.1,1.8,0.9,2.8,1.3c-0.8,0.6-1.6,1.5-2.4,1.7
	c-5.3,0.6-10.6,1.1-15.9,1.6c-1.5,0.1-3,0.3-4.4,0c-0.8-0.2-1.4-1.3-2.1-2.1c0.8-0.6,1.5-1.6,2.3-1.7
	C175.3,460.7,178.8,460.5,182.6,460.3z"/>
<path class="st0" d="M160,245.3c-2.8-1.5-5.4-2.7-7.9-4.1c-0.6-0.3-0.7-1.4-1.1-2.1c0.8-0.3,1.7-1.1,2.3-0.9
	c3.9,1.1,7.8,2.3,11.7,3.6c1.6,0.5,3.3,1,4.6,1.8c0.7,0.5,0.9,1.8,1.3,2.7c-0.9,0.4-1.8,1.1-2.6,1
	C165.6,246.9,162.9,246.2,160,245.3z"/>
<path class="st0" d="M102.9,189.4c-2.7-1.3-5-2.5-7.2-3.9c-1.2-0.8-2.4-1.7-3.5-2.7c-0.4-0.4-0.7-1.3-0.5-1.8c0.1-0.4,1-1,1.5-0.9
	c6.1,1.2,11.8,3.4,16.4,7.8c0.6,0.6,0.5,2.1,0.7,3.1c-1,0-2,0.2-2.9-0.1C105.9,190.6,104.6,190,102.9,189.4z"/>
<path class="st0" d="M1139.9,713.3c5.2,2.6,10.1,5.1,14.9,7.8c0.5,0.3,0.8,0.8,1.2,1.3c-0.6,0.3-1.3,1.1-1.9,1
	c-6.5-0.8-12.8-2.1-17.4-7.4c-0.4-0.5-0.5-1.3-0.7-2C1137.2,713.7,1138.3,713.5,1139.9,713.3z"/>
<path class="st0" d="M138.7,635c2.5-4.7,7.4-5.8,11.5-8c1.8-0.9,3.8-1.4,5.8-1.8c0.7-0.1,1.6,0.4,2.3,0.8c0.1,0-0.2,1-0.4,1.4
	c-1.4,2.6-14.6,9.6-18.4,8.3C139.2,635.6,139.1,635.3,138.7,635z"/>
<path class="st0" d="M201.8,747.9c-2.3,1-4.4,1.9-6.6,2.4c-0.7,0.2-1.9-0.5-2.4-1.2c-0.3-0.4,0.2-1.8,0.8-2.2
	c2.1-1.6,4.3-3.1,6.6-4.3c2.4-1.2,5-2.1,7.6-2.9c0.7-0.2,1.7,0.7,2.6,1c-0.6,0.7-1,1.4-1.7,2C206.5,744.4,204.2,746.1,201.8,747.9z"
	/>
<path class="st0" d="M161.9,655.5c-3.6,1.4-6.9,2.6-10.4,3.6c-0.6,0.2-1.5-0.4-2.2-0.6c0.3-1,0.4-2.7,1.1-2.9
	c5.5-2.3,11.1-4.4,16.7-6.4c0.6-0.2,1.6,0.3,2.4,0.5c-0.5,0.7-0.8,1.6-1.5,2.1C166.1,653,164.1,654.1,161.9,655.5z"/>
<path class="st0" d="M832.9-18.6c1.6-1.2,3.3-2,2.8,0.8c-0.6,3.5-1.5,7-2.6,10.5c-0.6,1.9-1.5,3.7-2.4,5.5c-0.4,0.8-1.1,1.5-1.6,2.3
	c-0.5-0.8-1.5-1.6-1.5-2.4c-0.1-1.9-0.1-3.9,0.5-5.7C829.4-11.3,831.1-14.8,832.9-18.6z"/>
<path class="st0" d="M1043.3,155.6c2.3-1,4.4-1.9,6.6-2.4c0.9-0.2,2.3,0.2,2.9,0.9c0.4,0.4-0.1,2.3-0.8,2.7
	c-2.2,1.6-4.7,2.9-7.1,4.1c-2.1,1.1-4.2,2.1-6.5,2.9c-0.8,0.3-1.8,0-2.8,0c0.3-1.1,0.3-2.5,1.1-3.1
	C1038.8,158.9,1041,157.4,1043.3,155.6z"/>
<path class="st0" d="M1093.5,244.4c1.5,0.8,2.7,1.5,3.9,2.3c-1,0.7-2,1.5-3.1,2c-4.1,1.6-8.2,3.1-12.3,4.6c-1,0.4-2.2,0.5-3.3,0.4
	c-0.7,0-1.3-0.6-1.9-0.9c0.5-0.5,1-1,1.6-1.4C1082.9,248.2,1087.5,245.3,1093.5,244.4z"/>
<path class="st0" d="M313.2,848.5c-0.9,0.7-1.5,1.5-2.3,1.7c-1,0.3-2.1,0.1-3.2,0.2c0.1-1.1-0.2-2.6,0.3-3.3
	c3.3-3.9,6.8-7.7,10.3-11.4c0.5-0.6,1.9-0.3,2.8-0.5c-0.2,0.9-0.1,1.9-0.5,2.6C318.3,841.4,315.8,844.9,313.2,848.5z"/>
<path class="st0" d="M1093.5,639c-2.9-1.5-5.4-2.9-7.8-4.4c-0.5-0.3-0.8-1.1-1.2-1.6c0.6-0.3,1.3-0.9,1.9-0.9
	c6.5,0.4,12.1,3.1,17.3,6.7c0.5,0.3,0.6,1.6,0.5,2.3c-0.1,0.4-1.3,1-1.8,0.9C1099.4,641.1,1096.7,640,1093.5,639z"/>
<path class="st0" d="M1090.6,274c4.5-2.5,8.8-4.9,13.3-6.9c0.7-0.3,2.1,0.8,3.1,1.3c-0.3,0.6-0.5,1.6-1.1,1.9
	c-4.3,2.5-8.7,5.1-13.2,7.4c-0.8,0.4-2.3-0.4-3.5-0.7C1089.6,275.9,1090,275.1,1090.6,274z"/>
<path class="st0" d="M143.4,261.6c6.6,2.6,13,5.5,19.3,8.4c0.3,0.1,0.6,1.1,0.5,1.1c-0.7,0.4-1.6,1.3-2.2,1.1
	c-5.8-1.9-11.7-3.9-17.4-6.2C142.1,265.3,140.9,263.5,143.4,261.6z"/>
<path class="st0" d="M1110.5,392.2c5.2-0.5,10-1.1,14.8-1.5c1-0.1,2,0.7,3,1.1c-0.7,0.7-1.4,1.9-2.2,2c-6,0.8-12,1.5-18.1,2.1
	c-0.7,0.1-1.5-1-2.2-1.5c0.6-0.5,1.2-1.1,1.9-1.4C1108.5,392.6,1109.3,392.4,1110.5,392.2z"/>
<path class="st0" d="M948.2,764.2c-4.4-4.4-8.5-8.5-12.6-12.7c-0.6-0.6-0.7-1.7-1-2.6c1,0.3,2.2,0.2,2.9,0.8
	c4.4,3.7,8.8,7.5,13,11.4c1,0.9,1.3,2.6,2,3.9C951,764.8,949.7,764.6,948.2,764.2z"/>
<path class="st0" d="M936.4,53.2c0.4,1.5,1.1,3.5,0.4,4.4c-3.1,3.8-6.6,7.4-10,10.9c-0.3,0.3-1.9-0.3-1.9-0.4
	c0.2-1.6,0.1-3.4,0.9-4.6c2.2-3.1,4.8-6.1,7.3-8.9C933.8,53.9,935,53.7,936.4,53.2z"/>
<path class="st0" d="M930.8,131.2c-3.1,2.8-5.9,5.5-8.9,8.1c-0.5,0.4-1.3,0.6-1.9,0.9c-0.1-0.9-0.6-2.1-0.1-2.6
	c4.3-5,8.6-9.9,13.1-14.7c0.6-0.6,2-0.5,3.1-0.7c-0.1,1,0,2.2-0.5,3C934.2,127.2,932.5,129.1,930.8,131.2z"/>
<path class="st0" d="M1119.2,538.6c5.7,1.1,11.3,2.3,16.7,3.8c1,0.3,1.6,1.9,2.4,2.9c-1.1,0.3-2.1,0.7-3.2,0.9
	c-5.3,0.8-9.6-2.1-14.2-4C1120,541.8,1119.6,540,1119.2,538.6z"/>
<path class="st0" d="M152.3,532c-3.7,0.5-7.1,0.8-10.6,0.9c-0.7,0-1.5-0.7-2.2-1c0.4-0.7,0.6-1.7,1.2-2.1c4.9-3.3,10.5-3,16-2.9
	c0.1,0,0.6,2.3,0.3,2.6C155.6,530.6,153.9,531.1,152.3,532z"/>
<path class="st0" d="M1008.9,754.5c4,2.7,7.9,5.2,11.6,7.9c0.9,0.6,1,2.2,1.5,3.4c-1.4,0.2-3.3,1.2-4.1,0.6
	c-4.1-3.1-7.9-6.6-11.7-10c-0.5-0.4-0.1-1.7-0.2-2.5C1007,754,1007.8,754.2,1008.9,754.5z"/>
<path class="st0" d="M1100.2,375.7c-3,0.5-5.9,0.8-8.8,0.9c-0.9,0-1.8-0.7-2.6-1.1c0.4-0.7,0.7-1.7,1.3-2.1
	c4.3-3.1,9.2-3.7,14.3-3.6c0.7,0,2,1.6,2,2.3c0,0.8-1.3,1.7-2.3,2.1C1103,374.9,1101.7,375.1,1100.2,375.7z"/>
<path class="st0" d="M915.3,868.3c2.4,3.6,4.6,7.1,6.6,10.6c0.3,0.5-0.4,1.9-0.9,2.6c-0.2,0.3-1.4,0-2-0.3c-5.4-2.8-5.2-9.1-8-13.5
	c-0.2-0.2,0.9-1.2,1.4-1.9C913.2,866.5,914.1,867.3,915.3,868.3z"/>
<path class="st0" d="M132.3,512.1c-3,0.5-5.6,1-8.2,1.5c-0.4,0.1-0.9,0.2-1.1,0c-1.3-0.9-2.5-1.9-3.8-2.8c1-0.7,2-1.9,3-2
	c4.7-0.4,9.5-0.5,14.2-0.5c0.7,0,1.4,1,2.2,1.5c-0.9,0.5-1.7,1.1-2.7,1.5C134.9,511.7,133.8,511.9,132.3,512.1z"/>
<path class="st0" d="M950.1,165.2c4-3.4,7.8-6.7,11.7-9.8c0.6-0.5,1.8-0.1,2.8-0.1c-0.2,1,0,2.3-0.6,2.9c-4,3.7-8,7.2-12.2,10.6
	c-0.5,0.4-1.7-0.1-2.6-0.2C949.4,167.6,949.7,166.5,950.1,165.2z"/>
<path class="st0" d="M224.6,169.1c0.1-4,1.3-4.7,4.3-2.7c3.1,2.1,6.2,4.3,9,6.8c0.8,0.7,0.5,2.5,0.8,3.8c-1.1-0.1-2.4,0.2-3.1-0.3
	C231.9,174.4,228.4,171.8,224.6,169.1z"/>
<path class="st0" d="M187.1,418.7c0.4,0.3,0.6,0.5,0.8,0.6c2.1,0.7,4.1,1.4,6.2,2.1c-2.1,0.6-4.1,1.7-6.2,1.7
	c-4.1,0.1-8.3-0.3-12.4-0.8c-0.8-0.1-1.4-1.5-2.2-2.3c0.9-0.8,1.8-2.1,2.7-2.1C179.6,417.8,183.3,418.2,187.1,418.7z"/>
<path class="st0" d="M307,148.6c1.5,1.7,2.8,3.2,4,4.8c0.4,0.5,0.6,1,0.8,1.6c-0.7,0.1-1.5,0.4-2.1,0.2c-1.2-0.5-2.4-1.2-3.3-2.1
	c-4.1-3.8-8.1-7.7-12.1-11.7c-0.5-0.5-0.4-1.6-0.5-2.4c1.1,0.2,2.4-0.1,3.1,0.5C300.4,142.3,303.6,145.4,307,148.6z"/>
<path class="st0" d="M906.2,54c1,1,2.3,2.4,2,2.8c-2.5,4.1-5.3,8.1-8.1,12.1c-0.2,0.3-1.2,0.5-1.2,0.4c-0.5-0.7-1-1.4-1.1-2.2
	c-0.8-4.6,2.7-7.4,4.9-10.7C903.3,55.4,904.7,54.8,906.2,54z"/>
<path class="st0" d="M1008.1,731.3c-0.6-0.8-0.8-1.5-1.3-2c-1.9-2.1-0.2-2.8,1.3-2.7c1.6,0.1,3.2,0.9,4.6,1.7
	c2.5,1.5,4.9,3.1,7.2,4.9c0.8,0.6,0.9,2,1.3,3.1c-1.3,0.3-2.8,1.3-3.8,0.9c-2.4-1-4.6-2.7-6.8-4.1
	C1009.9,732.6,1009.1,732,1008.1,731.3z"/>
<path class="st0" d="M954.2,66.4c2.6-4,5.1-7.8,8-11.3c0.9-1,3.1-0.9,4.6-1.3c-0.3,1.7,0,3.8-0.9,4.9c-2.8,3.3-6,6.3-9.1,9.2
	C955.2,69.4,954,69.3,954.2,66.4z"/>
<path class="st0" d="M333.5,33.9c0.3,1.1,0.8,1.7,0.7,2.4c-0.1,0.9-0.5,1.8-0.8,2.7c-0.7-0.5-1.7-0.9-2.1-1.6c-2.4-3.6-4.9-7.2-7-11
	c-0.5-1,0.1-2.6,0.1-3.9c1.3,0.4,3.3,0.4,3.8,1.2C330.3,26.8,331.8,30.2,333.5,33.9z"/>
<path class="st0" d="M225,108c1.7,0,3.6-0.3,4.6,0.5c3.2,2.7,6.1,5.8,9,9c0.4,0.5,0,1.7-0.1,2.6c-0.7-0.1-1.6,0.1-2.1-0.3
	c-3.6-2.5-7.3-4.9-10.7-7.7C224.9,111.3,225.1,109.5,225,108z"/>
<path class="st0" d="M106,486.6c3.6,0.3,6.9,0.4,10.1,0.8c1,0.1,2,0.7,3,1.1c-0.8,0.5-1.5,1.5-2.3,1.6c-5,0.7-10,1.5-15.1,1.8
	c-1.1,0.1-2.3-1.4-3.5-2.2c1.1-0.8,2.2-1.8,3.4-2.3C102.9,486.9,104.3,486.8,106,486.6z"/>
<path class="st0" d="M116.9,358.1c3,1,5.7,2,8.3,3.1c0.7,0.3,1.2,1.1,1.7,1.6c-0.6,0.5-1.4,1.5-1.9,1.4c-5-1-10.5,0.6-14.9-3
	c-0.7-0.6-1.2-1.3-1.8-1.9c0.9-0.6,1.8-1.8,2.7-1.8C112.8,357.4,114.7,357.9,116.9,358.1z"/>
<path class="st0" d="M1057.9,439.4c6.2-0.3,12-0.6,17.8-0.7c0.8,0,1.5,1.1,2.3,1.8c-0.7,0.4-1.4,1.2-2.1,1.2
	c-5.9,0.3-11.9,0.7-17.8,0.7c-1.1,0-2.2-1.2-3.3-1.9C1055.7,440.1,1056.6,439.7,1057.9,439.4z"/>
<path class="st0" d="M226.9,142.8c-0.8-1.6-1.5-3-2.1-4.5c1.7,0.1,3.8-0.4,4.9,0.5c3.5,2.7,6.6,5.8,9.8,8.9c0.4,0.4,0.2,1.7-0.2,2.2
	c-0.2,0.3-1.5,0.4-2,0C233.9,147.7,230.5,145.3,226.9,142.8z"/>
<path class="st0" d="M285.7,838.9c1.6-1.6,2.9-3,4.3-4.2c0.5-0.4,1.4-0.4,2-0.6c0.1,0.7,0.5,1.6,0.3,2c-3.1,4.5-6.2,9-9.5,13.3
	c-0.5,0.7-2.3,0.3-3.6,0.4c0-1.2-0.4-2.8,0.2-3.6C281.2,843.6,283.5,841.4,285.7,838.9z"/>
<path class="st0" d="M284.6,741.8c3.5-2.5,6.7-4.8,10.1-6.9c0.6-0.4,1.5-0.3,2.3-0.4c0,0.6,0.3,1.5,0,1.8c-4,3.8-8.1,7.5-12.3,11.1
	c-0.7,0.6-2.3,0-3.5,0c0.4-1.1,0.7-2.4,1.3-3.4C283,743.1,283.8,742.6,284.6,741.8z"/>
<path class="st0" d="M311.1,776.8c3.4-4,6.6-7.7,10.1-11.2c0.9-0.9,2.2-1.4,3.4-1.9c0.4-0.1,1.1,0.4,1.5,0.8
	c0.1,0.1-0.2,0.9-0.5,1.3c-4.1,4.6-8.1,9.2-12.3,13.7c-0.7,0.8-2.1,1-3.2,1.4C310.5,779.6,310.8,778.4,311.1,776.8z"/>
<path class="st0" d="M1016.1,788.4c1.4,0.7,2.5,1.3,3.3,2.2c1.4,1.4,3.4,3,1.4,4.9c-1.9,1.8-4.3,0.6-5.9-1c-2.5-2.5-4.8-5.2-7.1-7.8
	c-0.6-0.6-0.9-1.4-1.4-2.2c1.1-0.2,2.5-0.8,3.3-0.4C1011.9,785.3,1013.7,786.9,1016.1,788.4z"/>
<path class="st0" d="M125.9,559.1c-0.3,0.2-0.5,0.2-0.6,0.2c-1.7-0.3-4.4,2-4.9-1c-0.2-0.9,2.8-2.8,4.7-3.6c2.8-1.3,5.8-2.3,8.9-2.8
	c1.4-0.2,3,1,4.5,1.5c-0.9,0.9-1.6,2.2-2.7,2.6C132.7,557.3,129.4,558,125.9,559.1z"/>
<path class="st0" d="M1108.7,347.9c4.5-1.4,8.9-2.8,13.3-3.9c1.1-0.3,2.5,0.7,3.7,1.1c-0.7,0.9-1.3,2.2-2.2,2.6
	c-4.5,2.1-9.2,3.8-14.4,2.7C1107.4,350,1107,349.3,1108.7,347.9z"/>
<path class="st0" d="M190.9,641.9c-3,1.2-5.8,2.2-8.6,3.2c-1.7,0.6-2.5-0.2-2-1.8c0.3-1,1-2.2,1.9-2.6c3.7-1.6,7.5-3,11.2-4.4
	c0.7-0.2,1.5-0.5,2.1-0.3c1.1,0.3,2.2,0.8,3.2,1.2c-0.8,0.9-1.4,2-2.4,2.5C194.8,640.6,192.9,641.1,190.9,641.9z"/>
<path class="st0" d="M613.1,5.8c0.1,5.3,0,10.4-0.2,15.6c0,0.5-0.6,1-1,1.5c-0.4-0.5-1.2-0.9-1.3-1.5c-0.4-2.5-0.7-4.9-0.8-7.4
	c-0.1-4.4-0.2-8.8,0.1-13.1c0.1-1.1,1.2-2.2,1.9-3.3c0.4,1,0.9,2,1,3C613,2.3,612.9,4,613.1,5.8z"/>
<path class="st0" d="M652.9,2.7c1.1-0.6,1.9-1,2.8-1.4c0.2,0.8,0.5,1.6,0.5,2.4c-0.2,4.5-0.3,9-0.8,13.5c-0.1,1.2-1.4,2.3-2.2,3.5
	c-0.5-1.2-1.5-2.5-1.5-3.7C651.8,12.3,652.4,7.6,652.9,2.7z"/>
<path class="st0" d="M265.6,763c-2.3,1.9-4.4,3.6-6.6,5.2c-0.6,0.4-1.6,0.1-2.4,0.1c0.2-0.7,0.1-1.6,0.5-2.1
	c3.4-3.5,6.8-7.1,10.4-10.3c1-0.9,2.9-0.6,4.4-0.9c-0.5,1.3-0.7,2.9-1.6,3.9C269.1,760.5,267.3,761.6,265.6,763z"/>
<path class="st0" d="M344.9,844.7c-1.9,1.9-3.5,3.7-5.4,5.2c-0.4,0.4-1.9,0-2.5-0.5c-0.4-0.3-0.3-1.7,0-2.2c2.3-3.7,4.6-7.3,7-10.9
	c0.3-0.5,1.6-1.1,1.8-0.9c0.6,0.6,1.4,1.6,1.3,2.3C346.7,840,345.9,842.2,344.9,844.7z"/>
<path class="st0" d="M980.3,139.7c2-1.5,3.7-2.9,5.6-3.9c0.8-0.4,2.1-0.1,3.1-0.1c-0.4,0.9-0.5,2-1.1,2.6c-3.6,3.5-7.3,7-11.2,10.4
	c-0.6,0.6-1.9,0.4-2.9,0.5c-0.1-1.2-0.7-2.8-0.1-3.4C975.6,143.6,977.9,141.8,980.3,139.7z"/>
<path class="st0" d="M139.9,438.4c-5,1-9.8,1.9-14.7,2.4c-0.9,0.1-2-1.7-2.9-2.6c1-0.6,2-1.7,3.1-1.8c4.3-0.2,8.6-0.2,12.8,0
	C138.8,436.4,139.4,437.6,139.9,438.4z"/>
<path class="st0" d="M1052.6,261.6c3.9-1,7.5-1.8,11.2-2.5c0.8-0.1,1.7,0.4,2.6,0.7c-0.7,0.6-1.3,1.3-2.1,1.7
	c-4.1,1.8-8.2,3.7-12.5,5.2c-1.1,0.4-2.6-0.1-3.9-0.1c0.7-1.3,1.3-2.8,2.2-3.9C1050.6,262.1,1051.7,262,1052.6,261.6z"/>
<path class="st0" d="M1025.6,609c5.5-0.4,10.5,1.2,15,3.8c0.9,0.5,1.2,2,1.8,3.1c-0.9,0.2-1.8,0.9-2.6,0.7
	c-4.3-1.3-8.6-2.6-12.8-4.2C1026.2,612,1025.9,610.3,1025.6,609z"/>
<path class="st0" d="M206.4,178c0.9,0.7,1.7,1.3,2.4,1.8c-0.9,0.4-1.9,1.2-2.6,1c-2.9-0.9-5.8-2-8.7-3.2c-1.5-0.7-3-1.6-4.2-2.7
	c-0.7-0.7-0.8-2.1-1.2-3.1c1.1-0.2,2.6-1.1,3.3-0.6C199.2,173.2,202.7,175.5,206.4,178z"/>
<path class="st0" d="M1085.7,485.8c2-3.4,5-2.3,7.7-2.3c3.1,0,6.2,0.3,9.3,0.8c1.1,0.2,2.1,1.1,3.2,1.7c-1.1,0.5-2.1,1.2-3.2,1.3
	c-3.7,0.4-7.5,0.8-11.2,0.7C1089.5,488,1087.6,486.8,1085.7,485.8z"/>
<path class="st0" d="M144.9,419.1c-0.8-1.1-1.5-2-2.1-2.9c1.1-0.3,2.1-0.7,3.2-0.7c4.3,0.2,8.6,0.3,12.8,0.8c1.1,0.1,2,1.5,3,2.3
	c-1.2,0.5-2.3,1.4-3.5,1.4C153.9,419.9,149.5,419.5,144.9,419.1z"/>
<path class="st0" d="M309.7,87.9c3.4,3.2,6.8,6.1,9.8,9.3c0.8,0.8,0.2,2.8,0.2,4.3c-1.2-0.4-2.9-0.4-3.6-1.2
	c-2.9-3.4-5.5-6.9-8-10.5C307.1,88.3,307,86.9,309.7,87.9z"/>
<path class="st0" d="M1059.6,621c4.3,2.2,8.3,4.2,12.4,6.2c0.5,0.3,0.9,0.8,1.4,1.3c-0.5,0.4-0.9,1.1-1.4,1.1c-1,0.1-2.1,0.2-3-0.2
	c-4.1-1.6-8.1-3.4-12.1-5.2c-1.5-0.7-3-1.8-1.8-3.5c0.4-0.6,2.2-0.3,3.4-0.3C1058.7,620.5,1059.1,620.7,1059.6,621z"/>
<path class="st0" d="M268.3,784.3c1.1-0.3,2-0.5,2.9-0.6c0,0.8,0.4,1.9,0,2.3c-3.2,3.6-6.4,7.1-9.7,10.5c-0.5,0.5-1.6,0.4-2.4,0.6
	c0-1-0.3-2.3,0.2-2.8C262.1,790.9,265.2,787.7,268.3,784.3z"/>
<path class="st0" d="M334.5,121.9c-2.5-2.9-4.9-5.6-7.1-8.4c-1.3-1.7-0.1-2.5,1.5-2.1c1.2,0.3,2.5,1.2,3.3,2.1
	c2.7,3.3,5.4,6.7,7.9,10.2c0.5,0.7,0.2,1.9,0.3,2.8c-0.8-0.4-1.7-0.6-2.4-1.2C336.8,124.3,335.8,123.2,334.5,121.9z"/>
<path class="st0" d="M1071.8,485c-5.9-0.3-11.5-0.5-17-0.8c-0.8,0-1.5-0.7-2.3-1c0.7-0.4,1.3-1.2,2-1.2c5.8-0.1,11.6-0.1,17.5,0
	c0.7,0,1.4,0.8,2.1,1.2C1073.5,483.8,1072.8,484.4,1071.8,485z"/>
<path class="st0" d="M792.4,13.8c1.8-3.5,3.5-6.6,5.5-9.6c0.3-0.5,1.5-0.5,2.3-0.7c0,0.8,0.2,1.7-0.1,2.5c-1.3,3.7-2.6,7.4-4.3,10.9
	c-0.6,1.3-2.3,2.2-3.6,3.1c-0.2,0.2-1.4-0.5-1.4-0.6C791.4,17.5,791.9,15.8,792.4,13.8z"/>
<path class="st0" d="M928.4,808.7c-1-1.3-1.9-2.3-2.6-3.4c-0.4-0.7-0.4-1.6-0.5-2.4c1-0.1,2.6-0.7,3-0.3c3.8,4,7.3,8.2,10.9,12.4
	c0.2,0.2-0.1,1.3-0.5,1.5c-0.5,0.2-1.4,0.3-1.8,0C934.1,814,931.4,811.4,928.4,808.7z"/>
<path class="st0" d="M432.6,19.9c-0.8-2.8-1.6-5.1-2.3-7.6c-0.1-0.5,0.5-1.6,0.8-1.6c0.6,0,1.7,0.3,1.9,0.8c2,4.4,4,8.9,5.7,13.5
	c0.2,0.6-0.6,1.7-1,2.6c-1.1-0.5-2.6-0.7-3.1-1.6C433.6,24.3,433.2,22.3,432.6,19.9z"/>
<path class="st0" d="M914.9,785.1c1.5,1.7,2.9,3.1,3.9,4.8c0.5,0.8,0,2.2-0.1,3.3c-0.9-0.3-2.1-0.3-2.6-0.8c-2.9-3-5.7-6.1-8.4-9.1
	c-0.6-0.6-1.2-1.4-1.3-2.1c-0.1-0.7,0.1-1.7,0.6-2.3c0.2-0.3,1.5,0,2,0.4C910.9,781,912.8,783,914.9,785.1z"/>
<path class="st0" d="M188.8,283.8c-4.6-2.2-8.9-4.3-13.1-6.5c-0.6-0.3-0.9-1.2-1.4-1.9c0.6-0.3,1.5-1,1.9-0.8
	c4.7,1.8,9.4,3.5,13.8,5.7C191.5,281,192.8,283.5,188.8,283.8z"/>
<path class="st0" d="M902.5,25.6c-2.5,3.8-4.7,7.3-7,10.9c-0.3,0.5-1.1,0.7-1.6,1c-0.3-0.7-0.7-1.3-0.8-2c-0.1-0.7-0.1-1.6,0.2-2.2
	c1.7-3.2,3.2-6.4,5.2-9.4c0.7-1.1,2.5-1.6,3.7-2.4C902.4,22.8,902.6,24.1,902.5,25.6z"/>
<path class="st0" d="M279.9,93.7c-0.3-0.3-0.4-0.4-0.5-0.5c-0.5-1.7-1-3.3-1.4-5c1.9,0.5,4.3,0.5,5.6,1.7c2.6,2.4,4.7,5.4,6.8,8.3
	c0.3,0.3-0.1,1.7-0.2,1.7c-1,0-2.1,0.1-2.9-0.4C284.9,97.7,282.5,95.7,279.9,93.7z"/>
<path class="st0" d="M1031.6,269.9c1.3,0.6,2.2,1.2,3.1,1.8c-1,1.2-1.7,2.9-3,3.5c-3.2,1.6-6.5,2.8-9.9,4c-0.7,0.2-1.6-0.1-2.4-0.2
	c0.3-0.7,0.4-1.7,0.9-2.1C1023.9,274.5,1027.5,272.2,1031.6,269.9z"/>
<path class="st0" d="M447.9,54.2c-2.4-3.7-4.7-7-6.6-10.6c-0.5-1,0.5-2.7,0.8-4.1c1,0.6,2.4,1,2.9,1.9c2.2,4,4.1,8,6,12.1
	c0.2,0.4-0.5,1.2-0.8,1.8C449.5,55,448.8,54.7,447.9,54.2z"/>
<path class="st0" d="M786.8,38.3c-1.4,3.2-2.5,6.2-3.8,9.1c-0.4,0.8-1.5,1.3-2.2,1.9c-0.2-0.9-0.9-1.8-0.7-2.6
	c1.1-4.2,2.3-8.3,3.7-12.3c0.3-0.9,1.8-1.4,2.8-2.1c0.2,1.3,0.5,2.6,0.6,4C787.3,36.9,787.1,37.5,786.8,38.3z"/>
<path class="st0" d="M974.5,117.6c3.4-3.9,6.5-7.6,9.7-11.2c0.3-0.3,1.5-0.3,1.7,0c0.5,0.5,0.9,1.8,0.7,2.1
	c-3.1,3.6-6.4,7.1-9.7,10.5C975.3,120.7,974.7,119.4,974.5,117.6z"/>
<path class="st0" d="M221.5,624.5c1.8,0.1,3.3,0.4,4.9,0.6c-1,1-1.9,2.3-3.1,3c-3.1,1.7-6.4,3.3-9.7,4.6c-0.7,0.3-2-0.6-3-1
	c0.7-0.9,1.2-2.2,2.1-2.7C215.5,627.4,218.4,626.1,221.5,624.5z"/>
<path class="st0" d="M1041,727.8c-0.6-1.3-1-2.5-1.4-3.6c1.3,0,2.8-0.4,3.9,0c3.1,1.2,6,2.7,8.9,4.3c0.9,0.5,1.4,1.6,2.1,2.4
	c-1,0.3-2.1,1.1-3,0.9c-2.3-0.5-4.5-1.4-6.7-2.2C1043.6,729.1,1042.4,728.5,1041,727.8z"/>
<path class="st0" d="M737.7,39.1c-1.8-5.3-0.8-10,1.8-14.5c0.4-0.7,2.1-1.5,2.3-1.3c0.8,0.9,2.1,2.3,1.8,3
	C741.9,30.7,739.8,35,737.7,39.1z"/>
<path class="st0" d="M1112.8,467.2c-0.5,0-0.7,0-0.8,0c-1.5-0.6-3.1-1.2-4.6-1.9c1.5-0.7,2.9-1.8,4.4-1.9c3.3-0.3,6.7-0.2,10.1,0
	c0.9,0,1.6,1,2.5,1.6c-1.1,0.7-2.1,2-3.2,2.1C1118.6,467.4,1115.9,467.2,1112.8,467.2z"/>
<path class="st0" d="M216.7,293.9c-4.4,0.1-8.3-0.3-11.3-3.3c-0.6-0.6-1.2-2.3-0.9-2.5c0.7-0.7,2.1-1.4,2.9-1.1
	c4.1,1.4,8.2,3.1,12.2,4.8c0.5,0.2,0.7,1,1,1.5C219.4,293.5,218.2,293.7,216.7,293.9z"/>
<path class="st0" d="M1045.5,572.5c-2.7-1.3-5.1-2.4-7.3-3.9c-0.7-0.4-0.8-1.7-1.3-2.5c1-0.1,2-0.4,3-0.2c1.9,0.3,3.8,1,5.7,1.2
	c2.4,0.2,5.2,0,5.2,3.3C1050.8,573.9,1047.6,571.9,1045.5,572.5z"/>
<path class="st0" d="M889,46.4c-0.6,5.2-4.1,8.4-7.5,11.6c-0.1,0.1-1.6-0.7-1.5-0.9c0.8-4.7,2.4-9,6.2-12
	C886.5,44.9,887.9,45.9,889,46.4z"/>
<path class="st0" d="M1117.6,489.5c0.4-1,0.9-2.5,1.5-2.5c4-0.2,8.1-0.2,12.1-0.1c0.8,0,1.6,1,2.4,1.6c-0.8,0.7-1.7,1.9-2.5,1.9
	C1126.7,490.3,1122.3,489.9,1117.6,489.5z"/>
<path class="st0" d="M244.3,663.6c0.7-0.5,1.2-0.9,1.8-1c1.3-0.1,2.5,0.1,3.8,0.1c-0.8,0.9-1.5,1.9-2.4,2.5c-2.8,2-5.5,4-8.5,5.7
	c-0.7,0.4-2.1-0.4-3.1-0.7c0.3-1,0.2-2.5,0.8-2.9C239.1,666,241.7,665,244.3,663.6z"/>
<path class="st0" d="M959,810.6c-0.7-1-1.4-1.7-1.8-2.6c-0.4-0.9-0.5-2-0.8-2.9c1.1,0.1,2.6-0.2,3.3,0.4c2.5,2.1,4.8,4.5,7.1,6.8
	c0.5,0.6,0.6,1.6,0.9,2.4c-1.1,0.2-2.6,0.8-3.3,0.4C962.5,813.9,960.9,812.3,959,810.6z"/>
<path class="st0" d="M1006.8,232c1.5,0.5,2.7,1,3.9,1.4c-0.7,1.1-1.2,2.5-2.2,3.1c-2.5,1.5-5.3,2.7-8,3.9c-0.9,0.4-1.9,0.3-2.9,0.4
	c0.4-1.1,0.4-2.7,1.2-3.3C1001.1,235.5,1003.8,233.8,1006.8,232z"/>
<path class="st0" d="M162.7,712.3c-1.8-2.8,0.3-4.4,1.9-5.1c2.7-1.2,5.7-1.7,8.7-2.3c0.2,0,0.7,1.6,1,2.5
	C170.3,708.7,167.8,713.2,162.7,712.3z"/>
<path class="st0" d="M362.9-6.4c1.7-3,3.4-2.9,5,0.1c1.2,2.2,2,4.6,2.6,6.9c0.2,0.8-0.4,2.1-1.1,2.9c-0.2,0.3-2.1-0.3-2.4-0.9
	C365.5-0.1,364.3-3.1,362.9-6.4z"/>
<path class="st0" d="M1075.7,199.5c-1.4,0-2.5,0.2-3.5-0.1c-0.5-0.2-1.1-1.5-0.9-2c1.1-2.9,8.1-6.4,11.1-5.6
	c0.6,0.2,1.6,0.7,1.6,1.2c0.1,0.5-0.5,1.4-1.1,1.8C1080.7,196.4,1078.4,197.9,1075.7,199.5z"/>
<path class="st0" d="M1060,284.4c3.2-2.8,6.7-4.6,10.7-4.4c1.1,0.1,2.1,1.1,3.2,1.6c-0.8,0.5-1.6,1-2.4,1.4c-2.9,1.4-5.8,2.7-8.7,4
	C1060.1,288.2,1059.6,287.8,1060,284.4z"/>
<path class="st0" d="M224.4,188.6c1.5,1.1,2.6,2.1,3.6,3.3c0.4,0.5,0.6,1.2,0.9,1.8c-0.8,0.4-1.8,1.2-2.2,1c-3.4-1.8-6.8-3.6-10-5.7
	c-1.9-1.3-0.7-2.8,0.9-2.6C219.8,186.7,221.9,187.9,224.4,188.6z"/>
<path class="st0" d="M117,313c-0.9-1.3-2.5-2.8-2.3-3.3c0.7-1.5,1.9-2.7,4.2-1.2c2.3,1.5,5,2.1,7.5,3.3c0.7,0.4,1.1,1.4,1.7,2.1
	c-0.8,0.3-1.6,0.9-2.3,0.8C123,314.4,120.1,313.8,117,313z"/>
<path class="st0" d="M173.5,621.4c3.4-2,6.6-4,9.9-5.5c0.9-0.4,2.5,0.6,3.7,1c-0.6,0.9-1,2.2-1.8,2.6c-2.8,1.5-5.7,2.9-8.7,3.9
	C175.8,623.7,174.5,622.3,173.5,621.4z"/>
<path class="st0" d="M1096.4,354.1c-3.6,1-7,1.9-10.4,2.4c-0.8,0.1-1.7-0.9-2.6-1.5c0.3-0.5,0.5-1.4,1-1.5c3.6-1.1,7.3-2.2,11-3.1
	c0.8-0.2,1.7,0.6,2.6,1C1097.5,352.3,1097,353.1,1096.4,354.1z"/>
<path class="st0" d="M1023.8,711c1.7,0.8,3.2,1.4,4.3,2.5c0.9,0.9,1.2,2.2,1.8,3.4c-1,0.4-2.3,1.3-3,1c-3-1.5-5.9-3.3-8.7-5.2
	c-0.6-0.4-0.8-1.5-1.2-2.4c1-0.3,2.1-0.9,3.1-0.8C1021.3,709.7,1022.3,710.5,1023.8,711z"/>
<path class="st0" d="M128.5,416.9c-4.2,0-8.1,0.1-11.9-0.1c-0.9,0-1.9-0.8-2.8-1.3c0.6-1,0.9-2.5,1.8-3c2.1-1.4,12.2,1.3,13.6,3.4
	C129.3,416.1,129,416.6,128.5,416.9z"/>
<path class="st0" d="M149.9,549.1c3.4-0.8,6.5-1.6,9.7-2.1c0.8-0.1,1.8,0.6,2.6,0.9c-0.5,0.6-0.9,1.6-1.5,1.8
	c-3.5,1.5-7,2.8-10.5,4.1c-0.3,0.1-1.4-0.7-1.4-0.9C149,551.7,149.4,550.5,149.9,549.1z"/>
<path class="st0" d="M236.6,782c3-2.2,5.7-4.3,8.6-6.1c0.7-0.4,1.9,0.1,2.9,0.1c-0.4,0.6-0.7,1.4-1.2,1.9c-2.1,2.2-4.3,4.5-6.6,6.5
	c-1,0.9-2.6,2.2-3.4,1.9C234.6,785.5,235.9,783.7,236.6,782z"/>
<path class="st0" d="M205.1,337.2c-2.6-0.3-4.8-0.3-6.9-0.9c-1.2-0.3-2.1-1.7-3.1-2.5c1.1-0.7,2.3-2,3.2-1.9c3.5,0.5,7,1.5,10.5,2.4
	c0.4,0.1,1,1,0.9,1.4c0,0.5-0.6,1.2-1.1,1.3C207.5,337.4,206.5,337.2,205.1,337.2z"/>
<path class="st0" d="M1003.9,120c2-1.5,3.2-5.1,6.1-2.4c0.4,0.3-1.7,3.8-3,5.3c-1.3,1.5-3.2,2.7-4.9,3.7c-0.6,0.4-1.6,0.1-2.5,0.2
	c0.1-1-0.1-2.2,0.4-2.9C1001,122.6,1002.4,121.4,1003.9,120z"/>
<path class="st0" d="M1130.8,591.6c1.1,2.2,1.1,3.8-1.8,3.3c-2.6-0.5-5.2-1.1-7.7-2c-0.9-0.3-1.6-1.5-2.4-2.4c1-0.6,2.2-1.9,3.1-1.7
	C1125,589.4,1127.8,590.5,1130.8,591.6z"/>
<path class="st0" d="M184.8,256.2c0.2-2.4,0.7-3.1,2.6-2.5c2.6,0.8,5.1,1.9,7.5,3.1c0.8,0.4,1.2,1.8,1.7,2.8c-0.9,0.3-1.8,1-2.6,1
	C190.4,260.5,187.3,259.1,184.8,256.2z"/>
<path class="st0" d="M404.5,65.4c1.1,0.2,2.3,0.3,2.8,1c2.3,2.8,4.7,5.7,4.3,9.8c-0.1,0.5-0.5,1.1-0.9,1.5c-0.1,0.1-0.8-0.3-1-0.6
	c-1.9-2.9-3.9-5.8-5.7-8.9C403.6,67.6,404.2,66.5,404.5,65.4z"/>
<path class="st0" d="M814.1,21.5c1.4-2.9,2.8-5.4,4.4-7.8c0.2-0.4,1.4-0.5,1.7-0.3c0.4,0.3,0.7,1.2,0.5,1.8c-1.1,3.5-2.3,7-3.6,10.4
	c-0.2,0.6-1.1,1.2-1.6,1.2c-0.5,0-1.2-0.9-1.4-1.5C813.9,24.2,814.1,23,814.1,21.5z"/>
<path class="st0" d="M297.7,72c0.3,0.5,0.5,0.9,0.4,1.2c-0.1,1.2-0.2,2.5-0.3,3.7c-0.8-0.6-1.7-1.2-2.4-1.9
	c-1.8-1.8-3.7-3.5-5.4-5.5c-0.7-0.8-0.7-2.1-1-3.1c1.2-0.1,2.9-0.7,3.6-0.2C294.5,67.8,295.9,69.9,297.7,72z"/>
<path class="st0" d="M1057.7,644.6c0.4,0.4,0.6,0.5,0.7,0.7c1,1.2,2.1,2.3,3.2,3.5c-1.6,0.1-3.2,0.5-4.7,0.1
	c-2.3-0.6-4.5-1.5-6.6-2.6c-0.8-0.4-1.1-1.5-1.7-2.3c0.9-0.4,1.8-1.2,2.6-1.1C1053.3,643.3,1055.4,643.9,1057.7,644.6z"/>
<path class="st0" d="M456.4,7.8c0.9,1.7,1.8,3.1,2.3,4.7c0.2,0.7-0.2,1.9-0.8,2.5c-0.3,0.3-1.6,0.1-2.3-0.4
	c-2.7-1.9-4.8-8.1-3.7-11.2c0.2-0.4,0.7-1.1,0.9-1.1c0.5,0.1,1.1,0.5,1.3,1C455,4.7,455.5,6.2,456.4,7.8z"/>
<path class="st0" d="M949.3,833.5c-0.4-1.7-0.6-3.3-0.9-4.8c1.4,0.9,2.9,1.7,4.2,2.8c1.5,1.2,2.8,2.6,4,4c0.4,0.6,0.4,2,0,2.5
	c-0.4,0.5-2,0.6-2.5,0.2C952.5,836.8,951,835.2,949.3,833.5z"/>
<path class="st0" d="M1111.1,585.1c1.8,2.6,0.9,3.9-1.7,3.6c-2.6-0.3-5.1-1.3-7.6-2.1c-0.8-0.2-1.4-0.9-2.1-1.3
	c0.9-0.7,1.8-1.9,2.6-1.8C1105.2,583.7,1108,584.3,1111.1,585.1z"/>
<path class="st0" d="M1063.9,202.8c0.3,0.6,0.7,1.2,0.6,1.2c-2.8,1.9-5.6,3.7-8.5,5.4c-0.4,0.3-1.2-0.1-1.8-0.1
	c0.2-0.5,0.3-1.1,0.5-1.6C1056.8,202.7,1059.6,201,1063.9,202.8z"/>
<path class="st0" d="M185,701.7c-1.3-0.4-2.1-0.7-3-1.1c0.4-0.7,0.6-1.6,1.2-2.1c1.7-1.4,3.5-2.6,5.3-3.7c0.4-0.3,1.6,0.1,2,0.5
	c0.3,0.4,0.3,1.6-0.1,2C188.8,698.9,187,700.3,185,701.7z"/>
<path class="st0" d="M143.4,316.9c3,2.8-1.1,2-1.2,3.2c-2.4-0.7-4.7-1.4-7-2.2c-0.4-0.2-0.7-0.9-1-1.3c0.5-0.3,1-1,1.5-0.9
	C138.1,315.9,140.6,316.3,143.4,316.9z"/>
<path class="st0" d="M262.5,705.4c-2.3-1.4-1.9-3.3-0.5-4.3c1.5-1.2,3.6-1.7,5.4-2.4c0.2,0.8,0.9,2,0.6,2.3
	C266.4,702.6,264.5,704.1,262.5,705.4z"/>
<path class="st0" d="M1057.7,528.9c-2.5,3.3-5.3,1.1-8,0.9c0.1-0.9-0.1-2.1,0.4-2.5C1052.6,525.4,1056,525.2,1057.7,528.9z"/>
<path class="st0" d="M376.7,18.6c-1.4-1.6-2.6-3-3.6-4.5c-0.2-0.2,0.3-1.3,0.8-1.5c0.6-0.3,1.8-0.5,2-0.2c1.2,1.9,2.3,3.9,3.3,5.9
	c0.2,0.4-0.3,1.1-0.5,1.6C378.1,19.6,377.5,19.2,376.7,18.6z"/>
<path class="st0" d="M985.7,200.4c-1.6,1.4-3.3,2.8-5.2,3.8c-0.4,0.2-1.6-1-2.4-1.6c1.1-1.3,2.1-3.1,3.5-3.7
	C982.5,198.5,984.2,199.8,985.7,200.4z"/>
<path class="st0" d="M195.2,376.9c-1.9,0-3.7,0-5.4-0.5c-0.5-0.1-0.6-1.6-0.9-2.5c1.1-0.3,2.4-1.2,3.4-0.9c1.7,0.5,3.3,1.7,4.9,2.7
	C196.6,376,196,376.3,195.2,376.9z"/>
<path class="st0" d="M373,96.6c-0.7-0.3-1.1-0.5-1.2-0.8c-0.6-1.5-1.1-3-1.6-4.5c0.7-0.1,1.8-0.6,2.1-0.3c1.4,1.4,3.1,2.8,3.7,4.6
	C376.4,96.8,375.1,98.2,373,96.6z"/>
<path class="st0" d="M701.1,21.5c-0.3,1.5-0.7,2.7-1,3.9c-1-1.2-2.6-2.4-2.7-3.7c-0.1-1.3,1.2-2.7,1.9-4.1
	C699.9,18.8,700.5,19.9,701.1,21.5z"/>
<path class="st0" d="M1090.6,693c-1-1.2-3-2.1-0.8-3.3c1.1-0.6,2.9-0.6,4.1-0.1c0.7,0.3,0.8,2.1,1.1,3.3
	C1093.6,693,1092.2,693.1,1090.6,693z"/>
<path class="st0" d="M154,215c-1.3-1.1-2.2-2.3-3.1-3.4c0.8-0.4,2-1.4,2.4-1.2c1.4,0.8,3.1,1.8,3.6,3.1
	C157.4,214.9,156.5,216.8,154,215z"/>
<path class="st0" d="M1126.2,287.5c0.4,3.4-1.9,5.3-4.5,4c-0.5-0.3-1.2-1.4-1.1-1.7c0.5-1,1.2-2.3,2.1-2.7
	C1123.6,286.6,1124.9,287.2,1126.2,287.5z"/>
<path class="st0" d="M120.1,612.9c1.7-0.3,3.1-0.5,4.6-0.3c0.3,0,0.8,1.7,0.6,1.9c-1.1,0.9-2.3,2-3.6,2.1
	C119.2,616.7,118.4,615.4,120.1,612.9z"/>
</svg>
